<svg id="Lag_1" data-name="Lag 1" xmlns="http://www.w3.org/2000/svg" xmlns:xlink="http://www.w3.org/1999/xlink" width="1080" height="1920" viewBox="0 0 1080 1920"><defs><style>.cls-1{fill:url(#Ikke-navngivet_forløb_26);}.cls-2{fill:url(#Ikke-navngivet_forløb_14);}.cls-3{fill:#aad593;}.cls-4{fill:url(#Ikke-navngivet_forløb_165);}.cls-5{fill:#29abe2;}.cls-10,.cls-12,.cls-14,.cls-6,.cls-7{fill:none;stroke-miterlimit:10;}.cls-6{stroke:#666;stroke-width:2px;}.cls-10,.cls-7{stroke:#999;}.cls-7{stroke-width:4px;}.cls-8{fill:#4d4d4d;}.cls-9{fill:#fff;}.cls-11{fill:#e6e6e6;}.cls-12,.cls-14{stroke:#fff;}.cls-12{stroke-width:4.52px;}.cls-13{opacity:0.6;}.cls-14{stroke-width:3px;}.cls-15{opacity:0.56;}.cls-16{opacity:0.44;}.cls-17{opacity:0.33;}.cls-18{opacity:0.26;}.cls-19{opacity:0.19;}.cls-20{opacity:0.16;}.cls-21{opacity:0.09;}.cls-22{fill:#ffda4e;}</style><linearGradient id="Ikke-navngivet_forløb_26" x1="540.5" y1="1922" x2="540.5" y2="2" gradientUnits="userSpaceOnUse"><stop offset="0.1" stop-color="#fff9bb"/><stop offset="0.94" stop-color="#b6ffce"/></linearGradient><linearGradient id="Ikke-navngivet_forløb_14" x1="0.5" y1="962" x2="1080.5" y2="962" gradientUnits="userSpaceOnUse"><stop offset="0.1" stop-color="#feffbb"/><stop offset="0.94" stop-color="aqua"/></linearGradient><linearGradient id="Ikke-navngivet_forløb_165" x1="942" y1="987.5" x2="137" y2="987.5" gradientUnits="userSpaceOnUse"><stop offset="0" stop-color="#333"/><stop offset="0" stop-color="#2e2e2e"/><stop offset="0" stop-color="#232323"/><stop offset="0" stop-color="#1c1c1c"/><stop offset="0" stop-color="#1a1a1a"/><stop offset="0.02" stop-color="#212121"/><stop offset="0.05" stop-color="#343434"/><stop offset="0.08" stop-color="#4d4d4d"/><stop offset="0.49" stop-color="#4f4f4f"/><stop offset="0.64" stop-color="#565656"/><stop offset="0.75" stop-color="#616161"/><stop offset="0.83" stop-color="#727272"/><stop offset="0.9" stop-color="#888"/><stop offset="0.97" stop-color="#a3a3a3"/><stop offset="1" stop-color="#b3b3b3"/></linearGradient></defs><title>background</title><rect class="cls-1" x="0.5" y="2" width="1080" height="1920"/><path class="cls-2" d="M1079.44,3.06V1920.94H1.56V3.06H1079.44M1080.5,2H.5V1922h1080V2Z"/><polygon class="cls-3" points="593.42 1923.15 724 1683.93 124.17 1478.5 65 1924.5 593.42 1923.15"/><path class="cls-3" d="M887,440.88l47-40c36.73-49,97-57.56,120.94-40,19.82,14.58,22.24,52.79-.12,88.66a616.79,616.79,0,0,1-62.45,88.83A668.1,668.1,0,0,1,887,638.5Z"/><rect class="cls-4" x="137" y="237.5" width="805" height="1500" rx="100.88" ry="100.88"/><rect x="148.5" y="272" width="793" height="1465" rx="97.4" ry="97.4"/><path d="M844.1,272.5A97.2,97.2,0,0,1,941,369.4V1639.6a97.2,97.2,0,0,1-96.9,96.9H245.9a97.2,97.2,0,0,1-96.9-96.9V369.4a97.2,97.2,0,0,1,96.9-96.9H844.1m0-1H245.9c-53.84,0-97.9,44.06-97.9,97.9V1639.6c0,53.84,44.06,97.9,97.9,97.9H844.1c53.84,0,97.9-44.06,97.9-97.9V369.4c0-53.84-44.06-97.9-97.9-97.9Z"/><rect class="cls-5" x="170" y="390.5" width="745" height="1207"/><circle class="cls-6" cx="374" cy="337.5" r="15"/><line class="cls-7" x1="430" y1="337.5" x2="659" y2="337.5"/><circle class="cls-8" cx="539.5" cy="1670" r="37.5"/><rect class="cls-9" x="170" y="510.5" width="742" height="1087" rx="12" ry="12"/><line class="cls-10" x1="169.5" y1="636" x2="914.5" y2="636"/><line class="cls-10" x1="167" y1="929" x2="912" y2="929"/><line class="cls-10" x1="167" y1="784" x2="912" y2="784"/><line class="cls-10" x1="167" y1="1074" x2="912" y2="1074"/><line class="cls-10" x1="167" y1="1219" x2="912" y2="1219"/><line class="cls-10" x1="167" y1="1364" x2="912" y2="1364"/><line class="cls-10" x1="167" y1="1509" x2="912" y2="1509"/><circle class="cls-11" cx="241.5" cy="710" r="48.5"/><circle class="cls-11" cx="241.5" cy="858" r="48.5"/><circle class="cls-11" cx="241.5" cy="1004" r="48.5"/><circle class="cls-11" cx="241.5" cy="1150" r="48.5"/><circle class="cls-11" cx="241.5" cy="1291" r="48.5"/><circle class="cls-11" cx="241.5" cy="1437" r="48.5"/><circle class="cls-11" cx="241.5" cy="571" r="48.5"/><circle class="cls-12" cx="289.5" cy="453" r="20"/><line class="cls-12" x1="322.5" y1="483" x2="304.5" y2="468"/><g class="cls-13"><rect class="cls-9" x="336" y="432.5" width="186" height="52" rx="12" ry="12"/></g><path class="cls-9" d="M856,476.5H837a12,12,0,0,1-12-12v-20a12,12,0,0,1,12-12h19a12,12,0,0,1,12,12v20a12,12,0,0,1-12,12Z"/><polygon class="cls-9" points="868 485.5 854 473.24 868 465.5 868 485.5"/><line class="cls-14" x1="868" y1="424.5" x2="892" y2="423.5"/><line class="cls-14" x1="879.5" y1="414" x2="879.5" y2="436"/><rect class="cls-15" x="323" y="535.5" width="312" height="36" rx="12" ry="12"/><rect class="cls-16" x="323" y="663.5" width="188" height="36" rx="12" ry="12"/><rect class="cls-17" x="323" y="818.5" width="237" height="36" rx="12" ry="12"/><rect class="cls-18" x="323" y="967.5" width="283" height="37" rx="12" ry="12"/><rect class="cls-19" x="323" y="1110.5" width="112" height="40" rx="12" ry="12"/><rect class="cls-20" x="323" y="1262.5" width="237" height="36" rx="12" ry="12"/><rect class="cls-21" x="323" y="1407.5" width="188" height="36" rx="12" ry="12"/><circle class="cls-22" cx="860" cy="576.5" r="21"/><circle class="cls-22" cx="861" cy="858.5" r="21"/><circle class="cls-22" cx="860" cy="710.5" r="21"/></svg>
