<svg id="Lag_1" data-name="Lag 1" xmlns="http://www.w3.org/2000/svg" xmlns:xlink="http://www.w3.org/1999/xlink" width="1080" height="1920" viewBox="0 0 1080 1920"><defs><style>.cls-1{fill:url(#Ikke-navngivet_forløb_26);}.cls-2{fill:url(#Ikke-navngivet_forløb_14);}.cls-3{fill:#aad593;}.cls-4{fill:url(#Ikke-navngivet_forløb_165);}.cls-5{fill:#ccc;}.cls-6,.cls-7{fill:none;stroke-miterlimit:10;}.cls-6{stroke:#666;stroke-width:2px;}.cls-7{stroke:#999;stroke-width:4px;}.cls-8{fill:#4d4d4d;}</style><linearGradient id="Ikke-navngivet_forløb_26" x1="540.5" y1="1922" x2="540.5" y2="2" gradientUnits="userSpaceOnUse"><stop offset="0.1" stop-color="#fff9bb"/><stop offset="0.94" stop-color="#b6ffce"/></linearGradient><linearGradient id="Ikke-navngivet_forløb_14" x1="0.5" y1="962" x2="1080.5" y2="962" gradientUnits="userSpaceOnUse"><stop offset="0.1" stop-color="#feffbb"/><stop offset="0.94" stop-color="aqua"/></linearGradient><linearGradient id="Ikke-navngivet_forløb_165" x1="942" y1="987.5" x2="137" y2="987.5" gradientUnits="userSpaceOnUse"><stop offset="0" stop-color="#333"/><stop offset="0" stop-color="#2e2e2e"/><stop offset="0" stop-color="#232323"/><stop offset="0" stop-color="#1c1c1c"/><stop offset="0" stop-color="#1a1a1a"/><stop offset="0.02" stop-color="#212121"/><stop offset="0.05" stop-color="#343434"/><stop offset="0.08" stop-color="#4d4d4d"/><stop offset="0.49" stop-color="#4f4f4f"/><stop offset="0.64" stop-color="#565656"/><stop offset="0.75" stop-color="#616161"/><stop offset="0.83" stop-color="#727272"/><stop offset="0.9" stop-color="#888"/><stop offset="0.97" stop-color="#a3a3a3"/><stop offset="1" stop-color="#b3b3b3"/></linearGradient></defs><title>background</title><rect class="cls-1" x="0.5" y="2" width="1080" height="1920"/><path class="cls-2" d="M1079.44,3.06V1920.94H1.56V3.06H1079.44M1080.5,2H.5V1922h1080V2Z"/><path class="cls-3" d="M887,440.88l47-40c36.73-49,97-57.56,120.94-40,19.82,14.58,22.24,52.79-.12,88.66a616.79,616.79,0,0,1-62.45,88.83A668.1,668.1,0,0,1,887,638.5Z"/><rect class="cls-4" x="137" y="237.5" width="805" height="1500" rx="100.88" ry="100.88"/><polygon class="cls-3" points="593.42 1923.15 724 1683.93 124.17 1478.5 65 1924.5 593.42 1923.15"/><rect x="148.5" y="272" width="793" height="1465" rx="97.4" ry="97.4"/><path d="M844.1,272.5A97.2,97.2,0,0,1,941,369.4V1639.6a97.2,97.2,0,0,1-96.9,96.9H245.9a97.2,97.2,0,0,1-96.9-96.9V369.4a97.2,97.2,0,0,1,96.9-96.9H844.1m0-1H245.9c-53.84,0-97.9,44.06-97.9,97.9V1639.6c0,53.84,44.06,97.9,97.9,97.9H844.1c53.84,0,97.9-44.06,97.9-97.9V369.4c0-53.84-44.06-97.9-97.9-97.9Z"/><rect class="cls-5" x="170" y="390.5" width="745" height="1207"/><circle class="cls-6" cx="374" cy="337.5" r="15"/><line class="cls-7" x1="430" y1="337.5" x2="659" y2="337.5"/><circle class="cls-8" cx="539.5" cy="1670" r="37.5"/></svg>
