<svg id="Lag_1" data-name="Lag 1" xmlns="http://www.w3.org/2000/svg" xmlns:xlink="http://www.w3.org/1999/xlink" width="1080" height="1920" viewBox="0 0 1080 1920"><defs><style>.cls-1{fill:url(#Ikke-navngivet_forløb_26);}.cls-2{fill:url(#Ikke-navngivet_forløb_14);}.cls-3{fill:url(#Ikke-navngivet_forløb_165);}.cls-4{fill:#ccc;}.cls-5,.cls-6{fill:none;stroke-miterlimit:10;}.cls-5{stroke:#666;stroke-width:2px;}.cls-6{stroke:#999;stroke-width:4px;}</style><linearGradient id="Ikke-navngivet_forløb_26" x1="539" y1="1920" x2="539" gradientUnits="userSpaceOnUse"><stop offset="0.1" stop-color="#fff9bb"/><stop offset="0.94" stop-color="#b6ffce"/></linearGradient><linearGradient id="Ikke-navngivet_forløb_14" x1="-1" y1="960" x2="1079" y2="960" gradientUnits="userSpaceOnUse"><stop offset="0.1" stop-color="#feffbb"/><stop offset="0.94" stop-color="aqua"/></linearGradient><linearGradient id="Ikke-navngivet_forløb_165" x1="949" y1="862" x2="144" y2="862" gradientUnits="userSpaceOnUse"><stop offset="0" stop-color="#333"/><stop offset="0" stop-color="#2e2e2e"/><stop offset="0" stop-color="#232323"/><stop offset="0" stop-color="#1c1c1c"/><stop offset="0" stop-color="#1a1a1a"/><stop offset="0.02" stop-color="#212121"/><stop offset="0.05" stop-color="#343434"/><stop offset="0.08" stop-color="#4d4d4d"/><stop offset="0.49" stop-color="#4f4f4f"/><stop offset="0.64" stop-color="#565656"/><stop offset="0.75" stop-color="#616161"/><stop offset="0.83" stop-color="#727272"/><stop offset="0.9" stop-color="#888"/><stop offset="0.97" stop-color="#a3a3a3"/><stop offset="1" stop-color="#b3b3b3"/></linearGradient></defs><title>background</title><rect class="cls-1" x="-1" width="1080" height="1920"/><path class="cls-2" d="M1077.94,1.06V1918.94H.06V1.06H1077.94M1079,0H-1V1920H1079V0Z"/><rect class="cls-3" x="144" y="112" width="805" height="1500" rx="100.88" ry="100.88"/><rect x="155.5" y="146.5" width="793" height="1465" rx="97.4" ry="97.4"/><path d="M851.1,147A97.2,97.2,0,0,1,948,243.9V1514.1a97.2,97.2,0,0,1-96.9,96.9H252.9a97.2,97.2,0,0,1-96.9-96.9V243.9A97.2,97.2,0,0,1,252.9,147H851.1m0-1H252.9c-53.84,0-97.9,44.06-97.9,97.9V1514.1c0,53.84,44.06,97.9,97.9,97.9H851.1c53.84,0,97.9-44.06,97.9-97.9V243.9c0-53.84-44.06-97.9-97.9-97.9Z"/><rect class="cls-4" x="177" y="265" width="745" height="1207"/><circle class="cls-5" cx="381" cy="212" r="15"/><line class="cls-6" x1="437" y1="212" x2="666" y2="212"/></svg>
