<svg id="Lag_1" data-name="Lag 1" xmlns="http://www.w3.org/2000/svg" xmlns:xlink="http://www.w3.org/1999/xlink" width="745" height="1207" viewBox="0 0 745 1207"><defs><style>.cls-1{fill:#b5afdd;}.cls-2{fill:#cfe9ee;}.cls-3{fill:url(#Ikke-navngivet_forløb_12);}.cls-4{fill:#e8ffff;}.cls-5{fill:#7997aa;opacity:0.47;}.cls-6{fill:#49788d;}.cls-7{fill:#5690c6;}.cls-8{fill:#fff;}.cls-10,.cls-12,.cls-9{fill:#f2f2f2;}.cls-9{opacity:0.83;}.cls-10{opacity:0.66;}.cls-11,.cls-20{fill:#465792;}.cls-11{opacity:0.69;}.cls-13{fill:none;stroke:#5f5aa3;stroke-miterlimit:10;stroke-width:1.47px;}.cls-14{fill:#2e5692;}.cls-15{fill:#508fb7;}.cls-16{fill:#506797;}.cls-17{fill:#5079a1;}.cls-18{fill:#baafd7;}.cls-19{fill:#3a4385;}.cls-21{fill:#003d74;}</style><linearGradient id="Ikke-navngivet_forløb_12" x1="350.22" y1="1324.93" x2="642.58" y2="1156.22" gradientTransform="translate(177.49 -227.11) scale(0.89 1)" gradientUnits="userSpaceOnUse"><stop offset="0" stop-color="gray"/><stop offset="0.07" stop-color="#a4a4a4"/><stop offset="0.15" stop-color="#c5c5c5"/><stop offset="0.24" stop-color="#dedede"/><stop offset="0.33" stop-color="#f1f1f1"/><stop offset="0.42" stop-color="#fbfbfb"/><stop offset="0.52" stop-color="#fff"/></linearGradient></defs><title>café</title><rect class="cls-1" width="745" height="1207"/><rect class="cls-2" y="381" width="745" height="826"/><rect class="cls-3" x="530.36" y="839.96" width="178.04" height="347" rx="12" ry="12" transform="translate(217.68 -104.29) rotate(11.66)"/><ellipse class="cls-4" cx="336" cy="1013.5" rx="322" ry="181.5"/><path class="cls-5" d="M130,1079,77.35,998.27A23.16,23.16,0,0,1,74,990c-2.35-12.55,6.39-27.3,15-28,6.72-.55,12,7.57,14,6,1.49-1.2-2.06-5.6-2-12,.09-9.62,8.27-16.41,9-17,9.31-7.51,24.52-7.63,28-2,2.66,4.3-1.39,12.14-2,12-.83-.18-1.36-16.35,7-23,7.45-5.93,22.25-4.51,28,3,6.5,8.5-3.19,18.78,1,28,7.29,16.13,48.94,11.17,74.92,9.79,41.06-2.18,81.73,9.12,122.66,13C417.28,984.37,492.3,997,610,1033v32Z"/><polygon class="cls-6" points="158 1065 158 929 610 979 610 1065 158 1065"/><path class="cls-7" d="M152,960,279,860,610,979Z"/><circle class="cls-8" cx="183" cy="914" r="30"/><circle class="cls-8" cx="266.5" cy="858.5" r="28.5"/><circle class="cls-8" cx="217.5" cy="879.5" r="36.5"/><path class="cls-8" d="M158,1001l452,8.44V1033l-452-4Z"/><circle class="cls-8" cx="166" cy="945" r="30"/><path class="cls-9" d="M52.88,829.68q-9.94-150-19.88-299.9c13.44,8.83,48.82,29.43,97.18,27.26,40.06-1.79,69.27-18.32,82.82-27.26q-10.49,150-21,299.9a290.27,290.27,0,0,1-139.14,0Z"/><ellipse class="cls-10" cx="123" cy="530.37" rx="90" ry="18.37"/><path class="cls-11" d="M167.87,814.27H71.5a12,12,0,0,1-12-12Q53.76,685.14,48,568a10.75,10.75,0,0,1,0-7c2.33-6.18,11.86-9.93,23.5-8h96.37c1.83-.37,13.33-2.49,22.13,5a23.27,23.27,0,0,1,6,8q-8.07,118.14-16.13,236.27Z"/><ellipse class="cls-12" cx="76.62" cy="781.67" rx="6.07" ry="6.52"/><ellipse class="cls-12" cx="103.67" cy="737.22" rx="7.73" ry="8.3"/><ellipse class="cls-12" cx="75.52" cy="680.91" rx="4.97" ry="5.33"/><ellipse class="cls-12" cx="103.67" cy="638.83" rx="7.73" ry="8.3"/><ellipse class="cls-12" cx="107.54" cy="799.45" rx="3.87" ry="4.15"/><ellipse class="cls-12" cx="151.71" cy="780.48" rx="4.97" ry="5.33"/><ellipse class="cls-12" cx="125.21" cy="791.15" rx="2.76" ry="2.96"/><ellipse class="cls-12" cx="151.16" cy="675.58" rx="4.42" ry="4.74"/><ellipse class="cls-12" cx="155.23" cy="593.08" rx="6.07" ry="6.52"/><ellipse class="cls-13" cx="121" cy="567" rx="69.5" ry="11.5"/><ellipse class="cls-14" cx="356.5" cy="454.28" rx="101.5" ry="38.28"/><path class="cls-15" d="M442,404c0,37.56-38.28,68-85.5,68S271,441.56,271,404"/><ellipse class="cls-16" cx="356.5" cy="404" rx="85.5" ry="13"/><path class="cls-17" d="M282.19,409.6c-4.84-4.66-11.16-5.91-16.42-3.15-5,2.61-7.16,7.85-7.77,9.43.08,1.86.22,3.86.47,6,.32,2.8,2.45,8.94,3.25,10,1.9,2.47,22.59,20.19,42.92,28L311,462.5a102.66,102.66,0,0,0-10.68-9.95c-7.06-5.69-20.92-15.21-30.23-24.1-1.06-1-3.22-3.14-3.45-6.28-.24-3.29,1.67-7.24,4.32-8.38,5.14-2.23,11.13,7,13,5.23C284.64,418.33,284.62,416,282.19,409.6Z"/><path class="cls-8" d="M278,406.58A253.59,253.59,0,0,0,338,390c14.44-5.71,41.72-5.83,98.11,18.75A113,113,0,0,1,422,413c-9.49,2.19-16.68,2.55-29,3-13.35.49-24.64.8-33.25,1-5.71.16-13.11.24-21.75,0-7.83-.22-7.83-.46-19-1-22-1.07-29.22-.5-37-6A29.2,29.2,0,0,1,278,406.58Z"/><path class="cls-18" d="M328,402h27a66.82,66.82,0,0,0,8-1c5.54-1,8.43-1.62,10-4a7.58,7.58,0,0,0,1-5c.75.9,2.82,3.6,2,6-.52,1.51-2,2.42-7,4a100.55,100.55,0,0,1-12,3,48,48,0,0,1-11,1A48.52,48.52,0,0,1,328,402Z"/><path class="cls-8" d="M331.64,931c-16.73,4.16-30.49-4.49-32.68-15-1.4-6.76,1.43-16.92,9.08-21s15.5.48,16.34,1c-1.07-2.12-4-8.59-1.81-14,3-7.34,15-11.36,28.13-5q2.28-9.5,4.54-19c9.78,17,19.72,22.86,27.23,25,12.79,3.64,22.08-2.58,33.59,4,7.73,4.43,12.12,12.15,14.63,18,.46,1.4,3.23,10.2-1,18-4.52,8.31-15.18,12.12-25.42,8Z"/><path class="cls-19" d="M469,380H218a52.89,52.89,0,0,0-8.48-3.52c-19.69-6.26-38.08.62-46.52,4.52,4.64-16.86,10.4-37.84,17-62,21.31-78,22.05-81.72,23-89,3.36-25.71,9.48-51.12,11-77,.26-4.37.69-13.08,6-22,6.6-11.09,17.55-17.13,34-23,15.53-5.54,40.13-12.4,73-14,28.92-4.57,95.21-10.62,142,30a122.39,122.39,0,0,1,12,12l54,207a161,161,0,0,1-16,13A164.85,164.85,0,0,1,469,380Z"/><path class="cls-19" d="M346,135a83.13,83.13,0,0,1-24-8,85.23,85.23,0,0,1-32-29,120.45,120.45,0,0,1-28-80V0H432.33C432,7.33,431.6,17.64,431,30c-1.41,28.85-2,33.37-3,38-2.08,9.55-6.82,23.43-19,39-10.29,7-18.19,12.59-23,16-11.46,8.11-16.22,11.7-24,13A37,37,0,0,1,346,135Z"/><path class="cls-20" d="M165,426a46.32,46.32,0,0,1-5-18c-.22-3.67.12-6,2-20,2-15,1.84-14,2-15a183.18,183.18,0,0,1,9-34A1620.19,1620.19,0,0,0,282,186q15.21-24.23,29-48c-6.56-10.89-13.75-16.71-19-20-11.57-7.24-18.52-5.16-26-14-3.26-3.85-4.64-7.43-11-14-4.27-4.41-7.29-6.56-7-7,.9-1.36,30.64,16.59,31,16,.24-.39-12.88-7.85-26-22-2.72-2.93-6.66-7.19-6-8,2-2.49,45.76,29.34,46,29a129.14,129.14,0,0,1-23-21c-5.22-6.19-8.55-11.53-8-12,.78-.68,8.33,9.56,22,17a68.81,68.81,0,0,0,15,6l30,17c18.22,12.93,28.64,28.24,25,39a14.17,14.17,0,0,1-3,5l-15,14c-5.37,14.7-59.58,161.88-103,222-10.36,14.34-32.58,45.12-59,43A33.83,33.83,0,0,1,165,426Z"/><path class="cls-20" d="M541.66,426a46.15,46.15,0,0,0,5-18c.22-3.67-.12-6-2-20-2-15-1.83-14-2-15a182.38,182.38,0,0,0-9-34,1620.19,1620.19,0,0,1-109-153q-15.21-24.23-29-48A162.78,162.78,0,0,1,432,109c9.66-5.6,21.18-10.84,22-20,.39-4.33-1.66-9-3-9s-1.1,5.44-5,10c-3.78,4.41-10.15,6.42-11.34,5-2.11-2.52,14-13.72,11.34-25-1.31-5.51-6.78-9.69-8-9-1,.56,1.41,4.06,1,9-.24,2.94-1.5,6.58-11,16-7.07,7-13.91,12.47-14.34,12S425.61,89.49,428,76c1.44-8.12-1.32-16-3-16s-1.49,8.11-7,17a39.08,39.08,0,0,1-10.34,11l-30,17c-18.21,12.93-28.64,28.24-25,39a14.32,14.32,0,0,0,3,5l15,14c5.37,14.7,59.59,161.88,103,222,10.36,14.34,32.58,45.12,59,43A33.73,33.73,0,0,0,541.66,426Z"/><path class="cls-21" d="M700.34,946.55c22.37,49.59,11.9,102.69-23.37,118.59a50.6,50.6,0,0,1-13.69,4c-32.88,4.75-71.1-21.58-90.67-65-22.36-49.6-11.9-102.69,23.38-118.6S678,897,700.34,946.55Z"/><path class="cls-21" d="M717.84,1207A727,727,0,0,0,697,1136c-8.21-23.42-14.66-37.83-25-53a183.06,183.06,0,0,0-14-18l32.94-15.18A134.82,134.82,0,0,0,695,1072c6,22.18,15.67,35.31,26,53a380.55,380.55,0,0,1,24,49v33Z"/></svg>
