<svg id="Lag_1" data-name="Lag 1" xmlns="http://www.w3.org/2000/svg" width="101" height="100" viewBox="0 0 101 100"><defs><style>.cls-1,.cls-2{fill:#fff;}.cls-1{stroke:#fff;stroke-miterlimit:10;stroke-width:4.95px;}</style></defs><title>Tegnebræt 29</title><line class="cls-1" x1="39.99" y1="12.5" x2="12.94" y2="30.38"/><line class="cls-1" x1="37.44" y1="12.5" x2="64.48" y2="30.38"/><path class="cls-2" d="M24,56.53a10.64,10.64,0,0,1-4.64.95c-4.87,0-8-3.37-8-8.4s3.4-8.73,8.67-8.73A9.69,9.69,0,0,1,24,41.2l-.67,2.31a6.68,6.68,0,0,0-3.41-.79c-3.7,0-5.7,2.79-5.7,6.23,0,3.8,2.4,6.15,5.6,6.15a8.17,8.17,0,0,0,3.61-.82Z"/><path class="cls-2" d="M27.39,33h2.94V43.27h.06a5.52,5.52,0,0,1,2.1-2.11,6,6,0,0,1,3-.85c2.17,0,5.64,1.36,5.64,7v9.79H38.2V47.69c0-2.65-1-4.9-3.74-4.9a4.22,4.22,0,0,0-3.93,3,3.56,3.56,0,0,0-.2,1.42v9.93H27.39Z"/><path class="cls-2" d="M54.86,57.14l-.24-2.07h-.1a6,6,0,0,1-4.94,2.44,4.64,4.64,0,0,1-4.94-4.72c0-4,3.47-6.16,9.71-6.12v-.34c0-1.36-.36-3.81-3.67-3.81a7.9,7.9,0,0,0-4.2,1.23l-.67-2a9.94,9.94,0,0,1,5.31-1.46c4.94,0,6.14,3.44,6.14,6.73V53.2a23.67,23.67,0,0,0,.26,3.94Zm-.44-8.4c-3.2-.07-6.84.51-6.84,3.71a2.62,2.62,0,0,0,2.77,2.85,4,4,0,0,0,3.9-2.75,3.23,3.23,0,0,0,.17-.95Z"/><path class="cls-2" d="M65.4,36v4.73h4.21V43H65.4v8.88c0,2,.57,3.19,2.2,3.19a6.61,6.61,0,0,0,1.71-.2l.13,2.24a7,7,0,0,1-2.6.41,4,4,0,0,1-3.17-1.26c-.84-.88-1.14-2.34-1.14-4.28V43H60V40.69h2.5V36.74Z"/></svg>
