<svg id="Lag_1" data-name="Lag 1" xmlns="http://www.w3.org/2000/svg" width="745" height="1207" viewBox="0 0 745 1207"><defs><style>.cls-1{fill:#7effb4;}.cls-2{fill:#dbffbc;}.cls-3{fill:#b7ffaf;}.cls-4{fill:#c4ffaf;}.cls-5{fill:#b27856;}.cls-6{fill:#4b8800;}.cls-7{fill:#4b5300;}.cls-8{fill:#71ad66;}.cls-9{fill:#5fad00;}.cls-10{fill:none;stroke:#8c6239;stroke-miterlimit:10;stroke-width:4px;}.cls-11{fill:#49b094;}.cls-12{opacity:0.7;}.cls-13{fill:#fff;}</style></defs><title>dog_filter</title><rect class="cls-1" width="745" height="1207"/><path class="cls-2" d="M181,775l18,132L0,830v377H745V860L528,914l40-130Z"/><ellipse class="cls-3" cx="387" cy="508" rx="311" ry="406"/><ellipse class="cls-2" cx="387.5" cy="486" rx="324.5" ry="406"/><path class="cls-3" d="M248.08,908.67c2.49-3.7,56.47,19.41,136.88,18.83C451.89,927,500.74,910.37,503,914.21c1.78,3-27.43,13.7-53,19.93A325.4,325.4,0,0,1,383.25,943,376.94,376.94,0,0,1,343,939.12C288.87,930.94,245.85,912,248.08,908.67Z"/><rect class="cls-4" x="385" y="465" width="48" height="165" rx="12" ry="12" transform="translate(-36.11 28.93) rotate(-3.88)"/><path class="cls-4" d="M230,814c2.91-6.7,66,35,160,34,78.25-.87,135.34-30.93,138-24,2.07,5.39-32.07,24.75-62,36a255.51,255.51,0,0,1-78,16,292.83,292.83,0,0,1-47-7C277.68,854.21,227.39,820,230,814Z"/><path class="cls-5" d="M418.26,706.62c4.43,5.42,9.88,14,10.23,24.78A35.34,35.34,0,0,1,427.2,742c-5.64,21,8.14,74.09,12.12,91.5,10.18,44.45,17.49,76.37,1.17,97.18-16.95,21.6-56.87,28-76.27,12.66-15.69-12.44-14.31-37.76-11.55-88.39a506.54,506.54,0,0,1,8.1-66.78q1.23-37.63,2.45-75.27A35.83,35.83,0,0,0,380.07,715a34.3,34.3,0,0,0,8.34-2.22C394.27,710.51,403.51,707.93,418.26,706.62Z"/><path class="cls-6" d="M479,737.51c-19.12,8.35-39-3.66-41.79-5.37-9.26-5.78-15.95-12.9-30.71-17.86a29.27,29.27,0,0,0-7.27-1.38c-21.61-1.52-34.75,14.81-54.42,21.18-8.44,2.74-20.91,4.41-37.74-1.24a35.53,35.53,0,0,1-8.12-8.26c-8.37-11.88-8.2-26.58-7.81-43.22.43-17.67.68-28.55,7.16-38.73,5.43-8.54,12.67-12.54,19-15.36,21.37-9.54,40.47-9.15,78.35-8.4,42.45.84,50.78,1,65.3,5.15a167.19,167.19,0,0,1,32.31,13.06c15.32,23.78,19.2,53.23,9.27,75.23C500.69,716.32,493.39,731.23,479,737.51Z"/><path class="cls-7" d="M396.79,706.85c-7.41-2.76-24.56-10.32-37.07-28.42a75.44,75.44,0,0,1-11.12-24.72c2.54-2.93,19.76-22.14,48.19-22.24,30.6-.1,48.55,22,50.67,24.71a71,71,0,0,1-50.67,50.67Z"/><path d="M365.38,661.15c1.3-2.06,6.57-10.52,14.09-8.78a11.75,11.75,0,0,1,8.78,14.09c-1.28,5.5-7.77,7.12-14.09,8.78-4.25,1.12-8.54,2.25-10.79,0C360.32,672.29,362.92,665.07,365.38,661.15Z"/><path d="M409.24,665.52a11.75,11.75,0,0,1,8.81-14.07c7.82-1.8,13.15,7.26,14.07,8.81,3.08,5.21,4.36,13.23,1.05,15.61-1.86,1.34-4.55.4-9.86-1.54C414.69,671.18,410.19,669.66,409.24,665.52Z"/><path class="cls-8" d="M577,189C485.69,275,416.68,298.52,369,303c-18.39,1.73-58.35,2.93-108,22-22.21,8.53-34.06,15.9-77,39-25,13.47-59,31.39-100,52a639.27,639.27,0,0,0,6,190,628.44,628.44,0,0,0,15,63,806.74,806.74,0,0,1,49,85c10.43,20.93,19.35,41.12,27,60.27-8.28,7-34.37,27.27-73,28.73-52.52,2-86.57-32.34-92-38A637.85,637.85,0,0,0,39,678c4.85-62.42-1-108.07-3-129-5.92-61.16-2.74-152,39-280A389.39,389.39,0,0,1,213,129c89.11-52.89,174.68-55.07,210-54,30-1.73,96.28-1.27,164,38a284.68,284.68,0,0,1,74,62,392.08,392.08,0,0,1,58,102c23.51,61.24,25.07,113.8,26,140.15,5.89,167.1,1.12,350.53,0,390.85a183.42,183.42,0,0,1-149,28c13.08-31.55,25.66-65.9,37-103a1144.73,1144.73,0,0,0,46-240A504,504,0,0,1,577,189Z"/><path class="cls-6" d="M223.23,278.39,105.1,287.22c-2,.52-10.45,2.42-17.85-2.32-8.7-5.59-12.49-18.14-8.15-30.31L77.57,176a25.21,25.21,0,0,1,24.75-25.51l122-1.83a25.2,25.2,0,0,1,25.5,24.75l8.91,49.1q-3.74,7-7.89,14.1A448.06,448.06,0,0,1,223.23,278.39Z"/><path class="cls-9" d="M243.93,158.05A126.09,126.09,0,0,0,224,148.4c-19.33-7.33-36.55-8.33-54.41-8.09-42.53.59-83.8,8.14-102.39,11.89A158.67,158.67,0,0,0,53.53,257.32c10.18-.76,20.79-2,31.77-3.94,60.43-10.54,107.81-36.59,141-60.31Z"/><path class="cls-6" d="M547.11,267,663.3,290c2,.76,10.09,3.67,18-.15,9.31-4.48,14.6-16.49,11.77-29.09q5.5-38.93,11-77.84a25.21,25.21,0,0,0-21.48-28.31L561.73,138a25.2,25.2,0,0,0-28.31,21.48l-14.79,47.66q2.86,7.38,6.12,15A446.63,446.63,0,0,0,547.11,267Z"/><path class="cls-9" d="M540.13,144a126.07,126.07,0,0,1,21-7.17c20.08-4.94,37.28-3.84,55-1.44,42.14,5.73,82.19,18.23,100.19,24.2a158.56,158.56,0,0,1,.85,106c-10-2-20.39-4.52-31.06-7.75-58.71-17.79-102.58-49.38-132.62-76.94Q546.79,162.45,540.13,144Z"/><circle cx="269" cy="454" r="31"/><circle cx="528" cy="453" r="31"/><rect class="cls-8" x="210" y="358" width="132" height="36" rx="9" ry="9" transform="translate(-51.71 44.1) rotate(-8.36)"/><rect class="cls-8" x="459" y="358" width="127" height="36" rx="9" ry="9" transform="translate(37.78 -47.58) rotate(5.41)"/><line class="cls-10" x1="400" y1="712" x2="399" y2="882"/><path class="cls-11" d="M157,884c21.8,37.47,59,99.79,105,169,11.9,17.9,29.31,43.43,62,61a153.41,153.41,0,0,0,55,17c23-2.31,50.92-9,78-26,98.36-61.69,92.52-200.89,92-210a690.74,690.74,0,0,0,196-35v347H0V823a557.68,557.68,0,0,0,157,61Z"/><rect class="cls-12" x="1" y="961" width="746" height="84"/><path class="cls-13" d="M250.64,987.86h2.59v14.64h20.16V987.86H276v33.6h-2.59V1004.9H253.23v16.56h-2.59Z"/><path class="cls-13" d="M283.52,997.46c3.88,11,6.57,18.48,7.48,21.55h.05c.53-1.77,3.22-8.93,7.88-21.55h2.54l-9.07,24h-2.88l-8.55-24Z"/><path class="cls-13" d="M322.21,1016.9a28.13,28.13,0,0,0,.33,4.56h-2.3a15.62,15.62,0,0,1-.43-3.7c-.82,1.78-2.93,4.28-7.88,4.28-5.56,0-8-3.6-8-7.2,0-5.28,4.08-7.68,11.29-7.68h4.56v-2.45c0-2.4-.72-5.62-6.2-5.62-4.84,0-5.57,2.54-6.09,4.51h-2.4c.29-2.64,1.92-6.72,8.54-6.72,5.47,0,8.55,2.31,8.55,7.59Zm-2.36-7.68h-4.7c-5.33,0-8.64,1.39-8.64,5.52,0,3,2.16,5.09,5.52,5.09,6.86,0,7.82-4.56,7.82-9.75Z"/><path class="cls-13" d="M348.65,986.08v28.47c0,2.3,0,4.51.05,6.91h-2.3c-.1-.58-.15-2.83-.15-4-1.2,2.93-3.88,4.61-8.06,4.61-6.24,0-10-5.09-10-12.29,0-7.39,4.08-12.87,10.6-12.87,4.8,0,6.72,2.07,7.44,3.6v-14.4Zm-17.9,23.57c0,6.58,3.41,10.13,7.54,10.13,6.33,0,8.06-4.37,8.06-10.9,0-6.19-1.49-9.74-7.63-9.74C334,999.14,330.75,1002.93,330.75,1009.65Z"/><path class="cls-13" d="M369,1021.46V986.08h2.4v35.38Z"/><path class="cls-13" d="M395.41,1016.9a28.13,28.13,0,0,0,.33,4.56h-2.3a15.62,15.62,0,0,1-.43-3.7c-.82,1.78-2.93,4.28-7.88,4.28-5.57,0-8-3.6-8-7.2,0-5.28,4.08-7.68,11.29-7.68H393v-2.45c0-2.4-.72-5.62-6.2-5.62-4.85,0-5.57,2.54-6.09,4.51h-2.4c.28-2.64,1.92-6.72,8.54-6.72,5.47,0,8.55,2.31,8.55,7.59Zm-2.36-7.68h-4.7c-5.33,0-8.64,1.39-8.64,5.52,0,3,2.16,5.09,5.52,5.09,6.86,0,7.82-4.56,7.82-9.75Z"/><path class="cls-13" d="M402,997.46c3.89,11,6.57,18.48,7.49,21.55h0c.53-1.77,3.22-8.93,7.88-21.55H420l-9.07,24H408l-8.55-24Z"/><path class="cls-13" d="M425.21,1009.75c.05,6.19,3.17,10,7.78,10s6.05-2.54,6.91-4.51h2.45c-1,3.17-3.55,6.77-9.46,6.77-7.29,0-10.13-6.29-10.13-12.39,0-6.86,3.41-12.77,10.42-12.77,7.39,0,9.75,6.39,9.75,10.9,0,.67,0,1.34-.05,2Zm15.22-2.11c-.05-4.76-2.64-8.5-7.35-8.5-4.94,0-7.2,3.46-7.72,8.5Z"/><path class="cls-13" d="M448.78,1004c0-4,0-5.76,0-6.53h2.35c.05.77.1,2.3.1,5.37a9.11,9.11,0,0,1,8.35-6v2.59c-5,.34-8.35,3.8-8.35,9.51v12.48h-2.4Z"/><path class="cls-13" d="M495.34,986.08v28.47c0,2.3,0,4.51.05,6.91h-2.31c-.09-.58-.14-2.83-.14-4-1.2,2.93-3.89,4.61-8.06,4.61-6.24,0-10-5.09-10-12.29,0-7.39,4.08-12.87,10.61-12.87,4.8,0,6.72,2.07,7.44,3.6v-14.4Zm-17.9,23.57c0,6.58,3.4,10.13,7.53,10.13,6.34,0,8.07-4.37,8.07-10.9,0-6.19-1.49-9.74-7.64-9.74C480.65,999.14,477.44,1002.93,477.44,1009.65Z"/><path class="cls-13" d="M521.16,1014.45c0,2.35.05,6.1.05,7h-2.3a37.05,37.05,0,0,1-.15-4.18c-1,2.84-3.45,4.76-7.72,4.76-3.46,0-7.88-1.35-7.88-8.69V997.46h2.35v15.31c0,3.51,1.11,6.91,5.86,6.91,5.38,0,7.39-3,7.39-9.88V997.46h2.4Z"/><path class="cls-13" d="M535.32,1011.62V1011c0-2.12.43-4.52,4.37-8,3.27-2.93,3.65-5.09,3.65-7.25a6,6,0,0,0-6.29-6.1c-4.13,0-6.29,2.45-7,6.39h-2.4c.14-2.21,1.73-8.64,9.41-8.64,6.43,0,8.78,4.7,8.78,8.3s-1.15,5.86-4.7,9c-2.64,2.35-3.46,4.08-3.46,6.57v.34Zm0,9.84v-5.71h2.4v5.71Z"/></svg>
