<svg id="Lag_1" data-name="Lag 1" xmlns="http://www.w3.org/2000/svg" width="746" height="1207" viewBox="0 0 746 1207"><defs><style>.cls-1{fill:#7effb4;}.cls-2{fill:#dbffbc;}.cls-3{fill:#b7ffaf;}.cls-4{fill:#c4ffaf;}.cls-5{fill:#b27856;}.cls-6{fill:#4b8800;}.cls-7{fill:#4b5300;}.cls-8{fill:#71ad66;}.cls-9{fill:#5fad00;}.cls-10{fill:none;stroke:#8c6239;stroke-miterlimit:10;stroke-width:4px;}</style></defs><title>dog_filter</title><rect class="cls-1" x="0.5" width="745" height="1207"/><path class="cls-2" d="M181.5,775l18,132L.5,830v377h745V860l-217,54,40-130Z"/><ellipse class="cls-3" cx="387.5" cy="508" rx="311" ry="406"/><ellipse class="cls-2" cx="388" cy="486" rx="324.5" ry="406"/><rect class="cls-4" x="374.5" y="465" width="48" height="165" rx="12" ry="12"/><path class="cls-4" d="M230.5,814c2.91-6.7,66,35,160,34,78.25-.87,135.34-30.93,138-24,2.07,5.39-32.07,24.75-62,36a255.51,255.51,0,0,1-78,16,292.83,292.83,0,0,1-47-7C278.18,854.21,227.89,820,230.5,814Z"/><path class="cls-5" d="M416.76,638.62c4.43,5.42,9.88,14,10.23,24.78A35.34,35.34,0,0,1,425.7,674c-5.64,21,8.14,74.09,12.12,91.5C448,810,455.31,841.89,439,862.7c-16.95,21.6-56.87,28-76.27,12.66C347,862.92,348.41,837.6,351.17,787a506.54,506.54,0,0,1,8.1-66.78q1.23-37.63,2.45-75.27A35.83,35.83,0,0,0,378.57,647a34.3,34.3,0,0,0,8.34-2.22C392.77,642.51,402,639.93,416.76,638.62Z"/><path class="cls-6" d="M463,663.81c-15.48,6.76-31.6-3-33.83-4.35-7.49-4.67-12.9-10.43-24.84-14.44a23.36,23.36,0,0,0-5.89-1.12c-17.49-1.23-28.12,12-44,17.14-6.83,2.21-16.92,3.56-30.54-1a28.73,28.73,0,0,1-6.57-6.68c-6.78-9.62-6.64-21.51-6.32-35,.34-14.29.55-23.1,5.79-31.34,4.4-6.91,10.26-10.15,15.36-12.43,17.29-7.72,32.75-7.41,63.4-6.8,34.36.69,41.09.82,52.84,4.17a135.11,135.11,0,0,1,26.15,10.57c12.4,19.25,15.53,43.08,7.5,60.88C480.58,646.66,474.67,658.73,463,663.81Z"/><path class="cls-7" d="M396.5,639a63.37,63.37,0,0,1-30-23,61.08,61.08,0,0,1-9-20c2.05-2.37,16-17.92,39-18,24.76-.08,39.29,17.81,41,20a57.47,57.47,0,0,1-41,41Z"/><path d="M371.08,602c1.05-1.67,5.32-8.52,11.4-7.1a9.49,9.49,0,0,1,7.1,11.4c-1,4.45-6.28,5.76-11.4,7.1-3.43.91-6.91,1.82-8.73,0C367,611,369.09,605.19,371.08,602Z"/><path d="M406.57,605.56a9.51,9.51,0,0,1,7.13-11.39c6.33-1.46,10.65,5.88,11.39,7.13,2.49,4.21,3.52,10.71.85,12.63-1.51,1.09-3.69.32-8-1.24C411,610.14,407.34,608.9,406.57,605.56Z"/><path class="cls-3" d="M248.58,908.67c2.49-3.7,56.47,19.41,136.88,18.83,66.93-.49,115.78-17.13,118.05-13.29,1.78,3-27.43,13.7-53,19.93A325.4,325.4,0,0,1,383.75,943a376.94,376.94,0,0,1-40.21-3.88C289.37,930.94,246.35,912,248.58,908.67Z"/><path class="cls-8" d="M577.5,189C486.19,275,417.18,298.52,369.5,303c-18.39,1.73-58.35,2.93-108,22-22.21,8.53-34.06,15.9-77,39-25,13.47-59,31.39-100,52a639.27,639.27,0,0,0,6,190,628.44,628.44,0,0,0,15,63,806.74,806.74,0,0,1,49,85c10.43,20.93,19.35,41.12,27,60.27-8.28,7-34.37,27.27-73,28.73-52.52,2-86.57-32.34-92-38a637.85,637.85,0,0,0,23-127c4.85-62.42-1-108.07-3-129-5.92-61.16-2.74-152,39-280a389.39,389.39,0,0,1,138-140c89.11-52.89,174.68-55.07,210-54,30-1.73,96.28-1.27,164,38a284.68,284.68,0,0,1,74,62,392.08,392.08,0,0,1,58,102c23.51,61.24,25.07,113.8,26,140.15,5.89,167.1,1.12,350.53,0,390.85a183.42,183.42,0,0,1-149,28c13.08-31.55,25.66-65.9,37-103a1144.73,1144.73,0,0,0,46-240,504,504,0,0,1-102-304Z"/><path class="cls-6" d="M223.73,278.39,105.6,287.22c-2,.52-10.45,2.42-17.85-2.32-8.7-5.59-12.49-18.14-8.15-30.31L78.07,176a25.21,25.21,0,0,1,24.75-25.51l122-1.83a25.2,25.2,0,0,1,25.5,24.75l8.91,49.1q-3.74,7-7.89,14.1A448.06,448.06,0,0,1,223.73,278.39Z"/><path class="cls-9" d="M244.43,158.05a126.09,126.09,0,0,0-19.92-9.65c-19.33-7.33-36.55-8.33-54.41-8.09-42.53.59-83.8,8.14-102.39,11.89A158.67,158.67,0,0,0,54,257.32c10.18-.76,20.79-2,31.77-3.94,60.43-10.54,107.81-36.59,141-60.31Z"/><path class="cls-6" d="M547.61,267,663.8,290c2,.76,10.09,3.67,18-.15,9.31-4.48,14.6-16.49,11.77-29.09q5.5-38.93,11-77.84a25.21,25.21,0,0,0-21.48-28.31L562.23,138a25.2,25.2,0,0,0-28.31,21.48l-14.79,47.66q2.86,7.38,6.12,15A446.63,446.63,0,0,0,547.61,267Z"/><path class="cls-9" d="M540.63,144a126.07,126.07,0,0,1,21-7.17c20.08-4.94,37.28-3.84,55-1.44,42.14,5.73,82.19,18.23,100.19,24.2a158.56,158.56,0,0,1,.85,106c-10-2-20.39-4.52-31.06-7.75C627.84,240.05,584,208.46,553.93,180.9Q547.29,162.45,540.63,144Z"/><circle cx="269.5" cy="454" r="31"/><circle cx="528.5" cy="453" r="31"/><rect class="cls-8" x="216.5" y="373" width="112" height="18" rx="9" ry="9"/><rect class="cls-8" x="472.5" y="372" width="112" height="18" rx="9" ry="9"/><line class="cls-10" x1="398.5" y1="644" x2="397.5" y2="814"/></svg>
