<svg id="Lag_1" data-name="Lag 1" xmlns="http://www.w3.org/2000/svg" width="1106" height="1261" viewBox="0 0 1106 1261"><defs><style>.cls-1{fill:#aad593;}.cls-2{fill:#c5dfab;}</style></defs><title>foreground_fingers</title><path class="cls-1" d="M944,569.86Q920.67,609.43,897.29,649c-24.77,25.36-32.41,59.51-19.83,84.8,7.71,15.5,21.06,23.75,28.69,27.56l83.21-26.15a162,162,0,0,0,85.7-84.09l10.62-55.83-41.07-83.39-36.83-22.62-59.49-18.37Q946.16,520.39,944,569.86Z"/><path class="cls-1" d="M922.08,860.5,1045.65,823l35.41-48.68c2.39-5.94,7.3-20.42,3.61-37.5-4.76-22-21.91-39.48-44.08-45.49L919.91,736.82l-31.8,57.45c-1.38,4.19-5.68,18.81,0,35.11C896.67,853.94,920.13,860,922.08,860.5Z"/><path class="cls-1" d="M949.88,202a326.61,326.61,0,0,1,43.59,22.34,352.84,352.84,0,0,1,46.89,34.31L1078,347.23c-5.76,22.46-19.15,64.12-50.19,103.73-29,37-60.13,55.26-77.93,63.84-18.51,11.45-40,10.32-54.15-3.2-19.61-18.74-23.59-59.9-3.3-90.16l56.13-107.73Z"/><path class="cls-1" d="M86,1242c16.54-86.28,30-215.79-2.31-365.45C59.88,766.36,39.25,772,28.52,679.88,13,546.75,40.05,412.45,69.64,271.35c3.72-17.71,6.34-32.23,8-42,6.37-37.05,10.17-69.86,14-103.7,2-17.63,1.92-18.14,3-25.92a562.06,562.06,0,0,1,13-65.26c5.39-17.6,10.45-21.28,14-21.45,8.48-.41,12,18.62,33.1,51.84,13.33,21,17.28,21.89,23.07,35.76,1.8,4.29,6.55,16.5,8,44.7.36,6.94,1.54,34.32-6,78.66a533.39,533.39,0,0,1-12,53.64q3,63.47,6,126.94c12.08,61.25,18.81,140.6,3,230.63a623.74,623.74,0,0,1-18.05,75.09q-2.52,34-5,67.94l-10,115.32A957.48,957.48,0,0,1,126,1099,955.52,955.52,0,0,1,86,1242Z"/><path class="cls-2" d="M952,409q-33.66,41.61-67.31,83.21c-.62,14,5.43,27.39,15.59,34.59A27.58,27.58,0,0,0,918,532a28.77,28.77,0,0,0,14.16-5.09c11-7.15,36.6-25.16,69.89-49.94,1.94-2.84,9.84-15.12,6.43-29.72-2.67-11.44-10.76-17.86-17.46-23.16C976.69,412.81,961.07,409.86,952,409Z"/><path class="cls-2" d="M947,669l-68,63c-.06,2.23-.22,16.21,11,27a36.81,36.81,0,0,0,26,10l101.52-49c0-2.72-.5-27.27-21.52-43C974.12,660.62,949.29,668.25,947,669Z"/><path class="cls-2" d="M949,775.92,879,828a39.58,39.58,0,0,0,35,43l80-34c1.63-5.37,4-16.14,0-28C988.06,791.26,970.45,778.48,949,775.92Z"/><path class="cls-2" d="M89.74,159.53,105,163,142.74,56A195.13,195.13,0,0,1,134,37.81c-6.46-15.42-7.85-24.25-12-24.81-2-.26-5.21,1.31-10,11.28C106.87,46,102.07,69.51,98,94.82,94.34,117.58,91.66,139.22,89.74,159.53Z"/></svg>
