<svg id="Lag_1" data-name="Lag 1" xmlns="http://www.w3.org/2000/svg" xmlns:xlink="http://www.w3.org/1999/xlink" width="1080" height="1920" viewBox="0 0 1080 1920"><defs><style>.cls-1{fill:url(#Ikke-navngivet_forløb_26);}.cls-2{fill:url(#Ikke-navngivet_forløb_14);}.cls-3{opacity:0.1;}</style><linearGradient id="Ikke-navngivet_forløb_26" x1="542" y1="1922" x2="542" y2="2" gradientUnits="userSpaceOnUse"><stop offset="0.1" stop-color="#fff9bb"/><stop offset="0.94" stop-color="#b6ffce"/></linearGradient><linearGradient id="Ikke-navngivet_forløb_14" x1="2" y1="962" x2="1082" y2="962" gradientUnits="userSpaceOnUse"><stop offset="0.1" stop-color="#feffbb"/><stop offset="0.94" stop-color="aqua"/></linearGradient></defs><title>game_over</title><rect class="cls-1" x="2" y="2" width="1080" height="1920"/><path class="cls-2" d="M1080.94,3.06V1920.94H3.06V3.06H1080.94M1082,2H2V1922H1082V2Z"/><path class="cls-3" d="M360,1487c-4.95,18.8-12.49,25.31-18.67,27.67-7.54,2.88-19.33-.49-42.48-8.47-7.75-2.67-23.82-7.91-36.7-3.12a12.71,12.71,0,0,0-2.24,1.13c-8.64,5.33-14.78,18.19-12.39,27.92,1.81,7.39,8.23,11.64,28.32,19.94,34.84,14.4,44.77,13.71,50.52,18.85,6.53-1.75,15.89-3.08,22.05,2.26,17,14.74-3.32,69.06-17.7,107.59-17.94,48-36.72,75-42.48,83a301.48,301.48,0,0,1-31.86,37.53c8.59,5.14,21.37,11.09,37.17,12,27,1.5,42.79-12.93,53.1-3.33,10.11,9.43,2.17,30.09,10.62,35.24s22.06-12.12,33.63-20c44.71-30.27,96,55.32,171.09,50.53,68.91-4.4,103.5-81.46,150.45-58.5,15.39,7.52,33.82,26.63,41.3,19.94,6.28-5.61-2-23.18,5.31-29.91,6.37-5.85,17.42,3,31.86,6,12.06,2.49,29.55,1.54,53.1-14a770.57,770.57,0,0,1-58.41-92.4c-26.32-49-52.18-98.37-35.4-122.45,4-5.81,10.76-9.14,24.19-15.82,27.11-13.48,39.22-6.87,51.92-20.61,7.54-8.16,17-23.82,12.39-35.89-3.17-8.38-12.16-13-19.47-14-14.3-1.91-18.94,10.49-40.71,16-5.63,1.41-18.23,3.68-28.32-2-15.3-8.61-17.37-31.79-18.19-40.19-6.65-67.89-14-142.73-42-183-39.39-56.62-128-56.93-147-57-16.84-.06-67-.23-111,30C369.37,1305,341.85,1394.12,360,1487Z"/><path d="M111.15,708.52V658.24h1.1l33.46,38.54V658.24h4.95v50.28h-1.12l-33.19-38.07v38.07Z"/><path d="M194.43,677.33a20,20,0,0,1-.87,26.32,18.1,18.1,0,0,1-13.89,5.83,19.31,19.31,0,0,1-10.2-2.8l-4,4.68-3-2.53,3.88-4.59a19,19,0,0,1-6-14.21,19.82,19.82,0,0,1,5.39-13.73,17.94,17.94,0,0,1,13.91-5.92,18.6,18.6,0,0,1,12,4.08l4-4.68,3.17,2.54ZM169.34,700.7l19.07-22.52a14,14,0,0,0-8.79-3.12,13.71,13.71,0,0,0-7.15,2,14.63,14.63,0,0,0-5.34,5.53,15.29,15.29,0,0,0-2,7.54,15.6,15.6,0,0,0,1.11,5.76A14.12,14.12,0,0,0,169.34,700.7Zm21.86-19.57-18.71,22a15.41,15.41,0,0,0,7.12,1.8,14.38,14.38,0,0,0,7.28-1.9,13.71,13.71,0,0,0,5.27-5.38,15.07,15.07,0,0,0,2-7.48A15.3,15.3,0,0,0,191.2,681.13Z"/><path d="M239.87,671.33h4.79V701q0,7.81-1.37,11.45a14.87,14.87,0,0,1-6.53,7.89,21.4,21.4,0,0,1-11.17,2.77,25.66,25.66,0,0,1-8.6-1.35,17.25,17.25,0,0,1-6.2-3.64,21.42,21.42,0,0,1-4.41-6.67h5.19a13.66,13.66,0,0,0,5.48,5.47,17.53,17.53,0,0,0,8.31,1.78,17.25,17.25,0,0,0,8.27-1.82,11.2,11.2,0,0,0,4.81-4.58q1.42-2.76,1.43-8.91v-1.92a18.11,18.11,0,0,1-6.6,5.25,19.59,19.59,0,0,1-17.93-.72,18,18,0,0,1-7-6.85,18.76,18.76,0,0,1-2.46-9.47,19.32,19.32,0,0,1,19.23-19.27,17.82,17.82,0,0,1,7.78,1.72,21.4,21.4,0,0,1,7,5.69ZM225.76,675a15,15,0,0,0-7.56,2,14.34,14.34,0,0,0-5.47,5.43,14.86,14.86,0,0,0-2,7.5,13.56,13.56,0,0,0,4.1,10.12,14.62,14.62,0,0,0,10.63,4q6.6,0,10.62-4a14,14,0,0,0,4-10.42,15.1,15.1,0,0,0-1.84-7.5A13.52,13.52,0,0,0,233,676.9,14.64,14.64,0,0,0,225.76,675Z"/><path d="M286.22,696.18l4,2.12a22,22,0,0,1-4.58,6.29,18.19,18.19,0,0,1-5.85,3.64,20.47,20.47,0,0,1-7.36,1.25q-9.09,0-14.23-6A20.11,20.11,0,0,1,253.1,690a19.85,19.85,0,0,1,4.35-12.61,17.73,17.73,0,0,1,14.74-7,18.35,18.35,0,0,1,15.19,7.21,20.08,20.08,0,0,1,4.1,12.71H258a15.12,15.12,0,0,0,4.14,10.62,13.19,13.19,0,0,0,9.89,4.15,15.85,15.85,0,0,0,5.53-1,14.63,14.63,0,0,0,4.57-2.62A22.45,22.45,0,0,0,286.22,696.18Zm0-10a15.88,15.88,0,0,0-2.79-6.12,13.08,13.08,0,0,0-4.84-3.69,14.76,14.76,0,0,0-6.33-1.4,13.61,13.61,0,0,0-9.41,3.52,15.82,15.82,0,0,0-4.35,7.69Z"/><path d="M300.41,671.33h4.78V678a20,20,0,0,1,6.36-5.73,15.65,15.65,0,0,1,7.59-1.89,13.22,13.22,0,0,1,7.4,2.11,12.65,12.65,0,0,1,4.76,5.71q1.54,3.59,1.54,11.18v19.14h-4.78V690.78a43.18,43.18,0,0,0-.54-8.58,9.35,9.35,0,0,0-3.19-5.55,9.63,9.63,0,0,0-6.15-1.87,11.8,11.8,0,0,0-7.78,2.88,13.44,13.44,0,0,0-4.53,7.1,50,50,0,0,0-.68,10.12v13.64h-4.78Z"/><path d="M343.4,708.52V657h4.79v20.74a20.11,20.11,0,0,1,6.73-5.52,18.36,18.36,0,0,1,8.16-1.82,18.14,18.14,0,0,1,13.47,5.72A19.18,19.18,0,0,1,382.13,690a18.9,18.9,0,0,1-5.64,13.78,18.36,18.36,0,0,1-13.55,5.71,17.33,17.33,0,0,1-8.23-2,19.2,19.2,0,0,1-6.52-5.85v6.84Zm19.14-3.66a14.39,14.39,0,0,0,12.74-7.48,15.15,15.15,0,0,0,0-15.08,14.73,14.73,0,0,0-5.4-5.59,14.06,14.06,0,0,0-7.25-2,14.91,14.91,0,0,0-7.45,2,14,14,0,0,0-5.42,5.39,15.35,15.35,0,0,0-1.89,7.62,14.82,14.82,0,0,0,4.24,10.8A14,14,0,0,0,362.54,704.86Z"/><path d="M392.5,656a3.81,3.81,0,0,1,2.79,1.16,3.84,3.84,0,0,1,1.16,2.8,4,4,0,0,1-3.95,3.94,4,4,0,0,1-3.91-3.94,3.81,3.81,0,0,1,1.16-2.8A3.77,3.77,0,0,1,392.5,656Zm-2.37,15.31h4.78v37.19h-4.78Z"/><path d="M404.14,657h4.79v51.54h-4.79Z"/><path d="M418.15,657h4.79v51.54h-4.79Z"/><path d="M464.19,696.18l4,2.12a22.06,22.06,0,0,1-4.59,6.29,18.19,18.19,0,0,1-5.85,3.64,20.41,20.41,0,0,1-7.35,1.25q-9.1,0-14.23-6A20.07,20.07,0,0,1,431.07,690a19.85,19.85,0,0,1,4.35-12.61,17.74,17.74,0,0,1,14.74-7,18.33,18.33,0,0,1,15.19,7.21,20.15,20.15,0,0,1,4.11,12.71H436a15.12,15.12,0,0,0,4.14,10.62,13.18,13.18,0,0,0,9.89,4.15,15.84,15.84,0,0,0,5.52-1,14.52,14.52,0,0,0,4.57-2.62A22.19,22.19,0,0,0,464.19,696.18Zm0-10a15.59,15.59,0,0,0-2.79-6.12,13.08,13.08,0,0,0-4.84-3.69,14.76,14.76,0,0,0-6.33-1.4,13.61,13.61,0,0,0-9.41,3.52,15.9,15.9,0,0,0-4.35,7.69Z"/><path d="M515.5,657v51.54h-4.72v-6.39a20.37,20.37,0,0,1-6.75,5.5,18.84,18.84,0,0,1-21.67-3.88,19.21,19.21,0,0,1-5.59-13.93,18.86,18.86,0,0,1,5.64-13.74,18.4,18.4,0,0,1,13.57-5.7,17.54,17.54,0,0,1,8.29,1.94,18.9,18.9,0,0,1,6.51,5.85V657Zm-19.13,18a14.42,14.42,0,0,0-12.75,7.48,15.1,15.1,0,0,0,0,15,14.66,14.66,0,0,0,5.41,5.58,14.19,14.19,0,0,0,7.29,2,14.91,14.91,0,0,0,7.44-2,13.81,13.81,0,0,0,5.41-5.36,15.25,15.25,0,0,0,1.9-7.62,14.8,14.8,0,0,0-4.25-10.78A14.06,14.06,0,0,0,496.37,675Z"/><path d="M557.64,696.18l4,2.12a22,22,0,0,1-4.58,6.29,18.19,18.19,0,0,1-5.85,3.64,20.47,20.47,0,0,1-7.36,1.25q-9.09,0-14.23-6A20.11,20.11,0,0,1,524.52,690a19.85,19.85,0,0,1,4.35-12.61,17.73,17.73,0,0,1,14.74-7,18.35,18.35,0,0,1,15.19,7.21,20.15,20.15,0,0,1,4.11,12.71H529.44a15.12,15.12,0,0,0,4.14,10.62,13.19,13.19,0,0,0,9.89,4.15,15.85,15.85,0,0,0,5.53-1,14.63,14.63,0,0,0,4.57-2.62A22.45,22.45,0,0,0,557.64,696.18Zm0-10a15.88,15.88,0,0,0-2.79-6.12,13.08,13.08,0,0,0-4.84-3.69,14.76,14.76,0,0,0-6.33-1.4,13.61,13.61,0,0,0-9.41,3.52,15.82,15.82,0,0,0-4.35,7.69Z"/><path d="M570,671.33h4.89v5.44a17.24,17.24,0,0,1,4.62-4.81,9.06,9.06,0,0,1,5.06-1.58,8.72,8.72,0,0,1,4.23,1.26l-2.49,4a6.72,6.72,0,0,0-2.53-.65,7,7,0,0,0-4.62,2,12.46,12.46,0,0,0-3.38,6.1q-.88,3.18-.89,12.85v12.58H570Z"/><path d="M633.92,670.38a18.43,18.43,0,0,1,14.25,6.22,20,20,0,0,1-.29,27,19.65,19.65,0,0,1-27.94,0,19.93,19.93,0,0,1-.3-27A18.42,18.42,0,0,1,633.92,670.38Zm0,4.68a13.81,13.81,0,0,0-10.26,4.41,14.72,14.72,0,0,0-4.29,10.66,15,15,0,0,0,2,7.52A13.8,13.8,0,0,0,626.6,703a15,15,0,0,0,14.61,0,13.8,13.8,0,0,0,5.28-5.38,15,15,0,0,0,2-7.52,14.7,14.7,0,0,0-4.31-10.66A13.81,13.81,0,0,0,633.91,675.06Z"/><path d="M694.22,671.33H699V701q0,7.81-1.37,11.45a14.89,14.89,0,0,1-6.52,7.89,21.44,21.44,0,0,1-11.18,2.77,25.66,25.66,0,0,1-8.6-1.35,17.25,17.25,0,0,1-6.2-3.64,21.42,21.42,0,0,1-4.41-6.67h5.2a13.57,13.57,0,0,0,5.47,5.47,17.57,17.57,0,0,0,8.32,1.78,17.24,17.24,0,0,0,8.26-1.82,11.2,11.2,0,0,0,4.81-4.58q1.44-2.76,1.44-8.91v-1.92a18.22,18.22,0,0,1-6.61,5.25,19.59,19.59,0,0,1-17.93-.72,18.1,18.1,0,0,1-7-6.85,18.76,18.76,0,0,1-2.46-9.47,19.34,19.34,0,0,1,19.23-19.27,17.79,17.79,0,0,1,7.78,1.72,21.53,21.53,0,0,1,7,5.69ZM680.1,675a15,15,0,0,0-7.55,2,14.2,14.2,0,0,0-5.47,5.43,14.87,14.87,0,0,0-2,7.5A13.53,13.53,0,0,0,669.2,700a14.59,14.59,0,0,0,10.63,4,14.44,14.44,0,0,0,10.61-4,14,14,0,0,0,4-10.42,15.11,15.11,0,0,0-1.85-7.5,13.46,13.46,0,0,0-5.23-5.22A14.61,14.61,0,0,0,680.1,675Z"/><path d="M729.17,671.33h5.1l12.48,27.11,12.33-27.11h5.13l-17,37.19h-.89Z"/><path d="M773.15,656a4,4,0,0,1,0,7.9,4,4,0,0,1-3.92-3.94,3.84,3.84,0,0,1,1.16-2.8A3.77,3.77,0,0,1,773.15,656Zm-2.38,15.31h4.79v37.19h-4.79Z"/><path d="M822.62,657v51.54H817.9v-6.39a20.37,20.37,0,0,1-6.75,5.5,18.84,18.84,0,0,1-21.67-3.88,19.2,19.2,0,0,1-5.58-13.93,18.86,18.86,0,0,1,5.64-13.74,18.38,18.38,0,0,1,13.56-5.7,17.51,17.51,0,0,1,8.29,1.94,18.72,18.72,0,0,1,6.51,5.85V657ZM803.5,675a14.39,14.39,0,0,0-12.75,7.48,15,15,0,0,0-2,7.51,15.16,15.16,0,0,0,2,7.51,14.73,14.73,0,0,0,5.41,5.58,14.19,14.19,0,0,0,7.29,2,15,15,0,0,0,7.45-2,13.94,13.94,0,0,0,5.41-5.36,15.35,15.35,0,0,0,1.89-7.62A14.8,14.8,0,0,0,814,679.33,14,14,0,0,0,803.5,675Z"/><path d="M864.76,696.18l4,2.12a22.06,22.06,0,0,1-4.59,6.29,18.19,18.19,0,0,1-5.85,3.64,20.41,20.41,0,0,1-7.35,1.25q-9.1,0-14.23-6A20.12,20.12,0,0,1,831.64,690,19.85,19.85,0,0,1,836,677.42a17.74,17.74,0,0,1,14.74-7,18.33,18.33,0,0,1,15.19,7.21A20.15,20.15,0,0,1,870,690.3H836.57a15.12,15.12,0,0,0,4.14,10.62,13.18,13.18,0,0,0,9.89,4.15,15.84,15.84,0,0,0,5.52-1,14.52,14.52,0,0,0,4.57-2.62A22.19,22.19,0,0,0,864.76,696.18Zm0-10a15.73,15.73,0,0,0-2.78-6.12,13.2,13.2,0,0,0-4.85-3.69,14.73,14.73,0,0,0-6.33-1.4,13.61,13.61,0,0,0-9.41,3.52,15.9,15.9,0,0,0-4.35,7.69Z"/><path d="M896.55,670.38a18.43,18.43,0,0,1,14.25,6.22,20,20,0,0,1-.3,27,19.65,19.65,0,0,1-27.94,0,19.94,19.94,0,0,1-.29-27A18.42,18.42,0,0,1,896.55,670.38Zm0,4.68a13.81,13.81,0,0,0-10.26,4.41A14.72,14.72,0,0,0,882,690.13a15,15,0,0,0,2,7.52,13.8,13.8,0,0,0,5.28,5.38,15,15,0,0,0,14.61,0,13.8,13.8,0,0,0,5.28-5.38,15,15,0,0,0,2-7.52,14.7,14.7,0,0,0-4.31-10.66A13.81,13.81,0,0,0,896.54,675.06Z"/><path d="M956.09,696.18l4,2.12a22.06,22.06,0,0,1-4.59,6.29,18.19,18.19,0,0,1-5.85,3.64,20.45,20.45,0,0,1-7.35,1.25q-9.11,0-14.24-6A20.11,20.11,0,0,1,923,690a19.85,19.85,0,0,1,4.35-12.61,17.73,17.73,0,0,1,14.74-7,18.35,18.35,0,0,1,15.19,7.21,20.15,20.15,0,0,1,4.11,12.71H927.89A15.17,15.17,0,0,0,932,700.92a13.15,13.15,0,0,0,9.88,4.15,15.85,15.85,0,0,0,5.53-1,14.63,14.63,0,0,0,4.57-2.62A22.19,22.19,0,0,0,956.09,696.18Zm0-10a15.88,15.88,0,0,0-2.79-6.12,13.08,13.08,0,0,0-4.84-3.69,14.76,14.76,0,0,0-6.33-1.4,13.61,13.61,0,0,0-9.41,3.52,15.82,15.82,0,0,0-4.35,7.69Z"/><path d="M968.47,671.33h4.88v5.44A17.24,17.24,0,0,1,978,672a9.06,9.06,0,0,1,5.06-1.58,8.72,8.72,0,0,1,4.23,1.26l-2.49,4a6.72,6.72,0,0,0-2.53-.65,6.9,6.9,0,0,0-4.61,2,12.39,12.39,0,0,0-3.39,6.1q-.88,3.18-.89,12.85v12.58h-4.88Z"/><path d="M110.3,755.33h4.78v6.43a18.67,18.67,0,0,1,5.14-5.2,14.5,14.5,0,0,1,7.63-2.18,12.8,12.8,0,0,1,5.13,1,11.15,11.15,0,0,1,4,2.82,15.1,15.1,0,0,1,2.67,5,17.64,17.64,0,0,1,6-6.65,14.1,14.1,0,0,1,7.71-2.27,12,12,0,0,1,6.8,1.94,11.63,11.63,0,0,1,4.39,5.44q1.43,3.48,1.43,10.46v20.3H161v-20.3q0-6-.85-8.22a7.4,7.4,0,0,0-2.91-3.61,8.75,8.75,0,0,0-4.93-1.37,10.76,10.76,0,0,0-6.35,2.05,11.84,11.84,0,0,0-4.21,5.47Q140.45,770,140.44,778v14.56h-4.78v-19c0-4.49-.28-7.53-.84-9.14a7.65,7.65,0,0,0-2.92-3.86,8.44,8.44,0,0,0-5-1.46,10.72,10.72,0,0,0-6.2,2,11.82,11.82,0,0,0-4.27,5.39q-1.39,3.38-1.39,10.35v15.76H110.3Z"/><path d="M207.3,780.18l4,2.12a22,22,0,0,1-4.58,6.29,18.19,18.19,0,0,1-5.85,3.64,20.47,20.47,0,0,1-7.36,1.25q-9.09,0-14.23-6A20.11,20.11,0,0,1,174.18,774a19.9,19.9,0,0,1,4.34-12.61,17.76,17.76,0,0,1,14.75-7,18.35,18.35,0,0,1,15.19,7.21,20.08,20.08,0,0,1,4.1,12.71H179.1a15.12,15.12,0,0,0,4.14,10.62,13.19,13.19,0,0,0,9.89,4.15,15.85,15.85,0,0,0,5.53-1,14.63,14.63,0,0,0,4.57-2.62A22.45,22.45,0,0,0,207.3,780.18Zm0-10a15.88,15.88,0,0,0-2.79-6.12,13.08,13.08,0,0,0-4.84-3.69,14.76,14.76,0,0,0-6.33-1.4,13.61,13.61,0,0,0-9.41,3.52,15.82,15.82,0,0,0-4.35,7.69Z"/><path d="M258.6,741v51.54h-4.71v-6.39a20.57,20.57,0,0,1-6.75,5.5,18.84,18.84,0,0,1-21.67-3.88,19.17,19.17,0,0,1-5.59-13.93,18.86,18.86,0,0,1,5.64-13.74,18.4,18.4,0,0,1,13.57-5.7,17.57,17.57,0,0,1,8.29,1.94,18.9,18.9,0,0,1,6.51,5.85V741Zm-19.12,18a14.42,14.42,0,0,0-12.75,7.48,15,15,0,0,0,0,15,14.59,14.59,0,0,0,5.41,5.58,14.14,14.14,0,0,0,7.29,2,15,15,0,0,0,7.44-2,13.87,13.87,0,0,0,5.41-5.36,15.35,15.35,0,0,0,1.89-7.62,14.76,14.76,0,0,0-4.25-10.78A14,14,0,0,0,239.48,759Z"/><path d="M285.49,755.33h4.79V772.7a37.56,37.56,0,0,0,.68,8.75,9.83,9.83,0,0,0,3.92,5.4,11.92,11.92,0,0,0,6.9,2,11.68,11.68,0,0,0,6.79-1.93,9.92,9.92,0,0,0,3.86-5.08c.47-1.43.71-4.48.71-9.12V755.33H318v18.25q0,7.7-1.79,11.59a13.74,13.74,0,0,1-5.4,6.1,17.08,17.08,0,0,1-9,2.21,17.25,17.25,0,0,1-9.08-2.21,13.59,13.59,0,0,1-5.43-6.15q-1.8-3.95-1.8-11.88Z"/><path d="M328.66,755.33h4.79V762a20.09,20.09,0,0,1,6.35-5.73,15.7,15.7,0,0,1,7.59-1.89,13.19,13.19,0,0,1,7.4,2.11,12.61,12.61,0,0,1,4.77,5.71q1.54,3.59,1.54,11.18v19.14h-4.79V774.78a43.43,43.43,0,0,0-.53-8.58,9.4,9.4,0,0,0-3.19-5.55,9.63,9.63,0,0,0-6.15-1.87,11.78,11.78,0,0,0-7.78,2.88,13.44,13.44,0,0,0-4.53,7.1,49.26,49.26,0,0,0-.68,10.12v13.64h-4.79Z"/><path d="M403.41,755.33h4.79V785q0,7.81-1.37,11.45a14.87,14.87,0,0,1-6.53,7.89,21.4,21.4,0,0,1-11.17,2.77,25.66,25.66,0,0,1-8.6-1.35,17.25,17.25,0,0,1-6.2-3.64,21.42,21.42,0,0,1-4.41-6.67h5.19a13.66,13.66,0,0,0,5.48,5.47,17.53,17.53,0,0,0,8.31,1.78,17.25,17.25,0,0,0,8.27-1.82,11.2,11.2,0,0,0,4.81-4.58q1.42-2.76,1.43-8.91v-1.92a18.11,18.11,0,0,1-6.6,5.25,19.59,19.59,0,0,1-17.93-.72,18,18,0,0,1-7-6.85,18.76,18.76,0,0,1-2.46-9.47,19.32,19.32,0,0,1,19.23-19.27,17.82,17.82,0,0,1,7.78,1.72,21.4,21.4,0,0,1,7,5.69ZM389.3,759a15,15,0,0,0-7.56,2,14.34,14.34,0,0,0-5.47,5.43,14.86,14.86,0,0,0-2,7.5,13.56,13.56,0,0,0,4.1,10.12A14.62,14.62,0,0,0,389,788q6.6,0,10.62-4a14,14,0,0,0,4-10.42,15.1,15.1,0,0,0-1.84-7.5,13.52,13.52,0,0,0-5.23-5.22A14.64,14.64,0,0,0,389.3,759Z"/><path d="M449.76,780.18l4,2.12a22,22,0,0,1-4.58,6.29,18.19,18.19,0,0,1-5.85,3.64,20.47,20.47,0,0,1-7.36,1.25q-9.09,0-14.23-6A20.11,20.11,0,0,1,416.64,774,19.85,19.85,0,0,1,421,761.42a17.73,17.73,0,0,1,14.74-7,18.35,18.35,0,0,1,15.19,7.21A20.08,20.08,0,0,1,455,774.3H421.56a15.12,15.12,0,0,0,4.14,10.62,13.19,13.19,0,0,0,9.89,4.15,15.85,15.85,0,0,0,5.53-1,14.63,14.63,0,0,0,4.57-2.62A22.45,22.45,0,0,0,449.76,780.18Zm0-10a15.88,15.88,0,0,0-2.79-6.12,13.08,13.08,0,0,0-4.84-3.69,14.76,14.76,0,0,0-6.33-1.4,13.61,13.61,0,0,0-9.41,3.52,15.82,15.82,0,0,0-4.35,7.69Z"/><path d="M480,755.33h4.78V772.7a36.85,36.85,0,0,0,.69,8.75,9.78,9.78,0,0,0,3.92,5.4,11.92,11.92,0,0,0,6.9,2,11.68,11.68,0,0,0,6.79-1.93,9.9,9.9,0,0,0,3.85-5.08c.48-1.43.72-4.48.72-9.12V755.33h4.89v18.25q0,7.7-1.8,11.59a13.62,13.62,0,0,1-5.4,6.1,17,17,0,0,1-9,2.21,17.24,17.24,0,0,1-9.07-2.21,13.61,13.61,0,0,1-5.44-6.15Q480,781.18,480,773.24Z"/><path d="M523.17,755.33H528V762a20.23,20.23,0,0,1,6.36-5.73,15.68,15.68,0,0,1,7.59-1.89,13.19,13.19,0,0,1,7.4,2.11,12.73,12.73,0,0,1,4.77,5.71q1.53,3.59,1.54,11.18v19.14h-4.79V774.78a44.25,44.25,0,0,0-.53-8.58,9.45,9.45,0,0,0-3.19-5.55,9.68,9.68,0,0,0-6.16-1.87,11.77,11.77,0,0,0-7.77,2.88,13.44,13.44,0,0,0-4.53,7.1,49.05,49.05,0,0,0-.69,10.12v13.64h-4.78Z"/><path d="M603,741v51.54h-4.72v-6.39a20.37,20.37,0,0,1-6.75,5.5,18.84,18.84,0,0,1-21.67-3.88,19.21,19.21,0,0,1-5.59-13.93,18.86,18.86,0,0,1,5.64-13.74,18.4,18.4,0,0,1,13.57-5.7,17.54,17.54,0,0,1,8.29,1.94,18.9,18.9,0,0,1,6.51,5.85V741Zm-19.13,18a14.42,14.42,0,0,0-12.75,7.48,15.1,15.1,0,0,0,0,15,14.66,14.66,0,0,0,5.41,5.58,14.14,14.14,0,0,0,7.29,2,14.91,14.91,0,0,0,7.44-2,13.81,13.81,0,0,0,5.41-5.36,15.25,15.25,0,0,0,1.9-7.62,14.8,14.8,0,0,0-4.25-10.78A14.06,14.06,0,0,0,583.85,759Z"/><path d="M645.12,780.18l4,2.12a22,22,0,0,1-4.58,6.29,18.19,18.19,0,0,1-5.85,3.64,20.45,20.45,0,0,1-7.35,1.25q-9.11,0-14.24-6A20.11,20.11,0,0,1,612,774a19.85,19.85,0,0,1,4.35-12.61,17.73,17.73,0,0,1,14.74-7,18.35,18.35,0,0,1,15.19,7.21,20.08,20.08,0,0,1,4.1,12.71H616.92a15.12,15.12,0,0,0,4.14,10.62,13.19,13.19,0,0,0,9.89,4.15,15.85,15.85,0,0,0,5.53-1,14.63,14.63,0,0,0,4.57-2.62A22.45,22.45,0,0,0,645.12,780.18Zm0-10a15.88,15.88,0,0,0-2.79-6.12,13.08,13.08,0,0,0-4.84-3.69,14.76,14.76,0,0,0-6.33-1.4,13.61,13.61,0,0,0-9.41,3.52,15.82,15.82,0,0,0-4.35,7.69Z"/><path d="M657.49,755.33h4.89v5.44A17.24,17.24,0,0,1,667,756a9.05,9.05,0,0,1,5-1.58,8.72,8.72,0,0,1,4.24,1.26l-2.49,4a6.76,6.76,0,0,0-2.53-.65,7,7,0,0,0-4.62,2,12.38,12.38,0,0,0-3.38,6.1q-.88,3.18-.89,12.85v12.58h-4.89Z"/><path d="M704.65,742.24h9.88v50.28h-5V747.16h-7.9Z"/><path d="M757.39,764.94a18.47,18.47,0,0,1,7.3,5.77,12.86,12.86,0,0,1,2.2,7.39,15.31,15.31,0,0,1-3.79,10.25q-4.65,5.43-13.3,5.43-8.34,0-12.64-4.76a15.37,15.37,0,0,1-4.31-10.51,13.22,13.22,0,0,1,2.26-7.57q2.25-3.37,7.52-6a14.24,14.24,0,0,1-5.54-4.75,11,11,0,0,1-1.85-6.09,11.92,11.92,0,0,1,2-6.41,13.77,13.77,0,0,1,5.43-4.92,16.09,16.09,0,0,1,7.51-1.79,15.05,15.05,0,0,1,7.28,1.81,13.58,13.58,0,0,1,5.24,4.92,12.3,12.3,0,0,1,1.9,6.53,10.68,10.68,0,0,1-1.79,6.08A14.91,14.91,0,0,1,757.39,764.94Zm-7.26,2.53a12.13,12.13,0,0,0-8.71,3.36,10.56,10.56,0,0,0-3.51,7.85,10.09,10.09,0,0,0,5.7,9,13.92,13.92,0,0,0,6.25,1.33,11.8,11.8,0,0,0,8.73-3.24,10.43,10.43,0,0,0,3.24-7.59,10.05,10.05,0,0,0-3.43-7.47A11.53,11.53,0,0,0,750.13,767.47Zm-.24-21.61a9.92,9.92,0,0,0-6.87,2.45,7.59,7.59,0,0,0-2.72,5.83,8.14,8.14,0,0,0,2.93,6.06,9.85,9.85,0,0,0,11.56,1.49,8.93,8.93,0,0,0,3.47-3.37,8.43,8.43,0,0,0,1.25-4.29,8,8,0,0,0-2.46-5.6C755.4,746.72,753,745.86,749.89,745.86Z"/><path d="M828.34,755.33v37.19h-4.72v-6.39a20.37,20.37,0,0,1-6.75,5.5,18.84,18.84,0,0,1-21.67-3.88,19.21,19.21,0,0,1-5.59-13.93,18.86,18.86,0,0,1,5.64-13.74,18.41,18.41,0,0,1,13.57-5.7,17.51,17.51,0,0,1,8.29,1.94,18.9,18.9,0,0,1,6.51,5.85v-6.84ZM809.22,759a14.42,14.42,0,0,0-12.76,7.48,15.1,15.1,0,0,0,0,15,14.66,14.66,0,0,0,5.41,5.58,14.19,14.19,0,0,0,7.29,2,14.91,14.91,0,0,0,7.44-2,13.9,13.9,0,0,0,5.42-5.36,15.35,15.35,0,0,0,1.89-7.62,14.8,14.8,0,0,0-4.25-10.78A14,14,0,0,0,809.22,759Zm.59-24.27a7.31,7.31,0,1,1-5.14,2.14A7,7,0,0,1,809.81,734.72Zm0,3.49a3.74,3.74,0,0,0-2.67,6.38,3.6,3.6,0,0,0,2.67,1.1,3.56,3.56,0,0,0,2.63-1.1,3.74,3.74,0,0,0-2.63-6.38Z"/><path d="M837.29,755.33h4.89v5.44A17.24,17.24,0,0,1,846.8,756a9.05,9.05,0,0,1,5.05-1.58,8.72,8.72,0,0,1,4.24,1.26l-2.49,4a6.76,6.76,0,0,0-2.53-.65,6.93,6.93,0,0,0-4.62,2,12.38,12.38,0,0,0-3.38,6.1q-.89,3.18-.89,12.85v12.58h-4.89Z"/><path d="M914,741v51.54h-4.72v-6.39a20.37,20.37,0,0,1-6.75,5.5,18.84,18.84,0,0,1-21.67-3.88,19.21,19.21,0,0,1-5.59-13.93,18.86,18.86,0,0,1,5.64-13.74,18.41,18.41,0,0,1,13.57-5.7,17.51,17.51,0,0,1,8.29,1.94,18.9,18.9,0,0,1,6.51,5.85V741Zm-19.12,18a14.42,14.42,0,0,0-12.76,7.48,15.1,15.1,0,0,0,0,15,14.66,14.66,0,0,0,5.41,5.58,14.19,14.19,0,0,0,7.29,2,14.91,14.91,0,0,0,7.44-2,13.9,13.9,0,0,0,5.42-5.36,15.35,15.35,0,0,0,1.89-7.62,14.8,14.8,0,0,0-4.25-10.78A14,14,0,0,0,894.83,759Z"/><path d="M956.09,780.18l4,2.12a22.06,22.06,0,0,1-4.59,6.29,18.19,18.19,0,0,1-5.85,3.64,20.45,20.45,0,0,1-7.35,1.25q-9.11,0-14.24-6A20.11,20.11,0,0,1,923,774a19.85,19.85,0,0,1,4.35-12.61,17.73,17.73,0,0,1,14.74-7,18.35,18.35,0,0,1,15.19,7.21,20.15,20.15,0,0,1,4.11,12.71H927.89A15.17,15.17,0,0,0,932,784.92a13.15,13.15,0,0,0,9.88,4.15,15.85,15.85,0,0,0,5.53-1,14.63,14.63,0,0,0,4.57-2.62A22.19,22.19,0,0,0,956.09,780.18Zm0-10a15.88,15.88,0,0,0-2.79-6.12,13.08,13.08,0,0,0-4.84-3.69,14.76,14.76,0,0,0-6.33-1.4,13.61,13.61,0,0,0-9.41,3.52,15.82,15.82,0,0,0-4.35,7.69Z"/><path d="M968.47,755.33h4.88v5.44A17.24,17.24,0,0,1,978,756a9.06,9.06,0,0,1,5.06-1.58,8.72,8.72,0,0,1,4.23,1.26l-2.49,4a6.72,6.72,0,0,0-2.53-.65,6.9,6.9,0,0,0-4.61,2,12.39,12.39,0,0,0-3.39,6.1q-.88,3.18-.89,12.85v12.58h-4.88Z"/><path d="M110.64,876.52V825h4.78v20.74a20.3,20.3,0,0,1,6.73-5.52,18.36,18.36,0,0,1,8.16-1.82,18.11,18.11,0,0,1,13.47,5.72A19.18,19.18,0,0,1,149.37,858a18.9,18.9,0,0,1-5.64,13.78,18.36,18.36,0,0,1-13.55,5.71,17.3,17.3,0,0,1-8.23-2,19.22,19.22,0,0,1-6.53-5.85v6.84Zm19.14-3.66a14.39,14.39,0,0,0,12.74-7.48,15.21,15.21,0,0,0,0-15.08,14.68,14.68,0,0,0-5.41-5.59,14,14,0,0,0-7.24-2,14.89,14.89,0,0,0-7.45,2A13.9,13.9,0,0,0,117,850.1a15.25,15.25,0,0,0-1.9,7.62,14.83,14.83,0,0,0,4.25,10.8A14,14,0,0,0,129.78,872.86Z"/><path d="M157.36,825h4.79v51.54h-4.79Z"/><path d="M173.75,824a3.81,3.81,0,0,1,2.79,1.16,3.84,3.84,0,0,1,1.16,2.8,4,4,0,0,1-3.95,3.94,4,4,0,0,1-3.91-3.94,3.81,3.81,0,0,1,1.16-2.8A3.77,3.77,0,0,1,173.75,824Zm-2.37,15.31h4.78v37.19h-4.78Z"/><path d="M182.59,839.33h5.09l12.48,27.11,12.34-27.11h5.12l-17,37.19h-.89Z"/><path d="M256.21,864.18l4,2.12a22,22,0,0,1-4.58,6.29,18.19,18.19,0,0,1-5.85,3.64,20.47,20.47,0,0,1-7.36,1.25q-9.09,0-14.23-6A20.11,20.11,0,0,1,223.09,858a19.85,19.85,0,0,1,4.35-12.61,17.73,17.73,0,0,1,14.74-7,18.35,18.35,0,0,1,15.19,7.21,20.08,20.08,0,0,1,4.1,12.71H228a15.12,15.12,0,0,0,4.14,10.62,13.19,13.19,0,0,0,9.89,4.15,15.85,15.85,0,0,0,5.53-1,14.63,14.63,0,0,0,4.57-2.62A22.45,22.45,0,0,0,256.21,864.18Zm0-10a15.88,15.88,0,0,0-2.79-6.12,13.08,13.08,0,0,0-4.84-3.69,14.76,14.76,0,0,0-6.33-1.4,13.61,13.61,0,0,0-9.41,3.52,15.82,15.82,0,0,0-4.35,7.69Z"/><path d="M268.58,839.33h4.89v5.44a17.24,17.24,0,0,1,4.62-4.81,9.05,9.05,0,0,1,5.05-1.58,8.72,8.72,0,0,1,4.24,1.26l-2.49,4a6.76,6.76,0,0,0-2.53-.65,7,7,0,0,0-4.62,2,12.38,12.38,0,0,0-3.38,6.1q-.89,3.18-.89,12.85v12.58h-4.89Z"/><path d="M390.3,825v51.54h-4.71v-6.39a20.57,20.57,0,0,1-6.75,5.5,18.84,18.84,0,0,1-21.67-3.88,19.17,19.17,0,0,1-5.59-13.93,18.86,18.86,0,0,1,5.64-13.74,18.4,18.4,0,0,1,13.57-5.7,17.57,17.57,0,0,1,8.29,1.94,18.9,18.9,0,0,1,6.51,5.85V825Zm-19.12,18a14.42,14.42,0,0,0-12.75,7.48,15,15,0,0,0,0,15,14.59,14.59,0,0,0,5.41,5.58,14.14,14.14,0,0,0,7.29,2,15,15,0,0,0,7.44-2,13.87,13.87,0,0,0,5.41-5.36,15.36,15.36,0,0,0,1.9-7.62,14.76,14.76,0,0,0-4.26-10.78A14,14,0,0,0,371.18,843Z"/><path d="M432.45,864.18l4,2.12a22,22,0,0,1-4.58,6.29,18.41,18.41,0,0,1-5.85,3.64,20.47,20.47,0,0,1-7.36,1.25q-9.1,0-14.23-6A20.11,20.11,0,0,1,399.33,858a19.9,19.9,0,0,1,4.34-12.61,17.75,17.75,0,0,1,14.75-7,18.35,18.35,0,0,1,15.19,7.21,20.08,20.08,0,0,1,4.1,12.71H404.25a15.12,15.12,0,0,0,4.14,10.62,13.19,13.19,0,0,0,9.89,4.15,15.89,15.89,0,0,0,5.53-1,14.63,14.63,0,0,0,4.57-2.62A22.45,22.45,0,0,0,432.45,864.18Zm0-10a15.88,15.88,0,0,0-2.79-6.12,13.16,13.16,0,0,0-4.84-3.69,14.76,14.76,0,0,0-6.33-1.4,13.64,13.64,0,0,0-9.42,3.52,15.89,15.89,0,0,0-4.34,7.69Z"/><path d="M445.91,825h4.79v51.54h-4.79Z"/><path d="M464.82,825.52h4.78v13.81h7.59v4.14H469.6v33h-4.78v-33h-6.53v-4.14h6.53Z"/><path d="M546.07,839.33h4.78v6.43a18.78,18.78,0,0,1,5.13-5.2,14.56,14.56,0,0,1,7.64-2.18,12.8,12.8,0,0,1,5.13,1,11.15,11.15,0,0,1,4,2.82,15.47,15.47,0,0,1,2.67,5,17.64,17.64,0,0,1,6-6.65,14.1,14.1,0,0,1,7.71-2.27,12,12,0,0,1,6.8,1.94,11.63,11.63,0,0,1,4.39,5.44q1.43,3.48,1.43,10.46v20.3h-4.89v-20.3q0-6-.85-8.22a7.4,7.4,0,0,0-2.91-3.61A8.75,8.75,0,0,0,588.1,843a10.76,10.76,0,0,0-6.35,2.05,11.84,11.84,0,0,0-4.21,5.47Q576.22,854,576.21,862v14.56h-4.78v-19c0-4.49-.28-7.53-.84-9.14a7.65,7.65,0,0,0-2.92-3.86,8.44,8.44,0,0,0-5-1.46,10.69,10.69,0,0,0-6.2,2,11.82,11.82,0,0,0-4.27,5.39q-1.4,3.38-1.39,10.35v15.76h-4.78Z"/><path d="M643.07,864.18l4,2.12a22,22,0,0,1-4.58,6.29,18.41,18.41,0,0,1-5.85,3.64,20.47,20.47,0,0,1-7.36,1.25q-9.09,0-14.23-6A20.11,20.11,0,0,1,610,858a19.9,19.9,0,0,1,4.34-12.61,17.75,17.75,0,0,1,14.75-7,18.35,18.35,0,0,1,15.19,7.21,20.08,20.08,0,0,1,4.1,12.71H614.87A15.12,15.12,0,0,0,619,868.92a13.19,13.19,0,0,0,9.89,4.15,15.89,15.89,0,0,0,5.53-1,14.63,14.63,0,0,0,4.57-2.62A22.45,22.45,0,0,0,643.07,864.18Zm0-10a15.88,15.88,0,0,0-2.79-6.12,13.08,13.08,0,0,0-4.84-3.69,14.76,14.76,0,0,0-6.33-1.4,13.61,13.61,0,0,0-9.41,3.52,15.82,15.82,0,0,0-4.35,7.69Z"/><path d="M694.37,825v51.54h-4.71v-6.39a20.57,20.57,0,0,1-6.75,5.5,18.84,18.84,0,0,1-21.67-3.88,19.17,19.17,0,0,1-5.59-13.93,18.86,18.86,0,0,1,5.64-13.74,18.4,18.4,0,0,1,13.57-5.7,17.5,17.5,0,0,1,8.28,1.94,18.84,18.84,0,0,1,6.52,5.85V825Zm-19.12,18a14.42,14.42,0,0,0-12.75,7.48,15.07,15.07,0,0,0,0,15,14.68,14.68,0,0,0,5.42,5.58,14.13,14.13,0,0,0,7.28,2,15,15,0,0,0,7.45-2,13.94,13.94,0,0,0,5.41-5.36,15.35,15.35,0,0,0,1.89-7.62,14.76,14.76,0,0,0-4.25-10.78A14,14,0,0,0,675.25,843Z"/><path d="M804,839.33v37.19h-4.71v-6.39a20.57,20.57,0,0,1-6.75,5.5,18.84,18.84,0,0,1-21.67-3.88,19.17,19.17,0,0,1-5.59-13.93,18.86,18.86,0,0,1,5.64-13.74,18.4,18.4,0,0,1,13.57-5.7,17.5,17.5,0,0,1,8.28,1.94,18.84,18.84,0,0,1,6.52,5.85v-6.84ZM784.87,843a14.42,14.42,0,0,0-12.75,7.48,15.07,15.07,0,0,0,0,15,14.68,14.68,0,0,0,5.42,5.58,14.13,14.13,0,0,0,7.28,2,15,15,0,0,0,7.45-2,13.87,13.87,0,0,0,5.41-5.36,15.35,15.35,0,0,0,1.89-7.62,14.76,14.76,0,0,0-4.25-10.78A14,14,0,0,0,784.87,843Z"/><path d="M814.76,839.33h4.78V846a20.23,20.23,0,0,1,6.36-5.73,15.7,15.7,0,0,1,7.59-1.89,13.19,13.19,0,0,1,7.4,2.11,12.73,12.73,0,0,1,4.77,5.71q1.53,3.59,1.54,11.18v19.14h-4.79V858.78a44.25,44.25,0,0,0-.53-8.58,9.45,9.45,0,0,0-3.19-5.55,9.65,9.65,0,0,0-6.15-1.87,11.78,11.78,0,0,0-7.78,2.88,13.44,13.44,0,0,0-4.53,7.1,49.05,49.05,0,0,0-.69,10.12v13.64h-4.78Z"/><path d="M894.57,825v51.54h-4.72v-6.39a20.37,20.37,0,0,1-6.75,5.5,18.84,18.84,0,0,1-21.67-3.88,19.21,19.21,0,0,1-5.59-13.93,18.86,18.86,0,0,1,5.64-13.74,18.41,18.41,0,0,1,13.57-5.7,17.51,17.51,0,0,1,8.29,1.94,18.9,18.9,0,0,1,6.51,5.85V825Zm-19.12,18a14.42,14.42,0,0,0-12.76,7.48,15.1,15.1,0,0,0,0,15,14.66,14.66,0,0,0,5.41,5.58,14.19,14.19,0,0,0,7.29,2,14.91,14.91,0,0,0,7.44-2,13.9,13.9,0,0,0,5.42-5.36,15.35,15.35,0,0,0,1.89-7.62,14.8,14.8,0,0,0-4.25-10.78A14,14,0,0,0,875.45,843Z"/><path d="M903.59,839.33h4.89v5.44a17.36,17.36,0,0,1,4.61-4.81,9.11,9.11,0,0,1,5.06-1.58,8.75,8.75,0,0,1,4.24,1.26l-2.49,4a6.76,6.76,0,0,0-2.53-.65,6.93,6.93,0,0,0-4.62,2,12.38,12.38,0,0,0-3.38,6.1q-.89,3.18-.89,12.85v12.58h-4.89Z"/><path d="M957.77,864.18l4,2.12a22,22,0,0,1-4.58,6.29,18.41,18.41,0,0,1-5.85,3.64,20.47,20.47,0,0,1-7.36,1.25q-9.1,0-14.23-6A20.11,20.11,0,0,1,924.65,858,19.9,19.9,0,0,1,929,845.42a17.75,17.75,0,0,1,14.75-7,18.35,18.35,0,0,1,15.19,7.21A20.08,20.08,0,0,1,963,858.3H929.57a15.12,15.12,0,0,0,4.14,10.62,13.19,13.19,0,0,0,9.89,4.15,15.93,15.93,0,0,0,5.53-1,14.63,14.63,0,0,0,4.57-2.62A22.45,22.45,0,0,0,957.77,864.18Zm0-10a15.88,15.88,0,0,0-2.79-6.12,13.16,13.16,0,0,0-4.84-3.69,14.77,14.77,0,0,0-6.34-1.4,13.63,13.63,0,0,0-9.41,3.52,15.89,15.89,0,0,0-4.34,7.69Z"/><path d="M976.7,867.29l4.62,2.19-6.94,12.92L971,881Z"/><path d="M110.3,909h4.78v29.36l17.24-15h7l-20.44,17.74,21.64,19.45h-6.74l-18.73-16.74v16.74H110.3Z"/><path d="M182.52,923.33v37.19H177.8v-6.39a20.37,20.37,0,0,1-6.75,5.5,18.84,18.84,0,0,1-21.67-3.88,19.21,19.21,0,0,1-5.59-13.93,18.86,18.86,0,0,1,5.64-13.74,18.41,18.41,0,0,1,13.57-5.7,17.51,17.51,0,0,1,8.29,1.94,18.9,18.9,0,0,1,6.51,5.85v-6.84ZM163.4,927a14.42,14.42,0,0,0-12.76,7.48,15.1,15.1,0,0,0,0,15,14.66,14.66,0,0,0,5.41,5.58,14.19,14.19,0,0,0,7.29,2,14.91,14.91,0,0,0,7.44-2,13.9,13.9,0,0,0,5.42-5.36,15.35,15.35,0,0,0,1.89-7.62,14.8,14.8,0,0,0-4.25-10.78A14,14,0,0,0,163.4,927Z"/><path d="M193.29,923.33h4.78V930a20.12,20.12,0,0,1,6.36-5.73,15.65,15.65,0,0,1,7.59-1.89,13.22,13.22,0,0,1,7.4,2.11,12.65,12.65,0,0,1,4.76,5.71q1.55,3.59,1.54,11.18v19.14h-4.78V942.78a44.25,44.25,0,0,0-.53-8.58,9.41,9.41,0,0,0-3.2-5.55,9.63,9.63,0,0,0-6.15-1.87,11.8,11.8,0,0,0-7.78,2.88,13.44,13.44,0,0,0-4.53,7.1,50,50,0,0,0-.68,10.12v13.64h-4.78Z"/><path d="M301.62,923.33v37.19H296.9v-6.39a20.37,20.37,0,0,1-6.75,5.5,18.84,18.84,0,0,1-21.67-3.88,19.21,19.21,0,0,1-5.59-13.93,18.86,18.86,0,0,1,5.64-13.74,18.41,18.41,0,0,1,13.57-5.7,17.51,17.51,0,0,1,8.29,1.94,18.9,18.9,0,0,1,6.51,5.85v-6.84ZM282.5,927a14.42,14.42,0,0,0-12.76,7.48,15.1,15.1,0,0,0,0,15,14.66,14.66,0,0,0,5.41,5.58,14.19,14.19,0,0,0,7.29,2,14.91,14.91,0,0,0,7.44-2,13.81,13.81,0,0,0,5.41-5.36,15.25,15.25,0,0,0,1.9-7.62A14.8,14.8,0,0,0,293,931.33,14,14,0,0,0,282.5,927Z"/><path d="M312.39,923.33h4.78V930a20,20,0,0,1,6.36-5.73,15.65,15.65,0,0,1,7.59-1.89,13.22,13.22,0,0,1,7.4,2.11,12.65,12.65,0,0,1,4.76,5.71q1.55,3.59,1.54,11.18v19.14H340V942.78a43.18,43.18,0,0,0-.54-8.58,9.35,9.35,0,0,0-3.19-5.55,9.63,9.63,0,0,0-6.15-1.87,11.8,11.8,0,0,0-7.78,2.88,13.44,13.44,0,0,0-4.53,7.1,50,50,0,0,0-.68,10.12v13.64h-4.78Z"/><path d="M373.77,927.4l-3.07,3.18q-3.84-3.74-7.51-3.73a5.7,5.7,0,0,0-4,1.54,4.75,4.75,0,0,0-1.66,3.59,5.27,5.27,0,0,0,1.37,3.45q1.36,1.68,5.75,3.93,5.34,2.77,7.26,5.33a9.73,9.73,0,0,1,1.89,5.85,10.52,10.52,0,0,1-3.22,7.76,11,11,0,0,1-8,3.18,14.11,14.11,0,0,1-6.14-1.4,13.36,13.36,0,0,1-4.84-3.87l3-3.42q3.68,4.14,7.78,4.14a7,7,0,0,0,4.9-1.85,5.68,5.68,0,0,0,2-4.34,5.55,5.55,0,0,0-1.33-3.65q-1.35-1.58-6-4-5-2.6-6.85-5.12a9.69,9.69,0,0,1-1.82-5.78,9.38,9.38,0,0,1,2.89-7,10.08,10.08,0,0,1,7.31-2.8Q368.58,922.38,373.77,927.4Z"/><path d="M413.56,948.18l4,2.12a22,22,0,0,1-4.58,6.29,18.41,18.41,0,0,1-5.85,3.64,20.47,20.47,0,0,1-7.36,1.25q-9.1,0-14.23-6A20.11,20.11,0,0,1,380.44,942a19.9,19.9,0,0,1,4.34-12.61,17.75,17.75,0,0,1,14.75-7,18.35,18.35,0,0,1,15.19,7.21,20.08,20.08,0,0,1,4.1,12.71H385.36a15.12,15.12,0,0,0,4.14,10.62,13.19,13.19,0,0,0,9.89,4.15,15.89,15.89,0,0,0,5.53-1,14.47,14.47,0,0,0,4.56-2.62A22.18,22.18,0,0,0,413.56,948.18Zm0-10a15.88,15.88,0,0,0-2.79-6.12,13.16,13.16,0,0,0-4.84-3.69,14.76,14.76,0,0,0-6.33-1.4,13.64,13.64,0,0,0-9.42,3.52,15.89,15.89,0,0,0-4.34,7.69Z"/><path d="M446.44,927.4l-3.08,3.18q-3.84-3.74-7.5-3.73a5.67,5.67,0,0,0-4,1.54A4.76,4.76,0,0,0,430.2,932a5.32,5.32,0,0,0,1.37,3.45c.92,1.12,2.83,2.43,5.76,3.93q5.34,2.77,7.26,5.33a9.79,9.79,0,0,1,1.88,5.85,10.48,10.48,0,0,1-3.22,7.76,11,11,0,0,1-8,3.18,14.08,14.08,0,0,1-6.14-1.4,13.39,13.39,0,0,1-4.85-3.87l3-3.42c2.44,2.76,5,4.14,7.78,4.14a7,7,0,0,0,4.9-1.85,5.71,5.71,0,0,0,2-4.34,5.56,5.56,0,0,0-1.34-3.65q-1.33-1.58-6-4c-3.35-1.73-5.64-3.44-6.85-5.12a9.68,9.68,0,0,1-1.81-5.78,9.38,9.38,0,0,1,2.89-7,10.06,10.06,0,0,1,7.31-2.8Q441.23,922.38,446.44,927.4Z"/><path d="M502.2,927.4l-3.07,3.18q-3.84-3.74-7.51-3.73a5.7,5.7,0,0,0-4,1.54A4.75,4.75,0,0,0,486,932a5.27,5.27,0,0,0,1.37,3.45q1.37,1.68,5.75,3.93,5.34,2.77,7.26,5.33a9.73,9.73,0,0,1,1.89,5.85A10.52,10.52,0,0,1,499,958.3a11,11,0,0,1-8,3.18,14.12,14.12,0,0,1-6.15-1.4,13.36,13.36,0,0,1-4.84-3.87l3-3.42q3.67,4.14,7.78,4.14a7,7,0,0,0,4.9-1.85,5.68,5.68,0,0,0,2-4.34,5.55,5.55,0,0,0-1.33-3.65c-.9-1.05-2.9-2.37-6-4q-5-2.6-6.85-5.12a9.69,9.69,0,0,1-1.82-5.78,9.42,9.42,0,0,1,2.89-7,10.08,10.08,0,0,1,7.31-2.8Q497,922.38,502.2,927.4Z"/><path d="M528.28,922.38a18.43,18.43,0,0,1,14.25,6.22,20,20,0,0,1-.3,27,19.64,19.64,0,0,1-27.93,0,19.93,19.93,0,0,1-.3-27A18.42,18.42,0,0,1,528.28,922.38Zm0,4.68A13.81,13.81,0,0,0,518,931.47a14.72,14.72,0,0,0-4.29,10.66,15,15,0,0,0,2,7.52A13.8,13.8,0,0,0,521,955a15,15,0,0,0,14.61,0,13.8,13.8,0,0,0,5.28-5.38,15,15,0,0,0,2-7.52,14.7,14.7,0,0,0-4.31-10.66A13.81,13.81,0,0,0,528.27,927.06Z"/><path d="M556.48,923.33h4.79v6.43a18.51,18.51,0,0,1,5.13-5.2,14.53,14.53,0,0,1,7.63-2.18,12.8,12.8,0,0,1,5.13,1,11.06,11.06,0,0,1,4,2.82,15.1,15.1,0,0,1,2.67,5,17.57,17.57,0,0,1,6-6.65,14.06,14.06,0,0,1,7.7-2.27,12.07,12.07,0,0,1,6.81,1.94,11.67,11.67,0,0,1,4.38,5.44q1.43,3.48,1.43,10.46v20.3H607.2v-20.3q0-6-.85-8.22a7.4,7.4,0,0,0-2.91-3.61,8.74,8.74,0,0,0-4.92-1.37,10.77,10.77,0,0,0-6.36,2.05,11.75,11.75,0,0,0-4.2,5.47Q586.63,938,586.63,946v14.56h-4.79v-19c0-4.49-.28-7.53-.84-9.14a7.59,7.59,0,0,0-2.92-3.86,8.43,8.43,0,0,0-5-1.46,10.75,10.75,0,0,0-6.21,2,11.88,11.88,0,0,0-4.27,5.39q-1.38,3.38-1.38,10.35v15.76h-4.79Z"/><path d="M651.07,960.52V909h4.79v20.74a20.17,20.17,0,0,1,6.72-5.52,18.43,18.43,0,0,1,8.17-1.82,18.14,18.14,0,0,1,13.47,5.72A19.18,19.18,0,0,1,689.8,942a18.9,18.9,0,0,1-5.64,13.78,18.36,18.36,0,0,1-13.55,5.71,17.33,17.33,0,0,1-8.23-2,19.2,19.2,0,0,1-6.52-5.85v6.84Zm19.14-3.66A14.39,14.39,0,0,0,683,949.38a15.15,15.15,0,0,0,0-15.08,14.73,14.73,0,0,0-5.4-5.59,14.06,14.06,0,0,0-7.25-2,14.91,14.91,0,0,0-7.45,2,14,14,0,0,0-5.42,5.39,15.35,15.35,0,0,0-1.89,7.62,14.82,14.82,0,0,0,4.24,10.8A14,14,0,0,0,670.21,956.86Z"/><path d="M730.83,929.33a20,20,0,0,1-.87,26.32,18.1,18.1,0,0,1-13.89,5.83,19.31,19.31,0,0,1-10.2-2.8l-4,4.68-3-2.53,3.88-4.59a19,19,0,0,1-6-14.21,19.82,19.82,0,0,1,5.39-13.73A17.94,17.94,0,0,1,716,922.38a18.6,18.6,0,0,1,12,4.08l4-4.68,3.17,2.54ZM705.74,952.7l19.07-22.52a14,14,0,0,0-8.79-3.12,13.67,13.67,0,0,0-7.14,2,14.48,14.48,0,0,0-5.34,5.53,15.2,15.2,0,0,0-2,7.54,15.6,15.6,0,0,0,1.11,5.76A14.12,14.12,0,0,0,705.74,952.7Zm21.86-19.57-18.71,22a15.41,15.41,0,0,0,7.12,1.8,14.38,14.38,0,0,0,7.28-1.9,13.71,13.71,0,0,0,5.27-5.38,15.07,15.07,0,0,0,2-7.48A15.3,15.3,0,0,0,727.6,933.13Z"/><path d="M742.4,923.33h4.89v5.44A17.36,17.36,0,0,1,751.9,924a9.11,9.11,0,0,1,5.06-1.58,8.75,8.75,0,0,1,4.24,1.26l-2.49,4a6.76,6.76,0,0,0-2.53-.65,6.93,6.93,0,0,0-4.62,2,12.38,12.38,0,0,0-3.38,6.1q-.9,3.18-.89,12.85v12.58H742.4Z"/><path d="M765.27,923.33h4.78V930a20.23,20.23,0,0,1,6.36-5.73,15.65,15.65,0,0,1,7.59-1.89,13.22,13.22,0,0,1,7.4,2.11,12.73,12.73,0,0,1,4.77,5.71q1.53,3.59,1.53,11.18v19.14h-4.78V942.78a44.25,44.25,0,0,0-.53-8.58,9.45,9.45,0,0,0-3.19-5.55,9.68,9.68,0,0,0-6.16-1.87,11.77,11.77,0,0,0-7.77,2.88,13.32,13.32,0,0,0-4.53,7.1,49.05,49.05,0,0,0-.69,10.12v13.64h-4.78Z"/><path d="M839.27,948.18l4,2.12a22,22,0,0,1-4.58,6.29,18.41,18.41,0,0,1-5.85,3.64,20.47,20.47,0,0,1-7.36,1.25q-9.1,0-14.23-6A20.11,20.11,0,0,1,806.15,942a19.84,19.84,0,0,1,4.34-12.61,17.75,17.75,0,0,1,14.75-7,18.31,18.31,0,0,1,15.18,7.21,20.09,20.09,0,0,1,4.11,12.71H811.07a15.12,15.12,0,0,0,4.14,10.62,13.18,13.18,0,0,0,9.89,4.15,15.93,15.93,0,0,0,5.53-1,14.47,14.47,0,0,0,4.56-2.62A22.18,22.18,0,0,0,839.27,948.18Zm0-10a15.88,15.88,0,0,0-2.79-6.12,13.12,13.12,0,0,0-4.85-3.69,14.69,14.69,0,0,0-6.33-1.4,13.63,13.63,0,0,0-9.41,3.52,15.89,15.89,0,0,0-4.34,7.69Z"/><path d="M853.52,923.33h4.78v6.84a19.22,19.22,0,0,1,6.53-5.85,17.32,17.32,0,0,1,8.23-1.94,18.37,18.37,0,0,1,13.55,5.7,18.86,18.86,0,0,1,5.64,13.74,19.21,19.21,0,0,1-5.59,13.93A18.78,18.78,0,0,1,865,959.63a20.61,20.61,0,0,1-6.73-5.5v20h-4.78ZM872.66,927a14,14,0,0,0-10.45,4.34A14.8,14.8,0,0,0,858,942.11a15.25,15.25,0,0,0,1.9,7.62,13.77,13.77,0,0,0,5.42,5.36,15,15,0,0,0,7.45,2,14,14,0,0,0,7.24-2,14.59,14.59,0,0,0,5.41-5.58,15.1,15.1,0,0,0,0-15A14.39,14.39,0,0,0,872.66,927Z"/><path d="M918.8,922.38a18.43,18.43,0,0,1,14.25,6.22,20,20,0,0,1-.29,27,19.65,19.65,0,0,1-27.94,0,19.93,19.93,0,0,1-.3-27A18.42,18.42,0,0,1,918.8,922.38Zm0,4.68a13.81,13.81,0,0,0-10.26,4.41,14.72,14.72,0,0,0-4.29,10.66,15,15,0,0,0,2,7.52,13.8,13.8,0,0,0,5.28,5.38,15,15,0,0,0,14.61,0,13.8,13.8,0,0,0,5.28-5.38,15,15,0,0,0,2-7.52A14.7,14.7,0,0,0,929,931.47,13.81,13.81,0,0,0,918.79,927.06Z"/><path d="M945.22,923.33h4.89v5.44a17.24,17.24,0,0,1,4.62-4.81,9.05,9.05,0,0,1,5-1.58,8.72,8.72,0,0,1,4.24,1.26l-2.49,4A6.76,6.76,0,0,0,959,927a6.93,6.93,0,0,0-4.62,2,12.38,12.38,0,0,0-3.38,6.1q-.88,3.18-.89,12.85v12.58h-4.89Z"/><path d="M965,939.53h18.8v4.17H965Z"/><path d="M110.33,1007.33h4.79V1014a20.09,20.09,0,0,1,6.35-5.73,15.7,15.7,0,0,1,7.59-1.89,13.19,13.19,0,0,1,7.4,2.11,12.61,12.61,0,0,1,4.77,5.71q1.54,3.59,1.54,11.18v19.14H138v-17.74a43.43,43.43,0,0,0-.53-8.58,9.4,9.4,0,0,0-3.19-5.55,9.63,9.63,0,0,0-6.15-1.87,11.78,11.78,0,0,0-7.78,2.88,13.44,13.44,0,0,0-4.53,7.1,49.26,49.26,0,0,0-.68,10.12v13.64h-4.79Z"/><path d="M170.63,1006.38a18.42,18.42,0,0,1,14.24,6.22,20,20,0,0,1-.29,27.05,19.65,19.65,0,0,1-27.94,0,19.91,19.91,0,0,1-.29-27A18.39,18.39,0,0,1,170.63,1006.38Zm0,4.68a13.81,13.81,0,0,0-10.26,4.41,14.72,14.72,0,0,0-4.29,10.66,15.15,15.15,0,0,0,2,7.52,13.8,13.8,0,0,0,5.28,5.38,15,15,0,0,0,14.61,0,13.89,13.89,0,0,0,5.29-5.38,15.14,15.14,0,0,0,2-7.52,14.69,14.69,0,0,0-4.3-10.66A13.83,13.83,0,0,0,170.61,1011.06Z"/><path d="M204.12,1037a4.24,4.24,0,1,1-3,7.23,4.27,4.27,0,0,1,0-6A4,4,0,0,1,204.12,1037Z"/><path d="M251.69,1044.52V994.24h10.42q11.28,0,16.37,1.81a21.89,21.89,0,0,1,11.44,8.89A27.06,27.06,0,0,1,294,1020a26.41,26.41,0,0,1-3.27,13.3,21,21,0,0,1-8.48,8.48q-5.21,2.73-14.61,2.73Zm4.82-4.75h5.81q10.43,0,14.45-1.3a16.68,16.68,0,0,0,8.93-6.64,20.48,20.48,0,0,0,3.24-11.73,21.47,21.47,0,0,0-3.52-12.43,17.71,17.71,0,0,0-9.81-7.07q-4.71-1.44-15.55-1.44h-3.55Z"/><path d="M334.3,1032.18l4,2.12a22,22,0,0,1-4.58,6.29,18.41,18.41,0,0,1-5.85,3.64,20.47,20.47,0,0,1-7.36,1.25q-9.09,0-14.23-6a20.11,20.11,0,0,1-5.13-13.48,19.9,19.9,0,0,1,4.34-12.61,17.75,17.75,0,0,1,14.75-7,18.35,18.35,0,0,1,15.19,7.21,20.08,20.08,0,0,1,4.1,12.71H306.1a15.12,15.12,0,0,0,4.14,10.62,13.19,13.19,0,0,0,9.89,4.15,15.89,15.89,0,0,0,5.53-1,14.63,14.63,0,0,0,4.57-2.62A22.45,22.45,0,0,0,334.3,1032.18Zm0-10a15.88,15.88,0,0,0-2.79-6.12,13.16,13.16,0,0,0-4.84-3.69,14.76,14.76,0,0,0-6.33-1.4,13.61,13.61,0,0,0-9.41,3.52,15.82,15.82,0,0,0-4.35,7.69Z"/><path d="M352.65,993.52h4.79v13.81H365v4.14h-7.59v33h-4.79v-33h-6.52v-4.14h6.52Z"/><path d="M404.83,993h4.79v29.36l17.24-15h7l-20.44,17.74,21.63,19.45h-6.73l-18.73-16.74v16.74h-4.79Z"/><path d="M477.06,1007.33v37.19h-4.72v-6.39a20.57,20.57,0,0,1-6.75,5.5,18.84,18.84,0,0,1-21.67-3.88,19.17,19.17,0,0,1-5.59-13.93,18.86,18.86,0,0,1,5.64-13.74,18.4,18.4,0,0,1,13.57-5.7,17.57,17.57,0,0,1,8.29,1.94,18.9,18.9,0,0,1,6.51,5.85v-6.84ZM457.93,1011a14.42,14.42,0,0,0-12.75,7.48,15,15,0,0,0,0,15,14.59,14.59,0,0,0,5.41,5.58,14.14,14.14,0,0,0,7.29,2,14.94,14.94,0,0,0,7.44-2,13.87,13.87,0,0,0,5.41-5.36,15.36,15.36,0,0,0,1.9-7.62,14.8,14.8,0,0,0-4.25-10.78A14.07,14.07,0,0,0,457.93,1011Z"/><path d="M487.82,1007.33h4.79V1014a20.09,20.09,0,0,1,6.35-5.73,15.7,15.7,0,0,1,7.59-1.89,13.19,13.19,0,0,1,7.4,2.11,12.67,12.67,0,0,1,4.77,5.71q1.54,3.59,1.54,11.18v19.14h-4.79v-17.74a43.43,43.43,0,0,0-.53-8.58,9.4,9.4,0,0,0-3.19-5.55,9.63,9.63,0,0,0-6.15-1.87,11.78,11.78,0,0,0-7.78,2.88,13.44,13.44,0,0,0-4.53,7.1,49.26,49.26,0,0,0-.68,10.12v13.64h-4.79Z"/><path d="M581.87,1011.4l-3.07,3.18q-3.84-3.74-7.51-3.73a5.7,5.7,0,0,0-4,1.54,4.75,4.75,0,0,0-1.66,3.59,5.27,5.27,0,0,0,1.37,3.45q1.37,1.68,5.75,3.93,5.34,2.77,7.26,5.33a9.73,9.73,0,0,1,1.89,5.85,10.52,10.52,0,0,1-3.22,7.76,11,11,0,0,1-8.05,3.18,14.11,14.11,0,0,1-6.14-1.4,13.36,13.36,0,0,1-4.84-3.87l3-3.42q3.68,4.14,7.78,4.14a7,7,0,0,0,4.9-1.85,5.68,5.68,0,0,0,2-4.34,5.55,5.55,0,0,0-1.33-3.65q-1.35-1.58-6-4-5-2.59-6.85-5.12a9.69,9.69,0,0,1-1.82-5.78,9.38,9.38,0,0,1,2.89-7,10.08,10.08,0,0,1,7.31-2.8Q576.68,1006.38,581.87,1011.4Z"/><path d="M594.52,993.52h4.78v13.81h7.59v4.14H599.3v33h-4.78v-33H588v-4.14h6.53Z"/><path d="M612.26,1007.33h4.89v5.44a17.08,17.08,0,0,1,4.61-4.81,9.08,9.08,0,0,1,5.06-1.58,8.78,8.78,0,0,1,4.24,1.26l-2.5,4A6.68,6.68,0,0,0,626,1011a6.92,6.92,0,0,0-4.61,2,12.46,12.46,0,0,0-3.39,6.1q-.88,3.18-.88,12.85v12.58h-4.89Z"/><path d="M672.17,1007.33v37.19h-4.71v-6.39a20.57,20.57,0,0,1-6.75,5.5,18.84,18.84,0,0,1-21.67-3.88,19.17,19.17,0,0,1-5.59-13.93,18.86,18.86,0,0,1,5.64-13.74,18.4,18.4,0,0,1,13.57-5.7,17.57,17.57,0,0,1,8.29,1.94,18.9,18.9,0,0,1,6.51,5.85v-6.84ZM653.05,1011a14.42,14.42,0,0,0-12.75,7.48,15,15,0,0,0,0,15,14.59,14.59,0,0,0,5.41,5.58,14.14,14.14,0,0,0,7.29,2,14.94,14.94,0,0,0,7.44-2,13.87,13.87,0,0,0,5.41-5.36,15.36,15.36,0,0,0,1.9-7.62,14.8,14.8,0,0,0-4.25-10.78A14.07,14.07,0,0,0,653.05,1011Z"/><path d="M698.25,993v4.68a11.83,11.83,0,0,0-4.51-1.13,4.34,4.34,0,0,0-2.32.57,2.44,2.44,0,0,0-1.16,1.29,18,18,0,0,0-.24,3.92v5h7.77v4.14H690l0,33H685.2v-33h-4.89v-4.14h4.89v-5.81a15.83,15.83,0,0,1,.73-5.71,5.86,5.86,0,0,1,2.5-2.75,8.24,8.24,0,0,1,4.25-1A20.12,20.12,0,0,1,698.25,993Z"/><path d="M720.23,993v4.68a11.87,11.87,0,0,0-4.51-1.13,4.34,4.34,0,0,0-2.32.57,2.46,2.46,0,0,0-1.17,1.29,18,18,0,0,0-.24,3.92v5h7.76v4.14H712l0,33h-4.79v-33h-4.88v-4.14h4.88v-5.81a15.78,15.78,0,0,1,.74-5.71,5.86,5.86,0,0,1,2.5-2.75,8.24,8.24,0,0,1,4.25-1A20.12,20.12,0,0,1,720.23,993Z"/><path d="M758.21,1032.18l4,2.12a21.87,21.87,0,0,1-4.59,6.29,18.19,18.19,0,0,1-5.85,3.64,20.41,20.41,0,0,1-7.35,1.25q-9.11,0-14.23-6a20.12,20.12,0,0,1-5.14-13.48,19.85,19.85,0,0,1,4.35-12.61,17.74,17.74,0,0,1,14.74-7,18.33,18.33,0,0,1,15.19,7.21,20.15,20.15,0,0,1,4.11,12.71H730a15.12,15.12,0,0,0,4.14,10.62,13.18,13.18,0,0,0,9.89,4.15,15.84,15.84,0,0,0,5.52-1,14.52,14.52,0,0,0,4.57-2.62A22.18,22.18,0,0,0,758.21,1032.18Zm0-10a15.88,15.88,0,0,0-2.79-6.12,13.12,13.12,0,0,0-4.85-3.69,14.69,14.69,0,0,0-6.33-1.4,13.63,13.63,0,0,0-9.41,3.52,15.89,15.89,0,0,0-4.34,7.69Z"/><path d="M791.09,1011.4l-3.08,3.18q-3.84-3.74-7.51-3.73a5.7,5.7,0,0,0-4,1.54,4.75,4.75,0,0,0-1.66,3.59,5.32,5.32,0,0,0,1.37,3.45q1.37,1.68,5.75,3.93,5.35,2.77,7.27,5.33a9.79,9.79,0,0,1,1.88,5.85,10.48,10.48,0,0,1-3.22,7.76,11,11,0,0,1-8,3.18,14.12,14.12,0,0,1-6.15-1.4,13.44,13.44,0,0,1-4.84-3.87l3-3.42q3.66,4.14,7.77,4.14a7,7,0,0,0,4.9-1.85,5.68,5.68,0,0,0,2-4.34,5.55,5.55,0,0,0-1.33-3.65q-1.34-1.58-6-4-5-2.59-6.85-5.12a9.69,9.69,0,0,1-1.82-5.78,9.39,9.39,0,0,1,2.9-7,10.06,10.06,0,0,1,7.31-2.8Q785.88,1006.38,791.09,1011.4Z"/><path d="M832.19,1007.33H837v6.43a18.51,18.51,0,0,1,5.13-5.2,14.53,14.53,0,0,1,7.63-2.18,12.8,12.8,0,0,1,5.13,1,11.06,11.06,0,0,1,4,2.82,15.1,15.1,0,0,1,2.67,5,17.57,17.57,0,0,1,6-6.65,14.07,14.07,0,0,1,7.71-2.27,12.06,12.06,0,0,1,6.8,1.94,11.67,11.67,0,0,1,4.38,5.44q1.43,3.48,1.43,10.46v20.3h-4.89v-20.3q0-6-.85-8.22a7.4,7.4,0,0,0-2.91-3.61,8.71,8.71,0,0,0-4.92-1.37,10.77,10.77,0,0,0-6.36,2.05,11.75,11.75,0,0,0-4.2,5.47q-1.33,3.42-1.33,11.42v14.56h-4.79v-19c0-4.49-.28-7.53-.83-9.14a7.67,7.67,0,0,0-2.93-3.86,8.43,8.43,0,0,0-4.95-1.46,10.75,10.75,0,0,0-6.21,2,11.88,11.88,0,0,0-4.27,5.39q-1.38,3.38-1.38,10.35v15.76h-4.79Z"/><path d="M929.19,1032.18l4,2.12a22.06,22.06,0,0,1-4.59,6.29,18.19,18.19,0,0,1-5.85,3.64,20.41,20.41,0,0,1-7.35,1.25q-9.11,0-14.23-6a20.07,20.07,0,0,1-5.14-13.48,19.85,19.85,0,0,1,4.35-12.61,17.73,17.73,0,0,1,14.74-7,18.33,18.33,0,0,1,15.19,7.21,20.15,20.15,0,0,1,4.11,12.71H901a15.12,15.12,0,0,0,4.14,10.62,13.16,13.16,0,0,0,9.89,4.15,15.84,15.84,0,0,0,5.52-1,14.52,14.52,0,0,0,4.57-2.62A22.19,22.19,0,0,0,929.19,1032.18Zm0-10a15.73,15.73,0,0,0-2.79-6.12,13.08,13.08,0,0,0-4.84-3.69,14.76,14.76,0,0,0-6.33-1.4,13.61,13.61,0,0,0-9.41,3.52,15.82,15.82,0,0,0-4.35,7.69Z"/><path d="M980.5,993v51.54h-4.72v-6.39a20.57,20.57,0,0,1-6.75,5.5,18.84,18.84,0,0,1-21.67-3.88,19.17,19.17,0,0,1-5.59-13.93,18.86,18.86,0,0,1,5.64-13.74,18.4,18.4,0,0,1,13.57-5.7,17.54,17.54,0,0,1,8.29,1.94,18.9,18.9,0,0,1,6.51,5.85V993Zm-19.13,18a14.42,14.42,0,0,0-12.75,7.48,15.1,15.1,0,0,0,0,15,14.66,14.66,0,0,0,5.41,5.58,14.14,14.14,0,0,0,7.29,2,14.91,14.91,0,0,0,7.44-2,13.81,13.81,0,0,0,5.41-5.36,15.25,15.25,0,0,0,1.9-7.62,14.8,14.8,0,0,0-4.25-10.78A14.06,14.06,0,0,0,961.37,1011Z"/><path d="M240.17,1090.38a18.43,18.43,0,0,1,14.25,6.22,20,20,0,0,1-.29,27.05,19.65,19.65,0,0,1-27.94,0,19.91,19.91,0,0,1-.29-27A18.38,18.38,0,0,1,240.17,1090.38Zm0,4.68a13.81,13.81,0,0,0-10.26,4.41,14.72,14.72,0,0,0-4.29,10.66,15,15,0,0,0,2,7.52,13.8,13.8,0,0,0,5.28,5.38,15,15,0,0,0,14.61,0,13.8,13.8,0,0,0,5.28-5.38,15,15,0,0,0,2-7.52,14.7,14.7,0,0,0-4.31-10.66A13.81,13.81,0,0,0,240.16,1095.06Z"/><path d="M268.47,1091.33h4.79v6.84a19.2,19.2,0,0,1,6.52-5.85,17.32,17.32,0,0,1,8.23-1.94,18.35,18.35,0,0,1,13.55,5.7,18.86,18.86,0,0,1,5.64,13.74,19.2,19.2,0,0,1-5.58,13.93,18.78,18.78,0,0,1-21.63,3.88,20.41,20.41,0,0,1-6.73-5.5v20h-4.79Zm19.14,3.66a14,14,0,0,0-10.45,4.34,14.79,14.79,0,0,0-4.24,10.78,15.35,15.35,0,0,0,1.89,7.62,13.83,13.83,0,0,0,5.42,5.36,15,15,0,0,0,7.45,2,14.07,14.07,0,0,0,7.25-2,14.63,14.63,0,0,0,5.4-5.58,15,15,0,0,0,0-15,14.39,14.39,0,0,0-12.74-7.48Z"/><path d="M339.7,1077.52h4.79v13.81h7.59v4.14h-7.59v33H339.7v-33h-6.52v-4.14h6.52Z"/><path d="M360.91,1076a3.81,3.81,0,0,1,2.79,1.16,3.84,3.84,0,0,1,1.16,2.8,4,4,0,0,1-3.95,3.94A4,4,0,0,1,357,1080a3.81,3.81,0,0,1,1.16-2.8A3.77,3.77,0,0,1,360.91,1076Zm-2.37,15.31h4.78v37.19h-4.78Z"/><path d="M372.55,1077h4.79v51.54h-4.79Z"/><path d="M427,1077l4.14,2.7-13.6,20.57a16.29,16.29,0,0,1,5.13-.92,13.6,13.6,0,0,1,10.17,4.32,14.74,14.74,0,0,1,4.18,10.65,15.34,15.34,0,0,1-2,7.84,14.79,14.79,0,0,1-5.73,5.58,16.26,16.26,0,0,1-8,2.06,15.38,15.38,0,0,1-7.68-2,14.27,14.27,0,0,1-5.56-5.63,15.63,15.63,0,0,1-2-7.76,18.56,18.56,0,0,1,1.25-6.47,40.4,40.4,0,0,1,4.46-8.19Zm-5.52,26.76a10.57,10.57,0,1,0,7.48,3.09A10.22,10.22,0,0,0,421.51,1103.74Z"/><path d="M501.89,1091.33v37.19h-4.72v-6.39a20.57,20.57,0,0,1-6.75,5.5,18.84,18.84,0,0,1-21.67-3.88,19.17,19.17,0,0,1-5.59-13.93,18.86,18.86,0,0,1,5.64-13.74,18.4,18.4,0,0,1,13.57-5.7,17.54,17.54,0,0,1,8.29,1.94,18.9,18.9,0,0,1,6.51,5.85v-6.84ZM482.76,1095a14.42,14.42,0,0,0-12.75,7.48,15,15,0,0,0,0,15,14.66,14.66,0,0,0,5.41,5.58,14.14,14.14,0,0,0,7.29,2,14.91,14.91,0,0,0,7.44-2,13.81,13.81,0,0,0,5.41-5.36,15.25,15.25,0,0,0,1.9-7.62,14.8,14.8,0,0,0-4.25-10.78A14.06,14.06,0,0,0,482.76,1095Zm.6-24.27a7.31,7.31,0,1,1-5.14,2.14A7,7,0,0,1,483.36,1070.72Zm0,3.49a3.74,3.74,0,0,0-2.67,6.38,3.6,3.6,0,0,0,2.67,1.1,3.56,3.56,0,0,0,2.63-1.1,3.74,3.74,0,0,0-2.63-6.38Z"/><path d="M510.84,1091.33h4.89v5.44a17.36,17.36,0,0,1,4.61-4.81,9.11,9.11,0,0,1,5.06-1.58,8.75,8.75,0,0,1,4.24,1.26l-2.49,4a6.76,6.76,0,0,0-2.53-.65,6.93,6.93,0,0,0-4.62,2,12.38,12.38,0,0,0-3.38,6.1q-.89,3.18-.89,12.85v12.58h-4.89Z"/><path d="M552.4,1095.4l-3.07,3.18q-3.84-3.74-7.51-3.73a5.7,5.7,0,0,0-4,1.54,4.75,4.75,0,0,0-1.66,3.59,5.32,5.32,0,0,0,1.37,3.45q1.37,1.68,5.75,3.93,5.36,2.78,7.26,5.33a9.73,9.73,0,0,1,1.89,5.85,10.48,10.48,0,0,1-3.22,7.76,11,11,0,0,1-8,3.18,14.12,14.12,0,0,1-6.15-1.4,13.44,13.44,0,0,1-4.84-3.87l3-3.42q3.66,4.14,7.77,4.14a7,7,0,0,0,4.9-1.85,5.68,5.68,0,0,0,2-4.34,5.55,5.55,0,0,0-1.33-3.65q-1.34-1.58-6-4-5-2.59-6.85-5.12a9.69,9.69,0,0,1-1.82-5.78,9.39,9.39,0,0,1,2.9-7,10,10,0,0,1,7.3-2.8Q547.21,1090.38,552.4,1095.4Z"/><path d="M595.57,1077v4.68a11.87,11.87,0,0,0-4.51-1.13,4.34,4.34,0,0,0-2.32.57,2.39,2.39,0,0,0-1.16,1.29,18,18,0,0,0-.24,3.92v5h7.76v4.14h-7.76l0,33h-4.78v-33h-4.89v-4.14h4.89v-5.81a15.83,15.83,0,0,1,.73-5.71,5.86,5.86,0,0,1,2.5-2.75,8.24,8.24,0,0,1,4.25-1A20.12,20.12,0,0,1,595.57,1077Z"/><path d="M639.46,1091.33v6.74a22.83,22.83,0,0,1,7-6,17.61,17.61,0,0,1,7.93-1.67,18.58,18.58,0,0,1,13.89,5.62q5.49,5.63,5.45,14.4H640.28a16.12,16.12,0,0,0,2.12,7.47,13.74,13.74,0,0,0,5.25,5.36,14.5,14.5,0,0,0,7.23,1.84,14.13,14.13,0,0,0,7.65-2.11,17.48,17.48,0,0,0,5.91-6.68l4.11,2a19,19,0,0,1-7.28,8.23,20.08,20.08,0,0,1-10.74,2.92,18.67,18.67,0,0,1-9.4-2.36,19.16,19.16,0,0,1-5.67-5.23v6.63h-4.38v-6.87a21.61,21.61,0,0,1-5.91,5.43,17.47,17.47,0,0,1-9,2.4,18.31,18.31,0,0,1-13.53-5.73,20.09,20.09,0,0,1-3.11-23.72,18.84,18.84,0,0,1,7-7,18.61,18.61,0,0,1,9.51-2.61,18.15,18.15,0,0,1,9,2.35,23,23,0,0,1,6,5.37v-6.77ZM620.37,1095a14.48,14.48,0,0,0-7.31,2,13.77,13.77,0,0,0-5.3,5.38,15.43,15.43,0,0,0-1.9,7.61,14.65,14.65,0,0,0,4.24,10.71,14.87,14.87,0,0,0,20.86,0,14.55,14.55,0,0,0,4.23-10.69,15.88,15.88,0,0,0-1.83-7.79,13.32,13.32,0,0,0-5.34-5.26A15.49,15.49,0,0,0,620.37,1095Zm48.07,11.28a16.08,16.08,0,0,0-2.76-6.19,13.37,13.37,0,0,0-4.82-3.71,14.37,14.37,0,0,0-12.5,0,14,14,0,0,0-5,3.86,14.91,14.91,0,0,0-2.81,6Z"/><path d="M683.24,1091.33H688V1098a20,20,0,0,1,6.36-5.73,15.64,15.64,0,0,1,7.58-1.89,13.25,13.25,0,0,1,7.41,2.11,12.65,12.65,0,0,1,4.76,5.71q1.54,3.58,1.54,11.18v19.14H710.9v-17.74a43.18,43.18,0,0,0-.54-8.58,9.35,9.35,0,0,0-3.19-5.55,9.63,9.63,0,0,0-6.15-1.87,11.8,11.8,0,0,0-7.78,2.88,13.44,13.44,0,0,0-4.53,7.1,50,50,0,0,0-.68,10.12v13.64h-4.79Z"/><path d="M758,1091.33h4.78V1121q0,7.82-1.37,11.45a14.87,14.87,0,0,1-6.53,7.89,21.38,21.38,0,0,1-11.17,2.77,25.66,25.66,0,0,1-8.6-1.35,17.25,17.25,0,0,1-6.2-3.64,21.42,21.42,0,0,1-4.41-6.67h5.19a13.66,13.66,0,0,0,5.48,5.47,17.57,17.57,0,0,0,8.32,1.78,17.24,17.24,0,0,0,8.26-1.82,11.2,11.2,0,0,0,4.81-4.58q1.44-2.76,1.44-8.91v-1.92a18.22,18.22,0,0,1-6.61,5.25,19.59,19.59,0,0,1-17.93-.72,18.1,18.1,0,0,1-7-6.85,18.76,18.76,0,0,1-2.46-9.47,19.34,19.34,0,0,1,19.23-19.27,17.79,17.79,0,0,1,7.78,1.72,21.53,21.53,0,0,1,7,5.69ZM743.88,1095a15,15,0,0,0-7.55,2,14.2,14.2,0,0,0-5.47,5.43,14.77,14.77,0,0,0-2,7.5A13.53,13.53,0,0,0,733,1120a14.59,14.59,0,0,0,10.63,4,14.44,14.44,0,0,0,10.61-4,14,14,0,0,0,4-10.42,15.1,15.1,0,0,0-1.84-7.5,13.46,13.46,0,0,0-5.23-5.22A14.61,14.61,0,0,0,743.88,1095Z"/><path d="M791.73,1095.4l-3.08,3.18q-3.84-3.74-7.5-3.73a5.68,5.68,0,0,0-4,1.54,4.75,4.75,0,0,0-1.66,3.59,5.27,5.27,0,0,0,1.37,3.45q1.36,1.68,5.75,3.93,5.34,2.78,7.26,5.33a9.73,9.73,0,0,1,1.88,5.85,10.51,10.51,0,0,1-3.21,7.76,11,11,0,0,1-8,3.18,14.11,14.11,0,0,1-6.14-1.4,13.48,13.48,0,0,1-4.85-3.87l3-3.42q3.68,4.14,7.78,4.14a7,7,0,0,0,4.9-1.85,5.71,5.71,0,0,0,2-4.34,5.56,5.56,0,0,0-1.34-3.65q-1.33-1.58-6-4c-3.35-1.73-5.64-3.44-6.85-5.12a9.68,9.68,0,0,1-1.81-5.78,9.38,9.38,0,0,1,2.89-7,10.08,10.08,0,0,1,7.31-2.8Q786.52,1090.38,791.73,1095.4Z"/><path d="M831.52,1116.18l4,2.12a21.87,21.87,0,0,1-4.59,6.29,18.19,18.19,0,0,1-5.85,3.64,20.37,20.37,0,0,1-7.35,1.25q-9.1,0-14.23-6A20.11,20.11,0,0,1,798.4,1110a19.84,19.84,0,0,1,4.34-12.61,17.74,17.74,0,0,1,14.74-7,18.32,18.32,0,0,1,15.19,7.21,20.09,20.09,0,0,1,4.11,12.71H803.32a15.12,15.12,0,0,0,4.14,10.62,13.18,13.18,0,0,0,9.89,4.15,15.93,15.93,0,0,0,5.53-1,14.47,14.47,0,0,0,4.56-2.62A22.18,22.18,0,0,0,831.52,1116.18Zm0-10a15.88,15.88,0,0,0-2.79-6.12,13.12,13.12,0,0,0-4.85-3.69,14.69,14.69,0,0,0-6.33-1.4,13.63,13.63,0,0,0-9.41,3.52,15.89,15.89,0,0,0-4.34,7.69Z"/><path d="M845,1077h4.79v51.54H845Z"/><path d="M865,1121a4,4,0,0,1,3,1.23,4.27,4.27,0,0,1,0,6,4.17,4.17,0,0,1-6,0,4.23,4.23,0,0,1,3-7.23Z"/><path d="M425.65,97.67h13.87v27.1h24V97.67h13.81V169.5H463.5V138h-24v31.5H425.65Z"/><path d="M527.63,95.87a35.64,35.64,0,0,1,26.21,11,36.71,36.71,0,0,1,11,26.9A36.3,36.3,0,0,1,554,160.42a35.63,35.63,0,0,1-26.26,10.88q-16.17,0-26.87-11.18a37.81,37.81,0,0,1,8-59.2A36.8,36.8,0,0,1,527.63,95.87Zm-.14,13.37a22.57,22.57,0,0,0-16.77,6.94q-6.8,6.93-6.79,17.62,0,11.92,8.55,18.85a23.4,23.4,0,0,0,15.25,5.42,22.26,22.26,0,0,0,16.57-7,25.34,25.34,0,0,0,0-34.69A22.46,22.46,0,0,0,527.49,109.24Z"/><path d="M572.26,97.67h14.06l18.07,51,18.33-51h14L610.88,169.5H597.7Z"/><path d="M653.49,154.17a8.11,8.11,0,0,1,5.93,2.44,8.4,8.4,0,1,1-5.93-2.44Zm-6.74-58.3h13.47v52.49H646.75Z"/><path d="M144.12,311.52V261.24h10.42q11.28,0,16.38,1.81a21.9,21.9,0,0,1,11.43,8.89A27.06,27.06,0,0,1,186.47,287a26.41,26.41,0,0,1-3.27,13.3,20.94,20.94,0,0,1-8.47,8.48q-5.22,2.73-14.62,2.73Zm4.82-4.75h5.81q10.42,0,14.46-1.3a16.69,16.69,0,0,0,8.92-6.64,20.48,20.48,0,0,0,3.24-11.73,21.47,21.47,0,0,0-3.52-12.43A17.64,17.64,0,0,0,168,267.6q-4.71-1.44-15.55-1.44h-3.55Z"/><path d="M194.81,274.33h4.78V291.7a36.85,36.85,0,0,0,.69,8.75,9.78,9.78,0,0,0,3.92,5.4,11.87,11.87,0,0,0,6.89,2,11.72,11.72,0,0,0,6.8-1.93,9.9,9.9,0,0,0,3.85-5.08c.48-1.43.72-4.48.72-9.12V274.33h4.89v18.25q0,7.69-1.8,11.59a13.74,13.74,0,0,1-5.4,6.1,19.66,19.66,0,0,1-18.11,0,13.61,13.61,0,0,1-5.44-6.15q-1.8-3.94-1.79-11.88Z"/><path d="M314.61,278.4l-3.08,3.18q-3.84-3.74-7.5-3.73a5.71,5.71,0,0,0-4,1.54,4.78,4.78,0,0,0-1.66,3.59,5.32,5.32,0,0,0,1.37,3.45q1.36,1.68,5.76,3.93,5.34,2.77,7.26,5.33a9.79,9.79,0,0,1,1.88,5.85,10.48,10.48,0,0,1-3.22,7.76,11,11,0,0,1-8,3.18,14.15,14.15,0,0,1-6.15-1.4,13.44,13.44,0,0,1-4.84-3.87l3-3.42q3.66,4.14,7.77,4.14a7,7,0,0,0,4.9-1.85,5.69,5.69,0,0,0,2-4.34,5.56,5.56,0,0,0-1.34-3.65q-1.33-1.57-6-4-5-2.6-6.85-5.12a9.69,9.69,0,0,1-1.82-5.78,9.39,9.39,0,0,1,2.9-7,10.06,10.06,0,0,1,7.31-2.8Q309.4,273.38,314.61,278.4Z"/><path d="M359.18,282.06l-3.8,2.36A15.86,15.86,0,0,0,342,277.89a15.52,15.52,0,0,0-11.29,4.37,14.27,14.27,0,0,0-4.49,10.62,15,15,0,0,0,2.07,7.64,14.52,14.52,0,0,0,5.67,5.57,17.13,17.13,0,0,0,21.45-4.55l3.8,2.49a17.91,17.91,0,0,1-7.16,6.23,22.83,22.83,0,0,1-10.24,2.22,20.21,20.21,0,0,1-14.63-5.61,18.25,18.25,0,0,1-5.81-13.64,19.5,19.5,0,0,1,2.72-10,19.16,19.16,0,0,1,7.47-7.23,21.78,21.78,0,0,1,10.63-2.59,22.71,22.71,0,0,1,7.12,1.12,20,20,0,0,1,5.83,2.94A16.16,16.16,0,0,1,359.18,282.06Z"/><path d="M366.56,274.33h4.89v5.44a17.22,17.22,0,0,1,4.61-4.81,9.11,9.11,0,0,1,5.06-1.58,8.78,8.78,0,0,1,4.24,1.26l-2.5,4a6.68,6.68,0,0,0-2.53-.65,6.92,6.92,0,0,0-4.61,2,12.38,12.38,0,0,0-3.38,6.1q-.9,3.18-.89,12.85v12.58h-4.89Z"/><path d="M420.73,299.18l4,2.12a21.87,21.87,0,0,1-4.59,6.29,18.19,18.19,0,0,1-5.85,3.64,20.41,20.41,0,0,1-7.35,1.25q-9.11,0-14.23-6A20.12,20.12,0,0,1,387.61,293,19.85,19.85,0,0,1,392,280.42a17.74,17.74,0,0,1,14.74-7,18.33,18.33,0,0,1,15.19,7.21A20.15,20.15,0,0,1,426,293.3H392.54a15.12,15.12,0,0,0,4.14,10.62,13.18,13.18,0,0,0,9.89,4.15,15.84,15.84,0,0,0,5.52-1,14.52,14.52,0,0,0,4.57-2.62A22.19,22.19,0,0,0,420.73,299.18Zm0-10a15.73,15.73,0,0,0-2.78-6.12,13.2,13.2,0,0,0-4.85-3.69,14.73,14.73,0,0,0-6.33-1.4,13.61,13.61,0,0,0-9.41,3.52,15.82,15.82,0,0,0-4.34,7.69Z"/><path d="M466.23,299.18l4,2.12a22,22,0,0,1-4.58,6.29,18.41,18.41,0,0,1-5.85,3.64,20.47,20.47,0,0,1-7.36,1.25q-9.11,0-14.23-6A20.11,20.11,0,0,1,433.11,293a19.9,19.9,0,0,1,4.34-12.61,17.76,17.76,0,0,1,14.75-7,18.35,18.35,0,0,1,15.19,7.21,20.08,20.08,0,0,1,4.1,12.71H438a15.12,15.12,0,0,0,4.14,10.62,13.19,13.19,0,0,0,9.89,4.15,15.93,15.93,0,0,0,5.53-1,14.63,14.63,0,0,0,4.57-2.62A22.45,22.45,0,0,0,466.23,299.18Zm0-10a15.88,15.88,0,0,0-2.79-6.12,13.16,13.16,0,0,0-4.84-3.69,14.76,14.76,0,0,0-6.33-1.4,13.65,13.65,0,0,0-9.42,3.52,15.89,15.89,0,0,0-4.34,7.69Z"/><path d="M480.41,274.33h4.79V281a20,20,0,0,1,6.36-5.73,15.64,15.64,0,0,1,7.58-1.89,13.19,13.19,0,0,1,7.4,2.11,12.61,12.61,0,0,1,4.77,5.71q1.55,3.58,1.54,11.18v19.14h-4.79V293.78a43.43,43.43,0,0,0-.53-8.58,9.4,9.4,0,0,0-3.19-5.55,9.63,9.63,0,0,0-6.15-1.87,11.78,11.78,0,0,0-7.78,2.88,13.44,13.44,0,0,0-4.53,7.1,50,50,0,0,0-.68,10.12v13.64h-4.79Z"/><path d="M541.8,278.4l-3.08,3.18q-3.84-3.74-7.5-3.73a5.68,5.68,0,0,0-4,1.54,4.76,4.76,0,0,0-1.67,3.59,5.32,5.32,0,0,0,1.37,3.45q1.38,1.68,5.76,3.93,5.34,2.77,7.26,5.33a9.73,9.73,0,0,1,1.88,5.85,10.51,10.51,0,0,1-3.21,7.76,11,11,0,0,1-8,3.18,14.11,14.11,0,0,1-6.14-1.4,13.48,13.48,0,0,1-4.85-3.87l3-3.42q3.67,4.14,7.78,4.14a7,7,0,0,0,4.9-1.85,5.71,5.71,0,0,0,2-4.34,5.56,5.56,0,0,0-1.34-3.65q-1.34-1.57-6-4c-3.35-1.73-5.64-3.44-6.85-5.12a9.68,9.68,0,0,1-1.81-5.78,9.38,9.38,0,0,1,2.89-7,10.08,10.08,0,0,1,7.31-2.8Q536.59,273.38,541.8,278.4Z"/><path d="M550.28,260h4.78v21a20.53,20.53,0,0,1,6.39-5.73,15.62,15.62,0,0,1,7.56-1.89,13.22,13.22,0,0,1,7.4,2.11,12.62,12.62,0,0,1,4.76,5.7q1.55,3.57,1.54,11.19v19.14h-4.78V293.78a45.67,45.67,0,0,0-.51-8.58,9.71,9.71,0,0,0-3.24-5.55,9.56,9.56,0,0,0-6.13-1.87,11.8,11.8,0,0,0-7.78,2.88,13.36,13.36,0,0,0-4.52,7.1,48.79,48.79,0,0,0-.69,10.12v13.64h-4.78Z"/><path d="M610.57,273.38a18.39,18.39,0,0,1,14.24,6.22,20,20,0,0,1-.29,27,19.65,19.65,0,0,1-27.94,0,19.94,19.94,0,0,1-.29-27A18.42,18.42,0,0,1,610.57,273.38Zm0,4.68a13.78,13.78,0,0,0-10.25,4.41A14.72,14.72,0,0,0,596,293.13a15.14,15.14,0,0,0,2,7.52,13.89,13.89,0,0,0,5.29,5.38,15,15,0,0,0,14.61,0,13.8,13.8,0,0,0,5.28-5.38,15.15,15.15,0,0,0,2-7.52,14.7,14.7,0,0,0-4.31-10.66A13.82,13.82,0,0,0,610.55,278.06Z"/><path d="M643,260.52h4.79v13.81h7.58v4.14h-7.58v33H643v-33h-6.53v-4.14H643Z"/><path d="M666.69,260.52h4.79v13.81h7.59v4.14h-7.59v33h-4.79v-33h-6.53v-4.14h6.53Z"/><path d="M717.55,299.18l4,2.12a22,22,0,0,1-4.58,6.29,18.19,18.19,0,0,1-5.85,3.64,20.47,20.47,0,0,1-7.36,1.25q-9.09,0-14.23-6A20.11,20.11,0,0,1,684.43,293a19.85,19.85,0,0,1,4.35-12.61,17.73,17.73,0,0,1,14.74-7,18.35,18.35,0,0,1,15.19,7.21,20.15,20.15,0,0,1,4.11,12.71H689.35a15.17,15.17,0,0,0,4.14,10.62,13.19,13.19,0,0,0,9.89,4.15,15.85,15.85,0,0,0,5.53-1,14.63,14.63,0,0,0,4.57-2.62A22.45,22.45,0,0,0,717.55,299.18Zm0-10a15.88,15.88,0,0,0-2.79-6.12,13.08,13.08,0,0,0-4.84-3.69,14.76,14.76,0,0,0-6.33-1.4,13.61,13.61,0,0,0-9.41,3.52,15.82,15.82,0,0,0-4.35,7.69Z"/><path d="M768.86,260v51.54h-4.72v-6.39a20.57,20.57,0,0,1-6.75,5.5,18.84,18.84,0,0,1-21.67-3.88,19.17,19.17,0,0,1-5.59-13.93,18.86,18.86,0,0,1,5.64-13.74,18.4,18.4,0,0,1,13.57-5.7,17.57,17.57,0,0,1,8.29,1.94,18.9,18.9,0,0,1,6.51,5.85V260Zm-19.13,18A14.42,14.42,0,0,0,737,285.47a15,15,0,0,0,0,15,14.59,14.59,0,0,0,5.41,5.58,14.14,14.14,0,0,0,7.29,2,14.91,14.91,0,0,0,7.44-2,13.87,13.87,0,0,0,5.41-5.36,15.36,15.36,0,0,0,1.9-7.62,14.8,14.8,0,0,0-4.25-10.78A14.07,14.07,0,0,0,749.73,278Z"/><path d="M811,299.18l4,2.12a22,22,0,0,1-4.58,6.29,18.41,18.41,0,0,1-5.85,3.64,20.47,20.47,0,0,1-7.36,1.25q-9.09,0-14.23-6A20.11,20.11,0,0,1,777.88,293a19.9,19.9,0,0,1,4.34-12.61,17.76,17.76,0,0,1,14.75-7,18.35,18.35,0,0,1,15.19,7.21,20.08,20.08,0,0,1,4.1,12.71H782.8a15.12,15.12,0,0,0,4.14,10.62,13.19,13.19,0,0,0,9.89,4.15,15.89,15.89,0,0,0,5.53-1,14.63,14.63,0,0,0,4.57-2.62A22.45,22.45,0,0,0,811,299.18Zm0-10a15.88,15.88,0,0,0-2.79-6.12,13.08,13.08,0,0,0-4.84-3.69A14.76,14.76,0,0,0,797,278a13.61,13.61,0,0,0-9.41,3.52,15.82,15.82,0,0,0-4.35,7.69Z"/><path d="M914.43,299.18l4,2.12a22,22,0,0,1-4.58,6.29,18.41,18.41,0,0,1-5.85,3.64,20.47,20.47,0,0,1-7.36,1.25q-9.1,0-14.23-6A20.11,20.11,0,0,1,881.31,293a19.84,19.84,0,0,1,4.34-12.61,17.75,17.75,0,0,1,14.75-7,18.31,18.31,0,0,1,15.18,7.21,20.09,20.09,0,0,1,4.11,12.71H886.23a15.12,15.12,0,0,0,4.14,10.62,13.18,13.18,0,0,0,9.89,4.15,15.93,15.93,0,0,0,5.53-1,14.47,14.47,0,0,0,4.56-2.62A22.18,22.18,0,0,0,914.43,299.18Zm0-10a15.88,15.88,0,0,0-2.79-6.12,13.12,13.12,0,0,0-4.85-3.69,14.69,14.69,0,0,0-6.33-1.4,13.63,13.63,0,0,0-9.41,3.52,15.89,15.89,0,0,0-4.34,7.69Z"/><path d="M932.78,260.52h4.79v13.81h7.58v4.14h-7.58v33h-4.79v-33h-6.53v-4.14h6.53Z"/><path d="M143.33,358.33h4.79V365a20.09,20.09,0,0,1,6.35-5.73,15.7,15.7,0,0,1,7.59-1.89,13.19,13.19,0,0,1,7.4,2.11,12.61,12.61,0,0,1,4.77,5.71q1.54,3.58,1.54,11.18v19.14H171V377.78a43.43,43.43,0,0,0-.53-8.58,9.4,9.4,0,0,0-3.19-5.55,9.63,9.63,0,0,0-6.15-1.87,11.78,11.78,0,0,0-7.78,2.88,13.44,13.44,0,0,0-4.53,7.1,49.26,49.26,0,0,0-.68,10.12v13.64h-4.79Z"/><path d="M218.34,364.33a20,20,0,0,1-.87,26.32,18.13,18.13,0,0,1-13.89,5.83,19.31,19.31,0,0,1-10.2-2.8l-4,4.68-3-2.53,3.89-4.59a19,19,0,0,1-6-14.21,19.82,19.82,0,0,1,5.39-13.73,17.92,17.92,0,0,1,13.91-5.92,18.62,18.62,0,0,1,12,4.08l4-4.68,3.16,2.54ZM193.25,387.7l19.07-22.52a14,14,0,0,0-8.79-3.12,13.71,13.71,0,0,0-7.15,2,14.63,14.63,0,0,0-5.34,5.53,15.2,15.2,0,0,0-2,7.54,15.41,15.41,0,0,0,1.12,5.76A14.12,14.12,0,0,0,193.25,387.7Zm21.85-19.57-18.7,22a15.38,15.38,0,0,0,7.12,1.8,14.41,14.41,0,0,0,7.28-1.9,13.77,13.77,0,0,0,5.27-5.38,15.07,15.07,0,0,0,1.94-7.48A15.3,15.3,0,0,0,215.1,368.13Z"/><path d="M263.78,358.33h4.79V388q0,7.81-1.37,11.45a14.87,14.87,0,0,1-6.53,7.89,21.41,21.41,0,0,1-11.18,2.77,25.6,25.6,0,0,1-8.59-1.35,17.39,17.39,0,0,1-6.21-3.64,21.59,21.59,0,0,1-4.4-6.67h5.19a13.6,13.6,0,0,0,5.48,5.47,17.5,17.5,0,0,0,8.31,1.78,17.28,17.28,0,0,0,8.27-1.82,11.17,11.17,0,0,0,4.8-4.58q1.44-2.76,1.44-8.91v-1.92a18.11,18.11,0,0,1-6.6,5.25,19.59,19.59,0,0,1-17.93-.72,18,18,0,0,1-7-6.85,18.76,18.76,0,0,1-2.46-9.47A19.32,19.32,0,0,1,249,357.38a17.83,17.83,0,0,1,7.79,1.72,21.4,21.4,0,0,1,7,5.69ZM249.67,362a15,15,0,0,0-7.56,2,14.27,14.27,0,0,0-5.47,5.43,14.86,14.86,0,0,0-2,7.5,13.56,13.56,0,0,0,4.1,10.12,14.62,14.62,0,0,0,10.63,4q6.6,0,10.61-4a14,14,0,0,0,4-10.42,15,15,0,0,0-1.85-7.5A13.5,13.5,0,0,0,257,363.9,14.64,14.64,0,0,0,249.67,362Z"/><path d="M310.13,383.18l4,2.12a22,22,0,0,1-4.58,6.29,18.41,18.41,0,0,1-5.85,3.64,20.47,20.47,0,0,1-7.36,1.25q-9.09,0-14.23-6A20.11,20.11,0,0,1,277,377a19.9,19.9,0,0,1,4.34-12.61,17.75,17.75,0,0,1,14.75-7,18.35,18.35,0,0,1,15.19,7.21,20.08,20.08,0,0,1,4.1,12.71H281.93a15.12,15.12,0,0,0,4.14,10.62,13.19,13.19,0,0,0,9.89,4.15,15.89,15.89,0,0,0,5.53-1,14.63,14.63,0,0,0,4.57-2.62A22.45,22.45,0,0,0,310.13,383.18Zm0-10a15.88,15.88,0,0,0-2.79-6.12,13.16,13.16,0,0,0-4.84-3.69,14.76,14.76,0,0,0-6.33-1.4,13.61,13.61,0,0,0-9.41,3.52,15.82,15.82,0,0,0-4.35,7.69Z"/><path d="M324.31,358.33h4.79V365a20,20,0,0,1,6.36-5.73,15.64,15.64,0,0,1,7.58-1.89,13.19,13.19,0,0,1,7.4,2.11,12.61,12.61,0,0,1,4.77,5.71q1.55,3.58,1.54,11.18v19.14H352V377.78a43.43,43.43,0,0,0-.53-8.58,9.4,9.4,0,0,0-3.19-5.55,9.63,9.63,0,0,0-6.15-1.87,11.78,11.78,0,0,0-7.78,2.88,13.44,13.44,0,0,0-4.53,7.1,50,50,0,0,0-.68,10.12v13.64h-4.79Z"/><path d="M367.31,395.52V344h4.79v20.74a20.17,20.17,0,0,1,6.72-5.52,18.36,18.36,0,0,1,8.16-1.82,18.11,18.11,0,0,1,13.47,5.72A19.14,19.14,0,0,1,406,377a18.9,18.9,0,0,1-5.64,13.78,18.36,18.36,0,0,1-13.55,5.71,17.33,17.33,0,0,1-8.23-2,19.2,19.2,0,0,1-6.52-5.85v6.84Zm19.14-3.66a14.39,14.39,0,0,0,12.74-7.48,15.21,15.21,0,0,0,0-15.08,14.73,14.73,0,0,0-5.4-5.59,14.09,14.09,0,0,0-7.25-2,14.91,14.91,0,0,0-7.45,2,14,14,0,0,0-5.42,5.39,15.36,15.36,0,0,0-1.9,7.62,14.83,14.83,0,0,0,4.25,10.8A14,14,0,0,0,386.45,391.86Z"/><path d="M416.41,343a3.81,3.81,0,0,1,2.79,1.16,3.84,3.84,0,0,1,1.16,2.8,3.93,3.93,0,0,1-7.86,0,3.84,3.84,0,0,1,1.15-2.8A3.77,3.77,0,0,1,416.41,343ZM414,358.33h4.78v37.19H414Z"/><path d="M428.05,344h4.78v51.54h-4.78Z"/><path d="M442.06,344h4.79v51.54h-4.79Z"/><path d="M488.1,383.18l4,2.12a22.06,22.06,0,0,1-4.59,6.29,18.19,18.19,0,0,1-5.85,3.64,20.45,20.45,0,0,1-7.35,1.25q-9.11,0-14.24-6A20.11,20.11,0,0,1,455,377a19.85,19.85,0,0,1,4.35-12.61,17.73,17.73,0,0,1,14.74-7,18.35,18.35,0,0,1,15.19,7.21,20.15,20.15,0,0,1,4.11,12.71H459.9A15.21,15.21,0,0,0,464,387.92a13.19,13.19,0,0,0,9.89,4.15,15.85,15.85,0,0,0,5.53-1,14.63,14.63,0,0,0,4.57-2.62A22.19,22.19,0,0,0,488.1,383.18Zm0-10a15.88,15.88,0,0,0-2.79-6.12,13.08,13.08,0,0,0-4.84-3.69,14.76,14.76,0,0,0-6.33-1.4,13.61,13.61,0,0,0-9.41,3.52,15.82,15.82,0,0,0-4.35,7.69Z"/><path d="M539.41,344v51.54h-4.72v-6.39a20.57,20.57,0,0,1-6.75,5.5,18.84,18.84,0,0,1-21.67-3.88,19.17,19.17,0,0,1-5.59-13.93,18.86,18.86,0,0,1,5.64-13.74,18.4,18.4,0,0,1,13.57-5.7,17.54,17.54,0,0,1,8.29,1.94,18.9,18.9,0,0,1,6.51,5.85V344Zm-19.13,18a14.42,14.42,0,0,0-12.75,7.48,15,15,0,0,0,0,15,14.59,14.59,0,0,0,5.41,5.58,14.14,14.14,0,0,0,7.29,2,14.91,14.91,0,0,0,7.44-2,13.81,13.81,0,0,0,5.41-5.36,15.25,15.25,0,0,0,1.9-7.62,14.8,14.8,0,0,0-4.25-10.78A14.07,14.07,0,0,0,520.28,362Z"/><path d="M614.39,358.33v37.19h-4.72v-6.39a20.57,20.57,0,0,1-6.75,5.5,18.84,18.84,0,0,1-21.67-3.88,19.17,19.17,0,0,1-5.59-13.93,18.86,18.86,0,0,1,5.64-13.74,18.4,18.4,0,0,1,13.57-5.7,17.57,17.57,0,0,1,8.29,1.94,18.9,18.9,0,0,1,6.51,5.85v-6.84ZM595.26,362a14.42,14.42,0,0,0-12.75,7.48,15,15,0,0,0,0,15,14.59,14.59,0,0,0,5.41,5.58,14.14,14.14,0,0,0,7.29,2,14.91,14.91,0,0,0,7.44-2,13.87,13.87,0,0,0,5.41-5.36,15.36,15.36,0,0,0,1.9-7.62,14.8,14.8,0,0,0-4.25-10.78A14.07,14.07,0,0,0,595.26,362Z"/><path d="M640.46,344v4.68a11.83,11.83,0,0,0-4.51-1.13,4.34,4.34,0,0,0-2.32.57,2.44,2.44,0,0,0-1.16,1.29,18,18,0,0,0-.24,3.92v5H640v4.14h-7.77l0,33h-4.78v-33h-4.89v-4.14h4.89v-5.81a15.83,15.83,0,0,1,.73-5.71,5.86,5.86,0,0,1,2.5-2.75,8.24,8.24,0,0,1,4.25-1A20.12,20.12,0,0,1,640.46,344Z"/><path d="M711.34,344v51.54h-4.71v-6.39a20.57,20.57,0,0,1-6.75,5.5,18.84,18.84,0,0,1-21.67-3.88,19.17,19.17,0,0,1-5.59-13.93,18.86,18.86,0,0,1,5.64-13.74,18.4,18.4,0,0,1,13.57-5.7,17.5,17.5,0,0,1,8.28,1.94,18.84,18.84,0,0,1,6.52,5.85V344Zm-19.12,18a14.39,14.39,0,0,0-12.75,7.48,15,15,0,0,0-2,7.51,15.16,15.16,0,0,0,2,7.51,14.73,14.73,0,0,0,5.41,5.58,14.19,14.19,0,0,0,7.29,2,15,15,0,0,0,7.45-2,13.94,13.94,0,0,0,5.41-5.36,15.35,15.35,0,0,0,1.89-7.62,14.76,14.76,0,0,0-4.25-10.78A14,14,0,0,0,692.22,362Z"/><path d="M723.83,343a3.94,3.94,0,0,1,3.95,4,3.77,3.77,0,0,1-1.15,2.77,3.82,3.82,0,0,1-2.8,1.17,3.74,3.74,0,0,1-2.75-1.17,3.78,3.78,0,0,1-1.16-2.77,3.84,3.84,0,0,1,1.16-2.8A3.77,3.77,0,0,1,723.83,343Zm-2.37,15.31h4.78v37.19h-4.78Z"/><path d="M736.19,358.33H741V365a20.09,20.09,0,0,1,6.35-5.73,15.7,15.7,0,0,1,7.59-1.89,13.19,13.19,0,0,1,7.4,2.11,12.73,12.73,0,0,1,4.77,5.71q1.53,3.58,1.54,11.18v19.14h-4.79V377.78a44.25,44.25,0,0,0-.53-8.58,9.45,9.45,0,0,0-3.19-5.55,9.63,9.63,0,0,0-6.15-1.87,11.78,11.78,0,0,0-7.78,2.88,13.44,13.44,0,0,0-4.53,7.1,49.26,49.26,0,0,0-.68,10.12v13.64h-4.79Z"/><path d="M802.45,358.33h5.1L820,385.44l12.33-27.11h5.13l-17,37.19h-.89Z"/><path d="M876.08,383.18l4,2.12a22,22,0,0,1-4.58,6.29,18.41,18.41,0,0,1-5.85,3.64,20.47,20.47,0,0,1-7.36,1.25q-9.11,0-14.23-6A20.11,20.11,0,0,1,843,377a19.9,19.9,0,0,1,4.34-12.61,17.75,17.75,0,0,1,14.75-7,18.35,18.35,0,0,1,15.19,7.21,20.14,20.14,0,0,1,4.1,12.71H847.88A15.12,15.12,0,0,0,852,387.92a13.19,13.19,0,0,0,9.89,4.15,15.93,15.93,0,0,0,5.53-1,14.47,14.47,0,0,0,4.56-2.62A22.18,22.18,0,0,0,876.08,383.18Zm0-10a15.88,15.88,0,0,0-2.79-6.12,13.16,13.16,0,0,0-4.84-3.69,14.77,14.77,0,0,0-6.34-1.4,13.63,13.63,0,0,0-9.41,3.52,15.89,15.89,0,0,0-4.34,7.69Z"/><path d="M890.26,358.33h4.79V365a20.09,20.09,0,0,1,6.35-5.73,15.7,15.7,0,0,1,7.59-1.89,13.19,13.19,0,0,1,7.4,2.11,12.73,12.73,0,0,1,4.77,5.71q1.55,3.58,1.54,11.18v19.14h-4.79V377.78a43.43,43.43,0,0,0-.53-8.58,9.4,9.4,0,0,0-3.19-5.55,9.63,9.63,0,0,0-6.15-1.87,11.78,11.78,0,0,0-7.78,2.88,13.44,13.44,0,0,0-4.53,7.1,49.26,49.26,0,0,0-.68,10.12v13.64h-4.79Z"/><path d="M938.22,388a4,4,0,0,1,3,1.23,4.27,4.27,0,0,1,0,6,4.17,4.17,0,0,1-6,0,4.27,4.27,0,0,1,0-6A4.05,4.05,0,0,1,938.22,388Z"/><path d="M140.29,429.24h5.47l16.66,38.84,16.94-38.84h5.47L163,479.52h-1.09Z"/><path d="M194.14,427a3.81,3.81,0,0,1,2.79,1.16,3.84,3.84,0,0,1,1.16,2.8,3.93,3.93,0,0,1-7.86,0,3.84,3.84,0,0,1,1.15-2.8A3.77,3.77,0,0,1,194.14,427Zm-2.38,15.31h4.79v37.19h-4.79Z"/><path d="M205.78,428h4.78v51.54h-4.78Z"/><path d="M219.79,428h4.79v51.54h-4.79Z"/><path d="M265.83,467.18l4,2.12a22.25,22.25,0,0,1-4.59,6.29,18.19,18.19,0,0,1-5.85,3.64,20.45,20.45,0,0,1-7.35,1.25q-9.11,0-14.24-6A20.11,20.11,0,0,1,232.71,461a19.85,19.85,0,0,1,4.35-12.61,17.73,17.73,0,0,1,14.74-7A18.35,18.35,0,0,1,267,448.59a20.15,20.15,0,0,1,4.11,12.71H237.63a15.12,15.12,0,0,0,4.14,10.62,13.19,13.19,0,0,0,9.89,4.15,15.85,15.85,0,0,0,5.53-1,14.63,14.63,0,0,0,4.57-2.62A22.45,22.45,0,0,0,265.83,467.18Zm0-10a15.88,15.88,0,0,0-2.79-6.12,13.08,13.08,0,0,0-4.84-3.69,14.76,14.76,0,0,0-6.33-1.4,13.61,13.61,0,0,0-9.41,3.52,15.82,15.82,0,0,0-4.35,7.69Z"/><path d="M337.91,428v51.54h-4.72v-6.39a20.37,20.37,0,0,1-6.75,5.5,18.84,18.84,0,0,1-21.67-3.88,19.21,19.21,0,0,1-5.59-13.93,18.86,18.86,0,0,1,5.64-13.74,18.41,18.41,0,0,1,13.57-5.7,17.51,17.51,0,0,1,8.29,1.94,18.9,18.9,0,0,1,6.51,5.85V428Zm-19.12,18A14.42,14.42,0,0,0,306,453.47a15.1,15.1,0,0,0,0,15,14.66,14.66,0,0,0,5.41,5.58,14.19,14.19,0,0,0,7.29,2,14.91,14.91,0,0,0,7.44-2,13.81,13.81,0,0,0,5.41-5.36,15.25,15.25,0,0,0,1.9-7.62,14.8,14.8,0,0,0-4.25-10.78A14,14,0,0,0,318.79,446Z"/><path d="M348.13,442.33h4.78V459.7a36.85,36.85,0,0,0,.69,8.75,9.78,9.78,0,0,0,3.92,5.4,11.9,11.9,0,0,0,6.9,2,11.71,11.71,0,0,0,6.79-1.93,9.9,9.9,0,0,0,3.85-5.08c.48-1.43.72-4.48.72-9.12V442.33h4.89v18.25q0,7.69-1.8,11.59a13.62,13.62,0,0,1-5.4,6.1,17,17,0,0,1-9,2.21,17.22,17.22,0,0,1-9.07-2.21,13.61,13.61,0,0,1-5.44-6.15q-1.79-3.94-1.79-11.88Z"/><path d="M412.07,428h4.79v21a20.31,20.31,0,0,1,6.39-5.73,15.58,15.58,0,0,1,7.55-1.89,13.19,13.19,0,0,1,7.4,2.11,12.71,12.71,0,0,1,4.77,5.7q1.53,3.57,1.54,11.19v19.14h-4.79V461.78a45.67,45.67,0,0,0-.51-8.58,9.7,9.7,0,0,0-3.23-5.55,9.59,9.59,0,0,0-6.14-1.87,11.77,11.77,0,0,0-7.77,2.88,13.44,13.44,0,0,0-4.53,7.1,49,49,0,0,0-.68,10.12v13.64h-4.79Z"/><path d="M491.81,442.33v37.19h-4.72v-6.39a20.37,20.37,0,0,1-6.75,5.5,18.84,18.84,0,0,1-21.67-3.88,19.2,19.2,0,0,1-5.58-13.93,18.86,18.86,0,0,1,5.64-13.74,18.39,18.39,0,0,1,13.56-5.7,17.51,17.51,0,0,1,8.29,1.94,18.72,18.72,0,0,1,6.51,5.85v-6.84ZM472.69,446a14.39,14.39,0,0,0-12.75,7.48,15,15,0,0,0-2,7.51,15.16,15.16,0,0,0,2,7.51,14.73,14.73,0,0,0,5.41,5.58,14.19,14.19,0,0,0,7.29,2,15,15,0,0,0,7.45-2,13.94,13.94,0,0,0,5.41-5.36,15.35,15.35,0,0,0,1.89-7.62,14.76,14.76,0,0,0-4.25-10.78A14,14,0,0,0,472.69,446Z"/><path d="M509.11,446.74l-2.64-1.5a28.13,28.13,0,0,0,1.75-4.07,20,20,0,0,0,.65-3.79h-3V428h6.19v5.88a31.31,31.31,0,0,1-.6,6.92A28.44,28.44,0,0,1,509.11,446.74Z"/><path d="M585,428v51.54h-4.71v-6.39a20.57,20.57,0,0,1-6.75,5.5,18.84,18.84,0,0,1-21.67-3.88,19.17,19.17,0,0,1-5.59-13.93A18.86,18.86,0,0,1,552,447.08a18.4,18.4,0,0,1,13.57-5.7,17.57,17.57,0,0,1,8.29,1.94,18.9,18.9,0,0,1,6.51,5.85V428Zm-19.12,18a14.42,14.42,0,0,0-12.75,7.48,15,15,0,0,0,0,15,14.59,14.59,0,0,0,5.41,5.58,14.14,14.14,0,0,0,7.29,2,14.94,14.94,0,0,0,7.44-2,13.87,13.87,0,0,0,5.41-5.36,15.36,15.36,0,0,0,1.9-7.62,14.76,14.76,0,0,0-4.26-10.78A14,14,0,0,0,565.92,446Z"/><path d="M627.19,467.18l4,2.12a22,22,0,0,1-4.58,6.29,18.3,18.3,0,0,1-5.85,3.64,20.47,20.47,0,0,1-7.36,1.25q-9.09,0-14.23-6A20.11,20.11,0,0,1,594.07,461a19.9,19.9,0,0,1,4.34-12.61,17.76,17.76,0,0,1,14.75-7,18.35,18.35,0,0,1,15.19,7.21,20.08,20.08,0,0,1,4.1,12.71H599a15.12,15.12,0,0,0,4.14,10.62,13.19,13.19,0,0,0,9.89,4.15,15.85,15.85,0,0,0,5.53-1,14.63,14.63,0,0,0,4.57-2.62A22.45,22.45,0,0,0,627.19,467.18Zm0-10a15.88,15.88,0,0,0-2.79-6.12,13.08,13.08,0,0,0-4.84-3.69,14.76,14.76,0,0,0-6.33-1.4,13.61,13.61,0,0,0-9.41,3.52,15.82,15.82,0,0,0-4.35,7.69Z"/><path d="M640.66,428h4.78v51.54h-4.78Z"/><path d="M659.56,428.52h4.78v13.81h7.59v4.14h-7.59v33h-4.78v-33H653v-4.14h6.53Z"/><path d="M700.19,479.52V428H705v20.74a20.3,20.3,0,0,1,6.73-5.52,18.36,18.36,0,0,1,8.16-1.82,18.11,18.11,0,0,1,13.47,5.72A19.18,19.18,0,0,1,738.91,461a18.89,18.89,0,0,1-5.63,13.78,18.4,18.4,0,0,1-13.56,5.71,17.29,17.29,0,0,1-8.22-2,19.22,19.22,0,0,1-6.53-5.85v6.84Zm19.14-3.66a14.39,14.39,0,0,0,12.74-7.48,15.21,15.21,0,0,0,0-15.08,14.68,14.68,0,0,0-5.41-5.59,14,14,0,0,0-7.24-2,14.89,14.89,0,0,0-7.45,2,14,14,0,0,0-5.43,5.39,15.35,15.35,0,0,0-1.89,7.62,14.83,14.83,0,0,0,4.25,10.8A14,14,0,0,0,719.33,475.86Z"/><path d="M749.29,427a3.81,3.81,0,0,1,2.79,1.16,3.84,3.84,0,0,1,1.16,2.8,3.94,3.94,0,0,1-7.87,0,3.84,3.84,0,0,1,1.16-2.8A3.77,3.77,0,0,1,749.29,427Zm-2.38,15.31h4.79v37.19h-4.79Z"/><path d="M760.93,428h4.78v51.54h-4.78Z"/><path d="M774.94,428h4.78v51.54h-4.78Z"/><path d="M821,467.18l4,2.12a22,22,0,0,1-4.58,6.29,18.3,18.3,0,0,1-5.85,3.64,20.47,20.47,0,0,1-7.36,1.25q-9.09,0-14.23-6A20.11,20.11,0,0,1,787.86,461a19.9,19.9,0,0,1,4.34-12.61,17.76,17.76,0,0,1,14.75-7,18.35,18.35,0,0,1,15.19,7.21,20.08,20.08,0,0,1,4.1,12.71H792.78a15.12,15.12,0,0,0,4.14,10.62,13.19,13.19,0,0,0,9.89,4.15,15.85,15.85,0,0,0,5.53-1,14.63,14.63,0,0,0,4.57-2.62A22.45,22.45,0,0,0,821,467.18Zm0-10a15.88,15.88,0,0,0-2.79-6.12,13.08,13.08,0,0,0-4.84-3.69A14.76,14.76,0,0,0,807,446a13.61,13.61,0,0,0-9.41,3.52,15.82,15.82,0,0,0-4.35,7.69Z"/><path d="M872.28,428v51.54h-4.71v-6.39a20.57,20.57,0,0,1-6.75,5.5,18.84,18.84,0,0,1-21.67-3.88,19.17,19.17,0,0,1-5.59-13.93,18.86,18.86,0,0,1,5.64-13.74,18.4,18.4,0,0,1,13.57-5.7,17.5,17.5,0,0,1,8.28,1.94,18.84,18.84,0,0,1,6.52,5.85V428Zm-19.12,18a14.42,14.42,0,0,0-12.75,7.48,15.07,15.07,0,0,0,0,15,14.68,14.68,0,0,0,5.42,5.58,14.14,14.14,0,0,0,7.29,2,15,15,0,0,0,7.44-2,13.87,13.87,0,0,0,5.41-5.36,15.35,15.35,0,0,0,1.89-7.62,14.76,14.76,0,0,0-4.25-10.78A14,14,0,0,0,853.16,446Z"/><path d="M914.43,467.18l4,2.12a22,22,0,0,1-4.58,6.29,18.41,18.41,0,0,1-5.85,3.64,20.47,20.47,0,0,1-7.36,1.25q-9.1,0-14.23-6A20.11,20.11,0,0,1,881.31,461a19.84,19.84,0,0,1,4.34-12.61,17.75,17.75,0,0,1,14.75-7,18.31,18.31,0,0,1,15.18,7.21,20.09,20.09,0,0,1,4.11,12.71H886.23a15.12,15.12,0,0,0,4.14,10.62,13.18,13.18,0,0,0,9.89,4.15,15.93,15.93,0,0,0,5.53-1,14.47,14.47,0,0,0,4.56-2.62A22.18,22.18,0,0,0,914.43,467.18Zm0-10a15.88,15.88,0,0,0-2.79-6.12,13.12,13.12,0,0,0-4.85-3.69,14.69,14.69,0,0,0-6.33-1.4,13.63,13.63,0,0,0-9.41,3.52,15.89,15.89,0,0,0-4.34,7.69Z"/><path d="M932.78,428.52h4.79v13.81h7.58v4.14h-7.58v33h-4.79v-33h-6.53v-4.14h6.53Z"/><path d="M335.37,526.33h4.79v6.43a18.51,18.51,0,0,1,5.13-5.2,14.53,14.53,0,0,1,7.63-2.18,12.8,12.8,0,0,1,5.13,1,11.06,11.06,0,0,1,4,2.82,15.1,15.1,0,0,1,2.67,5,17.57,17.57,0,0,1,6-6.65,14.06,14.06,0,0,1,7.7-2.27,12.07,12.07,0,0,1,6.81,1.94,11.67,11.67,0,0,1,4.38,5.44q1.43,3.48,1.43,10.46v20.3h-4.89v-20.3q0-6-.85-8.22a7.4,7.4,0,0,0-2.91-3.61,8.71,8.71,0,0,0-4.92-1.37,10.77,10.77,0,0,0-6.36,2.05,11.75,11.75,0,0,0-4.2,5.47Q365.52,541,365.52,549v14.56h-4.79v-19c0-4.49-.28-7.53-.83-9.14a7.67,7.67,0,0,0-2.93-3.86,8.43,8.43,0,0,0-5-1.46,10.75,10.75,0,0,0-6.21,2,11.88,11.88,0,0,0-4.27,5.39q-1.38,3.38-1.38,10.35v15.76h-4.79Z"/><path d="M432.37,551.18l4,2.12a22.06,22.06,0,0,1-4.59,6.29,18.19,18.19,0,0,1-5.85,3.64,20.45,20.45,0,0,1-7.35,1.25q-9.11,0-14.24-6A20.11,20.11,0,0,1,399.25,545a19.85,19.85,0,0,1,4.35-12.61,17.73,17.73,0,0,1,14.74-7,18.33,18.33,0,0,1,15.19,7.21,20.15,20.15,0,0,1,4.11,12.71H404.17a15.17,15.17,0,0,0,4.15,10.62,13.16,13.16,0,0,0,9.89,4.15,15.84,15.84,0,0,0,5.52-1,14.52,14.52,0,0,0,4.57-2.62A22.19,22.19,0,0,0,432.37,551.18Zm0-10a15.88,15.88,0,0,0-2.79-6.12,13.08,13.08,0,0,0-4.84-3.69,14.76,14.76,0,0,0-6.33-1.4,13.61,13.61,0,0,0-9.41,3.52,15.82,15.82,0,0,0-4.35,7.69Z"/><path d="M483.68,512v51.54H479v-6.39a20.57,20.57,0,0,1-6.75,5.5,18.84,18.84,0,0,1-21.67-3.88A19.17,19.17,0,0,1,445,544.82a18.86,18.86,0,0,1,5.64-13.74,18.4,18.4,0,0,1,13.57-5.7,17.54,17.54,0,0,1,8.29,1.94,18.9,18.9,0,0,1,6.51,5.85V512Zm-19.13,18a14.42,14.42,0,0,0-12.75,7.48,15,15,0,0,0,0,15,14.59,14.59,0,0,0,5.41,5.58,14.14,14.14,0,0,0,7.29,2,14.91,14.91,0,0,0,7.44-2,13.81,13.81,0,0,0,5.41-5.36,15.25,15.25,0,0,0,1.9-7.62A14.8,14.8,0,0,0,475,534.33,14.06,14.06,0,0,0,464.55,530Z"/><path d="M550.94,526.33v37.19h-4.71v-6.39a20.57,20.57,0,0,1-6.75,5.5,18.84,18.84,0,0,1-21.67-3.88,19.17,19.17,0,0,1-5.59-13.93,18.86,18.86,0,0,1,5.64-13.74,18.4,18.4,0,0,1,13.57-5.7,17.5,17.5,0,0,1,8.28,1.94,18.84,18.84,0,0,1,6.52,5.85v-6.84ZM531.82,530a14.39,14.39,0,0,0-12.75,7.48,15.07,15.07,0,0,0,0,15,14.68,14.68,0,0,0,5.42,5.58,14.13,14.13,0,0,0,7.28,2,15,15,0,0,0,7.45-2,13.87,13.87,0,0,0,5.41-5.36,15.35,15.35,0,0,0,1.89-7.62,14.76,14.76,0,0,0-4.25-10.78A14,14,0,0,0,531.82,530Z"/><path d="M561.71,526.33h4.78V533a20.23,20.23,0,0,1,6.36-5.73,15.7,15.7,0,0,1,7.59-1.89,13.19,13.19,0,0,1,7.4,2.11,12.73,12.73,0,0,1,4.77,5.71q1.53,3.59,1.54,11.18v19.14h-4.79V545.78a44.25,44.25,0,0,0-.53-8.58,9.45,9.45,0,0,0-3.19-5.55,9.66,9.66,0,0,0-6.16-1.87,11.77,11.77,0,0,0-7.77,2.88,13.44,13.44,0,0,0-4.53,7.1,49.05,49.05,0,0,0-.69,10.12v13.64h-4.78Z"/><path d="M641.52,512v51.54H636.8v-6.39a20.37,20.37,0,0,1-6.75,5.5,18.84,18.84,0,0,1-21.67-3.88,19.21,19.21,0,0,1-5.59-13.93,18.86,18.86,0,0,1,5.64-13.74,18.4,18.4,0,0,1,13.57-5.7,17.54,17.54,0,0,1,8.29,1.94,18.9,18.9,0,0,1,6.51,5.85V512ZM622.4,530a14.42,14.42,0,0,0-12.76,7.48,15.1,15.1,0,0,0,0,15,14.66,14.66,0,0,0,5.41,5.58,14.19,14.19,0,0,0,7.29,2,14.91,14.91,0,0,0,7.44-2,13.81,13.81,0,0,0,5.41-5.36,15.25,15.25,0,0,0,1.9-7.62,14.8,14.8,0,0,0-4.25-10.78A14,14,0,0,0,622.4,530Z"/><path d="M650.54,526.33h4.89v5.44A17.36,17.36,0,0,1,660,527a9.11,9.11,0,0,1,5.06-1.58,8.75,8.75,0,0,1,4.24,1.26l-2.49,4a6.76,6.76,0,0,0-2.53-.65,6.93,6.93,0,0,0-4.62,2,12.38,12.38,0,0,0-3.38,6.1q-.89,3.18-.89,12.85v12.58h-4.89Z"/><path d="M704.72,551.18l4,2.12a22,22,0,0,1-4.58,6.29,18.41,18.41,0,0,1-5.85,3.64,20.47,20.47,0,0,1-7.36,1.25q-9.11,0-14.23-6A20.11,20.11,0,0,1,671.6,545a19.84,19.84,0,0,1,4.34-12.61,17.75,17.75,0,0,1,14.75-7,18.35,18.35,0,0,1,15.19,7.21A20.14,20.14,0,0,1,710,545.3H676.52a15.12,15.12,0,0,0,4.14,10.62,13.19,13.19,0,0,0,9.89,4.15,15.93,15.93,0,0,0,5.53-1,14.47,14.47,0,0,0,4.56-2.62A22.18,22.18,0,0,0,704.72,551.18Zm0-10a15.88,15.88,0,0,0-2.79-6.12,13.12,13.12,0,0,0-4.85-3.69,14.69,14.69,0,0,0-6.33-1.4,13.63,13.63,0,0,0-9.41,3.52,15.89,15.89,0,0,0-4.34,7.69Z"/><path d="M724.37,526.91h-5q.06-6.9,4.12-10.92t10.85-4q6.71,0,10.53,3.38a10.79,10.79,0,0,1,3.83,8.41,9.55,9.55,0,0,1-1.05,4.43,10.89,10.89,0,0,1-3.16,3.65,33,33,0,0,1-7.42,3.71q-6.66,2.67-8.06,4a4.21,4.21,0,0,0-1.44,3.21,4.54,4.54,0,0,0,1.93,3.55,7.69,7.69,0,0,0,5,1.58,7.25,7.25,0,0,0,5.2-1.73,8.71,8.71,0,0,0,2.22-5.52h5q-.24,5.7-3.54,8.87a12.26,12.26,0,0,1-8.87,3.16q-5.53,0-8.82-2.87a9.05,9.05,0,0,1-3.28-7.08,8.58,8.58,0,0,1,.91-3.88,8.46,8.46,0,0,1,2.56-3.05,32.37,32.37,0,0,1,6.24-3.11q7.38-3,9.47-4.52a5,5,0,0,0,2-4.3,6.28,6.28,0,0,0-2.51-5,10.31,10.31,0,0,0-6.7-2,9.77,9.77,0,0,0-8,3.39A10.76,10.76,0,0,0,724.37,526.91Zm10,29.09a4,4,0,0,1,3,1.23,4.27,4.27,0,0,1,0,6,4.17,4.17,0,0,1-5.95,0,4.27,4.27,0,0,1,0-6A4.05,4.05,0,0,1,734.32,556Z"/></svg>
