<svg id="Lag_1" data-name="Lag 1" xmlns="http://www.w3.org/2000/svg" width="745" height="1207" viewBox="0 0 745 1207"><defs><style>.cls-1{fill:#ffa56b;}.cls-2{fill:#b24800;}.cls-3{fill:#ecb787;}.cls-4{fill:#7d4021;}.cls-5{fill:#7e3700;}.cls-6{fill:#42210b;}.cls-7{fill:#603813;}.cls-8{fill:#ba6830;}.cls-9{fill:#6c3230;}</style></defs><title>happy_boy</title><rect class="cls-1" width="745" height="1207"/><path class="cls-2" d="M236.85,692.66,239.78,743a155.61,155.61,0,0,0,74.39,63.1,3.68,3.68,0,0,1,2.72,1.29c7,9.78-48.11,89.58-115.09,105.73C113.48,934.38,4,845.13,0,843.21a238.16,238.16,0,0,0,71.22-49.12,234,234,0,0,0,21.37-24.76L95,687.87C99.18,669,236.85,692.66,236.85,692.66Z"/><path class="cls-3" d="M28.49,820.48c35.62,57.22,100.12,88.28,163.81,79,83.49-12.11,121.15-87,124.24-93.44L392,840l60,72,48,97-81.37,43.86L424.9,1207H0V842.81Z"/><polygon class="cls-2" points="453.12 1033.96 473.49 1208 406 1208 400 1055.87 453.12 1033.96"/><rect class="cls-4" x="292.38" y="467.03" width="24" height="111.01" rx="12" ry="12"/><rect class="cls-2" x="27.7" y="396" width="283.31" height="320.81" rx="141.65" ry="141.65"/><path class="cls-5" d="M94.28,710.69l144.44,14L239,743c-14.72,4.84-26.24,9.58-34,13-10.81,4.76-15,7.24-23,9-12.63,2.77-23,1.16-30,0-26.72-4.42-47.6-18.76-57.72-26.67Z"/><rect class="cls-4" x="18.83" y="468.76" width="37.92" height="107.52" rx="12" ry="12"/><path class="cls-2" d="M38.19,629.15a193.25,193.25,0,0,0,18.08,39.39c14.61,24,30.88,37.4,41.44,44.56,10,10.67,27.05,25.69,50.47,32.13a86.25,86.25,0,0,0,24.11,3.11c17.23-1.21,56.61-7.3,92.66-46.64,8.6-9.37,22.28-24.3,33.15-49.75h0c.07-.12,1.57-8.73,6.78-39.38Z"/><path class="cls-6" d="M54.26,469.48c0-6.78,8.57-29.88,31.26-43.6a65.47,65.47,0,0,1,41.67-8.72,97.57,97.57,0,0,1,81.27,17.44c55.39,39.18,105,54.16,125,34.88,12.88-12.39,18.28-43.47,6.25-53.41-9-7.4-24.84-.84-29.17,1.09,10-21.52-.6-43.85-14.59-48-11-3.24-25.89,4.33-33.34,19.63,6.72-23.48,3.82-31.7,0-34.89-7.16-6-19.28,4.26-39.59,6.54-21.59,2.43-34-6.2-50-10.9C119.37,333.8,58.82,373.43,29.26,406.26a75,75,0,0,0-14.59,76.3C14.57,492.39,54.26,483.65,54.26,469.48Z"/><path class="cls-2" d="M31.25,599.87l-19-16.26c-10.5-18.25-7-42.23,5-52.52,9.08-7.81,22.34-7.18,32.75,1.92v70Z"/><circle cx="124" cy="552" r="12"/><circle cx="254" cy="552" r="12"/><rect class="cls-7" x="84" y="487" width="85" height="26" rx="12" ry="12"/><rect class="cls-7" x="223" y="486" width="85" height="26" rx="12" ry="12"/><rect class="cls-8" x="187" y="549" width="31" height="78" rx="12" ry="12"/><path class="cls-9" d="M126,653a30.87,30.87,0,0,0,9.4,16.58,35.06,35.06,0,0,0,3,2.46,48.37,48.37,0,0,0,12.38,8.59c4,2,14.94,7.31,29,5.53a44,44,0,0,0,18.79-6.91l9.4-15.89a183,183,0,0,1-29,.69A180,180,0,0,1,126,653Z"/><path class="cls-5" d="M50,551,39,540c-.4-.29-6.5-4.59-13-2-5.75,2.29-9.31,9-8,16,2.78-8.16,7.08-9.71,8-10,7.21-2.28,18.75,5.69,25,22Q50.51,558.5,50,551Z"/></svg>
