<svg id="Lag_1" data-name="Lag 1" xmlns="http://www.w3.org/2000/svg" xmlns:xlink="http://www.w3.org/1999/xlink" width="1080" height="1920" viewBox="0 0 1080 1920"><defs><style>.cls-1{fill:url(#Ikke-navngivet_forløb_97);}</style><linearGradient id="Ikke-navngivet_forløb_97" x1="540" y1="1919.47" x2="540" y2="0.53" gradientUnits="userSpaceOnUse"><stop offset="0.1" stop-color="#76ffff"/><stop offset="0.94" stop-color="#f7daf3"/></linearGradient></defs><title>info_screen</title><rect class="cls-1" x="0.53" y="0.53" width="1078.94" height="1918.94"/><path d="M1078.94,1.06V1918.94H1.06V1.06H1078.94M1080,0H0V1920H1080V0Z"/><path d="M66.47,72.59h6.27V96H73c1.3-1.87,2.6-3.6,3.82-5.19L91.6,72.59h7.78L81.81,93.18l18.94,27.94H93.33l-16-23.83-4.61,5.32v18.51H66.47Z"/><path d="M106,70h6.34v51.12H106Z"/><path d="M130.05,76.48a3.93,3.93,0,0,1-7.85,0,3.86,3.86,0,0,1,4-4A3.76,3.76,0,0,1,130.05,76.48ZM123,121.12V86.27h6.34v34.85Z"/><path d="M146.1,102.25h.15c.86-1.22,2.09-2.73,3.09-4l10.23-12h7.63L153.74,100.6l15.33,20.52h-7.7l-12-16.71L146.1,108v13.11h-6.26V70h6.26Z"/><path d="M188.87,97.65c0-4.47-.14-8.07-.29-11.38h5.69l.29,6h.14a13.7,13.7,0,0,1,12.39-6.77c8.42,0,14.76,7.12,14.76,17.71,0,12.53-7.63,18.72-15.84,18.72-4.61,0-8.64-2-10.73-5.47h-.15v18.94h-6.26Zm6.26,9.28a14.76,14.76,0,0,0,.29,2.6,9.78,9.78,0,0,0,9.51,7.41c6.69,0,10.58-5.47,10.58-13.46,0-7-3.67-13-10.37-13a11,11,0,0,0-10,10.44Z"/><path d="M249.13,121.12l-.5-4.39h-.22a13,13,0,0,1-10.65,5.18c-7.06,0-10.66-5-10.66-10,0-8.42,7.49-13,21-13v-.72c0-2.88-.79-8.06-7.92-8.06a17.3,17.3,0,0,0-9.07,2.59l-1.44-4.18a21.66,21.66,0,0,1,11.45-3.09c10.66,0,13.25,7.27,13.25,14.25v13a49.35,49.35,0,0,0,.57,8.35Zm-.93-17.79c-6.91-.14-14.76,1.08-14.76,7.85,0,4.11,2.73,6,6,6a8.68,8.68,0,0,0,8.43-5.83,6.83,6.83,0,0,0,.36-2ZM234.59,75.9c0-3.82,2.81-6.84,7.34-6.84,4.32,0,7.13,3,7.13,6.77s-3.09,6.62-7.2,6.62C237.54,82.45,234.59,79.57,234.59,75.9Zm10.94-.15a3.73,3.73,0,0,0-3.74-4c-2.23,0-3.53,1.88-3.53,4.11a3.65,3.65,0,1,0,7.27-.15Z"/><path d="M278.94,114.64a16.62,16.62,0,0,0,8.35,2.52c4.61,0,6.77-2.31,6.77-5.19s-1.8-4.68-6.48-6.4c-6.27-2.24-9.22-5.69-9.22-9.87,0-5.62,4.54-10.22,12-10.22A17.33,17.33,0,0,1,299,87.64l-1.59,4.61a13.52,13.52,0,0,0-7.13-2c-3.74,0-5.83,2.16-5.83,4.75,0,2.88,2.09,4.18,6.63,5.91,6,2.3,9.14,5.32,9.14,10.51,0,6.12-4.75,10.44-13,10.44a19.9,19.9,0,0,1-9.8-2.38Z"/><path d="M314.58,102.25h.14c.87-1.22,2.09-2.73,3.1-4l10.22-12h7.64L322.21,100.6l15.34,20.52h-7.71l-12-16.71-3.24,3.6v13.11h-6.27V70h6.27Z"/><path d="M367.64,104.34c-.21,8.28,4.54,12.67,11.09,12.67a20.37,20.37,0,0,0,9.51-2l1.15,4.46a24.68,24.68,0,0,1-11.45,2.45c-5.9,0-11.23-2.81-13.25-7.7h-.14c-2.23,4.82-7,7.7-13,7.7-7.28,0-10.88-4.9-10.88-9.94,0-8.06,7.49-12.74,21-12.6V97.93a7.72,7.72,0,0,0-8.14-7.77,17,17,0,0,0-8.93,2.66l-1.51-4.18A22.15,22.15,0,0,1,354,85.48c6.27,0,9.8,3,11.24,7.41h.14a13.24,13.24,0,0,1,12.17-7.41c10.66,0,13.61,10.29,13.61,16a14.32,14.32,0,0,1-.22,2.81Zm-5.83-.72c-6.7-.14-14.83,1-14.83,7.85,0,3.67,2.73,5.76,6,5.76a8.52,8.52,0,0,0,8.42-6,7.29,7.29,0,0,0,.36-2.52Zm23.26-3.81c.22-3.53-1.73-9.8-8.14-9.8s-9.14,5.83-9.36,9.8Z"/><path d="M399,97.14c0-4.1-.07-7.63-.29-10.87h5.55l.22,6.84h.28c1.59-4.68,5.4-7.63,9.65-7.63a7,7,0,0,1,1.8.21v6a9.15,9.15,0,0,0-2.16-.22c-4.46,0-7.63,3.39-8.49,8.14a17.13,17.13,0,0,0-.29,3v18.58H399Z"/><path d="M422.87,95.7c0-3.6-.08-6.55-.29-9.43h5.54l.29,5.61h.22a12,12,0,0,1,10.94-6.4,10.32,10.32,0,0,1,9.87,7h.14a14.42,14.42,0,0,1,3.89-4.54,11.91,11.91,0,0,1,7.7-2.44c4.61,0,11.45,3,11.45,15.12v20.52h-6.19V101.39c0-6.7-2.45-10.73-7.56-10.73a8.21,8.21,0,0,0-7.49,5.76,10.43,10.43,0,0,0-.5,3.17v21.53h-6.2V100.24c0-5.55-2.45-9.58-7.27-9.58-4,0-6.84,3.17-7.85,6.34a8.68,8.68,0,0,0-.5,3.09v21h-6.19Z"/><path d="M486.44,104.85c.14,8.56,5.62,12.09,11.95,12.09a22.86,22.86,0,0,0,9.65-1.8l1.08,4.54a28.19,28.19,0,0,1-11.59,2.16c-10.73,0-17.14-7.06-17.14-17.57s6.19-18.79,16.35-18.79c11.38,0,14.4,10,14.4,16.41a22.37,22.37,0,0,1-.22,3ZM505,100.31c.07-4-1.66-10.3-8.79-10.3-6.4,0-9.21,5.91-9.72,10.3Z"/><path d="M519,95.7c0-3.6-.07-6.55-.28-9.43h5.61l.36,5.76h.15a12.81,12.81,0,0,1,11.52-6.55c4.82,0,12.31,2.88,12.31,14.83v20.81h-6.34V101c0-5.62-2.08-10.3-8.06-10.3a9.28,9.28,0,0,0-8.93,9.44v21H519Z"/><path d="M574.21,70h6.33V91.74h.15a11.77,11.77,0,0,1,4.53-4.46,13.09,13.09,0,0,1,6.49-1.8c4.68,0,12.16,2.88,12.16,14.9v20.74h-6.33v-20c0-5.61-2.09-10.37-8.07-10.37A9.1,9.1,0,0,0,581,97.07a7.64,7.64,0,0,0-.44,3v21h-6.33Z"/><path d="M615.68,86.27l6.84,19.58a90.37,90.37,0,0,1,2.81,8.93h.21c.8-2.88,1.81-5.76,3-8.93l6.77-19.58h6.62l-13.68,34.85h-6.05L608.91,86.27Z"/><path d="M654.92,76.48a3.93,3.93,0,0,1-7.85,0,3.87,3.87,0,0,1,4-4A3.76,3.76,0,0,1,654.92,76.48Zm-7.06,44.64V86.27h6.34v34.85Z"/><path d="M663.85,114.64a16.62,16.62,0,0,0,8.35,2.52c4.61,0,6.77-2.31,6.77-5.19s-1.8-4.68-6.48-6.4c-6.27-2.24-9.22-5.69-9.22-9.87,0-5.62,4.54-10.22,12-10.22a17.29,17.29,0,0,1,8.56,2.16l-1.58,4.61a13.52,13.52,0,0,0-7.13-2c-3.74,0-5.83,2.16-5.83,4.75,0,2.88,2.09,4.18,6.62,5.91,6,2.3,9.15,5.32,9.15,10.51,0,6.12-4.75,10.44-13,10.44a19.9,19.9,0,0,1-9.8-2.38Z"/><path d="M738.58,70v42.12c0,3.09.08,6.62.29,9h-5.69l-.28-6.05h-.15c-1.94,3.89-6.19,6.84-11.88,6.84-8.42,0-14.9-7.13-14.9-17.71-.08-11.6,7.12-18.72,15.62-18.72,5.33,0,8.93,2.52,10.51,5.32h.15V70Zm-6.33,30.45a11,11,0,0,0-.29-2.66,9.33,9.33,0,0,0-9.14-7.35c-6.56,0-10.45,5.77-10.45,13.47,0,7.06,3.46,12.89,10.3,12.89a9.53,9.53,0,0,0,9.29-7.56,10.87,10.87,0,0,0,.29-2.74Z"/><path d="M778.26,111.61c0,3.6.07,6.77.28,9.51h-5.61l-.36-5.69h-.15a13.1,13.1,0,0,1-11.52,6.48c-5.47,0-12-3-12-15.26V86.27h6.33v19.3c0,6.62,2,11.08,7.78,11.08a8.93,8.93,0,0,0,8.93-9V86.27h6.34Z"/><path d="M811.66,76.26v10h9.07v4.82h-9.07v18.8c0,4.32,1.23,6.76,4.75,6.76a14,14,0,0,0,3.68-.43l.28,4.76a15.55,15.55,0,0,1-5.61.86,8.78,8.78,0,0,1-6.84-2.67c-1.8-1.87-2.45-5-2.45-9.07v-19h-5.4V86.27h5.4V77.92Z"/><path d="M852.13,104.34c-.22,8.28,4.53,12.67,11.09,12.67a20.32,20.32,0,0,0,9.5-2l1.15,4.46a24.68,24.68,0,0,1-11.45,2.45c-5.9,0-11.23-2.81-13.25-7.7H849c-2.23,4.82-7,7.7-13,7.7-7.27,0-10.87-4.9-10.87-9.94,0-8.06,7.49-12.74,21-12.6V97.93a7.71,7.71,0,0,0-8.13-7.77,17,17,0,0,0-8.93,2.66l-1.52-4.18a22.16,22.16,0,0,1,10.88-3.16c6.26,0,9.79,3,11.23,7.41h.14a13.24,13.24,0,0,1,12.17-7.41c10.66,0,13.61,10.29,13.61,16a15.26,15.26,0,0,1-.21,2.81Zm-5.84-.72c-6.69-.14-14.83,1-14.83,7.85,0,3.67,2.74,5.76,6,5.76a8.5,8.5,0,0,0,8.42-6,7.29,7.29,0,0,0,.36-2.52Zm23.26-3.81c.22-3.53-1.73-9.8-8.13-9.8s-9.15,5.83-9.37,9.8Z"/><path d="M883.52,95.7c0-3.6-.08-6.55-.29-9.43h5.61l.37,5.76h.14a12.82,12.82,0,0,1,11.52-6.55c4.82,0,12.31,2.88,12.31,14.83v20.81h-6.33V101c0-5.62-2.09-10.3-8.07-10.3a9.32,9.32,0,0,0-8.93,9.44v21h-6.33Z"/><path d="M929.74,102.25h.14c.87-1.22,2.09-2.73,3.1-4l10.23-12h7.63L937.37,100.6l15.34,20.52H945l-12-16.71-3.24,3.6v13.11h-6.26V70h6.26Z"/><path d="M960.77,104.85c.15,8.56,5.62,12.09,12,12.09a22.86,22.86,0,0,0,9.65-1.8l1.08,4.54a28.15,28.15,0,0,1-11.59,2.16c-10.73,0-17.14-7.06-17.14-17.57s6.2-18.79,16.35-18.79c11.38,0,14.4,10,14.4,16.41a22.37,22.37,0,0,1-.22,3Zm18.58-4.54c.07-4-1.66-10.3-8.79-10.3-6.4,0-9.21,5.91-9.72,10.3Z"/><path d="M993.32,97.14c0-4.1-.08-7.63-.29-10.87h5.54l.22,6.84h.29c1.58-4.68,5.4-7.63,9.64-7.63a7,7,0,0,1,1.8.21v6a9.09,9.09,0,0,0-2.16-.22c-4.46,0-7.63,3.39-8.49,8.14a17.13,17.13,0,0,0-.29,3v18.58h-6.26Z"/><path d="M85.55,207.52l-.5-4.39h-.22a13,13,0,0,1-10.65,5.18c-7.06,0-10.66-5-10.66-10,0-8.42,7.49-13,20.95-13v-.72c0-2.88-.79-8.06-7.92-8.06a17.3,17.3,0,0,0-9.07,2.59L66,175a21.66,21.66,0,0,1,11.45-3.09c10.66,0,13.25,7.27,13.25,14.25v13a49.35,49.35,0,0,0,.57,8.35Zm-.93-17.79c-6.91-.14-14.76,1.08-14.76,7.85,0,4.11,2.73,6,6,6a8.68,8.68,0,0,0,8.43-5.83,6.83,6.83,0,0,0,.36-2Z"/><path d="M108.31,162.66v10h9.07v4.82h-9.07v18.8c0,4.32,1.22,6.76,4.75,6.76a14,14,0,0,0,3.67-.43l.29,4.76a15.65,15.65,0,0,1-5.62.86,8.81,8.81,0,0,1-6.84-2.66c-1.8-1.88-2.45-5-2.45-9.08v-19h-5.4v-4.82h5.4v-8.35Z"/><path d="M169.87,156.4v42.12c0,3.1.07,6.62.28,9h-5.68l-.29-6.05H164c-1.94,3.89-6.19,6.84-11.88,6.84-8.42,0-14.9-7.13-14.9-17.71-.08-11.6,7.13-18.72,15.62-18.72,5.33,0,8.93,2.52,10.52,5.33h.14V156.4Zm-6.34,30.45a11,11,0,0,0-.29-2.66,9.32,9.32,0,0,0-9.14-7.35c-6.56,0-10.44,5.77-10.44,13.47,0,7.06,3.45,12.89,10.29,12.89a9.53,9.53,0,0,0,9.29-7.56,10.87,10.87,0,0,0,.29-2.74Z"/><path d="M209.54,198c0,3.61.07,6.77.29,9.51h-5.62l-.36-5.69h-.15a13.09,13.09,0,0,1-11.52,6.48c-5.47,0-12-3-12-15.26V172.67h6.34V192c0,6.62,2,11.08,7.77,11.08a8.93,8.93,0,0,0,8.93-9V172.67h6.34Z"/><path d="M265.34,172.67c-.15,2.52-.29,5.33-.29,9.58v20.23c0,8-1.59,12.89-5,15.91-3.38,3.17-8.28,4.18-12.67,4.18-4.18,0-8.79-1-11.6-2.88l1.59-4.83a19.62,19.62,0,0,0,10.22,2.74c6.48,0,11.24-3.38,11.24-12.17v-3.89h-.15c-1.94,3.24-5.69,5.84-11.09,5.84-8.64,0-14.83-7.35-14.83-17,0-11.81,7.7-18.5,15.7-18.5,6,0,9.36,3.16,10.87,6h.14l.29-5.25Zm-6.56,13.75a9,9,0,0,0-.36-2.88,9.12,9.12,0,0,0-8.85-6.7c-6,0-10.37,5.12-10.37,13.18,0,6.84,3.45,12.53,10.3,12.53a9.27,9.27,0,0,0,8.78-6.48,11,11,0,0,0,.5-3.38Z"/><path d="M279.09,191.25c.14,8.56,5.61,12.09,12,12.09a22.89,22.89,0,0,0,9.65-1.8l1.08,4.54a28.21,28.21,0,0,1-11.6,2.16c-10.72,0-17.13-7.06-17.13-17.57s6.19-18.79,16.34-18.79c11.38,0,14.4,10,14.4,16.41a24.69,24.69,0,0,1-.21,3Zm18.57-4.54c.08-4-1.65-10.3-8.78-10.3-6.41,0-9.22,5.91-9.72,10.3Z"/><path d="M311.63,183.54c0-4.1-.07-7.63-.29-10.87h5.54l.22,6.84h.29c1.58-4.68,5.4-7.63,9.65-7.63a7.06,7.06,0,0,1,1.8.21v6a9.21,9.21,0,0,0-2.16-.22c-4.47,0-7.64,3.39-8.5,8.14a18.19,18.19,0,0,0-.29,2.95v18.58h-6.26Z"/><path d="M335.46,182.1c0-3.6-.07-6.55-.29-9.43h5.62l.36,5.76h.14a12.82,12.82,0,0,1,11.52-6.55c4.83,0,12.32,2.88,12.32,14.83v20.81h-6.34V187.43c0-5.62-2.09-10.3-8.06-10.3a9,9,0,0,0-8.5,6.48,9.14,9.14,0,0,0-.43,3v21h-6.34Z"/><path d="M379,191.25c.14,8.56,5.61,12.09,11.95,12.09a22.89,22.89,0,0,0,9.65-1.8l1.08,4.54A28.19,28.19,0,0,1,390,208.24c-10.73,0-17.14-7.06-17.14-17.57s6.19-18.79,16.35-18.79c11.37,0,14.4,10,14.4,16.41a24.26,24.26,0,0,1-.22,3Zm18.58-4.54c.07-4-1.66-10.3-8.79-10.3-6.41,0-9.22,5.91-9.72,10.3Z"/><path d="M426.75,182.1c0-3.6-.07-6.55-.28-9.43H432l.29,5.62h.21a12,12,0,0,1,10.95-6.41,10.32,10.32,0,0,1,9.87,7h.14a14.42,14.42,0,0,1,3.89-4.54,11.91,11.91,0,0,1,7.7-2.44c4.61,0,11.45,3,11.45,15.12v20.52h-6.19V187.79c0-6.7-2.45-10.73-7.56-10.73a8.21,8.21,0,0,0-7.49,5.76,10.42,10.42,0,0,0-.51,3.17v21.53h-6.19V186.64c0-5.55-2.45-9.58-7.27-9.58-4,0-6.84,3.17-7.85,6.34a8.68,8.68,0,0,0-.5,3.09v21h-6.2Z"/><path d="M506.1,207.52l-.5-4.39h-.22a13,13,0,0,1-10.66,5.18c-7.05,0-10.65-5-10.65-10,0-8.42,7.48-13,20.95-13v-.72c0-2.88-.79-8.06-7.92-8.06a17.28,17.28,0,0,0-9.07,2.59L486.59,175A21.63,21.63,0,0,1,498,171.88c10.65,0,13.24,7.27,13.24,14.25v13a49.28,49.28,0,0,0,.58,8.35Zm-.94-17.79c-6.91-.14-14.76,1.08-14.76,7.85,0,4.11,2.74,6,6,6a8.65,8.65,0,0,0,8.42-5.83,6.52,6.52,0,0,0,.36-2ZM491.55,162.3c0-3.82,2.81-6.84,7.35-6.84,4.32,0,7.13,2.95,7.13,6.77s-3.1,6.62-7.2,6.62C494.51,168.85,491.55,166,491.55,162.3Zm10.95-.14a3.73,3.73,0,0,0-3.74-4c-2.24,0-3.53,1.87-3.53,4.1a3.65,3.65,0,1,0,7.27-.14Z"/><path d="M544.4,162.66v10h9.08v4.82H544.4v18.8c0,4.32,1.23,6.76,4.76,6.76a14,14,0,0,0,3.67-.43l.29,4.76a15.65,15.65,0,0,1-5.62.86,8.81,8.81,0,0,1-6.84-2.66c-1.8-1.88-2.45-5-2.45-9.08v-19h-5.4v-4.82h5.4v-8.35Z"/><path d="M579.9,207.52l-.5-4.39h-.22a13,13,0,0,1-10.66,5.18c-7,0-10.65-5-10.65-10,0-8.42,7.48-13,21-13v-.72c0-2.88-.79-8.06-7.92-8.06a17.28,17.28,0,0,0-9.07,2.59L560.39,175a21.62,21.62,0,0,1,11.44-3.09c10.66,0,13.25,7.27,13.25,14.25v13a49.28,49.28,0,0,0,.58,8.35ZM579,189.73c-6.91-.14-14.76,1.08-14.76,7.85,0,4.11,2.74,6,6,6a8.65,8.65,0,0,0,8.42-5.83,6.52,6.52,0,0,0,.36-2Z"/><path d="M625.33,172.67c-.14,2.52-.29,5.33-.29,9.58v20.23c0,8-1.58,12.89-5,15.91-3.39,3.17-8.29,4.18-12.68,4.18-4.17,0-8.78-1-11.59-2.88l1.58-4.83a19.69,19.69,0,0,0,10.23,2.74c6.48,0,11.23-3.38,11.23-12.17v-3.89h-.14c-2,3.24-5.69,5.84-11.09,5.84-8.64,0-14.83-7.35-14.83-17,0-11.81,7.7-18.5,15.69-18.5,6,0,9.36,3.16,10.88,6h.14l.29-5.25Zm-6.55,13.75a9,9,0,0,0-.36-2.88,9.13,9.13,0,0,0-8.86-6.7c-6,0-10.37,5.12-10.37,13.18,0,6.84,3.46,12.53,10.3,12.53a9.27,9.27,0,0,0,8.79-6.48,11,11,0,0,0,.5-3.38Z"/><path d="M639.08,191.25c.14,8.56,5.62,12.09,11.95,12.09a22.86,22.86,0,0,0,9.65-1.8l1.08,4.54a28.19,28.19,0,0,1-11.59,2.16c-10.73,0-17.14-7.06-17.14-17.57s6.19-18.79,16.35-18.79c11.37,0,14.4,10,14.4,16.41a24.26,24.26,0,0,1-.22,3Zm18.58-4.54c.07-4-1.66-10.3-8.79-10.3-6.41,0-9.21,5.91-9.72,10.3Z"/><path d="M690.42,191.25c.14,8.56,5.61,12.09,12,12.09a22.89,22.89,0,0,0,9.65-1.8l1.08,4.54a28.21,28.21,0,0,1-11.6,2.16c-10.72,0-17.13-7.06-17.13-17.57s6.19-18.79,16.34-18.79c11.38,0,14.4,10,14.4,16.41a24.69,24.69,0,0,1-.21,3ZM709,186.71c.08-4-1.65-10.3-8.78-10.3-6.41,0-9.22,5.91-9.72,10.3Z"/><path d="M730.59,162.66v10h9.07v4.82h-9.07v18.8c0,4.32,1.23,6.76,4.75,6.76a14,14,0,0,0,3.68-.43l.28,4.76a15.55,15.55,0,0,1-5.61.86,8.81,8.81,0,0,1-6.84-2.66c-1.8-1.88-2.45-5-2.45-9.08v-19H719v-4.82h5.4v-8.35Z"/><path d="M65.39,287.44A16.66,16.66,0,0,0,73.75,290c4.6,0,6.76-2.31,6.76-5.19s-1.8-4.68-6.48-6.4c-6.26-2.24-9.21-5.69-9.21-9.87,0-5.62,4.53-10.22,12-10.22a17.3,17.3,0,0,1,8.57,2.16L83.83,265a13.62,13.62,0,0,0-7.13-2c-3.75,0-5.84,2.16-5.84,4.75,0,2.88,2.09,4.18,6.63,5.91,6.05,2.3,9.14,5.32,9.14,10.51,0,6.12-4.75,10.44-13,10.44a19.86,19.86,0,0,1-9.79-2.38Z"/><path d="M119.61,292.62a23.26,23.26,0,0,1-10,2c-10.51,0-17.35-7.13-17.35-17.79s7.34-18.5,18.72-18.5a21,21,0,0,1,8.78,1.8L118.31,265a14.71,14.71,0,0,0-7.34-1.65c-8,0-12.31,5.9-12.31,13.18,0,8.06,5.18,13,12.09,13a18,18,0,0,0,7.78-1.73Z"/><path d="M127,269.94c0-4.1-.07-7.63-.28-10.87h5.54l.22,6.84h.28c1.59-4.68,5.41-7.63,9.65-7.63a7,7,0,0,1,1.8.21v6a9.09,9.09,0,0,0-2.16-.22c-4.46,0-7.63,3.39-8.49,8.14a17.13,17.13,0,0,0-.29,2.95v18.58H127Z"/><path d="M153.38,277.65c.14,8.56,5.61,12.09,12,12.09a22.89,22.89,0,0,0,9.65-1.8l1.08,4.54a28.19,28.19,0,0,1-11.59,2.16c-10.73,0-17.14-7.06-17.14-17.57s6.19-18.79,16.34-18.79c11.38,0,14.4,10,14.4,16.41a24.69,24.69,0,0,1-.21,3ZM172,273.11c.08-4-1.65-10.3-8.78-10.3-6.41,0-9.22,5.91-9.72,10.3Z"/><path d="M189.45,277.65c.14,8.56,5.61,12.09,12,12.09a22.89,22.89,0,0,0,9.65-1.8l1.08,4.54a28.19,28.19,0,0,1-11.59,2.16c-10.73,0-17.14-7.06-17.14-17.57s6.19-18.79,16.34-18.79c11.38,0,14.41,10,14.41,16.41a24.26,24.26,0,0,1-.22,3ZM208,273.11c.07-4-1.66-10.3-8.79-10.3-6.41,0-9.22,5.91-9.72,10.3Z"/><path d="M222,268.5c0-3.6-.07-6.55-.29-9.43h5.62l.36,5.76h.14a12.82,12.82,0,0,1,11.52-6.55c4.83,0,12.32,2.88,12.32,14.83v20.81h-6.34V273.83c0-5.62-2.09-10.3-8.06-10.3a9.28,9.28,0,0,0-8.93,9.43v21H222Z"/><path d="M261.09,287.44a16.62,16.62,0,0,0,8.35,2.52c4.61,0,6.77-2.31,6.77-5.19s-1.8-4.68-6.48-6.4c-6.27-2.24-9.22-5.69-9.22-9.87,0-5.62,4.54-10.22,12-10.22a17.29,17.29,0,0,1,8.56,2.16l-1.58,4.6a13.62,13.62,0,0,0-7.13-2c-3.74,0-5.83,2.16-5.83,4.75,0,2.88,2.09,4.18,6.62,5.91,6.05,2.3,9.15,5.32,9.15,10.51,0,6.12-4.75,10.44-13,10.44a19.89,19.89,0,0,1-9.79-2.38Z"/><path d="M290.46,242.79h6.34v21.75h.14a11.73,11.73,0,0,1,4.54-4.46,13,13,0,0,1,6.48-1.8c4.68,0,12.17,2.88,12.17,14.9v20.74h-6.34v-20c0-5.61-2.09-10.37-8.06-10.37a9.1,9.1,0,0,0-8.5,6.34,7.65,7.65,0,0,0-.43,3v21h-6.34Z"/><path d="M362,276.21c0,12.88-8.93,18.5-17.35,18.5-9.44,0-16.71-6.91-16.71-17.93,0-11.66,7.63-18.5,17.28-18.5C355.19,258.28,362,265.55,362,276.21Zm-27.65.36c0,7.63,4.39,13.39,10.58,13.39s10.59-5.69,10.59-13.54c0-5.9-3-13.39-10.44-13.39S334.31,269.94,334.31,276.57Z"/><path d="M377.58,249.06v10h9.07v4.82h-9.07v18.8c0,4.32,1.23,6.76,4.75,6.76A14,14,0,0,0,386,289l.28,4.76a15.55,15.55,0,0,1-5.61.86,8.78,8.78,0,0,1-6.84-2.67c-1.8-1.87-2.45-5-2.45-9.07v-19H366v-4.82h5.4v-8.36Z"/><path d="M389.46,302.78a103,103,0,0,0,4.32-17.21l7.06-.72C399.18,291,396,299,394,302.34Z"/><path d="M443,293.92l-.5-4.39h-.22a13,13,0,0,1-10.66,5.18c-7,0-10.65-5-10.65-10,0-8.42,7.48-13,20.95-13V271c0-2.88-.79-8.06-7.92-8.06a17.28,17.28,0,0,0-9.07,2.59l-1.44-4.18A21.62,21.62,0,0,1,435,258.28c10.66,0,13.25,7.27,13.25,14.25v13a49.28,49.28,0,0,0,.58,8.35Zm-.94-17.79c-6.91-.14-14.76,1.08-14.76,7.85,0,4.11,2.74,6,6,6a8.67,8.67,0,0,0,8.42-5.83,6.52,6.52,0,0,0,.36-2Z"/><path d="M459.08,293.92v-30h-4.89v-4.82h4.89v-1.66c0-4.89,1.08-9.36,4-12.17a12.12,12.12,0,0,1,8.49-3.24,14.76,14.76,0,0,1,5.4,1l-.86,4.9a9.35,9.35,0,0,0-4-.79c-5.4,0-6.77,4.75-6.77,10.08v1.87h8.42v4.82h-8.42v30Z"/><path d="M524.82,242.79v42.13c0,3.09.07,6.62.29,9h-5.69l-.29-6.05H519c-2,3.89-6.19,6.84-11.88,6.84-8.43,0-14.91-7.13-14.91-17.71-.07-11.6,7.13-18.72,15.63-18.72,5.33,0,8.93,2.52,10.51,5.32h.14V242.79Zm-6.34,30.46a11.46,11.46,0,0,0-.28-2.66,9.34,9.34,0,0,0-9.15-7.35c-6.55,0-10.44,5.76-10.44,13.47,0,7.06,3.46,12.89,10.3,12.89A9.53,9.53,0,0,0,518.2,282a11.36,11.36,0,0,0,.28-2.74Z"/><path d="M538.86,277.65c.14,8.56,5.61,12.09,11.95,12.09a22.89,22.89,0,0,0,9.65-1.8l1.08,4.54A28.19,28.19,0,0,1,550,294.64c-10.73,0-17.14-7.06-17.14-17.57s6.19-18.79,16.35-18.79c11.37,0,14.4,10,14.4,16.41a24.26,24.26,0,0,1-.22,3Zm18.58-4.54c.07-4-1.66-10.3-8.79-10.3-6.41,0-9.22,5.91-9.72,10.3Z"/><path d="M579,249.06v10h9.08v4.82H579v18.8c0,4.32,1.23,6.76,4.76,6.76a14,14,0,0,0,3.67-.43l.29,4.76a15.65,15.65,0,0,1-5.62.86,8.78,8.78,0,0,1-6.84-2.67c-1.8-1.87-2.45-5-2.45-9.07v-19h-5.4v-4.82h5.4v-8.36Z"/><path d="M640.59,242.79v42.13c0,3.09.08,6.62.29,9h-5.69l-.28-6.05h-.15c-1.94,3.89-6.19,6.84-11.88,6.84-8.42,0-14.9-7.13-14.9-17.71-.08-11.6,7.12-18.72,15.62-18.72,5.33,0,8.93,2.52,10.51,5.32h.15V242.79Zm-6.33,30.46a11,11,0,0,0-.29-2.66,9.33,9.33,0,0,0-9.14-7.35c-6.56,0-10.45,5.76-10.45,13.47,0,7.06,3.46,12.89,10.3,12.89A9.53,9.53,0,0,0,634,282a10.87,10.87,0,0,0,.29-2.74Z"/><path d="M654.63,277.65c.15,8.56,5.62,12.09,12,12.09a22.86,22.86,0,0,0,9.65-1.8l1.08,4.54a28.19,28.19,0,0,1-11.59,2.16c-10.73,0-17.14-7.06-17.14-17.57s6.2-18.79,16.35-18.79c11.38,0,14.4,10,14.4,16.41a22.37,22.37,0,0,1-.22,3Zm18.58-4.54c.07-4-1.66-10.3-8.79-10.3-6.4,0-9.21,5.91-9.72,10.3Z"/><path d="M687.17,269.94c0-4.1-.07-7.63-.28-10.87h5.54l.22,6.84h.28c1.59-4.68,5.4-7.63,9.65-7.63a7,7,0,0,1,1.8.21v6a9.09,9.09,0,0,0-2.16-.22c-4.46,0-7.63,3.39-8.49,8.14a17.13,17.13,0,0,0-.29,2.95v18.58h-6.27Z"/><path d="M725.69,293.92c.15-2.38.29-5.91.29-9V242.79h6.27v21.89h.14c2.23-3.88,6.27-6.4,11.88-6.4,8.64,0,14.76,7.2,14.69,17.78,0,12.46-7.85,18.65-15.62,18.65-5.05,0-9.08-1.94-11.67-6.55h-.22l-.28,5.76Zm6.56-14a12.16,12.16,0,0,0,.28,2.3,9.78,9.78,0,0,0,9.51,7.42c6.62,0,10.58-5.4,10.58-13.39,0-7-3.6-13-10.36-13a10.1,10.1,0,0,0-9.65,7.77,12.16,12.16,0,0,0-.36,2.6Z"/><path d="M767,242.79h6.34v51.13H767Z"/><path d="M791,249.28a3.93,3.93,0,0,1-7.85,0,3.86,3.86,0,0,1,4-4A3.77,3.77,0,0,1,791,249.28Zm-7.06,44.64V259.07h6.34v34.85Z"/><path d="M803.24,259.07l6.84,19.58a87.62,87.62,0,0,1,2.8,8.93h.22c.79-2.88,1.8-5.76,2.95-8.93l6.77-19.58h6.63l-13.69,34.85h-6l-13.25-34.85Z"/><path d="M838.23,277.65c.14,8.56,5.61,12.09,11.95,12.09a22.89,22.89,0,0,0,9.65-1.8l1.08,4.54a28.19,28.19,0,0,1-11.59,2.16c-10.73,0-17.14-7.06-17.14-17.57s6.19-18.79,16.34-18.79c11.38,0,14.4,10,14.4,16.41a24.69,24.69,0,0,1-.21,3Zm18.57-4.54c.08-4-1.65-10.3-8.78-10.3-6.41,0-9.22,5.91-9.72,10.3Z"/><path d="M870.77,269.94c0-4.1-.07-7.63-.29-10.87H876l.21,6.84h.29c1.59-4.68,5.4-7.63,9.65-7.63a7.06,7.06,0,0,1,1.8.21v6a9.21,9.21,0,0,0-2.16-.22c-4.46,0-7.63,3.39-8.5,8.14a18.26,18.26,0,0,0-.28,2.95v18.58h-6.27Z"/><path d="M65.39,373.84a16.66,16.66,0,0,0,8.36,2.52c4.6,0,6.76-2.31,6.76-5.19s-1.8-4.68-6.48-6.4c-6.26-2.24-9.21-5.69-9.21-9.87,0-5.62,4.53-10.22,12-10.22a17.3,17.3,0,0,1,8.57,2.16l-1.58,4.61a13.52,13.52,0,0,0-7.13-2c-3.75,0-5.84,2.16-5.84,4.75,0,2.88,2.09,4.18,6.63,5.91,6.05,2.3,9.14,5.32,9.14,10.51,0,6.12-4.75,10.44-13,10.44a19.86,19.86,0,0,1-9.79-2.38Z"/><path d="M98.3,364.05c.14,8.56,5.61,12.09,12,12.09a22.89,22.89,0,0,0,9.65-1.8l1.08,4.54A28.19,28.19,0,0,1,109.39,381c-10.73,0-17.14-7.06-17.14-17.57s6.19-18.79,16.34-18.79c11.38,0,14.4,10,14.4,16.41a24.69,24.69,0,0,1-.21,3Zm18.57-4.54c.08-4-1.65-10.3-8.78-10.3-6.41,0-9.22,5.91-9.72,10.3Z"/><path d="M130.84,354.9c0-3.6-.07-6.55-.29-9.43h5.62l.36,5.76h.14a12.82,12.82,0,0,1,11.52-6.55c4.83,0,12.32,2.88,12.32,14.83v20.81h-6.34V360.23c0-5.62-2.09-10.3-8.07-10.3a9,9,0,0,0-8.49,6.48,9.14,9.14,0,0,0-.43,3v20.95h-6.34Z"/><path d="M200.9,329.2v42.12c0,3.1.07,6.62.29,9H195.5l-.29-6.05h-.15c-1.94,3.89-6.19,6.84-11.88,6.84-8.42,0-14.9-7.13-14.9-17.71-.07-11.6,7.13-18.72,15.62-18.72,5.33,0,8.93,2.52,10.52,5.32h.14V329.2Zm-6.34,30.45a11,11,0,0,0-.29-2.66,9.32,9.32,0,0,0-9.14-7.35c-6.55,0-10.44,5.77-10.44,13.47,0,7.06,3.45,12.89,10.29,12.89a9.53,9.53,0,0,0,9.29-7.56,10.87,10.87,0,0,0,.29-2.74Z"/><path d="M219,335.46v10h9.07v4.82H219v18.8c0,4.32,1.22,6.76,4.75,6.76a13.89,13.89,0,0,0,3.67-.43l.29,4.76a15.59,15.59,0,0,1-5.61.86,8.79,8.79,0,0,1-6.84-2.66c-1.8-1.88-2.45-5-2.45-9.08v-19h-5.4v-4.82h5.4v-8.35Z"/><path d="M258.13,335.46v10h9.08v4.82h-9.08v18.8c0,4.32,1.23,6.76,4.76,6.76a14,14,0,0,0,3.67-.43l.29,4.76a15.65,15.65,0,0,1-5.62.86,8.81,8.81,0,0,1-6.84-2.66c-1.8-1.88-2.45-5-2.45-9.08v-19h-5.4v-4.82h5.4v-8.35Z"/><path d="M281.39,335.68a3.93,3.93,0,0,1-7.85,0,3.87,3.87,0,0,1,4-4A3.76,3.76,0,0,1,281.39,335.68Zm-7.06,44.64V345.47h6.34v34.85Z"/><path d="M291.18,329.2h6.34v51.12h-6.34Z"/><path d="M353.53,329.2v42.12c0,3.1.08,6.62.29,9h-5.69l-.28-6.05h-.15c-1.94,3.89-6.19,6.84-11.88,6.84-8.42,0-14.9-7.13-14.9-17.71-.08-11.6,7.12-18.72,15.62-18.72,5.33,0,8.93,2.52,10.51,5.32h.15V329.2Zm-6.33,30.45a11,11,0,0,0-.29-2.66,9.33,9.33,0,0,0-9.15-7.35c-6.55,0-10.44,5.77-10.44,13.47,0,7.06,3.46,12.89,10.3,12.89a9.53,9.53,0,0,0,9.29-7.56,10.87,10.87,0,0,0,.29-2.74Z"/><path d="M371.1,335.68a3.93,3.93,0,0,1-7.85,0,3.87,3.87,0,0,1,4-4A3.76,3.76,0,0,1,371.1,335.68ZM364,380.32V345.47h6.34v34.85Z"/><path d="M410.92,345.47c-.15,2.52-.29,5.33-.29,9.57v20.24c0,8-1.58,12.89-5,15.91-3.38,3.17-8.28,4.18-12.67,4.18-4.18,0-8.79-1-11.59-2.88l1.58-4.83a19.62,19.62,0,0,0,10.22,2.74c6.49,0,11.24-3.38,11.24-12.17v-3.89h-.15c-1.94,3.24-5.68,5.84-11.09,5.84-8.64,0-14.83-7.35-14.83-17,0-11.81,7.71-18.5,15.7-18.5,6.05,0,9.36,3.16,10.87,6h.15l.28-5.25Zm-6.55,13.75a9.28,9.28,0,0,0-.36-2.88,9.14,9.14,0,0,0-8.86-6.7c-6,0-10.37,5.12-10.37,13.18,0,6.84,3.46,12.53,10.3,12.53a9.27,9.27,0,0,0,8.78-6.48,11,11,0,0,0,.51-3.38Z"/><path d="M418.55,376.58a4.26,4.26,0,0,1,4.32-4.54,4.54,4.54,0,1,1-4.32,4.54Z"/><path d="M91.6,530.37H72.74v17.49h21v5.26H66.47V504.59H92.68v5.25H72.74v15.34H91.6Z"/><path d="M101.68,502H108v51.12h-6.34Z"/><path d="M118.67,502H125v51.12h-6.34Z"/><path d="M139.19,536.85c.14,8.56,5.62,12.09,11.95,12.09a22.86,22.86,0,0,0,9.65-1.8l1.08,4.54a28.19,28.19,0,0,1-11.59,2.16c-10.73,0-17.14-7.06-17.14-17.57s6.19-18.79,16.35-18.79c11.37,0,14.4,10,14.4,16.41a22.37,22.37,0,0,1-.22,3Zm18.58-4.54c.07-4-1.66-10.3-8.79-10.3-6.4,0-9.21,5.91-9.72,10.3Z"/><path d="M171.73,529.14c0-4.1-.07-7.63-.28-10.87H177l.22,6.84h.28c1.59-4.68,5.41-7.63,9.65-7.63a7,7,0,0,1,1.8.21v6a9.09,9.09,0,0,0-2.16-.22c-4.46,0-7.63,3.39-8.49,8.14a17.13,17.13,0,0,0-.29,2.95v18.58h-6.27Z"/><path d="M194.41,546.64a16.7,16.7,0,0,0,8.36,2.52c4.61,0,6.77-2.31,6.77-5.19s-1.81-4.68-6.49-6.4c-6.26-2.24-9.21-5.69-9.21-9.87,0-5.62,4.53-10.22,12-10.22a17.3,17.3,0,0,1,8.57,2.16l-1.58,4.61a13.52,13.52,0,0,0-7.13-2c-3.75,0-5.83,2.16-5.83,4.75,0,2.88,2.08,4.18,6.62,5.91,6.05,2.3,9.15,5.32,9.15,10.51,0,6.12-4.76,10.44-13,10.44a19.89,19.89,0,0,1-9.79-2.38Z"/><path d="M239.05,502h6.34v51.12h-6.34Z"/><path d="M275.34,553.12l-.5-4.39h-.22A13,13,0,0,1,264,553.91c-7.06,0-10.66-5-10.66-10,0-8.42,7.49-13,20.95-13v-.72c0-2.88-.79-8.06-7.92-8.06a17.3,17.3,0,0,0-9.07,2.59l-1.44-4.18a21.66,21.66,0,0,1,11.45-3.09c10.65,0,13.25,7.27,13.25,14.25v13a49.35,49.35,0,0,0,.57,8.35Zm-.93-17.79c-6.92-.14-14.76,1.08-14.76,7.85,0,4.11,2.73,6.05,6,6.05a8.68,8.68,0,0,0,8.43-5.83,6.83,6.83,0,0,0,.36-2Z"/><path d="M320.85,502v42.12c0,3.09.07,6.62.28,9h-5.68l-.29-6H315c-1.94,3.89-6.19,6.84-11.88,6.84-8.42,0-14.9-7.13-14.9-17.71-.07-11.6,7.13-18.72,15.62-18.72,5.33,0,8.93,2.52,10.52,5.32h.14V502Zm-6.34,30.45a11,11,0,0,0-.29-2.66,9.32,9.32,0,0,0-9.14-7.35c-6.56,0-10.44,5.77-10.44,13.47,0,7.06,3.45,12.89,10.29,12.89a9.53,9.53,0,0,0,9.29-7.56,10.87,10.87,0,0,0,.29-2.74Z"/><path d="M346.33,553.12c.15-2.38.29-5.91.29-9V502h6.26v21.88H353c2.23-3.88,6.26-6.4,11.88-6.4,8.64,0,14.76,7.2,14.69,17.78,0,12.46-7.85,18.65-15.63,18.65-5,0-9.07-1.94-11.66-6.55h-.22l-.29,5.76Zm6.55-14a12.16,12.16,0,0,0,.29,2.3,9.78,9.78,0,0,0,9.51,7.42c6.62,0,10.58-5.4,10.58-13.39,0-7-3.6-13-10.37-13a10.11,10.11,0,0,0-9.65,7.77,12.83,12.83,0,0,0-.36,2.6Z"/><path d="M394.64,508.48a3.93,3.93,0,0,1-7.85,0,3.87,3.87,0,0,1,4-4A3.76,3.76,0,0,1,394.64,508.48Zm-7.05,44.64V518.27h6.33v34.85Z"/><path d="M404.43,502h6.34v51.12h-6.34Z"/><path d="M421.43,502h6.33v51.12h-6.33Z"/><path d="M442,536.85c.14,8.56,5.61,12.09,11.95,12.09a22.93,22.93,0,0,0,9.65-1.8l1.08,4.54a28.24,28.24,0,0,1-11.6,2.16c-10.73,0-17.13-7.06-17.13-17.57s6.19-18.79,16.34-18.79c11.38,0,14.4,10,14.4,16.41a24.69,24.69,0,0,1-.21,3Zm18.57-4.54c.07-4-1.65-10.3-8.78-10.3-6.41,0-9.22,5.91-9.72,10.3Z"/><path d="M504.59,502v42.12c0,3.09.07,6.62.29,9h-5.69l-.29-6h-.15c-1.94,3.89-6.19,6.84-11.88,6.84-8.42,0-14.9-7.13-14.9-17.71-.07-11.6,7.13-18.72,15.62-18.72,5.33,0,8.93,2.52,10.52,5.32h.14V502Zm-6.34,30.45a11,11,0,0,0-.29-2.66,9.32,9.32,0,0,0-9.14-7.35c-6.56,0-10.44,5.77-10.44,13.47,0,7.06,3.45,12.89,10.29,12.89a9.53,9.53,0,0,0,9.29-7.56,10.87,10.87,0,0,0,.29-2.74Z"/><path d="M518.62,536.85c.15,8.56,5.62,12.09,12,12.09a22.93,22.93,0,0,0,9.65-1.8l1.08,4.54a28.24,28.24,0,0,1-11.6,2.16c-10.73,0-17.13-7.06-17.13-17.57s6.19-18.79,16.34-18.79c11.38,0,14.4,10,14.4,16.41a24.69,24.69,0,0,1-.21,3Zm18.58-4.54c.07-4-1.66-10.3-8.78-10.3-6.41,0-9.22,5.91-9.72,10.3Z"/><path d="M558.8,508.26v10h9.07v4.82H558.8v18.8c0,4.32,1.22,6.76,4.75,6.76a13.89,13.89,0,0,0,3.67-.43l.29,4.76a15.59,15.59,0,0,1-5.61.86,8.8,8.8,0,0,1-6.85-2.67c-1.8-1.87-2.44-5-2.44-9.07v-19h-5.4v-4.82h5.4v-8.35Z"/><path d="M589.4,546.64a16.62,16.62,0,0,0,8.35,2.52c4.61,0,6.77-2.31,6.77-5.19s-1.8-4.68-6.48-6.4c-6.27-2.24-9.22-5.69-9.22-9.87,0-5.62,4.54-10.22,12-10.22a17.33,17.33,0,0,1,8.57,2.16l-1.59,4.61a13.52,13.52,0,0,0-7.13-2c-3.74,0-5.83,2.16-5.83,4.75,0,2.88,2.09,4.18,6.63,5.91,6,2.3,9.14,5.32,9.14,10.51,0,6.12-4.75,10.44-13,10.44a19.9,19.9,0,0,1-9.8-2.38Z"/><path d="M625,534.25h.14c.87-1.22,2.09-2.73,3.1-4l10.22-12h7.64L632.67,532.6,648,553.12H640.3l-12-16.71L625,540v13.11h-6.27V502H625Z"/><path d="M660.82,508.48a3.93,3.93,0,0,1-7.85,0,3.87,3.87,0,0,1,4-4A3.76,3.76,0,0,1,660.82,508.48Zm-7.05,44.64V518.27h6.33v34.85Z"/><path d="M671.26,553.12v-30h-4.9v-4.82h4.9v-1.66c0-4.89,1.08-9.36,4-12.17a12.16,12.16,0,0,1,8.5-3.24,14.76,14.76,0,0,1,5.4,1l-.86,4.9a9.4,9.4,0,0,0-4-.79c-5.4,0-6.76,4.75-6.76,10.08v1.87H686v4.82h-8.42v30Z"/><path d="M700.06,508.26v10h9.07v4.82h-9.07v18.8c0,4.32,1.22,6.76,4.75,6.76a13.89,13.89,0,0,0,3.67-.43l.29,4.76a15.59,15.59,0,0,1-5.61.86,8.76,8.76,0,0,1-6.84-2.67c-1.8-1.87-2.45-5-2.45-9.07v-19h-5.4v-4.82h5.4v-8.35Z"/><path d="M719.36,536.85c.14,8.56,5.61,12.09,11.95,12.09a22.89,22.89,0,0,0,9.65-1.8l1.08,4.54a28.19,28.19,0,0,1-11.59,2.16c-10.73,0-17.14-7.06-17.14-17.57s6.19-18.79,16.34-18.79c11.38,0,14.4,10,14.4,16.41a24.69,24.69,0,0,1-.21,3Zm18.57-4.54c.08-4-1.65-10.3-8.78-10.3-6.41,0-9.22,5.91-9.72,10.3Z"/><path d="M749.52,549.38a4.26,4.26,0,0,1,4.32-4.54,4.54,4.54,0,1,1-4.32,4.54Z"/><path d="M72.74,677.39v20.3H96.21v-20.3h6.34v48.53H96.21V703.17H72.74v22.75H66.47V677.39Z"/><path d="M116.29,691.07l6.85,19.58a90.2,90.2,0,0,1,2.8,8.93h.22c.79-2.88,1.8-5.76,3-8.93l6.77-19.58h6.63l-13.69,34.85h-6l-13.25-34.85Z"/><path d="M155.53,681.28a3.92,3.92,0,0,1-7.84,0,3.86,3.86,0,0,1,4-4A3.76,3.76,0,0,1,155.53,681.28Zm-7.05,44.64V691.07h6.33v34.85Z"/><path d="M164.46,719.44a16.66,16.66,0,0,0,8.35,2.52c4.61,0,6.77-2.31,6.77-5.19s-1.8-4.68-6.48-6.4c-6.26-2.24-9.21-5.69-9.21-9.87,0-5.62,4.53-10.22,12-10.22a17.33,17.33,0,0,1,8.57,2.16L182.9,697a13.62,13.62,0,0,0-7.13-2c-3.75,0-5.84,2.16-5.84,4.75,0,2.88,2.09,4.18,6.63,5.91,6.05,2.3,9.14,5.32,9.14,10.51,0,6.12-4.75,10.44-13,10.44a19.86,19.86,0,0,1-9.79-2.38Z"/><path d="M239.2,674.79v42.13c0,3.09.07,6.62.29,9H233.8l-.29-6h-.14c-2,3.89-6.2,6.84-11.88,6.84-8.43,0-14.91-7.13-14.91-17.71-.07-11.6,7.13-18.72,15.63-18.72,5.32,0,8.92,2.52,10.51,5.32h.14V674.79Zm-6.34,30.46a11,11,0,0,0-.29-2.66,9.32,9.32,0,0,0-9.14-7.35c-6.55,0-10.44,5.76-10.44,13.47,0,7.06,3.45,12.89,10.3,12.89a9.52,9.52,0,0,0,9.28-7.56,10.87,10.87,0,0,0,.29-2.74Z"/><path d="M278.87,716.41c0,3.6.07,6.77.29,9.51h-5.62l-.36-5.69H273a13.12,13.12,0,0,1-11.52,6.48c-5.48,0-12-3-12-15.26V691.07h6.34v19.3c0,6.62,2,11.08,7.78,11.08a8.89,8.89,0,0,0,8.92-9V691.07h6.34Z"/><path d="M312.28,681.06v10h9.07v4.82h-9.07v18.8c0,4.32,1.22,6.76,4.75,6.76a14,14,0,0,0,3.67-.43l.29,4.76a15.65,15.65,0,0,1-5.62.86,8.78,8.78,0,0,1-6.84-2.67c-1.8-1.87-2.45-5-2.45-9.07v-19h-5.4v-4.82h5.4v-8.36Z"/><path d="M347.77,725.92l-.5-4.39h-.22a13,13,0,0,1-10.65,5.18c-7.06,0-10.66-5-10.66-10,0-8.42,7.49-13,20.95-13V703c0-2.88-.79-8.06-7.92-8.06a17.3,17.3,0,0,0-9.07,2.59l-1.44-4.18a21.66,21.66,0,0,1,11.45-3.09c10.65,0,13.25,7.27,13.25,14.25v13a49.35,49.35,0,0,0,.57,8.35Zm-.93-17.79c-6.92-.14-14.76,1.08-14.76,7.85,0,4.11,2.73,6,6,6a8.68,8.68,0,0,0,8.43-5.83,6.83,6.83,0,0,0,.36-2Z"/><path d="M393.21,691.07c-.15,2.52-.29,5.33-.29,9.57v20.24c0,8-1.59,12.89-5,15.91-3.39,3.17-8.28,4.18-12.67,4.18-4.18,0-8.79-1-11.6-2.88l1.59-4.83A19.62,19.62,0,0,0,375.49,736c6.48,0,11.23-3.38,11.23-12.17v-3.89h-.14c-1.94,3.24-5.69,5.84-11.09,5.84-8.64,0-14.83-7.35-14.83-17,0-11.81,7.7-18.5,15.7-18.5,6,0,9.36,3.16,10.87,6h.14l.29-5.25Zm-6.56,13.75a9,9,0,0,0-.36-2.88,9.13,9.13,0,0,0-8.85-6.7c-6.05,0-10.37,5.12-10.37,13.18,0,6.84,3.45,12.53,10.29,12.53a9.27,9.27,0,0,0,8.79-6.48,11,11,0,0,0,.5-3.38Z"/><path d="M407,709.65c.15,8.56,5.62,12.09,12,12.09a22.93,22.93,0,0,0,9.65-1.8l1.08,4.54a28.24,28.24,0,0,1-11.6,2.16c-10.73,0-17.13-7.06-17.13-17.57s6.19-18.79,16.34-18.79c11.38,0,14.4,10,14.4,16.41a24.69,24.69,0,0,1-.21,3Zm18.58-4.54c.07-4-1.65-10.3-8.78-10.3-6.41,0-9.22,5.91-9.72,10.3Z"/><path d="M439.5,701.94c0-4.1-.07-7.63-.29-10.87h5.54l.22,6.84h.29c1.58-4.68,5.4-7.63,9.65-7.63a7.06,7.06,0,0,1,1.8.21v6a9.21,9.21,0,0,0-2.16-.22c-4.47,0-7.64,3.39-8.5,8.14a18.19,18.19,0,0,0-.29,3v18.58H439.5Z"/><path d="M481.83,709.65c.15,8.56,5.62,12.09,12,12.09a22.93,22.93,0,0,0,9.65-1.8l1.08,4.54a28.24,28.24,0,0,1-11.6,2.16c-10.73,0-17.13-7.06-17.13-17.57s6.19-18.79,16.34-18.79c11.38,0,14.4,10,14.4,16.41a24.69,24.69,0,0,1-.21,3Zm18.58-4.54c.07-4-1.66-10.3-8.78-10.3-6.41,0-9.22,5.91-9.72,10.3Z"/><path d="M522,681.06v10h9.07v4.82H522v18.8c0,4.32,1.22,6.76,4.75,6.76a13.89,13.89,0,0,0,3.67-.43l.29,4.76a15.59,15.59,0,0,1-5.61.86,8.8,8.8,0,0,1-6.85-2.67c-1.8-1.87-2.44-5-2.44-9.07v-19h-5.4v-4.82h5.4v-8.36Z"/><path d="M552.61,719.44A16.62,16.62,0,0,0,561,722c4.61,0,6.77-2.31,6.77-5.19s-1.8-4.68-6.48-6.4c-6.27-2.24-9.22-5.69-9.22-9.87,0-5.62,4.54-10.22,12-10.22a17.33,17.33,0,0,1,8.57,2.16L571,697a13.62,13.62,0,0,0-7.13-2c-3.74,0-5.83,2.16-5.83,4.75,0,2.88,2.09,4.18,6.63,5.91,6,2.3,9.14,5.32,9.14,10.51,0,6.12-4.75,10.44-13,10.44a19.9,19.9,0,0,1-9.8-2.38Z"/><path d="M606.83,724.62a23.26,23.26,0,0,1-10,2c-10.52,0-17.36-7.13-17.36-17.79s7.35-18.5,18.73-18.5a21.08,21.08,0,0,1,8.78,1.8L605.53,697a14.74,14.74,0,0,0-7.34-1.65c-8,0-12.32,5.9-12.32,13.18,0,8.06,5.19,13,12.1,13a18,18,0,0,0,7.78-1.73Z"/><path d="M614.24,701.94c0-4.1-.07-7.63-.29-10.87h5.55l.21,6.84H620c1.58-4.68,5.4-7.63,9.65-7.63a7.06,7.06,0,0,1,1.8.21v6a9.21,9.21,0,0,0-2.16-.22c-4.46,0-7.63,3.39-8.5,8.14a18.19,18.19,0,0,0-.29,3v18.58h-6.26Z"/><path d="M640.59,709.65c.15,8.56,5.62,12.09,11.95,12.09a22.86,22.86,0,0,0,9.65-1.8l1.08,4.54a28.15,28.15,0,0,1-11.59,2.16c-10.73,0-17.14-7.06-17.14-17.57s6.2-18.79,16.35-18.79c11.38,0,14.4,10,14.4,16.41a22.37,22.37,0,0,1-.22,3Zm18.58-4.54c.07-4-1.66-10.3-8.79-10.3-6.4,0-9.21,5.91-9.72,10.3Z"/><path d="M676.66,709.65c.15,8.56,5.62,12.09,12,12.09a22.93,22.93,0,0,0,9.65-1.8l1.08,4.54a28.24,28.24,0,0,1-11.6,2.16c-10.73,0-17.13-7.06-17.13-17.57s6.19-18.79,16.34-18.79c11.38,0,14.4,10,14.4,16.41a24.69,24.69,0,0,1-.21,3Zm18.58-4.54c.07-4-1.66-10.3-8.78-10.3-6.41,0-9.22,5.91-9.72,10.3Z"/><path d="M709.21,700.5c0-3.6-.08-6.55-.29-9.43h5.62l.36,5.76H715a12.82,12.82,0,0,1,11.52-6.55c4.82,0,12.31,2.88,12.31,14.83v20.81h-6.33V705.83c0-5.62-2.09-10.3-8.07-10.3a9.32,9.32,0,0,0-8.93,9.43v21h-6.33Z"/><path d="M748.3,719.44a16.66,16.66,0,0,0,8.36,2.52c4.6,0,6.76-2.31,6.76-5.19s-1.8-4.68-6.48-6.4c-6.26-2.24-9.21-5.69-9.21-9.87,0-5.62,4.53-10.22,12-10.22a17.3,17.3,0,0,1,8.57,2.16l-1.58,4.6a13.62,13.62,0,0,0-7.13-2c-3.75,0-5.83,2.16-5.83,4.75,0,2.88,2.08,4.18,6.62,5.91,6.05,2.3,9.14,5.32,9.14,10.51,0,6.12-4.75,10.44-13,10.44a19.89,19.89,0,0,1-9.79-2.38Z"/><path d="M777.68,674.79H784v21.75h.15a11.73,11.73,0,0,1,4.54-4.46,13,13,0,0,1,6.48-1.8c4.68,0,12.16,2.88,12.16,14.9v20.74H801v-20c0-5.61-2.09-10.37-8.07-10.37a9.1,9.1,0,0,0-8.49,6.34,7.64,7.64,0,0,0-.44,3v21h-6.33Z"/><path d="M849.18,708.21c0,12.88-8.93,18.5-17.36,18.5-9.43,0-16.7-6.91-16.7-17.93,0-11.66,7.63-18.5,17.28-18.5C842.41,690.28,849.18,697.55,849.18,708.21Zm-27.65.36c0,7.63,4.39,13.39,10.58,13.39s10.59-5.69,10.59-13.54c0-5.9-3-13.39-10.45-13.39S821.53,701.94,821.53,708.57Z"/><path d="M864.8,681.06v10h9.07v4.82H864.8v18.8c0,4.32,1.22,6.76,4.75,6.76a13.89,13.89,0,0,0,3.67-.43l.29,4.76a15.61,15.61,0,0,1-5.62.86,8.79,8.79,0,0,1-6.84-2.67c-1.8-1.87-2.45-5-2.45-9.07v-19h-5.4v-4.82h5.4v-8.36Z"/><path d="M915.56,725.92l-.51-4.39h-.21a13,13,0,0,1-10.66,5.18c-7.06,0-10.66-5-10.66-10,0-8.42,7.49-13,21-13V703c0-2.88-.79-8.06-7.92-8.06a17.34,17.34,0,0,0-9.08,2.59L896,693.37a21.66,21.66,0,0,1,11.45-3.09c10.66,0,13.25,7.27,13.25,14.25v13a49.28,49.28,0,0,0,.58,8.35Zm-.94-17.79c-6.91-.14-14.76,1.08-14.76,7.85,0,4.11,2.74,6,6,6a8.67,8.67,0,0,0,8.42-5.83,6.52,6.52,0,0,0,.36-2Z"/><path d="M931.61,725.92v-30h-4.9v-4.82h4.9v-1.66c0-4.89,1.08-9.36,4-12.17a12.16,12.16,0,0,1,8.5-3.24,14.76,14.76,0,0,1,5.4,1l-.86,4.9a9.36,9.36,0,0,0-4-.79c-5.4,0-6.76,4.75-6.76,10.08v1.87h8.42v4.82h-8.42v30Z"/><path d="M66.26,786.9c0-3.6-.08-6.55-.29-9.43h5.61l.36,5.76h.15a12.82,12.82,0,0,1,11.52-6.55c4.82,0,12.31,2.88,12.31,14.83v20.81H89.59V792.23c0-5.62-2.09-10.3-8.07-10.3a9,9,0,0,0-8.5,6.48,9.42,9.42,0,0,0-.43,3v21H66.26Z"/><path d="M137.75,794.61c0,12.89-8.92,18.5-17.35,18.5-9.43,0-16.7-6.91-16.7-17.93,0-11.66,7.63-18.5,17.28-18.5C131,776.68,137.75,784,137.75,794.61ZM110.1,795c0,7.63,4.4,13.39,10.59,13.39s10.58-5.69,10.58-13.54c0-5.9-3-13.39-10.44-13.39S110.1,788.34,110.1,795Z"/><path d="M175.77,777.47c-.14,2.52-.29,5.33-.29,9.57v20.24c0,8-1.58,12.89-5,15.91s-8.28,4.18-12.67,4.18c-4.18,0-8.78-1-11.59-2.88l1.58-4.83a19.69,19.69,0,0,0,10.23,2.74c6.48,0,11.23-3.38,11.23-12.17v-3.89h-.14c-2,3.24-5.69,5.84-11.09,5.84-8.64,0-14.84-7.35-14.84-17,0-11.81,7.71-18.5,15.7-18.5,6.05,0,9.36,3.16,10.87,6h.15l.29-5.25Zm-6.55,13.75a9,9,0,0,0-.36-2.88,9.13,9.13,0,0,0-8.86-6.7c-6.05,0-10.37,5.12-10.37,13.18,0,6.84,3.46,12.53,10.3,12.53a9.25,9.25,0,0,0,8.78-6.48,11,11,0,0,0,.51-3.38Z"/><path d="M189.52,796.05c.14,8.56,5.62,12.09,11.95,12.09a22.89,22.89,0,0,0,9.65-1.8l1.08,4.54A28.19,28.19,0,0,1,200.61,813c-10.73,0-17.14-7.06-17.14-17.57s6.19-18.79,16.35-18.79c11.37,0,14.4,10,14.4,16.41a24.26,24.26,0,0,1-.22,3Zm18.58-4.54c.07-4-1.66-10.3-8.79-10.3-6.41,0-9.21,5.91-9.72,10.3Z"/><path d="M229.69,767.46v10h9.08v4.82h-9.08v18.8c0,4.32,1.23,6.76,4.76,6.76a14,14,0,0,0,3.67-.43l.29,4.76a15.65,15.65,0,0,1-5.62.86,8.81,8.81,0,0,1-6.84-2.66c-1.8-1.88-2.45-5-2.45-9.08v-19h-5.4v-4.82h5.4v-8.35Z"/><path d="M261.8,812.32v-30h-4.89v-4.82h4.89v-1.66c0-4.89,1.08-9.36,4-12.17a12.12,12.12,0,0,1,8.49-3.24,14.72,14.72,0,0,1,5.4,1l-.86,4.9a9.5,9.5,0,0,0-4-.79c-5.4,0-6.77,4.75-6.77,10.08v1.87h8.42v4.82h-8.42v30Z"/><path d="M312.78,794.61c0,12.89-8.93,18.5-17.35,18.5-9.43,0-16.7-6.91-16.7-17.93,0-11.66,7.63-18.5,17.28-18.5C306,776.68,312.78,784,312.78,794.61Zm-27.65.36c0,7.63,4.4,13.39,10.59,13.39s10.58-5.69,10.58-13.54c0-5.9-2.95-13.39-10.44-13.39S285.13,788.34,285.13,795Z"/><path d="M320.77,788.34c0-4.1-.07-7.63-.29-10.87H326l.22,6.84h.28c1.59-4.68,5.4-7.63,9.65-7.63a7,7,0,0,1,1.8.21v6a9.15,9.15,0,0,0-2.16-.22c-4.46,0-7.63,3.39-8.49,8.14a17.13,17.13,0,0,0-.29,3v18.58h-6.27Z"/><path d="M350.87,793.45H351c.87-1.22,2.09-2.73,3.1-4l10.22-12H372L358.5,791.8l15.34,20.52h-7.71l-12-16.71-3.24,3.6v13.11H344.6V761.2h6.27Z"/><path d="M381.9,796.05c.14,8.56,5.62,12.09,12,12.09a22.86,22.86,0,0,0,9.65-1.8l1.08,4.54A28.19,28.19,0,0,1,393,813c-10.73,0-17.14-7.06-17.14-17.57s6.19-18.79,16.35-18.79c11.37,0,14.4,10,14.4,16.41a22.37,22.37,0,0,1-.22,3Zm18.58-4.54c.07-4-1.66-10.3-8.79-10.3-6.41,0-9.21,5.91-9.72,10.3Z"/><path d="M414.44,788.34c0-4.1-.07-7.63-.28-10.87h5.54l.22,6.84h.28c1.59-4.68,5.4-7.63,9.65-7.63a7,7,0,0,1,1.8.21v6a9.15,9.15,0,0,0-2.16-.22c-4.46,0-7.63,3.39-8.49,8.14a17.13,17.13,0,0,0-.29,3v18.58h-6.27Z"/><path d="M447.35,767.46v10h9.07v4.82h-9.07v18.8c0,4.32,1.22,6.76,4.75,6.76a13.89,13.89,0,0,0,3.67-.43l.29,4.76a15.61,15.61,0,0,1-5.62.86,8.82,8.82,0,0,1-6.84-2.66c-1.8-1.88-2.45-5-2.45-9.08v-19h-5.4v-4.82h5.4v-8.35Z"/><path d="M459.23,821.18A105,105,0,0,0,463.55,804l7.05-.72c-1.65,6.12-4.82,14.11-6.84,17.49Z"/><path d="M501.13,767.46v10h9.07v4.82h-9.07v18.8c0,4.32,1.22,6.76,4.75,6.76a13.89,13.89,0,0,0,3.67-.43l.29,4.76a15.59,15.59,0,0,1-5.61.86,8.83,8.83,0,0,1-6.85-2.66c-1.8-1.88-2.44-5-2.44-9.08v-19h-5.4v-4.82h5.4v-8.35Z"/><path d="M536.63,812.32l-.51-4.39h-.21a13,13,0,0,1-10.66,5.18c-7.06,0-10.66-5-10.66-10,0-8.42,7.49-13,20.95-13v-.72c0-2.88-.79-8.06-7.91-8.06a17.41,17.41,0,0,0-9.08,2.59l-1.44-4.18a21.66,21.66,0,0,1,11.45-3.09c10.66,0,13.25,7.27,13.25,14.25v13a48.27,48.27,0,0,0,.58,8.35Zm-.94-17.79c-6.91-.14-14.76,1.08-14.76,7.85,0,4.11,2.73,6,6,6a8.68,8.68,0,0,0,8.43-5.83,6.83,6.83,0,0,0,.36-2Z"/><path d="M551.74,812.32c.15-2.38.29-5.9.29-9V761.2h6.26v21.88h.15c2.23-3.88,6.26-6.4,11.88-6.4,8.64,0,14.76,7.2,14.69,17.78,0,12.46-7.85,18.65-15.63,18.65-5,0-9.07-1.94-11.66-6.55h-.22l-.29,5.76Zm6.55-14a12.16,12.16,0,0,0,.29,2.3,9.78,9.78,0,0,0,9.51,7.42c6.62,0,10.58-5.4,10.58-13.39,0-7-3.6-13-10.37-13a10.09,10.09,0,0,0-9.64,7.77,12.11,12.11,0,0,0-.37,2.6Z"/><path d="M596.53,796.05c.14,8.56,5.61,12.09,12,12.09a22.89,22.89,0,0,0,9.65-1.8l1.08,4.54A28.19,28.19,0,0,1,607.62,813c-10.73,0-17.14-7.06-17.14-17.57s6.19-18.79,16.34-18.79c11.38,0,14.4,10,14.4,16.41a24.69,24.69,0,0,1-.21,3Zm18.57-4.54c.08-4-1.65-10.3-8.78-10.3-6.41,0-9.22,5.91-9.72,10.3Z"/><path d="M629.07,788.34c0-4.1-.07-7.63-.29-10.87h5.55l.21,6.84h.29c1.58-4.68,5.4-7.63,9.65-7.63a7.06,7.06,0,0,1,1.8.21v6a9.21,9.21,0,0,0-2.16-.22c-4.47,0-7.63,3.39-8.5,8.14a18.19,18.19,0,0,0-.29,3v18.58h-6.26Z"/><path d="M698,761.2v42.12c0,3.1.07,6.62.28,9h-5.69l-.28-6.05h-.15c-1.94,3.89-6.19,6.84-11.88,6.84-8.42,0-14.9-7.13-14.9-17.71-.08-11.6,7.13-18.72,15.62-18.72,5.33,0,8.93,2.52,10.51,5.32h.15V761.2Zm-6.34,30.45a11,11,0,0,0-.29-2.66,9.33,9.33,0,0,0-9.14-7.35c-6.56,0-10.45,5.77-10.45,13.47,0,7.06,3.46,12.89,10.3,12.89a9.53,9.53,0,0,0,9.29-7.56,10.87,10.87,0,0,0,.29-2.74Z"/><path d="M737.65,802.81c0,3.61.07,6.77.28,9.51h-5.61l-.36-5.69h-.15a13.09,13.09,0,0,1-11.52,6.48c-5.47,0-12-3-12-15.26V777.47h6.33v19.3c0,6.62,2,11.08,7.78,11.08a8.93,8.93,0,0,0,8.93-9V777.47h6.34Z"/><path d="M762.56,805.84a16.62,16.62,0,0,0,8.35,2.52c4.61,0,6.77-2.31,6.77-5.19s-1.8-4.68-6.48-6.4c-6.27-2.24-9.22-5.69-9.22-9.87,0-5.62,4.54-10.22,12-10.22a17.3,17.3,0,0,1,8.57,2.16L781,783.45a13.52,13.52,0,0,0-7.13-2c-3.74,0-5.83,2.16-5.83,4.75,0,2.88,2.09,4.18,6.62,5.91,6.05,2.3,9.15,5.32,9.15,10.51,0,6.12-4.76,10.44-13,10.44a19.89,19.89,0,0,1-9.79-2.38Z"/><path d="M791.93,788.85c0-4.47-.14-8.07-.29-11.38h5.69l.29,6h.14a13.71,13.71,0,0,1,12.39-6.77c8.42,0,14.76,7.12,14.76,17.71,0,12.53-7.63,18.72-15.84,18.72-4.61,0-8.64-2-10.73-5.47h-.14v18.94h-6.27Zm6.27,9.28a14.79,14.79,0,0,0,.28,2.6,9.78,9.78,0,0,0,9.51,7.41c6.7,0,10.58-5.47,10.58-13.46,0-7-3.67-13-10.36-13a11,11,0,0,0-10,10.44Z"/><path d="M840,767.68a3.93,3.93,0,0,1-7.85,0,3.86,3.86,0,0,1,4-4A3.77,3.77,0,0,1,840,767.68Zm-7.06,44.64V777.47h6.33v34.85Z"/><path d="M849.75,761.2h6.33v51.12h-6.33Z"/><path d="M866.74,761.2h6.33v51.12h-6.33Z"/><path d="M887.26,796.05c.14,8.56,5.61,12.09,12,12.09a22.89,22.89,0,0,0,9.65-1.8l1.08,4.54A28.19,28.19,0,0,1,898.35,813c-10.73,0-17.14-7.06-17.14-17.57s6.19-18.79,16.34-18.79c11.38,0,14.4,10,14.4,16.41a24.69,24.69,0,0,1-.21,3Zm18.57-4.54c.08-4-1.65-10.3-8.78-10.3-6.41,0-9.22,5.91-9.72,10.3Z"/><path d="M927.43,767.46v10h9.07v4.82h-9.07v18.8c0,4.32,1.23,6.76,4.75,6.76a14,14,0,0,0,3.68-.43l.28,4.76a15.55,15.55,0,0,1-5.61.86,8.81,8.81,0,0,1-6.84-2.66c-1.8-1.88-2.45-5-2.45-9.08v-19h-5.4v-4.82h5.4v-8.35Z"/><path d="M66.26,873.3c0-3.6-.08-6.55-.29-9.43h5.54l.29,5.62H72A12,12,0,0,1,83,863.08a10.32,10.32,0,0,1,9.87,7H93a14.42,14.42,0,0,1,3.89-4.54,11.91,11.91,0,0,1,7.7-2.44c4.61,0,11.45,3,11.45,15.12v20.52h-6.19V879c0-6.7-2.45-10.73-7.56-10.73A8.21,8.21,0,0,0,94.77,874a10.43,10.43,0,0,0-.5,3.17v21.53h-6.2V877.84c0-5.55-2.44-9.58-7.27-9.58-4,0-6.84,3.17-7.85,6.34a8.68,8.68,0,0,0-.5,3.09v21H66.26Z"/><path d="M129.83,882.45c.15,8.56,5.62,12.09,12,12.09a22.84,22.84,0,0,0,9.64-1.8l1.08,4.54a28.15,28.15,0,0,1-11.59,2.16c-10.73,0-17.14-7.06-17.14-17.57s6.2-18.79,16.35-18.79c11.38,0,14.4,10,14.4,16.41a22.37,22.37,0,0,1-.22,3Zm18.58-4.54c.07-4-1.66-10.3-8.78-10.3-6.41,0-9.22,5.91-9.73,10.3Z"/><path d="M192.47,847.6v42.12c0,3.1.08,6.62.29,9h-5.69l-.28-6.05h-.15c-1.94,3.89-6.19,6.84-11.88,6.84-8.42,0-14.9-7.13-14.9-17.71-.08-11.59,7.12-18.72,15.62-18.72,5.33,0,8.93,2.52,10.51,5.33h.15V847.6Zm-6.33,30.45a11,11,0,0,0-.29-2.66,9.33,9.33,0,0,0-9.14-7.35c-6.56,0-10.45,5.77-10.45,13.47,0,7.06,3.46,12.89,10.3,12.89a9.53,9.53,0,0,0,9.29-7.56,10.87,10.87,0,0,0,.29-2.74Z"/><path d="M248.34,847.6v42.12c0,3.1.08,6.62.29,9h-5.69l-.28-6.05h-.15c-1.94,3.89-6.19,6.84-11.88,6.84-8.42,0-14.9-7.13-14.9-17.71-.08-11.59,7.12-18.72,15.62-18.72,5.33,0,8.93,2.52,10.51,5.33H242V847.6ZM242,878.05a11,11,0,0,0-.29-2.66,9.33,9.33,0,0,0-9.14-7.35c-6.56,0-10.45,5.77-10.45,13.47,0,7.06,3.46,12.89,10.3,12.89a9.53,9.53,0,0,0,9.29-7.56,10.87,10.87,0,0,0,.29-2.74Z"/><path d="M262.38,882.45c.15,8.56,5.62,12.09,12,12.09a22.84,22.84,0,0,0,9.64-1.8l1.08,4.54a28.15,28.15,0,0,1-11.59,2.16c-10.73,0-17.14-7.06-17.14-17.57s6.2-18.79,16.35-18.79c11.38,0,14.4,10,14.4,16.41a22.37,22.37,0,0,1-.22,3ZM281,877.91c.07-4-1.66-10.3-8.78-10.3-6.41,0-9.22,5.91-9.73,10.3Z"/><path d="M302.56,853.86v10h9.07v4.82h-9.07v18.8c0,4.32,1.22,6.76,4.75,6.76a13.89,13.89,0,0,0,3.67-.43l.29,4.76a15.61,15.61,0,0,1-5.62.86,8.82,8.82,0,0,1-6.84-2.66c-1.8-1.88-2.44-5-2.44-9.08v-19H291v-4.82h5.41v-8.35Z"/><path d="M333.16,892.24a16.62,16.62,0,0,0,8.35,2.52c4.61,0,6.77-2.3,6.77-5.18,0-3-1.8-4.69-6.48-6.41-6.27-2.24-9.22-5.69-9.22-9.87,0-5.62,4.54-10.22,12-10.22a17.3,17.3,0,0,1,8.57,2.16l-1.58,4.61a13.52,13.52,0,0,0-7.13-2c-3.74,0-5.83,2.16-5.83,4.75,0,2.88,2.09,4.18,6.62,5.91,6.05,2.3,9.15,5.32,9.15,10.51,0,6.12-4.75,10.44-13,10.44a19.89,19.89,0,0,1-9.79-2.38Z"/><path d="M381.83,898.72l-.5-4.39h-.22a13,13,0,0,1-10.66,5.18c-7.05,0-10.65-5-10.65-10,0-8.42,7.48-13,20.95-13v-.72c0-2.88-.79-8.06-7.92-8.06a17.37,17.37,0,0,0-9.07,2.59l-1.44-4.18a21.62,21.62,0,0,1,11.44-3.09c10.66,0,13.25,7.27,13.25,14.25v13a49.28,49.28,0,0,0,.58,8.35Zm-.94-17.79c-6.91-.14-14.76,1.08-14.76,7.85,0,4.11,2.74,6.05,6,6.05a8.65,8.65,0,0,0,8.42-5.83,6.52,6.52,0,0,0,.36-2Z"/><path d="M397.24,873.3c0-3.6-.08-6.55-.29-9.43h5.54l.29,5.62H403a12,12,0,0,1,10.94-6.41,10.32,10.32,0,0,1,9.87,7H424a14.42,14.42,0,0,1,3.89-4.54,11.91,11.91,0,0,1,7.7-2.44c4.61,0,11.45,3,11.45,15.12v20.52H440.8V879c0-6.7-2.45-10.73-7.56-10.73a8.21,8.21,0,0,0-7.49,5.76,10.43,10.43,0,0,0-.5,3.17v21.53h-6.2V877.84c0-5.55-2.44-9.58-7.27-9.58-4,0-6.84,3.17-7.85,6.34a8.68,8.68,0,0,0-.5,3.09v21h-6.19Z"/><path d="M457.28,873.3c0-3.6-.07-6.55-.28-9.43h5.54l.29,5.62H463A12,12,0,0,1,474,863.08a10.3,10.3,0,0,1,9.86,7H484a14.42,14.42,0,0,1,3.89-4.54,11.89,11.89,0,0,1,7.7-2.44c4.61,0,11.45,3,11.45,15.12v20.52h-6.19V879c0-6.7-2.45-10.73-7.56-10.73A8.21,8.21,0,0,0,485.8,874a10.42,10.42,0,0,0-.51,3.17v21.53H479.1V877.84c0-5.55-2.45-9.58-7.27-9.58-4,0-6.84,3.17-7.85,6.34a8.68,8.68,0,0,0-.5,3.09v21h-6.2Z"/><path d="M520.86,882.45c.14,8.56,5.62,12.09,11.95,12.09a22.86,22.86,0,0,0,9.65-1.8l1.08,4.54A28.19,28.19,0,0,1,532,899.44c-10.73,0-17.14-7.06-17.14-17.57s6.19-18.79,16.35-18.79c11.37,0,14.4,10,14.4,16.41a24.26,24.26,0,0,1-.22,3Zm18.58-4.54c.07-4-1.66-10.3-8.79-10.3-6.41,0-9.21,5.91-9.72,10.3Z"/><path d="M551,895a4.26,4.26,0,0,1,4.32-4.54A4.54,4.54,0,1,1,551,895Z"/></svg>
