<svg id="Lag_1" data-name="Lag 1" xmlns="http://www.w3.org/2000/svg" width="745" height="1207" viewBox="0 0 745 1207"><defs><style>.cls-1{fill:#c1c6dd;}.cls-2{fill:#698aa5;}.cls-3{fill:#3c759c;}.cls-4{fill:#12517f;}.cls-5{fill:#006093;}</style></defs><title>nude_boy</title><rect class="cls-1" width="745" height="1207"/><path class="cls-2" d="M0,725C278.79,499.77,416.73,425.37,491,403a517.81,517.81,0,0,0,93-37c77.47-39.84,129.85-91.39,161-127v968H0Z"/><path class="cls-3" d="M84,1207c2-1,4-1.94,6-3a192.82,192.82,0,0,0,17-10,612.27,612.27,0,0,0,66-29c82-42,141.34-95.73,182-141a11.31,11.31,0,0,1,7,3,12.46,12.46,0,0,1,3,7c.8,7-53,92-53,92-5.84,9.23-11.89,20.15-24,42-9,16.21-16.15,29.73-21,39Z"/><path class="cls-4" d="M361.82,1011.1c.95,8.29.2,18.2-6.47,25.28-16.16,17.12-59.62,9.68-85-11.13-16.93-13.87-27-34.61-26.52-53.49.91-38.36,45.05-67.43,45.11-67.38h0Z"/><path class="cls-5" d="M289,890c-9.65,9.45-21.84,21.5-35,40a259.45,259.45,0,0,0-21,35c-5.51,11.1-13.92,35.92-16.29,42.82-5.49,16-7.5,15.74-7.7,21-.83,22.25,34.09,53.66,67.2,52.49,21.48-.75,29.66-15.25,93.1-70,16.07-13.87,29.66-25.12,39.2-32.9,28.19-19.67,48.22-34.58,61.6-44.8,4-3.06,27.69-21.17,27.3-21.7,0,0-.12,0-.2,0-3.17.88-8.2-11.23-8.2-11.23-22.19-17.28-51.73-39.66-87.5-65.1,7.73-12.72,7.7-16.8,6.3-18.2C404.32,813.9,350,845.23,348,847s-2.88,1.82-9,5C339,852,310.66,868.79,289,890Z"/><path class="cls-2" d="M425.2,818.61C403.36,827.55,335.14,857,286,906c-11.69,11.65-29.56,29.75-44,59a201.94,201.94,0,0,0-15.89,44.93c-3.64,4.18-13.79,17-11.29,31.06,3.46,19.5,30.3,36.68,64.95,31.77L491.56,897.68Z"/><path class="cls-5" d="M261.47,1035.28l35.92,25.47,5.82-5.56Z"/><path class="cls-5" d="M398.5,824.05l-24,1.67,24.59-6.85a5.43,5.43,0,0,0,.52-4.44c-1.46-3.41-8.07-3.59-11.84-3.65-5.89-.1-17.52.68-35.44,7.82l32.1-12s-92.15,13.88-45.77,4.35l46.38-9.54-31-3.66,30.38-3.92,28.25,26.66Z"/><path class="cls-5" d="M361.11,1008c-5.08,9.94-9,22.8-4.63,35.17,10.53,30,64.58,43.21,104.08,30.27,26.34-8.63,48-29.49,56.52-53.46,17.39-48.71-19.88-108.24-20-108.21h0Z"/><path class="cls-2" d="M489.61,967.12A272.39,272.39,0,0,0,494.3,1024c15.3-17.27,17.06-31.21,17.16-37.76a130.43,130.43,0,0,0-1.15-15.05,256.12,256.12,0,0,0-4.47-26c-5.59-24.09-16.26-46.62-19.46-53.2-11.65,5.15-14.69,10.68-15.52,14.47-2.64,12.15,14.45,20.22,18.52,43.17C490.43,955.51,489.85,958.11,489.61,967.12Z"/><polygon class="cls-5" points="407.08 825.34 344.02 827.41 393.72 816.46 407.08 825.34"/><polygon class="cls-5" points="431.25 803.11 363.49 793.96 434.06 793.83 431.25 803.11"/><polygon class="cls-5" points="429.04 794.76 357.47 785.1 432.01 784.96 429.04 794.76"/><polygon class="cls-5" points="419.31 812.11 369.04 805.19 421.37 805.32 419.31 812.11"/><polygon class="cls-5" points="684.91 599.41 711.09 580.59 699.46 606.06 684.91 599.41"/></svg>
