<svg id="Lag_1" data-name="Lag 1" xmlns="http://www.w3.org/2000/svg" width="745" height="1207" viewBox="0 0 745 1207"><defs><style>.cls-1{fill:#ff8aaf;}.cls-2{fill:#ffbbc1;}.cls-3{fill:#da6897;}.cls-4{fill:#ff8697;}.cls-5{fill:#bc005d;}.cls-6{fill:#ffadaf;}.cls-7{fill:#b60058;}.cls-8{fill:#ffa9ac;}</style></defs><title>nude_girl</title><rect class="cls-1" width="745" height="1207"/><ellipse class="cls-2" cx="372.5" cy="355" rx="196.5" ry="222"/><path class="cls-2" d="M305,429l-8,147a149.21,149.21,0,0,1-145,78,149.47,149.47,0,0,0-95,79L0,780.49V1207H745V818l-62-81a105.91,105.91,0,0,0-53-67l-65-19c-15-6.79-30.82-14.54-47.12-23.37C496.19,615.87,476.58,603.81,459,592q-2.17-20.73-4-42c-3.56-41.61-5.82-82-7-121Z"/><path class="cls-1" d="M93,938c6.49,33.65,12.29,69.36,17,107,7.23,57.76,10.91,112,12.2,162H0V1056Z"/><path class="cls-1" d="M611.66,913a804,804,0,0,1-2.86,110.39,829.59,829.59,0,0,1-39,183.61H745V1042Z"/><ellipse class="cls-3" cx="226.5" cy="956.5" rx="104.5" ry="113.5"/><ellipse class="cls-3" cx="495.5" cy="971" rx="101.5" ry="109"/><ellipse class="cls-2" cx="220.5" cy="939.14" rx="110.5" ry="108.14"/><circle class="cls-2" cx="502.5" cy="951.5" r="108.5"/><circle class="cls-4" cx="220.5" cy="970.5" r="21.5"/><circle class="cls-4" cx="502.5" cy="978.5" r="19.5"/><path class="cls-5" d="M394,119c14.52.6,70,4.6,118,49,47.66,44.06,56.19,98.48,58,113l15,212q-3.5,81-7,162a84.08,84.08,0,0,0-28-10c-6.9-1.13-12.4-2-19,0-10.64,3.17-16.68,11.4-19,15a418.9,418.9,0,0,1-12,52c-7.5,25-13.14,35.16-19,58a283.44,283.44,0,0,0-8,48q5,34.5,10,69a91.63,91.63,0,0,1-31-42c-10.28-28.78-2.58-53.65,0-61a160.6,160.6,0,0,0-25,34c-16.06,29.37-17.07,54.25-19,54-4.49-.58,9-131,9-131,4-38.67,7.55-70.49,10-92-.34-14.92,1.17-44.68,19-75a136.63,136.63,0,0,1,25-31q9-64.51,18-129c3.17-22.57,6.81-48.43,10-71a259.48,259.48,0,0,1-57-48c-36.61-41.23-51.55-84.81-58-110-11.41,26.08-36.2,72.74-86,112a286.75,286.75,0,0,1-79,44c-2.47,29.86-2.77,86.41,26,147a278.9,278.9,0,0,0,43,65,88.33,88.33,0,0,1,20,29,95.32,95.32,0,0,1,7,34,101.24,101.24,0,0,1-9,44,408.86,408.86,0,0,1,23,120c1.71,45.32-3.87,102.25-14,103-5.47.4-14.32-15.45-29-89-2.84,10.7-11.69,38.14-38,59a108,108,0,0,1-37,19,156.78,156.78,0,0,0,16-59,156,156,0,0,0-4-47c1.28-13.76,2.08-43.51-14-75a133.75,133.75,0,0,0-28-37l27-99q-21.5-86.5-43-173a206.81,206.81,0,0,1,21-143,100.67,100.67,0,0,1,19-46c19.93-26.5,47.14-34.72,56-37a114.91,114.91,0,0,1,31-27C335.54,103.27,382.52,115.63,394,119Z"/><path class="cls-3" d="M329,594c8.65,5.3,33.33,18.75,63,13,23-4.46,38.27-18.39,51-30a156.06,156.06,0,0,0,28-34,330.19,330.19,0,0,1-40,24c-25,12.72-37.56,19.08-54,19-14.21-.07-26.66-6-51-18a449.77,449.77,0,0,1-49-28Z"/><polygon class="cls-3" points="95.28 936.85 165.49 845.22 108.5 1046.37 95.28 936.85"/><circle cx="300.5" cy="396.5" r="15.5"/><polygon class="cls-6" points="357 1128 331 1207 372.5 1207 357 1128"/><rect class="cls-7" x="270" y="347" width="70" height="16" rx="4.5" ry="4.5"/><rect class="cls-7" x="390" y="345" width="70" height="16" rx="4.5" ry="4.5"/><rect class="cls-8" x="342" y="383" width="24" height="91" rx="12" ry="12"/><rect x="406" y="396" width="43" height="8" rx="4" ry="4"/></svg>
