<svg id="Lag_1" data-name="Lag 1" xmlns="http://www.w3.org/2000/svg" width="745" height="1207" viewBox="0 0 745 1207"><defs><style>.cls-1{fill:#ffa56b;}.cls-2{fill:#d27d2c;}.cls-3{fill:#b24800;}.cls-4{fill:#ecb787;}.cls-5{fill:#7d4021;}.cls-6{fill:#7e3700;}.cls-7{fill:#42210b;}.cls-8{fill:#603813;}.cls-9{fill:#ba6830;}.cls-10{fill:#6c3230;}.cls-11{fill:#ff6a3f;}.cls-12,.cls-13,.cls-14,.cls-15,.cls-16,.cls-17{fill:#eb6a24;}.cls-13,.cls-14,.cls-15,.cls-16,.cls-17{stroke:#f7931e;stroke-miterlimit:10;}.cls-13{stroke-width:2.28px;}.cls-14{stroke-width:1.95px;}.cls-15{stroke-width:1.3px;}.cls-16{stroke-width:1.05px;}.cls-17{stroke-width:0.79px;}.cls-18{opacity:0.7;}.cls-19{fill:#fff;}</style></defs><title>paris_boy</title><rect class="cls-1" y="-0.5" width="745" height="1207"/><path class="cls-2" d="M744.5,1207H-.5V647c133.68-10,277.93-15.31,431.5-13.5,109.72,1.29,214.38,6.12,313.5,13.5Z"/><path class="cls-3" d="M236.85,692.16l2.93,50.31a155.61,155.61,0,0,0,74.39,63.1,3.68,3.68,0,0,1,2.72,1.29c7,9.78-48.11,89.58-115.09,105.73C113.48,933.88,4,844.63,0,842.71a238.16,238.16,0,0,0,71.22-49.12,234,234,0,0,0,21.37-24.76L95,687.37C99.18,668.46,236.85,692.16,236.85,692.16Z"/><path class="cls-4" d="M28.49,820c35.62,57.22,100.12,88.28,163.81,79,83.49-12.11,121.15-87,124.24-93.44L392,839.5l60,72,48,97-81.37,43.86,6.27,154.14H0V842.31Z"/><polygon class="cls-3" points="453.12 1033.46 473.49 1207.5 406 1207.5 400 1055.37 453.12 1033.46"/><rect class="cls-5" x="292.38" y="466.53" width="24" height="111.01" rx="12" ry="12"/><rect class="cls-3" x="27.7" y="395.5" width="283.31" height="320.81" rx="141.65" ry="141.65"/><path class="cls-6" d="M94.28,710.19l144.44,14L239,742.5c-14.72,4.84-26.24,9.58-34,13-10.81,4.76-15,7.24-23,9-12.63,2.77-23,1.16-30,0-26.72-4.42-47.6-18.76-57.72-26.67Z"/><rect class="cls-5" x="18.83" y="468.26" width="37.92" height="107.52" rx="12" ry="12"/><path class="cls-3" d="M38.19,628.65A193.25,193.25,0,0,0,56.27,668c14.61,24,30.88,37.4,41.44,44.56,10,10.67,27.05,25.69,50.47,32.13a86.25,86.25,0,0,0,24.11,3.11c17.23-1.21,56.61-7.3,92.66-46.64,8.6-9.37,22.28-24.3,33.15-49.75h0c.07-.12,1.57-8.73,6.78-39.38Z"/><path class="cls-7" d="M54.26,469c0-6.78,8.57-29.88,31.26-43.6a65.47,65.47,0,0,1,41.67-8.72,97.57,97.57,0,0,1,81.27,17.44c55.39,39.18,105,54.16,125,34.88,12.88-12.39,18.28-43.47,6.25-53.41-9-7.4-24.84-.84-29.17,1.09,10-21.52-.6-43.85-14.59-48-11-3.24-25.89,4.33-33.34,19.63,6.72-23.48,3.82-31.7,0-34.89-7.16-6-19.28,4.26-39.59,6.54-21.59,2.43-34-6.2-50-10.9C119.37,333.3,58.82,372.93,29.26,405.76a75,75,0,0,0-14.59,76.3C14.57,491.89,54.26,483.15,54.26,469Z"/><path class="cls-3" d="M31.25,599.37l-19-16.26c-10.5-18.25-7-42.23,5-52.52,9.08-7.81,22.34-7.18,32.75,1.92v70Z"/><circle cx="124" cy="551.5" r="12"/><circle cx="254" cy="551.5" r="12"/><rect class="cls-8" x="84" y="486.5" width="85" height="26" rx="12" ry="12"/><rect class="cls-8" x="223" y="485.5" width="85" height="26" rx="12" ry="12"/><rect class="cls-9" x="187" y="548.5" width="31" height="78" rx="12" ry="12"/><path class="cls-10" d="M126,652.5a30.87,30.87,0,0,0,9.4,16.58,35.06,35.06,0,0,0,3,2.46,48.37,48.37,0,0,0,12.38,8.59c4,2,14.94,7.31,29,5.53a44,44,0,0,0,18.79-6.91l9.4-15.89a183,183,0,0,1-29,.69A180,180,0,0,1,126,652.5Z"/><path class="cls-6" d="M50,550.5l-11-11c-.4-.29-6.5-4.59-13-2-5.75,2.29-9.31,9-8,16,2.78-8.16,7.08-9.71,8-10,7.21-2.28,18.75,5.69,25,22Q50.51,558,50,550.5Z"/><path class="cls-11" d="M307,691.5a1997.52,1997.52,0,0,0,133-362,1996.7,1996.7,0,0,0,57.19-331H548a1951.26,1951.26,0,0,0,71,399,1950.37,1950.37,0,0,0,111,294H676a488,488,0,0,0-13-61c-3.71-13.23-7.77-25.57-12-37a104.14,104.14,0,0,0-20-34c-58.32-65.5-184.24-29.58-216-3a94.92,94.92,0,0,0-20,23c-2.33,4.08-5.26,10.14-12.18,36.34-3.56,13.47-4.83,19.64-6.82,27.66a431.57,431.57,0,0,1-15,48Z"/><path class="cls-1" d="M432,489.5l180-4q-8.19-28-16-57-20.76-77.07-36-150l-71-2q-17.62,75.63-40,155Q440.66,460.9,432,489.5Z"/><polygon class="cls-1" points="500 228.5 551 228.5 525.5 -0.5 500 228.5"/><rect class="cls-12" x="387" y="459.5" width="270" height="53"/><rect class="cls-12" x="456" y="213.5" width="133" height="48"/><line class="cls-13" x1="494.2" y1="210.5" x2="550.03" y2="181.26"/><line class="cls-13" x1="558" y1="210.5" x2="504.08" y2="180.5"/><line class="cls-14" x1="498" y1="179.5" x2="543.5" y2="153.18"/><line class="cls-14" x1="550" y1="179.5" x2="506.05" y2="152.5"/><line class="cls-14" x1="499" y1="154.5" x2="544.5" y2="128.18"/><line class="cls-14" x1="551" y1="154.5" x2="507.05" y2="127.5"/><line class="cls-14" x1="499" y1="127.5" x2="544.5" y2="101.18"/><line class="cls-14" x1="551" y1="127.5" x2="507.05" y2="100.5"/><line class="cls-14" x1="499" y1="99.5" x2="544.5" y2="73.18"/><line class="cls-14" x1="551" y1="99.5" x2="507.05" y2="72.5"/><line class="cls-15" x1="508.33" y1="70.5" x2="538.67" y2="52.96"/><line class="cls-15" x1="543" y1="70.5" x2="513.7" y2="52.5"/><line class="cls-16" x1="513" y1="52.04" x2="537.5" y2="37.87"/><line class="cls-16" x1="541" y1="52.04" x2="517.33" y2="37.5"/><line class="cls-17" x1="516" y1="36.5" x2="534.38" y2="25.78"/><line class="cls-17" x1="537" y1="36.5" x2="519.25" y2="25.5"/><line class="cls-17" x1="516" y1="25.5" x2="534.38" y2="14.78"/><line class="cls-17" x1="537" y1="25.5" x2="519.25" y2="14.5"/><rect class="cls-18" x="-2" y="964.5" width="746" height="84"/><path class="cls-19" d="M201,1015.29c0,7.49-3.31,9.65-7.77,9.65a12.86,12.86,0,0,1-2.88-.29v-2.35a16.84,16.84,0,0,0,3,.24c4.51,0,5.09-3.5,5.09-7.3V990.86H201Z"/><path class="cls-19" d="M209.7,1012.75c.05,6.19,3.17,10,7.78,10s6.05-2.54,6.91-4.51h2.45c-1,3.17-3.55,6.77-9.46,6.77-7.3,0-10.13-6.29-10.13-12.39,0-6.86,3.41-12.77,10.42-12.77,7.39,0,9.74,6.39,9.74,10.9,0,.67,0,1.34,0,2Zm15.22-2.11c0-4.76-2.64-8.5-7.35-8.5-4.94,0-7.2,3.46-7.73,8.5Z"/><path class="cls-19" d="M252.13,1022.83c0,7.68-3.41,11.71-10.37,11.71-6.24,0-8.83-3.5-9.41-7.15h2.45c.87,3.31,3.6,4.9,7.06,4.9,6.24,0,8-4,8-10.13v-2.5c-1.3,3.12-3.65,4.8-8,4.8-5.61,0-9.93-4.56-9.93-12,0-8.06,4.6-12.58,10.27-12.58,4.89,0,7,2.31,7.68,4.23,0-1.4.09-3.07.14-3.65h2.26c0,.86-.1,4.66-.1,7Zm-17.71-10.47c0,5.72,3,9.85,7.63,9.85,6,0,7.83-4,7.83-10.23s-1.92-9.84-7.68-9.84C236.67,1002.14,234.42,1006.89,234.42,1012.36Z"/><path class="cls-19" d="M290.15,1017.4c-1.15,4.23-3.94,7.64-9.32,7.64-6,0-10.27-4.47-10.27-12.48,0-6.58,3.51-12.68,10.56-12.68a8.59,8.59,0,0,1,9,7.68H287.7c-.72-2.78-2.55-5.42-6.63-5.42-5.08,0-8,4.32-8,10.32,0,5.71,2.68,10.32,7.72,10.32,3.51,0,5.62-1.78,6.87-5.38Z"/><path class="cls-19" d="M298.11,989.08v15.41a8.39,8.39,0,0,1,7.92-4.61c3.41,0,8.12,1.73,8.12,9.32v15.26h-2.4v-14.78c0-4.76-2.16-7.44-6.15-7.44-4.75,0-7.49,2.92-7.49,8.83v13.39h-2.4V989.08Z"/><path class="cls-19" d="M322,989.08h2.4v4.66H322Zm0,11.38h2.4v24H322Z"/><path class="cls-19" d="M332.29,1024.46V989.08h2.4v35.38Z"/><path class="cls-19" d="M342.56,1024.46V989.08H345v35.38Z"/><path class="cls-19" d="M353.36,1012.75c.05,6.19,3.17,10,7.78,10s6-2.54,6.91-4.51h2.45c-1,3.17-3.56,6.77-9.46,6.77-7.3,0-10.13-6.29-10.13-12.39,0-6.86,3.41-12.77,10.42-12.77,7.39,0,9.74,6.39,9.74,10.9,0,.67,0,1.34-.05,2Zm15.22-2.11c-.05-4.76-2.64-8.5-7.35-8.5-4.94,0-7.2,3.46-7.73,8.5Z"/><path class="cls-19" d="M376.93,1007c0-4-.05-5.76-.05-6.53h2.35c0,.77.1,2.3.1,5.37a9.11,9.11,0,0,1,8.35-6v2.59c-5,.34-8.35,3.8-8.35,9.51v12.48h-2.4Z"/><path class="cls-19" d="M405,989.08h2.4v4.66H405Zm0,11.38h2.4v24H405Z"/><path class="cls-19" d="M428.48,990.86h12c6.14,0,10.37,3.41,10.37,9.36s-4.18,9.6-10.71,9.6h-9v14.64h-2.64Zm2.64,16.56h9.26c5.43,0,7.68-2.88,7.68-7.11,0-4.51-3-7-7.49-7h-9.45Z"/><path class="cls-19" d="M472.16,1019.9a28.13,28.13,0,0,0,.33,4.56h-2.3a15.62,15.62,0,0,1-.43-3.7c-.82,1.78-2.93,4.28-7.87,4.28-5.57,0-8-3.6-8-7.2,0-5.28,4.08-7.68,11.28-7.68h4.56v-2.45c0-2.4-.72-5.62-6.19-5.62-4.85,0-5.57,2.54-6.1,4.51h-2.4c.29-2.64,1.92-6.72,8.54-6.72,5.48,0,8.55,2.31,8.55,7.59Zm-2.35-7.68H465.1c-5.33,0-8.64,1.39-8.64,5.52,0,3,2.16,5.09,5.52,5.09,6.87,0,7.83-4.56,7.83-9.75Z"/><path class="cls-19" d="M480.08,1007c0-4-.05-5.76-.05-6.53h2.35c.05.77.1,2.3.1,5.37a9.11,9.11,0,0,1,8.35-6v2.59c-5,.34-8.35,3.8-8.35,9.51v12.48h-2.4Z"/><path class="cls-19" d="M495.25,989.08h2.4v4.66h-2.4Zm0,11.38h2.4v24h-2.4Z"/><path class="cls-19" d="M505.28,1017.84c.81,3.12,3,5,6.81,5,4.28,0,6-2,6-4.66s-1.15-4.08-6.52-5.37c-6.2-1.49-7.73-3.36-7.73-6.53s2.49-6.39,7.92-6.39,8,3.32,8.4,6.72h-2.4c-.43-2-2-4.51-6.1-4.51s-5.37,2.07-5.37,4c0,2.2,1.15,3.31,5.9,4.46,6.77,1.63,8.45,3.84,8.45,7.44,0,4.37-3.55,7.06-8.59,7.06-5.48,0-8.55-2.88-9.22-7.2Z"/></svg>
