<svg id="Lag_1" data-name="Lag 1" xmlns="http://www.w3.org/2000/svg" width="745" height="1207" viewBox="0 0 745 1207"><defs><style>.cls-1{fill:#60004c;}.cls-2{fill:#990060;}.cls-3{fill:#d24c94;}.cls-4{fill:#ce4475;}.cls-5{fill:#6d0042;}.cls-6{fill:#2b0042;}.cls-7{fill:#bc3058;}.cls-8{opacity:0.7;}.cls-9{fill:#fff;}</style></defs><title>purple_girl</title><rect class="cls-1" width="745" height="1207"/><path class="cls-2" d="M742,334.5c-1.08,44.81-2.66,109.81-42,174.5-57.33,94.27-172.34,150.79-285,146-162.63-6.92-282.8-140-307-252-4.94-22.87-5.56-43.37-6-58-1.09-36.17-4.43-147.36,62-230C240.19,20.22,365.76,15.75,415,14s182.35-6.49,265,89C745.76,179,743.4,276.54,742,334.5Z"/><path class="cls-3" d="M266,695l288,10a1030.51,1030.51,0,0,0-6,140c.79,31.27,3,60.68,6,88,14.82,22.87,45.88,63.84,100,94a281.81,281.81,0,0,0,91,31.75V1207H0V993.1A443.43,443.43,0,0,0,245,937a371.14,371.14,0,0,0,29-102A372.73,372.73,0,0,0,266,695Z"/><path class="cls-4" d="M276,721q.5,44,1,88c7.68,13.18,36.91,59.64,93,74,32.62,8.35,60.17,2.46,78-2,45.91-11.5,79-36.31,99.45-55.59Q545,783.2,542.63,741Z"/><path class="cls-3" d="M130,449c5.17,69.2,8.1,105,24,152a423.2,423.2,0,0,0,44,92c14.08,22,31.78,49.69,64,76.85a281,281,0,0,0,92.75,51.53A249.86,249.86,0,0,0,412,823.13c108.31-9.29,176.93-88.63,202.26-117.92,0,0,67.23-79.51,85.84-196.52C706.1,471,706,429.47,706,415c-.06-33.83-.2-51.1-5.9-68.78-10.85-33.63-33-51.65-64.1-79.22-26.59-23.55-64.35-58.12-110-104-30.72,15-111,48.82-207,27a292.28,292.28,0,0,1-83-33c-8.74,29.32-26.48,73.71-64,116a298,298,0,0,1-46,42C125.22,369.38,127.46,415,130,449Z"/><ellipse cx="267" cy="421.5" rx="26" ry="26.5"/><ellipse cx="507" cy="421.5" rx="26" ry="26.5"/><rect class="cls-2" x="199" y="313" width="120" height="44" rx="12" ry="12"/><rect class="cls-2" x="463" y="313" width="120" height="44" rx="12" ry="12"/><rect class="cls-4" x="329" y="397" width="66" height="162" rx="24.75" ry="24.75"/><path class="cls-5" d="M307,646.08a94.89,94.89,0,0,0,11.51-8.7A104.91,104.91,0,0,0,334.21,620h42.91a167.37,167.37,0,0,0,35.58,17.38,156,156,0,0,0,51.83,8.7l-58.11,49.67c-16.88,1.25-31.1,1.41-41.86,1.24-18.23-.29-22.7-1.46-27.21-5-6.33-4.93-7.63-10.52-18.84-28.56C313.74,655.78,309.61,649.78,307,646.08Z"/><polygon class="cls-6" points="307 644.91 458.74 648.32 355.14 653.45 307 644.91"/><path class="cls-4" d="M706,408a58,58,0,0,1,1-16,59,59,0,0,1,11-24c3.14-1.25,16.2-6.11,23,0,3,2.7,3.62,6.49,4,9,3,20.35,2.16,40,2,54-.13,11.68.33,12.08,0,23-.36,12-1.24,22-2,29q-15.51,13.47-31,27-8,7-16,14Q702,466,706,408Z"/><path class="cls-7" d="M101.6,987.73c56.19,134.09,187.57,215,318.4,201.27,150.5-15.76,226.83-149,234-162l91,32v148H0V988Z"/><rect class="cls-8" x="-1" y="905" width="746" height="84"/><path class="cls-9" d="M215,952.88c1,4.46,4,7.1,9.5,7.1,6.15,0,8.5-3.07,8.5-6.72s-1.68-6.14-9.08-8c-7.1-1.78-10.17-4.08-10.17-8.93,0-4.41,3.21-8.54,10.42-8.54,7.39,0,10.51,4.51,10.94,8.59h-2.69c-.77-3.6-3.12-6.19-8.4-6.19-4.85,0-7.49,2.25-7.49,6s2.21,5.13,8.4,6.67c9.46,2.35,10.85,6.15,10.85,10.18,0,4.94-3.6,9.21-11.37,9.21-8.41,0-11.48-4.89-12.1-9.4Z"/><path class="cls-9" d="M244.56,950.28c2.21-2.35,8.93-9.17,12.15-12.38h3.07l-9.5,9.55L261,961.9h-3L248.55,949l-4,3.84v9.07h-2.4V926.52h2.4Z"/><path class="cls-9" d="M281.86,957.34a26.7,26.7,0,0,0,.34,4.56h-2.31a16.2,16.2,0,0,1-.43-3.7c-.82,1.78-2.93,4.28-7.87,4.28-5.57,0-8-3.6-8-7.2,0-5.28,4.08-7.69,11.28-7.69h4.56v-2.44c0-2.4-.72-5.62-6.19-5.62-4.85,0-5.57,2.54-6.1,4.51h-2.4c.29-2.64,1.92-6.72,8.55-6.72,5.47,0,8.54,2.31,8.54,7.59Zm-2.35-7.68H274.8c-5.32,0-8.64,1.39-8.64,5.52,0,3,2.16,5.09,5.52,5.09,6.87,0,7.83-4.56,7.83-9.75Z"/><path class="cls-9" d="M289.78,961.9V926.52h2.4V961.9Z"/><path class="cls-9" d="M311.91,937.9c3.88,11,6.57,18.48,7.48,21.55h.05c.53-1.77,3.22-8.93,7.88-21.55h2.54l-9.07,24h-2.88l-8.55-24Z"/><path class="cls-9" d="M334.71,926.52h2.4v4.66h-2.4Zm0,11.38h2.4v24h-2.4Z"/><path class="cls-9" d="M357.46,955.28c.81,3.12,3,5,6.81,5,4.28,0,6-2,6-4.66s-1.15-4.08-6.52-5.37c-6.2-1.49-7.73-3.36-7.73-6.53,0-3.32,2.49-6.39,7.92-6.39s8,3.31,8.4,6.72h-2.4c-.43-2-2-4.51-6.1-4.51s-5.38,2.06-5.38,4c0,2.21,1.16,3.32,5.91,4.47,6.77,1.63,8.45,3.84,8.45,7.44,0,4.37-3.55,7.06-8.59,7.06-5.48,0-8.55-2.88-9.22-7.2Z"/><path class="cls-9" d="M379.3,950.19c0,6.19,3.16,10,7.77,10s6.05-2.54,6.92-4.51h2.44c-1,3.17-3.55,6.77-9.45,6.77-7.3,0-10.13-6.29-10.13-12.39,0-6.86,3.41-12.77,10.41-12.77,7.4,0,9.75,6.39,9.75,10.9,0,.67,0,1.34-.05,2Zm15.21-2.11c0-4.76-2.64-8.5-7.34-8.5-4.95,0-7.2,3.46-7.73,8.5Z"/><path class="cls-9" d="M403.44,955.28c.82,3.12,3,5,6.82,5,4.27,0,6-2,6-4.66s-1.15-4.08-6.53-5.37c-6.19-1.49-7.73-3.36-7.73-6.53,0-3.32,2.5-6.39,7.92-6.39s8,3.31,8.4,6.72h-2.4c-.43-2-2-4.51-6.09-4.51s-5.38,2.06-5.38,4c0,2.21,1.15,3.32,5.9,4.47,6.77,1.63,8.45,3.84,8.45,7.44,0,4.37-3.55,7.06-8.59,7.06-5.47,0-8.55-2.88-9.22-7.2Z"/><path class="cls-9" d="M437.23,955.28c.82,3.12,3,5,6.82,5,4.27,0,6-2,6-4.66s-1.15-4.08-6.53-5.37c-6.19-1.49-7.73-3.36-7.73-6.53,0-3.32,2.5-6.39,7.92-6.39s8,3.31,8.4,6.72h-2.4c-.43-2-2-4.51-6.09-4.51s-5.38,2.06-5.38,4c0,2.21,1.15,3.32,5.9,4.47,6.77,1.63,8.45,3.84,8.45,7.44,0,4.37-3.55,7.06-8.59,7.06-5.47,0-8.54-2.88-9.22-7.2Z"/><path class="cls-9" d="M459.07,950.19c.05,6.19,3.17,10,7.78,10s6-2.54,6.91-4.51h2.45c-1,3.17-3.55,6.77-9.46,6.77-7.29,0-10.13-6.29-10.13-12.39,0-6.86,3.41-12.77,10.42-12.77,7.39,0,9.74,6.39,9.74,10.9,0,.67,0,1.34,0,2Zm15.22-2.11c-.05-4.76-2.64-8.5-7.35-8.5-4.94,0-7.2,3.46-7.73,8.5Z"/><path class="cls-9" d="M482.64,944c0-2.12,0-4.13-.05-6.05h2.35c.1.77.15,3.89.1,4.56,1-2.45,3-5.14,8-5.14,4.27,0,8.06,2.4,8.06,9V961.9h-2.4V946.73c0-4.27-1.77-7.06-5.95-7.06-5.71,0-7.68,4.76-7.68,10V961.9h-2.4Z"/><path class="cls-9" d="M509.47,950.19c0,6.19,3.17,10,7.78,10s6-2.54,6.91-4.51h2.45c-1,3.17-3.55,6.77-9.46,6.77-7.3,0-10.13-6.29-10.13-12.39,0-6.86,3.41-12.77,10.42-12.77,7.39,0,9.74,6.39,9.74,10.9,0,.67,0,1.34,0,2Zm15.22-2.11c-.05-4.76-2.64-8.5-7.35-8.5-4.94,0-7.2,3.46-7.73,8.5Z"/><path class="cls-9" d="M533,944.43c0-4,0-5.76,0-6.53h2.35c0,.77.1,2.3.1,5.37a9.08,9.08,0,0,1,8.35-5.95v2.59c-5,.34-8.35,3.8-8.35,9.51V961.9H533Z"/><path class="cls-9" d="M548.73,950.19c0,6.19,3.17,10,7.78,10s6-2.54,6.91-4.51h2.45c-1,3.17-3.55,6.77-9.45,6.77-7.3,0-10.13-6.29-10.13-12.39,0-6.86,3.4-12.77,10.41-12.77,7.4,0,9.75,6.39,9.75,10.9,0,.67,0,1.34-.05,2ZM564,948.08c-.05-4.76-2.64-8.5-7.34-8.5-5,0-7.2,3.46-7.73,8.5Z"/><path class="cls-9" d="M578.59,952.06v-.62c0-2.12.43-4.52,4.37-8,3.26-2.93,3.65-5.09,3.65-7.25a6,6,0,0,0-6.29-6.1c-4.13,0-6.29,2.45-7,6.39H571c.14-2.21,1.73-8.64,9.41-8.64,6.43,0,8.78,4.7,8.78,8.3s-1.15,5.86-4.7,9c-2.64,2.35-3.46,4.08-3.46,6.57v.34Zm0,9.84v-5.71H581v5.71Z"/></svg>
