<svg id="Lag_1" data-name="Lag 1" xmlns="http://www.w3.org/2000/svg" width="324" height="339" viewBox="0 0 324 339"><defs><style>.cls-1{fill:#588b97;stroke:#006837;stroke-miterlimit:10;stroke-width:8px;}.cls-2{fill:#d2ffd3;}</style></defs><title>replaybutton</title><circle class="cls-1" cx="160.5" cy="171.5" r="153.5"/><path class="cls-2" d="M246,140.24l-13.09,11.6a79,79,0,0,1,5.12,36.6c-.65,6.31-3.12,27.12-20.8,44.28-17.94,17.4-39.69,19.57-45.79,20.09-8.31.7-33.27,1.49-56.24-16-28.42-21.68-30.54-53.67-30.72-57.56C83.11,152,97.59,132,109.21,121.66c16.6-14.79,36.83-18.52,47.25-20.43a119.2,119.2,0,0,1,21.33-2L161.58,127l21.33-9.7q7.49-12.16,15-24.34L180,72.77l-28.22-6.7,24.15,21.3c-11.14-1.43-31.06-2.27-52,6.88-30.58,13.39-51.69,43.1-54,75.29a89.06,89.06,0,0,0,9.51,46.37A94.12,94.12,0,0,0,109.31,249c4.66,3.19,38.33,25.45,78.5,14.62a85.67,85.67,0,0,0,41.79-26s2.1-2.35,4-4.84c15.86-20.83,17.56-53.32,17.56-69"/></svg>
