<svg id="Lag_1" data-name="Lag 1" xmlns="http://www.w3.org/2000/svg" width="199" height="197" viewBox="0 0 199 197"><defs><style>.cls-1{fill:#999;}</style></defs><title>settings</title><path class="cls-1" d="M152.42,126.22a7.5,7.5,0,0,1,5.85-13.82l2.06.87a57.07,57.07,0,0,0,1.26-29.86l-3.85,1.75a7.5,7.5,0,1,1-6.22-13.65l4.84-2.21a57.22,57.22,0,0,0-21-22.13l-1.82,4.28a7.5,7.5,0,0,1-13.81-5.85l1.87-4.41a57.07,57.07,0,0,0-30.11-.33l1.74,4.9a7.5,7.5,0,0,1-14.13,5l-1.5-4.23A57.27,57.27,0,0,0,56.29,68.12L62,70.53a7.5,7.5,0,0,1-5.85,13.81l-5.4-2.29a57.15,57.15,0,0,0,.88,31l4.13-1.89A7.5,7.5,0,0,1,62,124.84l-4,1.83a57.3,57.3,0,0,0,19.56,18.7l1.31-3.09a7.53,7.53,0,0,1,9.83-4h0a7.52,7.52,0,0,1,4,9.83l-1.26,3a57.15,57.15,0,0,0,29.49-.07L119,145.74a7.53,7.53,0,0,1,4.55-9.58h0a7.53,7.53,0,0,1,9.58,4.55l1.61,4.51a57.25,57.25,0,0,0,19.19-18.37Z"/></svg>
