<svg id="Lag_1" data-name="Lag 1" xmlns="http://www.w3.org/2000/svg" width="745" height="1207" viewBox="0 0 745 1207"><defs><style>.cls-1{fill:#ffffa3;}.cls-2{fill:#ff644c;}.cls-3{fill:#ffc9a5;}.cls-4{fill:#ff944c;}.cls-5{fill:none;stroke:#df3c2d;stroke-miterlimit:10;stroke-width:7px;}.cls-6{opacity:0.7;}.cls-7{fill:#fff;}</style></defs><title>shoes</title><rect class="cls-1" width="745" height="1207"/><path class="cls-2" d="M257.13,631.88,195,482.69,207.24,393C207.11,372.09,220,353.56,239,347c16.71-5.78,35.6-1.39,48.68,11.26A99.39,99.39,0,0,1,328,390c21.48,28.92,19.75,60.44,19,69l21.21,195.36Z"/><path class="cls-3" d="M261,657V622l21-29c4.12-1.89,21.72-9.38,41-2a50,50,0,0,1,18,12v51.36Z"/><path class="cls-4" d="M93,1005c-16.69,35.69-31.82,63.32-44,108a484.41,484.41,0,0,0-16,96l354-2c-3.31-24.51-8.25-61.62-14-107-5.62-44.38-8.53-67.32-10-81-9.52-88.49,4-133.51,8-232a1278,1278,0,0,0-4-164,152.27,152.27,0,0,0-48-6c-38.43,1.4-66.66,17.22-80,26-36.87,85.65-64.92,155.37-84,204C111.46,958,115.2,957.53,93,1005Z"/><path class="cls-2" d="M503.34,624Q522.17,571.51,541,519a242.42,242.42,0,0,0-2-44,246.76,246.76,0,0,0-30-88,52.44,52.44,0,0,0-52-42,83.62,83.62,0,0,0-34,16c-35.92,28.61-33.22,77.75-32.79,83.79L395.07,651Z"/><path class="cls-3" d="M401,654V619l21-29c2.65-1.59,18.29-10.65,37-5a45.33,45.33,0,0,1,22,15v51.36Z"/><path class="cls-4" d="M387,633q-7,287-14,574l362.4,8q-19.73-59.1-41.81-119.44c-52.87-144.26-90-203.7-143.42-345.94C532.27,701.93,518.82,662.08,510,635c-2.1-2.28-35-36.91-79-28C407.38,611.78,392.6,626.67,387,633Z"/><rect class="cls-4" x="251" y="1115" width="332" height="92"/><path class="cls-5" d="M195,483c4.92-9.65,24.31-44.82,67.5-62.5A132.71,132.71,0,0,1,341,414"/><path class="cls-5" d="M390.5,412.5a174.23,174.23,0,0,1,144,34"/><rect class="cls-6" x="-1" y="791" width="746" height="84"/><path class="cls-7" d="M129.51,837.21c0,7.49-3.31,9.65-7.77,9.65a13.49,13.49,0,0,1-2.88-.29v-2.35a16.84,16.84,0,0,0,3,.24c4.51,0,5.09-3.51,5.09-7.3V812.77h2.59Z"/><path class="cls-7" d="M138.2,834.66c.05,6.2,3.17,10,7.78,10s6.05-2.55,6.91-4.52h2.45c-1,3.17-3.55,6.77-9.46,6.77-7.3,0-10.13-6.29-10.13-12.38,0-6.87,3.41-12.77,10.42-12.77,7.39,0,9.74,6.38,9.74,10.89,0,.68,0,1.35,0,2Zm15.22-2.11c0-4.75-2.64-8.5-7.35-8.5-4.94,0-7.2,3.46-7.73,8.5Z"/><path class="cls-7" d="M180.63,844.74c0,7.68-3.41,11.72-10.37,11.72-6.24,0-8.83-3.51-9.41-7.16h2.45c.87,3.32,3.6,4.9,7.06,4.9,6.24,0,8-4,8-10.13v-2.49c-1.3,3.12-3.65,4.8-8,4.8-5.61,0-9.93-4.56-9.93-12,0-8.07,4.6-12.58,10.27-12.58,4.89,0,7,2.3,7.68,4.22,0-1.39.09-3.07.14-3.65h2.26c0,.87-.1,4.66-.1,7Zm-17.71-10.46c0,5.71,3,9.84,7.63,9.84,6,0,7.83-4,7.83-10.23s-1.92-9.84-7.68-9.84C165.17,824.05,162.92,828.81,162.92,834.28Z"/><path class="cls-7" d="M201.51,834.66c.05,6.2,3.17,10,7.78,10s6-2.55,6.91-4.52h2.45c-1,3.17-3.56,6.77-9.46,6.77-7.3,0-10.13-6.29-10.13-12.38,0-6.87,3.41-12.77,10.42-12.77,7.39,0,9.74,6.38,9.74,10.89,0,.68,0,1.35-.05,2Zm15.22-2.11c0-4.75-2.64-8.5-7.35-8.5-4.94,0-7.2,3.46-7.73,8.5Z"/><path class="cls-7" d="M225.08,828.9c0-4-.05-5.76-.05-6.53h2.35c.05.77.1,2.31.1,5.38a9.08,9.08,0,0,1,8.35-6v2.59c-5,.34-8.35,3.79-8.35,9.5v12.49h-2.4Z"/><path class="cls-7" d="M255.51,811v15.41a8.37,8.37,0,0,1,7.92-4.61c3.41,0,8.11,1.73,8.11,9.31v15.27h-2.4V831.59c0-4.75-2.16-7.44-6.14-7.44-4.75,0-7.49,2.93-7.49,8.83v13.4h-2.4V811Z"/><path class="cls-7" d="M279.94,834.66c.05,6.2,3.17,10,7.78,10s6-2.55,6.91-4.52h2.45c-1,3.17-3.55,6.77-9.46,6.77-7.3,0-10.13-6.29-10.13-12.38,0-6.87,3.41-12.77,10.42-12.77,7.39,0,9.74,6.38,9.74,10.89,0,.68,0,1.35,0,2Zm15.22-2.11c-.05-4.75-2.64-8.5-7.35-8.5-4.94,0-7.2,3.46-7.73,8.5Z"/><path class="cls-7" d="M303.51,828.9c0-4-.05-5.76-.05-6.53h2.35c.05.77.1,2.31.1,5.38a9.08,9.08,0,0,1,8.35-6v2.59c-5,.34-8.35,3.79-8.35,9.5v12.49h-2.4Z"/><path class="cls-7" d="M331.54,828.42c0-2.11,0-4.13-.05-6h2.35c.1.77.15,3.89.1,4.56,1.06-2.44,3-5.13,8-5.13,4.27,0,8.06,2.4,8.06,9v15.56h-2.4V831.21c0-4.28-1.77-7.06-5.95-7.06-5.71,0-7.68,4.75-7.68,10v12.25h-2.4Z"/><path class="cls-7" d="M375.46,839.37c0,2.35.05,6.09.05,7h-2.3a37.18,37.18,0,0,1-.15-4.18c-1,2.83-3.46,4.75-7.73,4.75-3.45,0-7.87-1.34-7.87-8.69V822.37h2.35v15.32c0,3.5,1.11,6.91,5.86,6.91,5.37,0,7.39-3,7.39-9.89V822.37h2.4Z"/><path class="cls-7" d="M379.59,851.85A30.7,30.7,0,0,0,383,840.23h2.4a30.22,30.22,0,0,1-3.6,11.62Z"/><path class="cls-7" d="M406.42,811v15.41a8.37,8.37,0,0,1,7.92-4.61c3.41,0,8.11,1.73,8.11,9.31v15.27h-2.4V831.59c0-4.75-2.16-7.44-6.14-7.44-4.75,0-7.49,2.93-7.49,8.83v13.4H404V811Z"/><path class="cls-7" d="M429.22,822.37c3.89,11,6.57,18.49,7.49,21.56h0c.53-1.78,3.22-8.93,7.88-21.56h2.54l-9.07,24h-2.88l-8.55-24Z"/><path class="cls-7" d="M471.32,834.33c0,6.67-3.7,12.62-10.85,12.62C454,847,450,841.62,450,834.38c0-6.87,3.8-12.58,10.76-12.58C467.09,821.8,471.32,826.79,471.32,834.33Zm-18.82,0c0,5.71,3.07,10.32,8.16,10.32s8.11-4.28,8.11-10.32c0-5.67-2.88-10.33-8.21-10.33S452.5,828.61,452.5,834.38Z"/><path class="cls-7" d="M477.27,828.9c0-4,0-5.76,0-6.53h2.35c.05.77.1,2.31.1,5.38a9.08,9.08,0,0,1,8.35-6v2.59c-5,.34-8.35,3.79-8.35,9.5v12.49h-2.4Z"/><path class="cls-7" d="M505.83,834.66c0,6.2,3.16,10,7.77,10s6-2.55,6.91-4.52H523c-1,3.17-3.55,6.77-9.45,6.77-7.3,0-10.13-6.29-10.13-12.38,0-6.87,3.41-12.77,10.41-12.77,7.4,0,9.75,6.38,9.75,10.89,0,.68,0,1.35,0,2ZM521,832.55c0-4.75-2.64-8.5-7.34-8.5-5,0-7.2,3.46-7.73,8.5Z"/><path class="cls-7" d="M529.39,828.9c0-4,0-5.76,0-6.53h2.35c0,.77.09,2.31.09,5.38a9.1,9.1,0,0,1,8.36-6v2.59c-5,.34-8.36,3.79-8.36,9.5v12.49h-2.4Z"/><path class="cls-7" d="M576,811v28.46c0,2.31,0,4.52,0,6.92h-2.3c-.1-.58-.15-2.84-.15-4-1.2,2.93-3.88,4.61-8.06,4.61-6.24,0-10-5.09-10-12.29,0-7.39,4.08-12.86,10.61-12.86,4.8,0,6.72,2.06,7.44,3.6V811Zm-17.9,23.57c0,6.57,3.41,10.13,7.53,10.13,6.34,0,8.07-4.37,8.07-10.9,0-6.19-1.49-9.75-7.63-9.75C561.26,824.05,558.05,827.85,558.05,834.57Z"/><path class="cls-7" d="M601.78,839.37c0,2.35,0,6.09,0,7h-2.3a38,38,0,0,1-.14-4.18c-1,2.83-3.46,4.75-7.73,4.75-3.46,0-7.87-1.34-7.87-8.69V822.37h2.35v15.32c0,3.5,1.1,6.91,5.85,6.91,5.38,0,7.4-3,7.4-9.89V822.37h2.4Z"/><path class="cls-7" d="M615.94,836.54v-.63c0-2.11.43-4.51,4.36-8,3.27-2.92,3.65-5.08,3.65-7.24a6,6,0,0,0-6.29-6.1c-4.12,0-6.28,2.45-7,6.38h-2.4c.15-2.2,1.73-8.64,9.41-8.64,6.43,0,8.79,4.71,8.79,8.31s-1.16,5.85-4.71,9c-2.64,2.35-3.45,4.08-3.45,6.58v.34Zm0,9.84v-5.72h2.4v5.72Z"/></svg>
