<svg id="Lag_1" data-name="Lag 1" xmlns="http://www.w3.org/2000/svg" width="75" height="76" viewBox="0 0 75 76"><defs><style>.cls-1,.cls-2,.cls-3,.cls-4{stroke:#000;}.cls-1,.cls-2,.cls-3,.cls-4,.cls-5,.cls-6{stroke-miterlimit:10;}.cls-1{stroke-width:3.56px;}.cls-2{stroke-width:3.02px;}.cls-3{stroke-width:3.06px;}.cls-4{stroke-width:2.99px;}.cls-5,.cls-6{fill:none;stroke:red;}.cls-5{stroke-width:4.83px;}.cls-6{stroke-width:9.66px;}</style></defs><title>sound_mute</title><rect class="cls-1" x="9" y="22" width="26.5" height="31" rx="8.25" ry="8.25"/><path class="cls-2" d="M43,13.5V63L19.5,50.38V24.18Z"/><path class="cls-3" d="M58.5,18.5c5.73,8.49,7.92,20.37,5.57,29.68A22.09,22.09,0,0,1,58.5,58.5a22.09,22.09,0,0,0,5.57-10.32C66.42,38.87,64.23,27,58.5,18.5Z"/><path class="cls-4" d="M50,22.5c7.06,6.58,9.74,15.79,6.86,23a17.29,17.29,0,0,1-6.86,8,17.29,17.29,0,0,0,6.86-8C59.74,38.29,57.06,29.08,50,22.5Z"/><ellipse class="cls-5" cx="37.43" cy="38.5" rx="34.41" ry="35"/><line class="cls-6" x1="11.49" y1="61.43" x2="63.79" y2="17.18"/></svg>
