<svg id="Lag_1" data-name="Lag 1" xmlns="http://www.w3.org/2000/svg" width="86" height="92" viewBox="0 0 86 92"><defs><style>.cls-1,.cls-2,.cls-3,.cls-4{stroke:#000;}.cls-1,.cls-2,.cls-3,.cls-4,.cls-5,.cls-6{stroke-miterlimit:10;}.cls-1{stroke-width:3.56px;}.cls-2{stroke-width:3.02px;}.cls-3{stroke-width:3.06px;}.cls-4{stroke-width:2.99px;}.cls-5,.cls-6{fill:none;stroke:red;}.cls-5{stroke-width:4.83px;}.cls-6{stroke-width:9.66px;}</style></defs><title>sound_off</title><rect class="cls-1" x="16" y="31.5" width="26.5" height="31" rx="8.25" ry="8.25"/><path class="cls-2" d="M50,23V72.5L26.5,59.88V33.68Z"/><path class="cls-3" d="M65.5,28c5.73,8.49,7.92,20.37,5.57,29.68A22.09,22.09,0,0,1,65.5,68a22.09,22.09,0,0,0,5.57-10.32C73.42,48.37,71.23,36.49,65.5,28Z"/><path class="cls-4" d="M57,32c7.06,6.58,9.74,15.79,6.86,23A17.29,17.29,0,0,1,57,63a17.29,17.29,0,0,0,6.86-8C66.74,47.79,64.06,38.58,57,32Z"/><ellipse class="cls-5" cx="44.43" cy="48" rx="34.41" ry="35"/><line class="cls-6" x1="18.49" y1="70.93" x2="70.79" y2="26.68"/></svg>
