<svg id="Lag_1" data-name="Lag 1" xmlns="http://www.w3.org/2000/svg" xmlns:xlink="http://www.w3.org/1999/xlink" width="1080" height="1920" viewBox="0 0 1080 1920"><defs><style>.cls-1{fill:url(#Ikke-navngivet_forløb_97);}.cls-2{fill:#004c74;}.cls-3{fill:#c499d2;}.cls-4{fill:url(#Ikke-navngivet_forløb_165);}.cls-5{fill:#41bcff;}.cls-6{fill:#4197e7;}.cls-7{fill:url(#Ikke-navngivet_forløb_19);}.cls-8{fill:#ff46b7;}.cls-9{fill:#0061ad;}.cls-10{fill:#6762af;}.cls-11,.cls-13{fill:#fff;}.cls-11{opacity:0.75;}.cls-12{fill:#006d74;}.cls-14{fill:#004469;}</style><linearGradient id="Ikke-navngivet_forløb_97" x1="541" y1="1919.47" x2="541" y2="0.53" gradientUnits="userSpaceOnUse"><stop offset="0.1" stop-color="#76ffff"/><stop offset="0.94" stop-color="#f7daf3"/></linearGradient><linearGradient id="Ikke-navngivet_forløb_165" x1="248.68" y1="1276.15" x2="128.68" y2="1276.15" gradientTransform="translate(1395.15 1114.12) rotate(90)" gradientUnits="userSpaceOnUse"><stop offset="0" stop-color="#333"/><stop offset="0" stop-color="#2e2e2e"/><stop offset="0" stop-color="#232323"/><stop offset="0" stop-color="#1c1c1c"/><stop offset="0" stop-color="#1a1a1a"/><stop offset="0.02" stop-color="#212121"/><stop offset="0.05" stop-color="#343434"/><stop offset="0.08" stop-color="#4d4d4d"/><stop offset="0.49" stop-color="#4f4f4f"/><stop offset="0.64" stop-color="#565656"/><stop offset="0.75" stop-color="#616161"/><stop offset="0.83" stop-color="#727272"/><stop offset="0.9" stop-color="#888"/><stop offset="0.97" stop-color="#a3a3a3"/><stop offset="1" stop-color="#b3b3b3"/></linearGradient><linearGradient id="Ikke-navngivet_forløb_19" x1="844.9" y1="1746.59" x2="320.21" y2="1443.67" gradientUnits="userSpaceOnUse"><stop offset="0.1" stop-color="#587293"/><stop offset="0.94" stop-color="#f7b8ff"/></linearGradient></defs><title>starscreen</title><rect class="cls-1" x="1.53" y="0.53" width="1078.94" height="1918.94"/><path d="M1079.94,1.06V1918.94H2.06V1.06H1079.94M1081,0H1V1920H1081V0Z"/><path class="cls-2" d="M280.66,206.19c3.89,0,7.7-6.19,7.7-6.19s.58-1,1.44-1a1.51,1.51,0,0,1,1.52,1.44,4.72,4.72,0,0,1-.65,1.73S285.41,211,278.28,211c-5.47,0-9.14-3.24-9.14-7.92,0-5.91,3.74-10.44,3.74-13.11,0-1.44-.57-2.09-1.58-2.09-5,0-10.8,8.57-10.8,21.68,0,.86-.29,1.44-1.3,1.44-2.88,0-7-1.15-7-3.89,0-8.07,4.46-26.35,11.44-37.59-4.17-.86-10.15-2.88-10.15-2.88-.72.29-2.45,2.23-4.39,11.52C246.6,189.7,244.66,211,229.9,211c-5.84,0-10.37-2.88-10.37-4.68a1.23,1.23,0,0,1,1.29-1.37c.94,0,1.73.36,3.1.36,9.72,0,14-16.2,17.14-27.87,2.95-10.87,8.2-11.66,8.2-11.66-2.23-1.15-7.34-2.52-13.1-2.52-4.32,0-7.35,2.16-7.35,5.47,0,4.39,3.53,5.76,3.53,6.77s-.5,1.37-1.51,1.37c-3.81,0-10.73-3.6-10.73-9.29,0-7.42,8.57-9.43,14.19-9.43,9.57,0,19.73,4.46,32,4.46,3.6,0,6.05-2.45,9.29-2.45s6.48,3.75,6.48,6.34c0,5.9-8.93,16.56-9.65,17.42a11.93,11.93,0,0,1,6-1.8c2.16,0,4.6,2.52,4.6,5,0,4.47-4.6,10.73-4.6,16.35C278.36,205.11,279.22,206.19,280.66,206.19ZM277.13,165c-2.66,0-7.63,9.57-12.31,22.39,5-4.1,13.68-16.56,13.68-21A1.3,1.3,0,0,0,277.13,165Z"/><path class="cls-2" d="M310.68,202.74s.86-1,1.58-1a1.47,1.47,0,0,1,1.52,1.44c0,.65-.94,1.73-.94,1.73S308.09,211,300.31,211c-7.27,0-12.53-4.47-12.53-10.59,0-11,9.15-18.29,15.41-18.29a8,8,0,0,1,7.92,7.56c0,3.46-2.66,10.66-11.74,10.66a19.81,19.81,0,0,1-2.73-.43,6,6,0,0,0,6.41,6.41A10.29,10.29,0,0,0,310.68,202.74Zm-4.32-15.48c0-.94-.51-1.44-1.3-1.44-4,0-8.06,7.41-8.06,11.16C302.25,197,306.36,190.28,306.36,187.26Z"/><path class="cls-2" d="M421.3,72.3c0,31,36.5,58.5,36.5,88.25s-31,52.25-60.75,52.25c-42.75,0-67-25.75-67-46.75S365.3,127.3,381.3,127.3c3,0,4.25,1.75,4.25,4.25,0,2.25-1.75,3.5-5.25,6-8,6.5-16.75,13.25-16.75,28,0,13.25,11.75,29.25,29.75,29.25,18.75,0,31.75-11.75,31.75-30.75,0-25-35.75-53-35.75-85.25,0-31.25,35.25-49.5,65.25-49.5,18.5,0,34.75,6.25,34.75,20.5,0,17.75-26.25,36.75-35.25,36.75-2.25,0-4.25-2-4.25-3.75s.75-2.75,3.25-6c4.5-5.75,10.5-14.5,10.5-22.5,0-6.5-5-10.25-12.25-10.25C433.8,44.05,421.3,57.55,421.3,72.3Z"/><path class="cls-2" d="M567.3,196.05c13.5,0,26.75-21.5,26.75-21.5s2-3.5,5-3.5a5.24,5.24,0,0,1,5.25,5c0,2.25-2.25,6-2.25,6s-18.25,30.75-43,30.75c-19,0-31.75-11.25-31.75-25.25,0-20.5,12.75-38.5,12.75-53.5,0-2.25-2.25-4-5-4-15,0-38.5,29.75-38.5,77.75,0,4.25-2,5-5.5,5-13.25,0-23.5-5.75-23.5-13.75,0-27.75,14.5-65,20.25-79.25a7.21,7.21,0,0,1,6.75-4.75c3.75,0,9.75,1.5,17.5,13.5,0,0,18-16,39.25-16,11,0,21.25,11.75,21.25,21.5,0,15-13.25,34.5-13.25,52.5C559.3,192.3,562.3,196.05,567.3,196.05Z"/><path class="cls-2" d="M677.8,212.8c-13.75,0-24.5-7.25-26.25-21.25,0,0-16.5,21.25-35.5,21.25-13.5,0-25-10.75-25-26,0-36,30-74.25,57.5-74.25,20.25,0,27.25,11.75,27.25,11.75,7.5,0,17.75,3,17.75,11.75,0,7.5-14.5,36-14.5,53a6.69,6.69,0,0,0,7,7c13.5,0,26.75-21.5,26.75-21.5s2-3.5,5-3.5a5.24,5.24,0,0,1,5.25,5c0,2.25-2.25,6-2.25,6S702.55,212.8,677.8,212.8Zm-24-85.75c-14.5,0-32.25,34.5-32.25,55.5,0,7.25,2,11.25,7.25,11.25,12,0,34-36.75,34-56C662.8,130.55,658.8,127.05,653.8,127.05Z"/><path class="cls-2" d="M785,112.55c17.75,0,30,16.75,30,31.25,0,25.5-21.75,69-56,69-16,0-25-12.75-25-12.75-5.75,14.75-13.5,52-13.5,71.5,0,4-1.25,5.5-4.75,5.5-9.5,0-22.75-4.25-22.75-17.75,0-17.75,22.25-104.25,35.25-139.5a7.29,7.29,0,0,1,7-4.75c3.5,0,9.5,1.5,17.25,13.5C752.54,128.55,770.29,112.55,785,112.55Zm-30.75,86.5c16,0,30-42.75,30-57.25,0-9-3-12.25-8.5-12.25-13,0-35.25,32.5-35.25,50.25C740.54,189.55,746,199.05,754.29,199.05Z"/><path class="cls-3" d="M570,969.39c-10.64-1-32.72-3.85-60,1.61a177.45,177.45,0,0,0-63,26c-5.24,15.38-10.29,31.72-15,49-6.81,25-12,48.79-16,71-9,46.55-.88,73.62,9,90,4,6.58,10,14.37,15,28,7.54,20.52,7.42,39.65,6,53a234.81,234.81,0,0,0-27.91,87.39L758,1375c-18.84-38.72-35.69-65.89-48-84-4.92-7.23-10.7-15.36-14-28-6.6-25.28,2.8-45.27,8-64,5.51-19.87,9.49-49.84.08-91.34-.72-11.84-4.77-55.31-40.08-92.66C627.08,975.94,581.36,970.43,570,969.39Z"/><rect class="cls-4" x="7.2" y="1242.8" width="223.6" height="120" rx="25.09" ry="25.09" transform="translate(-1187.74 1240.57) rotate(-82.05)"/><path class="cls-5" d="M689.61,1115.24c16.57,86.25-67.36,176-127.26,171.6-32.69-2.41-60.93-33.09-67.6-40.34-20.33-22.09-27.74-44.72-34-64.6-9.61-30.41-21.88-69.22-5.73-111.9,4-10.56,23-56.44,64.84-70.8C583,977.53,674.35,1035.78,689.61,1115.24Z"/><path class="cls-3" d="M462.39,998.73c-4.78,5.54-10.4,13.85-8.37,22,5.48,22.1,60.13,16.28,118.27,41,1.25.53,3.13,1.33,5.54,2.42,12.57,5.67,62.73,28.46,84.48,66.64,16.27,28.58,1.89,36.28,16.69,124.15,3.51,20.85,10,59.28,16,59,4.64-.21,6.76-23.31,12-87,10.44-126.82,10.25-135.14,6-150-4-14.16-21.27-74.44-81-105-62.65-32.06-125.14-7.4-135.07-3.3Z"/><path class="cls-5" d="M797,1919c-3.65-15.33-9.91-40.4-19-71-34.32-115.54-54.44-139.65-44-181,8.34-33,25.66-33.92,31-73,2.39-17.53-.25-29.31,3-71l3-38.5A553.57,553.57,0,0,0,964,1558c11.19,2,42.91-1.33,53-14,14.73-18.5-4.31-76.93-165-259l-9-56-23-38c-14-20-25.4-23-32-23-3.12,0-5.18.66-15,3-11.45,2.73-20.81,4.73-27,6a473.34,473.34,0,0,0-34-42c-10.83-11.94-23.79-26.1-27-24-1.58,1-1.69,6.6,11,33l23.5,44L663,1153c-8.93-1.93-19.36-3.43-21,0s5.93,9.61,19,21c39.73,34.62,49.72,45.84,55.5,53a182.07,182.07,0,0,1,17.5,26q19.74,11.49,40.5,25,13.77,9,26.5,18l108,153a293.37,293.37,0,0,1-72.5-35c-47.23-31.65-54.84-53.78-93-67-29.76-10.31-45.89-11.22-60-8-4.18,1-13.8,3.61-24.5,0-8.46-2.85-14.31-8.51-18-13q-4.25-56.51-8.5-113l-117,12a105.57,105.57,0,0,1,0,69c-12,34.12-37.8,50.71-45,55l-54-1c-26.07,3.12-40.05,12.75-48,21-16.8,17.43-15.86,38.2-36,51-9.85,6.26-20.16,7.7-27,8-55.87,28.4-83.43,17.93-94,12-6.82-3.83-11.8-8.08-23-20a778.92,778.92,0,0,1-60.5-73,74.79,74.79,0,0,0,3.5-30,70.16,70.16,0,0,0-4.2-18.71c-4.41-12.67-10.44-20.21-13.8-25.29-5.92-9-15.23,30-16.5,36a43.69,43.69,0,0,1-4.5,12q-3.25,16-6.5,32l-17,13a737.75,737.75,0,0,0,30,80c8.19,18.48,2.32,2.27,38.5,71,8.7,16.53,15.46,29.69,30,35,12.25,4.48,24.69,1.26,33-2a299,299,0,0,0,55.5,4c15.91-.34,39.19-.83,66-9,16.77-5.11,46-16.61,76-44q9.5,29.51,19,59c6.58,29.24,15.39,68.49,22,98,14.39,64.23,21.6,96.5,22,104,.11,2,.19,4,.25,5.77,0,0,.26,7.47.17,15-.61,48.4-9.42,93.28-9.42,93.28-5.09,25.9-9.2,36.33-3,42,5.29,4.84,13.26,1.8,32,0,8.72-.84,21.15-.56,46,0,35.44.8,36.45,5.19,66,6,20.44.56,18.53-1.58,62-4,29.25-1.63,51.68-1.85,68-2C744,1917.81,768.87,1918,797,1919Z"/><path class="cls-6" d="M521.13,1269.86l-2.73,18.34,58.17,26.3L638,1288.2l-2.25-29.92A205,205,0,0,1,607.11,1275c-12.2,5.85-22,10.57-33,12C551.48,1289.93,531.79,1278,521.13,1269.86Z"/><path d="M144.12,1418.9a22.19,22.19,0,0,1-3-.21l-73.43-10.25a22.05,22.05,0,0,1-18.77-24.87L73,1210.94a22,22,0,0,1,24.87-18.78l73.43,10.24a22.07,22.07,0,0,1,18.78,24.88L166,1399.91A22.13,22.13,0,0,1,144.12,1418.9Z"/><path d="M94.8,1191.87v.15a21.93,21.93,0,0,1,3,.21l73.43,10.25A22,22,0,0,1,190,1227.27L165.88,1399.9a22,22,0,0,1-24.79,18.72l-73.42-10.25A22,22,0,0,1,49,1383.58L73.05,1211A22,22,0,0,1,94.8,1192v-.15m0,0a22.2,22.2,0,0,0-21.9,19.06L48.8,1383.56a22.18,22.18,0,0,0,18.84,25l73.43,10.25a22.44,22.44,0,0,0,3.05.21A22.2,22.2,0,0,0,166,1399.92l24.09-172.63a22.18,22.18,0,0,0-18.84-25l-73.43-10.25a22.44,22.44,0,0,0-3-.21Z"/><path class="cls-5" d="M40,1316l11.32,33,3.26-23.39L68,1323l56-3c5.21.39,9.4-2.2,10-5,.7-3.26-3.14-8.44-10-9a178.91,178.91,0,0,1-43-3,176.85,176.85,0,0,1-20.86-5.36A111.51,111.51,0,0,1,130,1285c9,1,15.24-5.2,15-10-.19-3.89-4.7-8.09-11-9a196.89,196.89,0,0,0-48,0,194.31,194.31,0,0,0-22,4l7-11a82.47,82.47,0,0,1,16-3,84.23,84.23,0,0,1,30.55,3,7.32,7.32,0,0,0,3.45-14,126.27,126.27,0,0,0-52.48-7.4L57,1238a50.94,50.94,0,0,0-17,33v13l-6,9a28.45,28.45,0,0,0,0,10A28.74,28.74,0,0,0,40,1316Z"/><path class="cls-7" d="M397.5,1502.5c9.13-8.29,12.29-16.14,13.5-21.5,6-26.35-19.41-60.72-65-82l19.5-31.5A139.41,139.41,0,0,1,403,1352a142.25,142.25,0,0,1,68,0c4.06,11.94,17.37,45.94,53,70a136.72,136.72,0,0,0,62.5,22.5,106,106,0,0,0,86-9,88.8,88.8,0,0,0-19.29-97.07l73.29.07A122.38,122.38,0,0,1,756,1350a123.65,123.65,0,0,1,37.35,31.65A229.47,229.47,0,0,0,780.16,1492l-8.66-5.51q1.25,12.75,2.5,25.5c3.36,6.12,18.63,35.48,8,70a87.71,87.71,0,0,1-24,38q11,119.51,22,239a396.9,396.9,0,0,1-111,34c-97.18,14.64-176-10.93-215.41-27q4-51.23,7.91-102.47Z"/><path class="cls-8" d="M451.59,1864,545,1920H527a223.07,223.07,0,0,0-26.74-21,215.17,215.17,0,0,0-48.64-24.25Z"/><path class="cls-8" d="M742,1919q9.54-10.11,19.12-20.45,11.4-12.32,22.52-24.55,2.18,4.77,4.36,9.53A62,62,0,0,0,755.82,1919Z"/><circle cx="495.5" cy="1140.5" r="9.5"/><circle cx="578.5" cy="1141.5" r="9.5"/><rect class="cls-3" x="556" y="1103" width="64" height="12" rx="6" ry="6"/><rect class="cls-3" x="464" y="1103" width="53" height="12" rx="6" ry="6"/><rect class="cls-6" x="513" y="1128" width="16" height="69" rx="8" ry="8" transform="translate(165.7 -60.86) rotate(7.95)"/><path class="cls-9" d="M530,1220a55.19,55.19,0,0,1,9,0,66,66,0,0,1,11,2,46.46,46.46,0,0,0,19,0,53.17,53.17,0,0,1-25,10,51,51,0,0,1-12,0l-9-3c-2.72-2.82-2.37-7.07,0-9A6,6,0,0,1,530,1220Z"/><path class="cls-10" d="M695,1607a224.76,224.76,0,0,1-160,18l110,42c36.62,14.29,74.61,8.78,96-14,10.86-11.57,15.19-25.2,17-35Z"/><rect class="cls-11" x="649.56" y="828" width="431.44" height="216" rx="44.72" ry="44.72"/><path class="cls-12" d="M658.18,866.64H661l8.57,20,8.71-20h2.81L669.83,892.5h-.56Z"/><path class="cls-12" d="M685.87,865.5a2,2,0,0,1,2,2,2,2,0,0,1-2,2,1.94,1.94,0,0,1-1.42-.6,2,2,0,0,1-.59-1.42,2,2,0,0,1,.59-1.45A2,2,0,0,1,685.87,865.5Zm-1.22,7.87h2.46V892.5h-2.46Z"/><path class="cls-12" d="M711.32,866V892.5h-2.43v-3.29a10.58,10.58,0,0,1-3.47,2.83,9.43,9.43,0,0,1-4.21,1,9.33,9.33,0,0,1-6.94-3,9.89,9.89,0,0,1-2.87-7.16,9.72,9.72,0,0,1,2.9-7.07,9.47,9.47,0,0,1,7-2.93,9,9,0,0,1,4.26,1,9.7,9.7,0,0,1,3.35,3V866Zm-9.84,9.26a7.43,7.43,0,0,0-6.56,3.85,7.78,7.78,0,0,0,0,7.72,7.52,7.52,0,0,0,2.78,2.87,7.26,7.26,0,0,0,3.75,1,7.66,7.66,0,0,0,3.83-1,7.14,7.14,0,0,0,2.78-2.75,7.89,7.89,0,0,0,1-3.92,7.62,7.62,0,0,0-2.19-5.55A7.25,7.25,0,0,0,701.48,875.25Z"/><path class="cls-12" d="M726.5,875.46l-1.58,1.64a5.67,5.67,0,0,0-3.86-1.92,2.94,2.94,0,0,0-2,.79,2.47,2.47,0,0,0-.86,1.85,2.72,2.72,0,0,0,.71,1.77,10,10,0,0,0,3,2,10.93,10.93,0,0,1,3.73,2.74,5,5,0,0,1,1,3,5.4,5.4,0,0,1-1.65,4,5.68,5.68,0,0,1-4.14,1.64,7.23,7.23,0,0,1-3.16-.72,6.85,6.85,0,0,1-2.49-2l1.55-1.76a5.35,5.35,0,0,0,4,2.13,3.6,3.6,0,0,0,2.51-.95,2.92,2.92,0,0,0,.36-4.11,11.18,11.18,0,0,0-3.1-2,10,10,0,0,1-3.53-2.64,5,5,0,0,1-.93-3,4.84,4.84,0,0,1,1.49-3.62,5.18,5.18,0,0,1,3.76-1.44A7.77,7.77,0,0,1,726.5,875.46Z"/><path class="cls-12" d="M733,866.27h2.46v7.1h3.9v2.13h-3.9v17H733v-17h-3.36v-2.13H733Z"/><path class="cls-12" d="M759.16,886.15l2.08,1.09a11.25,11.25,0,0,1-2.36,3.23,9.36,9.36,0,0,1-3,1.88,10.62,10.62,0,0,1-3.78.64,9.13,9.13,0,0,1-7.32-3.07,10.34,10.34,0,0,1-2.64-6.93,10.23,10.23,0,0,1,2.24-6.49,9.12,9.12,0,0,1,7.58-3.62,9.44,9.44,0,0,1,7.81,3.71,10.33,10.33,0,0,1,2.11,6.54H744.66a7.81,7.81,0,0,0,2.13,5.46,6.79,6.79,0,0,0,5.09,2.13,8.14,8.14,0,0,0,2.84-.51,7.58,7.58,0,0,0,2.35-1.35A11.53,11.53,0,0,0,759.16,886.15Zm0-5.15a8.07,8.07,0,0,0-1.43-3.15,6.86,6.86,0,0,0-2.49-1.89,7.5,7.5,0,0,0-3.26-.73,7.06,7.06,0,0,0-4.84,1.81,8.2,8.2,0,0,0-2.23,4Z"/><path class="cls-12" d="M805.27,866V892.5h-2.43v-3.29a10.48,10.48,0,0,1-3.47,2.83,9.68,9.68,0,0,1-11.14-2,9.85,9.85,0,0,1-2.88-7.16,9.72,9.72,0,0,1,2.9-7.07,9.49,9.49,0,0,1,7-2.93,9.05,9.05,0,0,1,4.27,1,9.67,9.67,0,0,1,3.34,3V866Zm-9.83,9.26a7.48,7.48,0,0,0-3.8,1,7.32,7.32,0,0,0-2.76,2.84,7.67,7.67,0,0,0-1,3.86,7.77,7.77,0,0,0,1,3.86,7.45,7.45,0,0,0,2.78,2.87,7.2,7.2,0,0,0,3.75,1,7.71,7.71,0,0,0,3.83-1A7.2,7.2,0,0,0,802,887a7.89,7.89,0,0,0,1-3.92,7.65,7.65,0,0,0-2.18-5.55A7.27,7.27,0,0,0,795.44,875.25Z"/><path class="cls-12" d="M810.53,873.37H813v8.93a18.8,18.8,0,0,0,.35,4.5,5,5,0,0,0,2,2.78,6.1,6.1,0,0,0,3.54,1,6,6,0,0,0,3.5-1,5.13,5.13,0,0,0,2-2.61,18.67,18.67,0,0,0,.37-4.69v-8.93h2.51v9.39a15,15,0,0,1-.92,6,7,7,0,0,1-2.78,3.13,8.76,8.76,0,0,1-4.65,1.14,8.85,8.85,0,0,1-4.67-1.14,7,7,0,0,1-2.79-3.16,15.37,15.37,0,0,1-.92-6.11Z"/><path class="cls-12" d="M871.5,873.37V892.5h-2.42v-3.29a10.58,10.58,0,0,1-3.47,2.83,9.46,9.46,0,0,1-4.21,1,9.33,9.33,0,0,1-6.94-3,9.89,9.89,0,0,1-2.87-7.16,9.69,9.69,0,0,1,2.9-7.07,9.47,9.47,0,0,1,7-2.93,9,9,0,0,1,4.26,1,9.7,9.7,0,0,1,3.35,3v-3.52Zm-9.83,1.88a7.43,7.43,0,0,0-6.56,3.85,7.72,7.72,0,0,0,0,7.72,7.52,7.52,0,0,0,2.78,2.87,7.26,7.26,0,0,0,3.75,1,7.68,7.68,0,0,0,3.83-1,7.2,7.2,0,0,0,2.78-2.75,7.89,7.89,0,0,0,1-3.92,7.62,7.62,0,0,0-2.19-5.55A7.27,7.27,0,0,0,861.67,875.25Z"/><path class="cls-12" d="M879.19,866.27h2.46v7.1h3.9v2.13h-3.9v17h-2.46v-17h-3.36v-2.13h3.36Z"/><path class="cls-12" d="M908.94,873.37h2.47v3.31A9.6,9.6,0,0,1,914,874a7.52,7.52,0,0,1,3.93-1.12,6.56,6.56,0,0,1,2.64.54,5.84,5.84,0,0,1,2,1.45,7.67,7.67,0,0,1,1.37,2.6,9.09,9.09,0,0,1,3.07-3.42,7.27,7.27,0,0,1,4-1.17,6.16,6.16,0,0,1,3.49,1,5.93,5.93,0,0,1,2.26,2.8,14.89,14.89,0,0,1,.73,5.37V892.5H935V882.05a13.6,13.6,0,0,0-.44-4.22,3.79,3.79,0,0,0-1.5-1.86,4.45,4.45,0,0,0-2.53-.7,5.54,5.54,0,0,0-3.27,1.05,6.15,6.15,0,0,0-2.16,2.82,18,18,0,0,0-.68,5.87v7.49H922v-9.79a17.17,17.17,0,0,0-.43-4.71,3.91,3.91,0,0,0-1.51-2,4.31,4.31,0,0,0-2.55-.75,5.48,5.48,0,0,0-3.19,1,6,6,0,0,0-2.19,2.77,14.77,14.77,0,0,0-.71,5.32v8.11h-2.47Z"/><path class="cls-12" d="M961.78,873.37V892.5h-2.42v-3.29a10.58,10.58,0,0,1-3.47,2.83,9.46,9.46,0,0,1-4.21,1,9.33,9.33,0,0,1-6.94-3,9.89,9.89,0,0,1-2.87-7.16,9.69,9.69,0,0,1,2.9-7.07,9.47,9.47,0,0,1,7-2.93,9,9,0,0,1,4.26,1,9.7,9.7,0,0,1,3.35,3v-3.52ZM952,875.25a7.43,7.43,0,0,0-6.56,3.85,7.72,7.72,0,0,0,0,7.72,7.52,7.52,0,0,0,2.78,2.87,7.26,7.26,0,0,0,3.75,1,7.68,7.68,0,0,0,3.83-1,7.2,7.2,0,0,0,2.78-2.75,7.89,7.89,0,0,0,1-3.92,7.62,7.62,0,0,0-2.19-5.55A7.27,7.27,0,0,0,952,875.25Z"/><path class="cls-12" d="M967.32,873.37h2.46v3.43a10.45,10.45,0,0,1,3.27-2.95,8.06,8.06,0,0,1,3.9-1,6.77,6.77,0,0,1,3.81,1.09,6.49,6.49,0,0,1,2.45,2.93,15.49,15.49,0,0,1,.79,5.75v9.85h-2.46v-9.13a22.8,22.8,0,0,0-.27-4.41,4.89,4.89,0,0,0-1.64-2.86,5,5,0,0,0-3.17-1,6.09,6.09,0,0,0-4,1.47,7,7,0,0,0-2.33,3.66,25.76,25.76,0,0,0-.35,5.2v7h-2.46Z"/><path class="cls-12" d="M1009.85,865.5a2,2,0,0,1,2,2,2,2,0,0,1-2,2,1.94,1.94,0,0,1-1.42-.6,2,2,0,0,1-.59-1.42,2,2,0,0,1,.59-1.45A2,2,0,0,1,1009.85,865.5Zm-1.22,7.87h2.46V892.5h-2.46Z"/><path class="cls-12" d="M1016.19,866h2.46v15.1l8.87-7.72h3.61l-10.51,9.12,11.12,10h-3.46l-9.63-8.61v8.61h-2.46Z"/><path class="cls-12" d="M1034.26,866h2.46v15.1l8.87-7.72h3.61l-10.51,9.12,11.12,10h-3.46l-9.63-8.61v8.61h-2.46Z"/><path class="cls-12" d="M1068.45,886.15l2.07,1.09a11.07,11.07,0,0,1-2.36,3.23,9.42,9.42,0,0,1-3,1.88,10.72,10.72,0,0,1-3.79.64,9.13,9.13,0,0,1-7.32-3.07,10.34,10.34,0,0,1-2.64-6.93,10.23,10.23,0,0,1,2.24-6.49,9.14,9.14,0,0,1,7.58-3.62,9.43,9.43,0,0,1,7.81,3.71,10.28,10.28,0,0,1,2.11,6.54H1054a7.72,7.72,0,0,0,2.13,5.46,6.77,6.77,0,0,0,5.08,2.13,8.14,8.14,0,0,0,2.84-.51,7.47,7.47,0,0,0,2.35-1.35A11.27,11.27,0,0,0,1068.45,886.15Zm0-5.15a8.22,8.22,0,0,0-1.44-3.15,6.86,6.86,0,0,0-2.49-1.89,7.49,7.49,0,0,0-3.25-.73,7,7,0,0,0-4.84,1.81,8.21,8.21,0,0,0-2.24,4Z"/><path class="cls-12" d="M659.72,916.57h2.47v3.31a9.48,9.48,0,0,1,2.64-2.68,7.46,7.46,0,0,1,3.92-1.12,6.56,6.56,0,0,1,2.64.54,5.84,5.84,0,0,1,2,1.45,7.67,7.67,0,0,1,1.37,2.6,9.09,9.09,0,0,1,3.07-3.42,7.27,7.27,0,0,1,4-1.17,6.16,6.16,0,0,1,3.49,1,5.93,5.93,0,0,1,2.26,2.8,14.89,14.89,0,0,1,.73,5.37V935.7h-2.51V925.25a13.6,13.6,0,0,0-.44-4.22,3.79,3.79,0,0,0-1.5-1.86,4.45,4.45,0,0,0-2.53-.7,5.49,5.49,0,0,0-3.26,1,6.1,6.1,0,0,0-2.17,2.82,18,18,0,0,0-.68,5.87v7.49h-2.46v-9.8a17.13,17.13,0,0,0-.43-4.7,3.91,3.91,0,0,0-1.51-2,4.3,4.3,0,0,0-2.54-.75,5.49,5.49,0,0,0-3.2,1,6,6,0,0,0-2.19,2.77,14.77,14.77,0,0,0-.71,5.32v8.11h-2.47Z"/><path class="cls-12" d="M712.56,916.57V935.7h-2.42v-3.29a10.58,10.58,0,0,1-3.47,2.83,9.46,9.46,0,0,1-4.21,1,9.33,9.33,0,0,1-6.94-3,9.89,9.89,0,0,1-2.87-7.16,9.72,9.72,0,0,1,2.9-7.07,9.47,9.47,0,0,1,7-2.93,9,9,0,0,1,4.26,1,9.7,9.7,0,0,1,3.35,3v-3.52Zm-9.83,1.88a7.43,7.43,0,0,0-6.56,3.85,7.72,7.72,0,0,0,0,7.72,7.52,7.52,0,0,0,2.78,2.87,7.26,7.26,0,0,0,3.75,1,7.68,7.68,0,0,0,3.83-1,7.09,7.09,0,0,0,2.78-2.76,7.83,7.83,0,0,0,1-3.91,7.62,7.62,0,0,0-2.19-5.55A7.23,7.23,0,0,0,702.73,918.45ZM703,906a3.76,3.76,0,1,1-2.65,1.1A3.6,3.6,0,0,1,703,906Zm0,1.79a1.93,1.93,0,0,0-1.93,1.93,1.82,1.82,0,0,0,.56,1.35,1.84,1.84,0,0,0,1.37.57,1.95,1.95,0,0,0,1.92-1.92,1.85,1.85,0,0,0-.57-1.36A1.81,1.81,0,0,0,703,907.76Z"/><path class="cls-12" d="M754.93,909.19V935.7h-2.42v-3.29a10.58,10.58,0,0,1-3.47,2.83,9.46,9.46,0,0,1-4.21,1,9.33,9.33,0,0,1-6.94-3,9.89,9.89,0,0,1-2.87-7.16,9.72,9.72,0,0,1,2.9-7.07,9.47,9.47,0,0,1,7-2.93,9,9,0,0,1,4.26,1,9.7,9.7,0,0,1,3.35,3v-10.9Zm-9.83,9.26a7.43,7.43,0,0,0-6.56,3.85,7.72,7.72,0,0,0,0,7.72,7.52,7.52,0,0,0,2.78,2.87,7.26,7.26,0,0,0,3.75,1,7.68,7.68,0,0,0,3.83-1,7.09,7.09,0,0,0,2.78-2.76,7.83,7.83,0,0,0,1-3.91,7.62,7.62,0,0,0-2.19-5.55A7.23,7.23,0,0,0,745.1,918.45Z"/><path class="cls-12" d="M776.61,929.35l2.07,1.09a11.23,11.23,0,0,1-2.35,3.23,9.58,9.58,0,0,1-3,1.88,10.72,10.72,0,0,1-3.79.64,9.13,9.13,0,0,1-7.32-3.07,10.38,10.38,0,0,1-2.63-6.93,10.22,10.22,0,0,1,2.23-6.49,9.15,9.15,0,0,1,7.58-3.62,9.4,9.4,0,0,1,7.81,3.71,10.34,10.34,0,0,1,2.12,6.54H762.11a7.72,7.72,0,0,0,2.13,5.46,6.77,6.77,0,0,0,5.08,2.13,8.1,8.1,0,0,0,2.84-.51,7.47,7.47,0,0,0,2.35-1.35A11.27,11.27,0,0,0,776.61,929.35Zm0-5.15a8.22,8.22,0,0,0-1.44-3.15,6.71,6.71,0,0,0-2.49-1.9,7.59,7.59,0,0,0-3.25-.72,7,7,0,0,0-4.84,1.81,8.21,8.21,0,0,0-2.24,4Z"/><path class="cls-12" d="M783.53,909.19H786V935.7h-2.47Z"/><path class="cls-12" d="M807.21,929.35l2.08,1.09a11.25,11.25,0,0,1-2.36,3.23,9.47,9.47,0,0,1-3,1.88,10.66,10.66,0,0,1-3.78.64,9.13,9.13,0,0,1-7.32-3.07,10.34,10.34,0,0,1-2.64-6.93,10.22,10.22,0,0,1,2.23-6.49,9.16,9.16,0,0,1,7.59-3.62,9.42,9.42,0,0,1,7.81,3.71,10.33,10.33,0,0,1,2.11,6.54H792.71a7.81,7.81,0,0,0,2.13,5.46,6.79,6.79,0,0,0,5.09,2.13,8.14,8.14,0,0,0,2.84-.51,7.58,7.58,0,0,0,2.35-1.35A11.53,11.53,0,0,0,807.21,929.35Zm0-5.15a8.22,8.22,0,0,0-1.43-3.15,6.88,6.88,0,0,0-2.49-1.9,7.67,7.67,0,0,0-3.26-.72,7,7,0,0,0-4.84,1.81,8.2,8.2,0,0,0-2.23,4Z"/><path class="cls-12" d="M832.25,916.57h2.46V920a10.45,10.45,0,0,1,3.27-3,8.06,8.06,0,0,1,3.9-1,6.77,6.77,0,0,1,3.81,1.09,6.44,6.44,0,0,1,2.45,2.93,15.49,15.49,0,0,1,.79,5.75v9.85h-2.46v-9.13a22.8,22.8,0,0,0-.27-4.41,4.92,4.92,0,0,0-1.64-2.86,5,5,0,0,0-3.17-.95,6.09,6.09,0,0,0-4,1.47,7,7,0,0,0-2.33,3.66,25.76,25.76,0,0,0-.35,5.2v7h-2.46Z"/><path class="cls-12" d="M870.83,919.65a10.3,10.3,0,0,1-.45,13.54,9.32,9.32,0,0,1-7.15,3,9.91,9.91,0,0,1-5.24-1.44l-2,2.4-1.57-1.3,2-2.36a9.77,9.77,0,0,1-3.11-7.3,10.2,10.2,0,0,1,2.77-7.06,9.21,9.21,0,0,1,7.16-3,9.55,9.55,0,0,1,6.15,2.1l2-2.41,1.62,1.31Zm-12.91,12,9.81-11.58a7.17,7.17,0,0,0-8.2-.58,7.58,7.58,0,0,0-2.74,2.85,7.84,7.84,0,0,0-1,3.88,8,8,0,0,0,.57,3A7.23,7.23,0,0,0,857.92,931.67Zm11.24-10.06-9.62,11.32a8,8,0,0,0,3.66.92,7.44,7.44,0,0,0,3.75-1,7.12,7.12,0,0,0,2.71-2.76,7.76,7.76,0,0,0,1-3.85A7.86,7.86,0,0,0,869.16,921.61Z"/><path class="cls-12" d="M894.2,916.57h2.46v15.24a17.93,17.93,0,0,1-.71,5.89,7.63,7.63,0,0,1-3.35,4.06,11,11,0,0,1-5.75,1.42,13.23,13.23,0,0,1-4.42-.69,8.92,8.92,0,0,1-3.19-1.87,11.14,11.14,0,0,1-2.27-3.43h2.67a7.05,7.05,0,0,0,2.82,2.81,9,9,0,0,0,4.27.92A8.87,8.87,0,0,0,891,940a5.8,5.8,0,0,0,2.48-2.36,10.51,10.51,0,0,0,.74-4.58v-1a9.27,9.27,0,0,1-3.4,2.69,10,10,0,0,1-9.22-.36,9.3,9.3,0,0,1-3.59-3.53,9.59,9.59,0,0,1-1.27-4.87,9.94,9.94,0,0,1,9.89-9.91,9,9,0,0,1,4,.89,11,11,0,0,1,3.59,2.92Zm-7.26,1.88a7.84,7.84,0,0,0-3.89,1,7.41,7.41,0,0,0-2.81,2.8,7.63,7.63,0,0,0-1,3.86,7,7,0,0,0,2.11,5.2,7.49,7.49,0,0,0,5.46,2.06,7.41,7.41,0,0,0,5.46-2,7.2,7.2,0,0,0,2.07-5.37,7.76,7.76,0,0,0-1-3.85,6.86,6.86,0,0,0-2.69-2.68A7.45,7.45,0,0,0,886.94,918.45Z"/><path class="cls-12" d="M918,929.35l2.08,1.09a11.44,11.44,0,0,1-2.36,3.23,9.47,9.47,0,0,1-3,1.88,10.66,10.66,0,0,1-3.78.64,9.13,9.13,0,0,1-7.32-3.07,10.34,10.34,0,0,1-2.64-6.93,10.22,10.22,0,0,1,2.23-6.49,9.16,9.16,0,0,1,7.59-3.62,9.42,9.42,0,0,1,7.81,3.71,10.39,10.39,0,0,1,2.11,6.54H903.53a7.81,7.81,0,0,0,2.13,5.46,6.79,6.79,0,0,0,5.09,2.13,8.14,8.14,0,0,0,2.84-.51,7.58,7.58,0,0,0,2.35-1.35A11.53,11.53,0,0,0,918,929.35Zm0-5.15a8.37,8.37,0,0,0-1.43-3.15,6.88,6.88,0,0,0-2.49-1.9,7.67,7.67,0,0,0-3.26-.72,7,7,0,0,0-4.84,1.81,8.12,8.12,0,0,0-2.23,4Z"/><path class="cls-12" d="M925.33,916.57h2.46V920a10.24,10.24,0,0,1,3.27-3,8,8,0,0,1,3.9-1,6.72,6.72,0,0,1,3.8,1.09,6.46,6.46,0,0,1,2.46,2.93,15.7,15.7,0,0,1,.79,5.75v9.85h-2.46v-9.13a21.74,21.74,0,0,0-.28-4.41,4.81,4.81,0,0,0-1.64-2.86,5,5,0,0,0-3.16-.95,6.09,6.09,0,0,0-4,1.47,6.92,6.92,0,0,0-2.33,3.66,25,25,0,0,0-.35,5.2v7h-2.46Z"/><path class="cls-12" d="M947.44,935.7V909.19h2.46v10.67a10.33,10.33,0,0,1,3.46-2.84,9.7,9.7,0,0,1,11.12,2,9.86,9.86,0,0,1,2.88,7.15,9.73,9.73,0,0,1-2.9,7.08,9.44,9.44,0,0,1-7,2.94,9.05,9.05,0,0,1-4.24-1,9.88,9.88,0,0,1-3.35-3v3.52Zm9.84-1.89a7.4,7.4,0,0,0,6.55-3.85,7.67,7.67,0,0,0,1-3.86,7.94,7.94,0,0,0-1-3.89,7.55,7.55,0,0,0-2.79-2.87,7.15,7.15,0,0,0-3.72-1,7.59,7.59,0,0,0-3.83,1,7.15,7.15,0,0,0-2.79,2.77,7.86,7.86,0,0,0-1,3.92,7.62,7.62,0,0,0,2.19,5.55A7.21,7.21,0,0,0,957.28,933.81Z"/><path class="cls-12" d="M972.69,908.7a2,2,0,0,1,1.44.59,2,2,0,0,1,.59,1.44,2,2,0,0,1-2,2,1.94,1.94,0,0,1-1.42-.6,2,2,0,0,1-.59-1.43,2,2,0,0,1,.59-1.44A1.93,1.93,0,0,1,972.69,908.7Zm-1.22,7.87h2.46V935.7h-2.46Z"/><path class="cls-12" d="M978.68,909.19h2.46V935.7h-2.46Z"/><path class="cls-12" d="M985.88,909.19h2.46V935.7h-2.46Z"/><path class="cls-12" d="M1009.56,929.35l2.07,1.09a11.23,11.23,0,0,1-2.35,3.23,9.47,9.47,0,0,1-3,1.88,10.7,10.7,0,0,1-3.78.64,9.13,9.13,0,0,1-7.32-3.07,10.34,10.34,0,0,1-2.64-6.93,10.22,10.22,0,0,1,2.23-6.49,9.15,9.15,0,0,1,7.58-3.62,9.42,9.42,0,0,1,7.82,3.71,10.39,10.39,0,0,1,2.11,6.54H995.06a7.81,7.81,0,0,0,2.13,5.46,6.79,6.79,0,0,0,5.08,2.13,8.16,8.16,0,0,0,2.85-.51,7.58,7.58,0,0,0,2.35-1.35A11.53,11.53,0,0,0,1009.56,929.35Zm0-5.15a8.37,8.37,0,0,0-1.43-3.15,6.88,6.88,0,0,0-2.49-1.9,7.67,7.67,0,0,0-3.26-.72,7,7,0,0,0-4.84,1.81,8.21,8.21,0,0,0-2.24,4Z"/><path class="cls-12" d="M1036,909.19V935.7h-2.43v-3.29a10.58,10.58,0,0,1-3.47,2.83,9.46,9.46,0,0,1-4.21,1,9.33,9.33,0,0,1-6.94-3,9.89,9.89,0,0,1-2.87-7.16,9.72,9.72,0,0,1,2.9-7.07,9.47,9.47,0,0,1,7-2.93,9,9,0,0,1,4.26,1,9.7,9.7,0,0,1,3.35,3v-10.9Zm-9.84,9.26a7.43,7.43,0,0,0-6.56,3.85,7.78,7.78,0,0,0,0,7.72,7.52,7.52,0,0,0,2.78,2.87,7.26,7.26,0,0,0,3.75,1,7.68,7.68,0,0,0,3.83-1,7.09,7.09,0,0,0,2.78-2.76,7.83,7.83,0,0,0,1-3.91,7.62,7.62,0,0,0-2.19-5.55A7.23,7.23,0,0,0,1026.11,918.45Z"/><path class="cls-12" d="M1057.62,929.35l2.07,1.09a11.23,11.23,0,0,1-2.35,3.23,9.58,9.58,0,0,1-3,1.88,10.72,10.72,0,0,1-3.79.64,9.1,9.1,0,0,1-7.31-3.07,10.34,10.34,0,0,1-2.64-6.93,10.22,10.22,0,0,1,2.23-6.49,9.15,9.15,0,0,1,7.58-3.62,9.4,9.4,0,0,1,7.81,3.71,10.34,10.34,0,0,1,2.12,6.54h-17.21a7.72,7.72,0,0,0,2.13,5.46,6.77,6.77,0,0,0,5.08,2.13,8.1,8.1,0,0,0,2.84-.51,7.36,7.36,0,0,0,2.35-1.35A11.27,11.27,0,0,0,1057.62,929.35Zm0-5.15a8.22,8.22,0,0,0-1.44-3.15,6.71,6.71,0,0,0-2.49-1.9,7.59,7.59,0,0,0-3.25-.72,7,7,0,0,0-4.84,1.81,8.21,8.21,0,0,0-2.24,4Z"/><path class="cls-12" d="M1064,916.57h2.52v2.8a8.67,8.67,0,0,1,2.37-2.47,4.64,4.64,0,0,1,2.6-.82,4.41,4.41,0,0,1,2.18.65l-1.28,2.07a3.48,3.48,0,0,0-1.3-.33,3.61,3.61,0,0,0-2.38,1,6.4,6.4,0,0,0-1.74,3.14,30.53,30.53,0,0,0-.45,6.61v6.47H1064Z"/><path class="cls-12" d="M678.8,959.77V978.9h-2.43v-3.29a10.58,10.58,0,0,1-3.47,2.83,9.43,9.43,0,0,1-4.21.95,9.33,9.33,0,0,1-6.94-2.95,9.89,9.89,0,0,1-2.87-7.16,9.72,9.72,0,0,1,2.9-7.07,9.47,9.47,0,0,1,7-2.93,9,9,0,0,1,4.26,1,9.7,9.7,0,0,1,3.35,3v-3.52ZM669,961.65a7.43,7.43,0,0,0-6.56,3.85,7.78,7.78,0,0,0,0,7.72,7.48,7.48,0,0,0,2.79,2.87,7.19,7.19,0,0,0,3.74,1,7.66,7.66,0,0,0,3.83-1,7,7,0,0,0,2.78-2.76,7.83,7.83,0,0,0,1-3.91,7.62,7.62,0,0,0-2.19-5.55A7.21,7.21,0,0,0,669,961.65Z"/><path class="cls-12" d="M692.21,952.39v2.41a6,6,0,0,0-2.32-.58,2.22,2.22,0,0,0-1.2.29,1.27,1.27,0,0,0-.59.66,8.69,8.69,0,0,0-.13,2v2.58h4v2.13h-4v17h-2.47v-17H683v-2.13h2.51v-3a8.09,8.09,0,0,1,.38-2.93,3,3,0,0,1,1.29-1.42,4.17,4.17,0,0,1,2.18-.53A10.31,10.31,0,0,1,692.21,952.39Z"/><path class="cls-12" d="M723.76,961.86l-1.58,1.64a5.68,5.68,0,0,0-3.86-1.92,2.9,2.9,0,0,0-2.05.79,2.45,2.45,0,0,0-.86,1.85,2.72,2.72,0,0,0,.71,1.77,9.52,9.52,0,0,0,3,2,11.06,11.06,0,0,1,3.73,2.75,5,5,0,0,1,1,3,5.37,5.37,0,0,1-1.66,4,5.64,5.64,0,0,1-4.13,1.64,7.2,7.2,0,0,1-3.16-.72,6.9,6.9,0,0,1-2.5-2l1.55-1.76a5.38,5.38,0,0,0,4,2.13,3.61,3.61,0,0,0,2.52-.95,2.94,2.94,0,0,0,1-2.23,2.86,2.86,0,0,0-.69-1.88,11,11,0,0,0-3.1-2,9.92,9.92,0,0,1-3.52-2.64,5,5,0,0,1-.93-3,4.83,4.83,0,0,1,1.48-3.62,5.21,5.21,0,0,1,3.76-1.44A7.79,7.79,0,0,1,723.76,961.86Z"/><path class="cls-12" d="M729,951.9a2,2,0,0,1,1.44.59,2,2,0,0,1,.59,1.44,2,2,0,0,1-2,2,1.94,1.94,0,0,1-1.42-.6,2,2,0,0,1-.59-1.43,2,2,0,0,1,.59-1.44A1.93,1.93,0,0,1,729,951.9Zm-1.22,7.87h2.46V978.9h-2.46Z"/><path class="cls-12" d="M751.82,959.77h2.46V975a17.93,17.93,0,0,1-.71,5.89,7.63,7.63,0,0,1-3.35,4.06,11,11,0,0,1-5.75,1.42,13.23,13.23,0,0,1-4.42-.69,8.92,8.92,0,0,1-3.19-1.87,11.14,11.14,0,0,1-2.27-3.43h2.67a7.05,7.05,0,0,0,2.82,2.81,9,9,0,0,0,4.27.92,8.87,8.87,0,0,0,4.25-.94,5.8,5.8,0,0,0,2.48-2.36,10.51,10.51,0,0,0,.74-4.58v-1a9.4,9.4,0,0,1-3.4,2.7,10.08,10.08,0,0,1-9.22-.37,9.3,9.3,0,0,1-3.59-3.53,9.59,9.59,0,0,1-1.27-4.87,9.94,9.94,0,0,1,9.89-9.91,9,9,0,0,1,4,.89,11,11,0,0,1,3.59,2.92Zm-7.26,1.88a7.84,7.84,0,0,0-3.89,1,7.41,7.41,0,0,0-2.81,2.8,7.63,7.63,0,0,0-1,3.86,7,7,0,0,0,2.11,5.2,7.5,7.5,0,0,0,5.47,2.06,7.4,7.4,0,0,0,5.45-2,7.2,7.2,0,0,0,2.07-5.37,7.76,7.76,0,0,0-1-3.85,6.86,6.86,0,0,0-2.69-2.68A7.45,7.45,0,0,0,744.56,961.65Z"/><path class="cls-12" d="M787.67,961.86l-1.58,1.64a5.67,5.67,0,0,0-3.86-1.92,2.9,2.9,0,0,0-2.05.79,2.45,2.45,0,0,0-.86,1.85A2.72,2.72,0,0,0,780,966a9.78,9.78,0,0,0,3,2,11.06,11.06,0,0,1,3.73,2.75,5,5,0,0,1,1,3,5.4,5.4,0,0,1-1.65,4,5.68,5.68,0,0,1-4.14,1.64,7.23,7.23,0,0,1-3.16-.72,7,7,0,0,1-2.49-2l1.54-1.76a5.38,5.38,0,0,0,4,2.13,3.61,3.61,0,0,0,2.52-.95,2.92,2.92,0,0,0,.36-4.11,11.18,11.18,0,0,0-3.1-2,10,10,0,0,1-3.53-2.64,5,5,0,0,1-.93-3,4.84,4.84,0,0,1,1.49-3.62,5.18,5.18,0,0,1,3.76-1.44A7.77,7.77,0,0,1,787.67,961.86Z"/><path class="cls-12" d="M808.13,972.55l2.08,1.09a11.25,11.25,0,0,1-2.36,3.23,9.36,9.36,0,0,1-3,1.88,10.62,10.62,0,0,1-3.78.64,9.13,9.13,0,0,1-7.32-3.07,10.34,10.34,0,0,1-2.64-6.93,10.23,10.23,0,0,1,2.24-6.49,9.12,9.12,0,0,1,7.58-3.62,9.42,9.42,0,0,1,7.81,3.71,10.33,10.33,0,0,1,2.11,6.54H793.63a7.81,7.81,0,0,0,2.13,5.46,6.79,6.79,0,0,0,5.09,2.13,8.14,8.14,0,0,0,2.84-.51,7.58,7.58,0,0,0,2.35-1.35A11.27,11.27,0,0,0,808.13,972.55Zm0-5.15a8.07,8.07,0,0,0-1.43-3.15,6.88,6.88,0,0,0-2.49-1.9,7.64,7.64,0,0,0-3.26-.72,7.06,7.06,0,0,0-4.84,1.81,8.2,8.2,0,0,0-2.23,4Z"/><path class="cls-12" d="M815.06,952.39h2.46V978.9h-2.46Z"/><path class="cls-12" d="M820.83,959.77h2.62l6.42,13.94,6.34-13.94h2.63l-8.75,19.13h-.46Z"/><path class="cls-12" d="M861.1,952.39h2.46V963.2a10.4,10.4,0,0,1,3.29-3,8,8,0,0,1,3.88-1,6.77,6.77,0,0,1,3.81,1.09,6.53,6.53,0,0,1,2.45,2.92,15.51,15.51,0,0,1,.79,5.76v9.85h-2.46v-9.13a22.8,22.8,0,0,0-.27-4.41,4.49,4.49,0,0,0-4.81-3.81,6.09,6.09,0,0,0-4,1.47,7,7,0,0,0-2.33,3.66,25.62,25.62,0,0,0-.35,5.2v7H861.1Z"/><path class="cls-12" d="M881.24,959.77h2.62l6.42,13.94,6.34-13.94h2.64l-8.75,19.13h-.46Z"/><path class="cls-12" d="M903.86,951.9a1.93,1.93,0,0,1,1.43.59,2,2,0,0,1,.6,1.44,2,2,0,0,1-2,2,1.92,1.92,0,0,1-1.42-.6,1.94,1.94,0,0,1-.6-1.43,2,2,0,0,1,.6-1.44A1.91,1.91,0,0,1,903.86,951.9Zm-1.23,7.87h2.47V978.9h-2.47Z"/><path class="cls-12" d="M919.83,961.86l-1.59,1.64a5.67,5.67,0,0,0-3.86-1.92,2.9,2.9,0,0,0-2,.79,2.44,2.44,0,0,0-.85,1.85,2.71,2.71,0,0,0,.7,1.77,9.78,9.78,0,0,0,3,2,11.12,11.12,0,0,1,3.74,2.75,5,5,0,0,1,1,3,5.4,5.4,0,0,1-1.65,4,5.66,5.66,0,0,1-4.14,1.64,7.23,7.23,0,0,1-3.16-.72,7,7,0,0,1-2.49-2l1.55-1.76a5.37,5.37,0,0,0,4,2.13,3.64,3.64,0,0,0,2.52-.95,2.94,2.94,0,0,0,1-2.23,2.86,2.86,0,0,0-.69-1.88,11,11,0,0,0-3.1-2,9.82,9.82,0,0,1-3.52-2.64,4.93,4.93,0,0,1-.94-3,4.84,4.84,0,0,1,1.49-3.62,5.18,5.18,0,0,1,3.76-1.44A7.81,7.81,0,0,1,919.83,961.86Z"/><path class="cls-12" d="M942.68,959.77h2.46v3.31a9.48,9.48,0,0,1,2.64-2.68,7.46,7.46,0,0,1,3.92-1.12,6.56,6.56,0,0,1,2.64.54,5.75,5.75,0,0,1,2,1.45,7.85,7.85,0,0,1,1.38,2.6,9.07,9.07,0,0,1,3.06-3.42,7.27,7.27,0,0,1,4-1.17,6.19,6.19,0,0,1,3.5,1,6,6,0,0,1,2.25,2.8,14.85,14.85,0,0,1,.74,5.37V978.9h-2.52V968.45a13.29,13.29,0,0,0-.44-4.22,3.83,3.83,0,0,0-1.49-1.86,4.48,4.48,0,0,0-2.54-.7,5.49,5.49,0,0,0-3.26,1.05,6.1,6.1,0,0,0-2.17,2.82,18,18,0,0,0-.68,5.87v7.49h-2.46v-9.8a16.74,16.74,0,0,0-.43-4.7,4,4,0,0,0-1.5-2,4.36,4.36,0,0,0-2.55-.75,5.46,5.46,0,0,0-3.19,1,6,6,0,0,0-2.2,2.77,15,15,0,0,0-.71,5.32v8.11h-2.46Z"/><path class="cls-12" d="M995.52,959.77V978.9h-2.43v-3.29a10.58,10.58,0,0,1-3.47,2.83,9.43,9.43,0,0,1-4.21.95,9.33,9.33,0,0,1-6.94-2.95,9.89,9.89,0,0,1-2.87-7.16,9.72,9.72,0,0,1,2.9-7.07,9.47,9.47,0,0,1,7-2.93,9,9,0,0,1,4.26,1,9.7,9.7,0,0,1,3.35,3v-3.52Zm-9.84,1.88a7.43,7.43,0,0,0-6.56,3.85,7.78,7.78,0,0,0,0,7.72,7.48,7.48,0,0,0,2.79,2.87,7.19,7.19,0,0,0,3.74,1,7.66,7.66,0,0,0,3.83-1,7,7,0,0,0,2.78-2.76,7.83,7.83,0,0,0,1-3.91,7.62,7.62,0,0,0-2.19-5.55A7.21,7.21,0,0,0,985.68,961.65Z"/><path class="cls-12" d="M1001.05,959.77h2.46v3.43a10.45,10.45,0,0,1,3.27-3,8.07,8.07,0,0,1,3.91-1,6.74,6.74,0,0,1,3.8,1.09,6.38,6.38,0,0,1,2.45,2.93,15.45,15.45,0,0,1,.8,5.75v9.85h-2.47v-9.13a22.8,22.8,0,0,0-.27-4.41,4.81,4.81,0,0,0-1.64-2.86,5,5,0,0,0-3.16-1,6.07,6.07,0,0,0-4,1.47,6.92,6.92,0,0,0-2.33,3.66,24.81,24.81,0,0,0-.36,5.2v7h-2.46Z"/><path class="cls-12" d="M1057.62,972.55l2.07,1.09a11.23,11.23,0,0,1-2.35,3.23,9.58,9.58,0,0,1-3,1.88,10.72,10.72,0,0,1-3.79.64,9.1,9.1,0,0,1-7.31-3.07,10.34,10.34,0,0,1-2.64-6.93,10.22,10.22,0,0,1,2.23-6.49,9.15,9.15,0,0,1,7.58-3.62,9.4,9.4,0,0,1,7.81,3.71,10.34,10.34,0,0,1,2.12,6.54h-17.21a7.72,7.72,0,0,0,2.13,5.46,6.77,6.77,0,0,0,5.08,2.13,8.1,8.1,0,0,0,2.84-.51,7.36,7.36,0,0,0,2.35-1.35A11.27,11.27,0,0,0,1057.62,972.55Zm0-5.15a8.22,8.22,0,0,0-1.44-3.15,6.71,6.71,0,0,0-2.49-1.9,7.59,7.59,0,0,0-3.25-.72,7,7,0,0,0-4.84,1.81,8.21,8.21,0,0,0-2.24,4Z"/><path class="cls-12" d="M1064,959.77h2.52v2.8a8.67,8.67,0,0,1,2.37-2.47,4.64,4.64,0,0,1,2.6-.82,4.52,4.52,0,0,1,2.18.65l-1.28,2.07a3.48,3.48,0,0,0-1.3-.33,3.61,3.61,0,0,0-2.38,1,6.4,6.4,0,0,0-1.74,3.14,30.53,30.53,0,0,0-.45,6.61v6.47H1064Z"/><path class="cls-12" d="M762.78,1003h2.46v8.93a18.65,18.65,0,0,0,.36,4.5,5,5,0,0,0,2,2.78,6.13,6.13,0,0,0,3.55,1,5.91,5.91,0,0,0,3.49-1,5,5,0,0,0,2-2.61,18.19,18.19,0,0,0,.37-4.69V1003h2.52v9.39a14.78,14.78,0,0,1-.93,6,7,7,0,0,1-2.77,3.13,10.09,10.09,0,0,1-9.32,0,6.92,6.92,0,0,1-2.79-3.16,15.34,15.34,0,0,1-.93-6.11Z"/><path class="cls-12" d="M785,1003h2.47v3.43a10.32,10.32,0,0,1,3.26-2.95,8.07,8.07,0,0,1,3.91-1,6.72,6.72,0,0,1,3.8,1.09,6.46,6.46,0,0,1,2.46,2.93,15.7,15.7,0,0,1,.79,5.75v9.85h-2.46V1013a22.53,22.53,0,0,0-.28-4.41,4.81,4.81,0,0,0-1.64-2.86,5,5,0,0,0-3.16-1,6.07,6.07,0,0,0-4,1.47,6.92,6.92,0,0,0-2.33,3.66,25,25,0,0,0-.35,5.2v7H785Z"/><path class="cls-12" d="M826,995.59v26.51H823.6v-3.29a10.48,10.48,0,0,1-3.47,2.83,9.4,9.4,0,0,1-4.21,1,9.29,9.29,0,0,1-6.93-3,9.85,9.85,0,0,1-2.88-7.16,9.72,9.72,0,0,1,2.9-7.07,9.49,9.49,0,0,1,7-2.93,9,9,0,0,1,4.26,1,9.61,9.61,0,0,1,3.35,3v-10.9Zm-9.84,9.26a7.47,7.47,0,0,0-3.79,1,7.32,7.32,0,0,0-2.76,2.84,7.67,7.67,0,0,0-1,3.86,7.77,7.77,0,0,0,1,3.86,7.45,7.45,0,0,0,2.78,2.87,7.2,7.2,0,0,0,3.75,1,7.65,7.65,0,0,0,3.82-1,7.12,7.12,0,0,0,2.79-2.76,7.82,7.82,0,0,0,1-3.91,7.65,7.65,0,0,0-2.18-5.55A7.25,7.25,0,0,0,816.19,1004.85Z"/><path class="cls-12" d="M847.7,1015.75l2.08,1.09a11.25,11.25,0,0,1-2.36,3.23,9.36,9.36,0,0,1-3,1.88,10.62,10.62,0,0,1-3.78.64,9.13,9.13,0,0,1-7.32-3.07,10.34,10.34,0,0,1-2.64-6.93,10.22,10.22,0,0,1,2.23-6.49,9.16,9.16,0,0,1,7.59-3.62,9.42,9.42,0,0,1,7.81,3.71,10.33,10.33,0,0,1,2.11,6.54H833.2a7.81,7.81,0,0,0,2.13,5.46,6.79,6.79,0,0,0,5.09,2.13,8.14,8.14,0,0,0,2.84-.51,7.58,7.58,0,0,0,2.35-1.35A11.53,11.53,0,0,0,847.7,1015.75Zm0-5.15a8.07,8.07,0,0,0-1.43-3.15,7,7,0,0,0-2.49-1.9,7.64,7.64,0,0,0-3.26-.72,7,7,0,0,0-4.84,1.81,8.2,8.2,0,0,0-2.23,4Z"/><path class="cls-12" d="M854.07,1003h2.51v2.8a8.67,8.67,0,0,1,2.37-2.47,4.66,4.66,0,0,1,2.6-.82,4.52,4.52,0,0,1,2.18.65l-1.28,2.07a3.44,3.44,0,0,0-1.3-.33,3.57,3.57,0,0,0-2.37,1A6.4,6.4,0,0,0,857,1009a29.67,29.67,0,0,0-.46,6.61v6.47h-2.51Z"/><path class="cls-12" d="M879.71,996.24h5.08v25.86h-2.56V998.77h-4.06Z"/><path class="cls-12" d="M910.7,996.24v2.46h-9.19l-1.29,7a10.88,10.88,0,0,1,3-.49,7.75,7.75,0,0,1,5.82,2.36,8.33,8.33,0,0,1,2.29,6.06,9.42,9.42,0,0,1-1.18,4.67,8.14,8.14,0,0,1-3.19,3.26,9.26,9.26,0,0,1-4.65,1.14,7.75,7.75,0,0,1-5.31-1.93,7.86,7.86,0,0,1-2.58-5h2.66a5.64,5.64,0,0,0,1,2.42,5.11,5.11,0,0,0,1.89,1.51,5.71,5.71,0,0,0,2.49.57,5.85,5.85,0,0,0,4.38-1.93,6.76,6.76,0,0,0,1.83-4.83,5.69,5.69,0,0,0-1.66-4.25,6,6,0,0,0-4.41-1.63,14.49,14.49,0,0,0-5.53,1.39l2.39-12.85Z"/><path class="cls-12" d="M934.75,1003v19.13h-2.43v-3.29a10.48,10.48,0,0,1-3.47,2.83,9.68,9.68,0,0,1-11.14-2,9.85,9.85,0,0,1-2.88-7.16,9.72,9.72,0,0,1,2.9-7.07,9.49,9.49,0,0,1,7-2.93,9.05,9.05,0,0,1,4.27,1,9.67,9.67,0,0,1,3.34,3V1003Zm-9.83,1.88a7.48,7.48,0,0,0-3.8,1,7.32,7.32,0,0,0-2.76,2.84,7.67,7.67,0,0,0-1,3.86,7.77,7.77,0,0,0,1,3.86,7.45,7.45,0,0,0,2.78,2.87,7.2,7.2,0,0,0,3.75,1,7.65,7.65,0,0,0,3.82-1,7.12,7.12,0,0,0,2.79-2.76,7.82,7.82,0,0,0,1-3.91,7.65,7.65,0,0,0-2.18-5.55A7.24,7.24,0,0,0,924.92,1004.85Zm.3-12.48a3.76,3.76,0,1,1-2.64,6.41,3.76,3.76,0,0,1,2.64-6.41Zm0,1.79a1.93,1.93,0,0,0-1.38,3.29,1.91,1.91,0,0,0,1.38.56,1.87,1.87,0,0,0,1.35-.56,1.93,1.93,0,0,0,0-2.72A1.85,1.85,0,0,0,925.21,994.16Z"/><path class="cls-12" d="M939.36,1003h2.51v2.8a8.67,8.67,0,0,1,2.37-2.47,4.64,4.64,0,0,1,2.6-.82,4.52,4.52,0,0,1,2.18.65l-1.28,2.07a3.48,3.48,0,0,0-1.3-.33,3.57,3.57,0,0,0-2.37,1,6.25,6.25,0,0,0-1.74,3.14,29.67,29.67,0,0,0-.46,6.61v6.47h-2.51Z"/><path class="cls-12" d="M953.93,1003.27h-2.57a7.2,7.2,0,0,1,7.7-7.68,7.87,7.87,0,0,1,5.41,1.74,5.51,5.51,0,0,1,2,4.32,5,5,0,0,1-.53,2.28,5.62,5.62,0,0,1-1.63,1.88,17.23,17.23,0,0,1-3.81,1.91,17,17,0,0,0-4.15,2,2.16,2.16,0,0,0-.74,1.65,2.34,2.34,0,0,0,1,1.83,4,4,0,0,0,2.58.8,3.72,3.72,0,0,0,2.67-.88,4.47,4.47,0,0,0,1.14-2.84h2.57a5.93,5.93,0,0,1-6.38,6.19,6.69,6.69,0,0,1-4.54-1.48,4.67,4.67,0,0,1-1.68-3.64,4.4,4.4,0,0,1,.46-2,4.29,4.29,0,0,1,1.32-1.58,17.12,17.12,0,0,1,3.21-1.6,28.54,28.54,0,0,0,4.87-2.32,2.57,2.57,0,0,0,1.05-2.21,3.24,3.24,0,0,0-1.29-2.59,5.3,5.3,0,0,0-3.45-1.05,5,5,0,0,0-4.08,1.74A5.51,5.51,0,0,0,953.93,1003.27Zm5.11,15a2.08,2.08,0,0,1,1.53.63,2.18,2.18,0,0,1,0,3.09,2.09,2.09,0,0,1-1.53.64,2.18,2.18,0,0,1,0-4.36Z"/><path class="cls-13" d="M854,1044l-58,58,130-58Z"/><path class="cls-14" d="M540.43,348.36c27,0,38.8-45,47.6-77.4,8.2-30.2,22.8-32.4,22.8-32.4-6.2-3.2-20.4-7-36.4-7-12,0-20.4,6-20.4,15.2,0,12.2,9.8,16,9.8,18.8,0,2.6-1.4,3.8-4.2,3.8-10.6,0-29.8-10-29.8-25.8,0-20.6,23.8-26.2,39.4-26.2,26.6,0,40,6.6,74,6.6,20.6,0,23-6.6,25.8-6.6a4.06,4.06,0,0,1,4.2,4c0,3.8-13.4,23-27.6,23a83,83,0,0,1-23.2-3.4c-2,.8-6.8,6.2-12.2,32-6.8,32-12.2,91.2-53.2,91.2-16.2,0-28.8-8-28.8-13,0-2.6,1.6-3.8,3.6-3.8C534.43,347.36,536.63,348.36,540.43,348.36Z"/><path class="cls-14" d="M675,350.76c10.8,0,21.4-17.2,21.4-17.2s1.6-2.8,4-2.8a4.19,4.19,0,0,1,4.2,4c0,1.8-1.8,4.8-1.8,4.8s-14.6,24.6-34.4,24.6c-15.2,0-25.4-9-25.4-20,0-17.6,12.6-31.4,12.6-37.6,0-4-12-4.8-12-4.8-7.6,19.4-15.2,31.6-19.4,37.8-.6.8-2,3-4.4,3a4.69,4.69,0,0,1-4.2-4.2c0-1.8,1.6-3.8,2.2-4.8a123.68,123.68,0,0,0,17.4-35.6s-6.6-4.8-6.6-14.8c0-8.2,6.8-14.8,11.6-14.8,5.6,0,12.4,6.4,12.4,10.4,0,5.2-2.6,8.4-2.6,11.6,0,2.8,3.6,4.2,8.4,4.2,9,0,11.8-2.6,16.6-2.6s8.2,4.4,8.2,9.6c0,9-14.8,26-14.8,42.2C668.43,348.36,671,350.76,675,350.76Z"/><path class="cls-14" d="M763.43,364.16c-11,0-19.6-5.8-21-17,0,0-13.2,17-28.4,17-10.8,0-20-8.6-20-20.8,0-28.8,24-59.4,46-59.4,16.2,0,21.8,9.4,21.8,9.4,6,0,14.2,2.4,14.2,9.4,0,6-11.6,28.8-11.6,42.4a5.35,5.35,0,0,0,5.6,5.6c10.8,0,21.4-17.2,21.4-17.2s1.6-2.8,4-2.8a4.19,4.19,0,0,1,4.2,4c0,1.8-1.8,4.8-1.8,4.8S783.23,364.16,763.43,364.16Zm-19.2-68.6c-11.6,0-25.8,27.6-25.8,44.4,0,5.8,1.6,9,5.8,9,9.6,0,27.2-29.4,27.2-44.8C751.43,298.36,748.23,295.56,744.23,295.56Z"/><path class="cls-14" d="M849.23,284c14.2,0,24,13.4,24,25,0,20.4-17.4,55.2-44.8,55.2-12.8,0-20-10.2-20-10.2-4.6,11.8-10.8,41.6-10.8,57.2,0,3.2-1,4.4-3.8,4.4-7.6,0-18.2-3.4-18.2-14.2,0-14.2,17.8-83.4,28.2-111.6a5.83,5.83,0,0,1,5.6-3.8c2.8,0,7.6,1.2,13.8,10.8C823.23,296.76,837.43,284,849.23,284Zm-24.6,69.2c12.8,0,24-34.2,24-45.8,0-7.2-2.4-9.8-6.8-9.8-10.4,0-28.2,26-28.2,40.2C813.63,345.56,818,353.16,824.63,353.16Z"/></svg>
