<svg id="Lag_1" data-name="Lag 1" xmlns="http://www.w3.org/2000/svg" width="745" height="1207" viewBox="0 0 745 1207"><defs><style>.cls-1{fill:#7effb4;}.cls-2{fill:#2fb75d;}.cls-3{fill:#dbffd6;}.cls-4{fill:#fff;}.cls-5{opacity:0.7;}.cls-6{fill:#9ce986;}</style></defs><title>swan</title><rect class="cls-1" width="745" height="1207"/><path class="cls-2" d="M0,904l745,211.5V0H0Z"/><path class="cls-3" d="M251.77,618.3c-46-19.17-85-72.6-78.11-119.54,4.47-30.41,28.31-58.81,46.9-80.95,10-11.91,15.43-15.29,27.37-31.8,29.94-41.42,30.34-62.15,29.28-70.15-.12-.9-.25-1.56-.34-2.06-.9-5-7-35.48-31.49-45.73-3.95-1.66-13.53-5.67-23.88-2.62-14,4.13-15,17-27.35,19.2-10.25,1.85-20.43-5-25.8-11.27-9.08-10.64-9-25.14-5.16-34.92,6.94-17.69,27.41-23.09,39.87-26.37,7.68-2,36.4-8.53,64.79,5.38,34.43,16.87,47,53.27,55.73,79.94,25.25,76.89-2.13,119.09,20.5,134.19,29.07,19.4,72.8-51,143.85-37.38,29.26,5.62,72.09,27.3,97.8,50.71,3.12,2.84,10.07,13.89,23.73,19.65,3.88,1.63,18.76,7.91,34.38,2.82,10.17-3.31,16.55-10.09,19.57-7.7s-1.29,10.52,1.18,12.11c3.63,2.33,15.91-13.11,17.84-11.82,2.45,1.64-11.24,30.5-26,50.86-15.23,21-49.85,58.18-127.59,78.57-53.44,9.21-112.59,18.9-176.83,28.64C298.1,626.23,277.21,628.9,251.77,618.3Z"/><path class="cls-4" d="M161.57,258.43l-8,30-11.17,13.09,2.65,4.24,55-24.86a31.17,31.17,0,0,1-23.51-2.53C164.84,271.91,162,260.26,161.57,258.43Z"/><circle cx="179.5" cy="259.5" r="4.5"/><path class="cls-4" d="M347,528a308.21,308.21,0,0,0,127-2,300.22,300.22,0,0,0,54-18c6.44-1.53,7.69-3.81,8-5,1.85-7.07-18.69-17.36-20-18a41.46,41.46,0,0,0,26,6,40.43,40.43,0,0,0,17-6,9.06,9.06,0,0,0,4-5c1.21-4.4-1.86-10.06-8-13l19,5c5.28-.49,7.94-1.16,8-2q.18-2.76-37-8c7.09,5.68,9.56,13.36,7,18a9.09,9.09,0,0,1-5,4c-4.42-.47-9.09-.83-14-1a197.12,197.12,0,0,0-28,1c12.9,5.63,20.26,12.83,19,17-1.49,4.9-14.7,5-16,5q-7.35,2.61-15,5C441.23,527.09,391.42,530.66,347,528Z"/><path class="cls-3" d="M100,625a18,18,0,0,1-14-1,18.21,18.21,0,0,1-9-12,39.86,39.86,0,0,1,2-19,39.45,39.45,0,0,1,7-12l-6-13a16.44,16.44,0,0,1,0-14c4-8.35,16.16-9,17-9a25.07,25.07,0,0,1,11,8c6.21,8,5.25,17.06,5,19l3,14a13.61,13.61,0,0,1,4-6c4.89-4.19,11.06-3.17,12-3a30.44,30.44,0,0,1,29,6l13,23-11,20Z"/><path class="cls-3" d="M347,721a30.75,30.75,0,0,1-19.58-3.37c-2.27-1.28-8.71-3.85-10.65-10.56a39.28,39.28,0,0,1,4.39-32A20.24,20.24,0,0,1,321,661c.24-.65,4.19-10.64,14-12,1-.14,10.19-1.21,15,6a14.82,14.82,0,0,1,0,16c.52,1.56,1.05,3.11,1.57,4.67q3.09-1.36,6.43-2.67a157.73,157.73,0,0,1,15-5s7,1,11,2a46.36,46.36,0,0,1,14,6l13.86,11q-4,10.69-8,21.38A105.22,105.22,0,0,1,383,717,106.37,106.37,0,0,1,347,721Z"/><path class="cls-3" d="M584,668a18,18,0,0,1-14-1,18.21,18.21,0,0,1-9-12,39.86,39.86,0,0,1,2-19,39.45,39.45,0,0,1,7-12q-.5-7.5-1-15l-8-2-7-6c.37-1.25.71-2.58,1-4a48.89,48.89,0,0,0,1-10,27.73,27.73,0,0,1,17-5,26.76,26.76,0,0,1,11,3,44.69,44.69,0,0,1,13,30l3,14a13.61,13.61,0,0,1,4-6c4.89-4.19,11.06-3.17,12-3a30.44,30.44,0,0,1,29,6l17,11a56.08,56.08,0,0,1-23,27Z"/><circle cx="333" cy="663" r="2"/><circle cx="84" cy="562" r="2"/><ellipse cx="351" cy="663" rx="1" ry="2"/><ellipse cx="566" cy="591.5" rx="2" ry="2.5"/><circle cx="106" cy="562" r="2"/><path class="cls-4" d="M557.86,584.87A19.61,19.61,0,0,1,543,594.13a11.85,11.85,0,0,0,4.08,4.93,12.4,12.4,0,0,0,9,1.84,18.19,18.19,0,0,1-1.11-6A18.89,18.89,0,0,1,557.86,584.87Z"/><polygon class="cls-4" points="89 568 92.9 564 102 570 95.5 575 89 575 89 568"/><polygon class="cls-4" points="350 667 347 663 340 669 345 674 350 674 350 667"/><rect class="cls-5" y="679" width="746" height="84"/><path class="cls-4" d="M140.22,733.38V699.77h3.84c5.23,8.07,17.52,26.84,19.63,30.49h.05c-.29-4.85-.24-9.8-.24-15.27V699.77h2.64v33.61h-3.55c-5-7.78-17.48-27.32-19.88-31h-.05c.24,4.41.2,9.31.2,15.4v15.61Z"/><path class="cls-4" d="M187.21,733.38l-.34-2.93h-.14a8.66,8.66,0,0,1-7.1,3.45c-4.71,0-7.11-3.31-7.11-6.67,0-5.61,5-8.69,14-8.64v-.48c0-1.92-.53-5.38-5.28-5.38a11.63,11.63,0,0,0-6.05,1.73l-1-2.78a14.39,14.39,0,0,1,7.63-2.07c7.11,0,8.84,4.85,8.84,9.51v8.69a32.65,32.65,0,0,0,.38,5.57Zm-.63-11.86c-4.6-.1-9.84.72-9.84,5.23a3.74,3.74,0,0,0,4,4,5.78,5.78,0,0,0,5.61-3.88,4.32,4.32,0,0,0,.24-1.35Zm-9.07-18.29c0-2.54,1.87-4.56,4.9-4.56a4.45,4.45,0,0,1,4.75,4.51,4.5,4.5,0,0,1-4.8,4.42C179.48,707.6,177.51,705.68,177.51,703.23Zm7.3-.1a2.49,2.49,0,0,0-2.5-2.64,2.46,2.46,0,0,0-2.35,2.74,2.43,2.43,0,1,0,4.85-.1Z"/><path class="cls-4" d="M210.34,733.38l-.33-2.93h-.14a8.68,8.68,0,0,1-7.11,3.45c-4.7,0-7.1-3.31-7.1-6.67,0-5.61,5-8.69,14-8.64v-.48c0-1.92-.53-5.38-5.29-5.38a11.6,11.6,0,0,0-6,1.73l-1-2.78a14.39,14.39,0,0,1,7.63-2.07c7.1,0,8.83,4.85,8.83,9.51v8.69a32.58,32.58,0,0,0,.39,5.57Zm-.62-11.86c-4.61-.1-9.84.72-9.84,5.23a3.73,3.73,0,0,0,4,4,5.78,5.78,0,0,0,5.62-3.88,4.32,4.32,0,0,0,.24-1.35Zm-9.07-18.29a4.53,4.53,0,0,1,4.89-4.56,4.46,4.46,0,0,1,4.76,4.51,4.51,4.51,0,0,1-4.8,4.42C202.62,707.6,200.65,705.68,200.65,703.23Zm7.29-.1a2.43,2.43,0,1,0-4.84.1,2.43,2.43,0,1,0,4.84-.1Z"/><path class="cls-4" d="M233.48,733.38l-.34-2.93H233a8.65,8.65,0,0,1-7.1,3.45c-4.71,0-7.11-3.31-7.11-6.67,0-5.61,5-8.69,14-8.64v-.48c0-1.92-.53-5.38-5.28-5.38a11.63,11.63,0,0,0-6,1.73l-1-2.78a14.42,14.42,0,0,1,7.63-2.07c7.11,0,8.84,4.85,8.84,9.51v8.69a32.65,32.65,0,0,0,.38,5.57Zm-.62-11.86c-4.61-.1-9.84.72-9.84,5.23a3.73,3.73,0,0,0,4,4,5.8,5.8,0,0,0,5.62-3.88,4.63,4.63,0,0,0,.24-1.35Zm-9.08-18.29a4.54,4.54,0,0,1,4.9-4.56,4.45,4.45,0,0,1,4.75,4.51,4.5,4.5,0,0,1-4.8,4.42C225.75,707.6,223.78,705.68,223.78,703.23Zm7.3-.1a2.44,2.44,0,1,0-4.85.1,2.43,2.43,0,1,0,4.85-.1Z"/><path class="cls-4" d="M256.62,733.38l-.34-2.93h-.14A8.68,8.68,0,0,1,249,733.9c-4.7,0-7.1-3.31-7.1-6.67,0-5.61,5-8.69,14-8.64v-.48c0-1.92-.53-5.38-5.28-5.38a11.63,11.63,0,0,0-6.05,1.73l-1-2.78a14.39,14.39,0,0,1,7.63-2.07c7.1,0,8.83,4.85,8.83,9.51v8.69a32.58,32.58,0,0,0,.39,5.57ZM256,721.52c-4.61-.1-9.84.72-9.84,5.23a3.74,3.74,0,0,0,4,4,5.78,5.78,0,0,0,5.61-3.88,4.32,4.32,0,0,0,.24-1.35Zm-9.07-18.29c0-2.54,1.87-4.56,4.9-4.56a4.45,4.45,0,0,1,4.75,4.51,4.51,4.51,0,0,1-4.8,4.42C248.89,707.6,246.92,705.68,246.92,703.23Zm7.3-.1a2.49,2.49,0,0,0-2.5-2.64,2.46,2.46,0,0,0-2.35,2.74,2.43,2.43,0,1,0,4.85-.1Z"/><path class="cls-4" d="M279.75,733.38l-.33-2.93h-.15a8.65,8.65,0,0,1-7.1,3.45c-4.71,0-7.11-3.31-7.11-6.67,0-5.61,5-8.69,14-8.64v-.48c0-1.92-.53-5.38-5.28-5.38a11.63,11.63,0,0,0-6.05,1.73l-1-2.78a14.43,14.43,0,0,1,7.64-2.07c7.1,0,8.83,4.85,8.83,9.51v8.69a32.65,32.65,0,0,0,.38,5.57Zm-.62-11.86c-4.61-.1-9.84.72-9.84,5.23a3.73,3.73,0,0,0,4,4,5.78,5.78,0,0,0,5.62-3.88,4.63,4.63,0,0,0,.24-1.35Zm-9.07-18.29a4.53,4.53,0,0,1,4.89-4.56,4.45,4.45,0,0,1,4.75,4.51,4.5,4.5,0,0,1-4.8,4.42C272,707.6,270.06,705.68,270.06,703.23Zm7.29-.1a2.44,2.44,0,1,0-4.85.1,2.43,2.43,0,1,0,4.85-.1Z"/><path class="cls-4" d="M302.89,733.38l-.34-2.93h-.14a8.67,8.67,0,0,1-7.11,3.45c-4.7,0-7.1-3.31-7.1-6.67,0-5.61,5-8.69,14-8.64v-.48c0-1.92-.53-5.38-5.28-5.38a11.63,11.63,0,0,0-6.05,1.73l-1-2.78a14.39,14.39,0,0,1,7.63-2.07c7.11,0,8.83,4.85,8.83,9.51v8.69a32.58,32.58,0,0,0,.39,5.57Zm-.63-11.86c-4.6-.1-9.84.72-9.84,5.23a3.74,3.74,0,0,0,4,4A5.78,5.78,0,0,0,302,726.9a4.32,4.32,0,0,0,.24-1.35Zm-9.07-18.29c0-2.54,1.87-4.56,4.9-4.56a4.45,4.45,0,0,1,4.75,4.51,4.5,4.5,0,0,1-4.8,4.42C295.16,707.6,293.19,705.68,293.19,703.23Zm7.3-.1a2.49,2.49,0,0,0-2.5-2.64,2.46,2.46,0,0,0-2.35,2.74,2.43,2.43,0,1,0,4.85-.1Z"/><path class="cls-4" d="M326,733.38l-.33-2.93h-.15a8.65,8.65,0,0,1-7.1,3.45c-4.71,0-7.11-3.31-7.11-6.67,0-5.61,5-8.69,14-8.64v-.48c0-1.92-.52-5.38-5.28-5.38a11.66,11.66,0,0,0-6,1.73l-1-2.78a14.43,14.43,0,0,1,7.64-2.07c7.1,0,8.83,4.85,8.83,9.51v8.69a33.7,33.7,0,0,0,.38,5.57Zm-.62-11.86c-4.61-.1-9.84.72-9.84,5.23a3.73,3.73,0,0,0,4,4,5.78,5.78,0,0,0,5.62-3.88,4.63,4.63,0,0,0,.24-1.35Zm-9.07-18.29a4.53,4.53,0,0,1,4.89-4.56,4.46,4.46,0,0,1,4.76,4.51,4.51,4.51,0,0,1-4.8,4.42C318.29,707.6,316.33,705.68,316.33,703.23Zm7.29-.1a2.43,2.43,0,1,0-4.84.1,2.43,2.43,0,1,0,4.84-.1Z"/><path class="cls-4" d="M349.16,733.38l-.34-2.93h-.14a8.66,8.66,0,0,1-7.1,3.45c-4.71,0-7.11-3.31-7.11-6.67,0-5.61,5-8.69,14-8.64v-.48c0-1.92-.53-5.38-5.28-5.38a11.63,11.63,0,0,0-6.05,1.73l-1-2.78a14.39,14.39,0,0,1,7.63-2.07c7.11,0,8.84,4.85,8.84,9.51v8.69a32.65,32.65,0,0,0,.38,5.57Zm-.62-11.86c-4.61-.1-9.85.72-9.85,5.23a3.74,3.74,0,0,0,4,4,5.78,5.78,0,0,0,5.61-3.88,4.34,4.34,0,0,0,.25-1.35Zm-9.08-18.29c0-2.54,1.87-4.56,4.9-4.56a4.45,4.45,0,0,1,4.75,4.51,4.5,4.5,0,0,1-4.8,4.42C341.43,707.6,339.46,705.68,339.46,703.23Zm7.3-.1a2.44,2.44,0,1,0-4.85.1,2.43,2.43,0,1,0,4.85-.1Z"/><path class="cls-4" d="M372.29,733.38l-.33-2.93h-.14a8.68,8.68,0,0,1-7.11,3.45c-4.7,0-7.1-3.31-7.1-6.67,0-5.61,5-8.69,14-8.64v-.48c0-1.92-.53-5.38-5.29-5.38a11.6,11.6,0,0,0-6,1.73l-1-2.78a14.39,14.39,0,0,1,7.63-2.07c7.1,0,8.83,4.85,8.83,9.51v8.69a32.58,32.58,0,0,0,.39,5.57Zm-.62-11.86c-4.61-.1-9.84.72-9.84,5.23a3.73,3.73,0,0,0,4,4,5.78,5.78,0,0,0,5.62-3.88,4.32,4.32,0,0,0,.24-1.35Zm-9.07-18.29c0-2.54,1.87-4.56,4.9-4.56a4.45,4.45,0,0,1,4.75,4.51,4.51,4.51,0,0,1-4.8,4.42C364.57,707.6,362.6,705.68,362.6,703.23Zm7.29-.1a2.43,2.43,0,1,0-4.84.1,2.43,2.43,0,1,0,4.84-.1Z"/><path class="cls-4" d="M395.43,733.38l-.34-2.93H395a8.66,8.66,0,0,1-7.1,3.45c-4.71,0-7.11-3.31-7.11-6.67,0-5.61,5-8.69,14-8.64v-.48c0-1.92-.53-5.38-5.28-5.38a11.63,11.63,0,0,0-6.05,1.73l-1-2.78a14.42,14.42,0,0,1,7.63-2.07c7.11,0,8.84,4.85,8.84,9.51v8.69a32.65,32.65,0,0,0,.38,5.57Zm-.62-11.86c-4.61-.1-9.84.72-9.84,5.23a3.73,3.73,0,0,0,4,4,5.8,5.8,0,0,0,5.62-3.88,4.63,4.63,0,0,0,.24-1.35Zm-9.08-18.29a4.54,4.54,0,0,1,4.9-4.56,4.45,4.45,0,0,1,4.75,4.51,4.5,4.5,0,0,1-4.8,4.42C387.7,707.6,385.73,705.68,385.73,703.23Zm7.3-.1a2.44,2.44,0,1,0-4.85.1,2.43,2.43,0,1,0,4.85-.1Z"/><path class="cls-4" d="M405.7,717.39c0-2.74-.05-5.09-.19-7.25h3.7l.14,4.56h.19a7,7,0,0,1,6.43-5.09,4.38,4.38,0,0,1,1.2.15v4a6.69,6.69,0,0,0-1.44-.14c-3,0-5.08,2.25-5.66,5.42a11.55,11.55,0,0,0-.19,2v12.39H405.7Z"/><path class="cls-4" d="M421.59,699.29h4.22v14.5h.1a7.86,7.86,0,0,1,3-3,8.71,8.71,0,0,1,4.32-1.2c3.12,0,8.12,1.92,8.12,9.94v13.83h-4.23V720c0-3.74-1.39-6.91-5.37-6.91a6.08,6.08,0,0,0-5.67,4.22,5.13,5.13,0,0,0-.29,2v14h-4.22Z"/><path class="cls-4" d="M457.83,729.06a11.15,11.15,0,0,0,5.57,1.68c3.07,0,4.51-1.54,4.51-3.46s-1.2-3.12-4.32-4.27c-4.18-1.49-6.15-3.8-6.15-6.58,0-3.74,3-6.82,8-6.82a11.66,11.66,0,0,1,5.71,1.44l-1.05,3.08a9,9,0,0,0-4.75-1.35c-2.5,0-3.89,1.44-3.89,3.17,0,1.92,1.39,2.78,4.41,3.94,4,1.53,6.1,3.55,6.1,7,0,4.08-3.17,7-8.69,7a13.26,13.26,0,0,1-6.53-1.59Z"/><path class="cls-4" d="M479.76,722.53c.1,5.71,3.75,8.06,8,8.06a15.35,15.35,0,0,0,6.44-1.2l.72,3a18.89,18.89,0,0,1-7.73,1.44c-7.16,0-11.43-4.71-11.43-11.72s4.13-12.53,10.9-12.53c7.58,0,9.6,6.68,9.6,10.95a18.21,18.21,0,0,1-.14,2Zm12.39-3c.05-2.69-1.1-6.86-5.86-6.86-4.27,0-6.14,3.93-6.48,6.86Z"/><path class="cls-4" d="M503.81,722.53c.1,5.71,3.75,8.06,8,8.06a15.3,15.3,0,0,0,6.43-1.2l.72,3a18.85,18.85,0,0,1-7.73,1.44c-7.15,0-11.42-4.71-11.42-11.72s4.13-12.53,10.9-12.53c7.58,0,9.6,6.68,9.6,10.95a15.54,15.54,0,0,1-.15,2Zm12.39-3c0-2.69-1.11-6.86-5.86-6.86-4.27,0-6.14,3.93-6.48,6.86Z"/><path class="cls-4" d="M527.86,722.53c.1,5.71,3.74,8.06,8,8.06a15.3,15.3,0,0,0,6.43-1.2l.72,3a18.85,18.85,0,0,1-7.73,1.44c-7.15,0-11.42-4.71-11.42-11.72s4.13-12.53,10.89-12.53c7.59,0,9.61,6.68,9.61,10.95a15.54,15.54,0,0,1-.15,2Zm12.39-3c0-2.69-1.11-6.86-5.86-6.86-4.27,0-6.15,3.93-6.48,6.86Z"/><path class="cls-4" d="M551.91,722.53c.09,5.71,3.74,8.06,8,8.06a15.33,15.33,0,0,0,6.43-1.2l.72,3a18.85,18.85,0,0,1-7.73,1.44c-7.15,0-11.42-4.71-11.42-11.72s4.12-12.53,10.89-12.53c7.59,0,9.6,6.68,9.6,10.95a15.93,15.93,0,0,1-.14,2Zm12.38-3c.05-2.69-1.1-6.86-5.85-6.86-4.28,0-6.15,3.93-6.48,6.86Z"/><path class="cls-4" d="M572.79,730.93a2.82,2.82,0,0,1,2.83-3,3,3,0,0,1,0,5.95A2.81,2.81,0,0,1,572.79,730.93Zm1.2-6.87-.67-23h4.6l-.67,23Z"/><path class="cls-6" d="M110,477a272.23,272.23,0,0,1,102-60l-66,19Z"/><path class="cls-6" d="M48,469a360.24,360.24,0,0,1,82-72c66.74-42.4,128.75-49.12,128-52-.69-2.65-53.1,3.32-109,31-10.88,5.39-20,10.64-27,15a282.46,282.46,0,0,0-74,78Z"/><path class="cls-6" d="M399.53,330.58a290,290,0,0,1,109.11,1.58c7,1.45,12.43,2.92,23.36,5.84,0,0,58.7,15.7,104.68,40.37a17.82,17.82,0,0,1,1.79,1.05c-.14.26-43.64-26-92.47-43.42a397.74,397.74,0,0,0-59-16Z"/><path class="cls-6" d="M533.6,379.52a272.63,272.63,0,0,1,52.63,20.27c30.83,15.72,51.22,35.79,52.17,34.69.47-.55-4.21-5.94-28.4-28.48a158.32,158.32,0,0,0-76.4-26.48Z"/></svg>
