<svg id="Lag_1" data-name="Lag 1" xmlns="http://www.w3.org/2000/svg" xmlns:xlink="http://www.w3.org/1999/xlink" width="1080" height="1920" viewBox="0 0 1080 1920"><defs><style>.cls-1{fill:url(#Ikke-navngivet_forløb_97);}</style><linearGradient id="Ikke-navngivet_forløb_97" x1="540.5" y1="1919.97" x2="540.5" y2="1.03" gradientUnits="userSpaceOnUse"><stop offset="0.1" stop-color="#76ffff"/><stop offset="0.94" stop-color="#f7daf3"/></linearGradient></defs><title>win_screen</title><rect class="cls-1" x="1.03" y="1.03" width="1078.94" height="1918.94"/><path d="M1079.44,1.56V1919.44H1.56V1.56H1079.44M1080.5.5H.5v1920h1080V.5Z"/><path d="M76,263.18,91.21,254q16.11,29.67,37.23,29.67a35.76,35.76,0,0,0,17-4.21,29.86,29.86,0,0,0,12.09-11.3,29.27,29.27,0,0,0,4.15-15q0-9-6.11-17.7-8.41-12-30.76-28.81T96.83,182.12q-9.52-12.69-9.53-27.46a41.72,41.72,0,0,1,5.62-21.36,40,40,0,0,1,15.81-15.2,45.58,45.58,0,0,1,22.15-5.56,47.26,47.26,0,0,1,23.75,6.29q11,6.28,23.37,23.13l-14.65,11.11q-10.12-13.42-17.27-17.7a29.74,29.74,0,0,0-15.56-4.27q-10.88,0-17.76,6.59a21.57,21.57,0,0,0-6.9,16.24,27.63,27.63,0,0,0,2.44,11.35q2.45,5.49,8.91,12,3.54,3.42,23.2,17.95,23.31,17.2,32,30.64t8.66,27q0,19.53-14.83,33.94t-36.07,14.4a53,53,0,0,1-29.66-8.72Q87.19,283.69,76,263.18Z"/><path d="M292.38,117.06l83.74,179.57H356.74L328.5,237.54H251.14l-28,59.09h-20L288,117.06Zm-2.26,38.15-30.77,65h61.39ZM289.7,53.83A26.05,26.05,0,0,1,315.7,80a26,26,0,0,1-52,0,26.05,26.05,0,0,1,26-26.12Zm-.12,12.45a13.35,13.35,0,0,0-9.53,22.78,12.88,12.88,0,0,0,9.53,4,12.69,12.69,0,0,0,9.39-4,13.29,13.29,0,0,0,0-18.83A12.73,12.73,0,0,0,289.58,66.28Z"/><path d="M404,296.63V117.06h37.23q40.28,0,58.47,6.47,26.12,9.15,40.83,31.74T555.2,209.1q0,27-11.66,47.49t-30.27,30.27q-18.61,9.76-52.19,9.77Zm17.21-17h20.75q37.23,0,51.63-4.64a59.56,59.56,0,0,0,31.87-23.72Q537,234.17,537,209.41q0-26-12.57-44.4t-35-25.25q-16.84-5.12-55.54-5.12H421.17Z"/><path d="M663.35,117.06l83.74,179.57H727.71l-28.24-59.09H622.11l-28,59.09h-20L659,117.06Zm-2.26,38.15-30.77,65h61.39Z"/><path d="M775.05,296.63V117.06H779l119.5,137.65V117.06h17.7V296.63h-4l-118.53-136v136Z"/><path d="M974.88,269.77a15,15,0,0,1,15,15.14,14.66,14.66,0,0,1-4.39,10.68,14.9,14.9,0,0,1-21.24,0,15.23,15.23,0,0,1,0-21.42A14.47,14.47,0,0,1,974.88,269.77Zm8.66-157.23V251.7h-17.7V112.54Z"/><path d="M274,397.49V345.78h10.72q11.6,0,16.84,1.86a22.54,22.54,0,0,1,11.76,9.14,27.8,27.8,0,0,1,4.23,15.5A27.3,27.3,0,0,1,314.16,386a21.58,21.58,0,0,1-8.72,8.72q-5.37,2.81-15,2.81Zm5-4.89h6q10.73,0,14.87-1.33a17.2,17.2,0,0,0,9.18-6.83,21.08,21.08,0,0,0,3.34-12.07,22.05,22.05,0,0,0-3.63-12.78,18.23,18.23,0,0,0-10.09-7.28q-4.85-1.47-16-1.47h-3.66Z"/><path d="M326.09,359.24H331V377.1a38,38,0,0,0,.71,9,10.06,10.06,0,0,0,4,5.56,12.3,12.3,0,0,0,7.09,2,12,12,0,0,0,7-2,10.13,10.13,0,0,0,4-5.22c.5-1.48.74-4.61.74-9.39V359.24h5V378q0,7.92-1.85,11.92a14.11,14.11,0,0,1-5.55,6.28,20.25,20.25,0,0,1-18.63,0,13.94,13.94,0,0,1-5.59-6.33q-1.85-4.06-1.85-12.22Z"/><path d="M390.39,344.48h4.92v30.2l17.74-15.44h7.23l-21,18.25,22.26,20h-6.93l-19.27-17.22v17.22h-4.92Z"/><path d="M459.81,365.41a20.53,20.53,0,0,1-.9,27.07,18.6,18.6,0,0,1-14.29,6,19.76,19.76,0,0,1-10.48-2.88l-4.09,4.81-3.13-2.6,4-4.72a19.57,19.57,0,0,1-6.21-14.62,20.31,20.31,0,0,1,5.54-14.11,18.42,18.42,0,0,1,14.3-6.1,19.1,19.1,0,0,1,12.3,4.2l4.08-4.82,3.26,2.62Zm-25.81,24,19.61-23.16a14.23,14.23,0,0,0-16.39-1.16,15,15,0,0,0-5.49,5.7,15.66,15.66,0,0,0-2,7.75,16.05,16.05,0,0,0,1.14,5.92A14.54,14.54,0,0,0,434,389.45Zm22.48-20.13L437.24,392a15.9,15.9,0,0,0,7.32,1.85,14.87,14.87,0,0,0,7.49-1.95,14.16,14.16,0,0,0,5.42-5.54,15.49,15.49,0,0,0,2-7.7A15.71,15.71,0,0,0,456.48,369.32Z"/><path d="M471.71,359.24h5v5.59a17.74,17.74,0,0,1,4.74-4.94,9.38,9.38,0,0,1,5.21-1.63,8.92,8.92,0,0,1,4.35,1.3l-2.56,4.15a6.77,6.77,0,0,0-2.6-.67,7.11,7.11,0,0,0-4.75,2,12.85,12.85,0,0,0-3.48,6.27q-.91,3.27-.91,13.22v12.94h-5Z"/><path d="M527.43,384.8l4.15,2.18a22.51,22.51,0,0,1-4.72,6.47,18.56,18.56,0,0,1-6,3.74,20.9,20.9,0,0,1-7.57,1.29q-9.36,0-14.64-6.14a20.68,20.68,0,0,1-5.27-13.87,20.44,20.44,0,0,1,4.46-13A18.28,18.28,0,0,1,513,358.26a18.87,18.87,0,0,1,15.62,7.41,20.76,20.76,0,0,1,4.23,13.08H498.43a15.53,15.53,0,0,0,4.26,10.93,13.57,13.57,0,0,0,10.17,4.26,16.25,16.25,0,0,0,5.68-1,14.72,14.72,0,0,0,4.7-2.69A22.89,22.89,0,0,0,527.43,384.8Zm0-10.3a16.25,16.25,0,0,0-2.87-6.29,13.48,13.48,0,0,0-5-3.8,15.23,15.23,0,0,0-6.51-1.44,14,14,0,0,0-9.68,3.62,16.37,16.37,0,0,0-4.47,7.91Z"/><path d="M540.16,359.24h5v5.59a17.74,17.74,0,0,1,4.74-4.94,9.37,9.37,0,0,1,5.2-1.63,8.93,8.93,0,0,1,4.36,1.3l-2.56,4.15a6.77,6.77,0,0,0-2.6-.67,7.11,7.11,0,0,0-4.75,2,12.85,12.85,0,0,0-3.48,6.27q-.92,3.27-.91,13.22v12.94h-5Z"/><path d="M616.59,359.24h4.92v30.48q0,8.05-1.41,11.78a15.32,15.32,0,0,1-6.71,8.12,22.07,22.07,0,0,1-11.5,2.85,26.49,26.49,0,0,1-8.84-1.39,17.78,17.78,0,0,1-6.38-3.74,22.47,22.47,0,0,1-4.54-6.86h5.35a14,14,0,0,0,5.63,5.62,18.09,18.09,0,0,0,8.55,1.83,17.66,17.66,0,0,0,8.5-1.87,11.5,11.5,0,0,0,5-4.71c1-1.9,1.48-5,1.48-9.17v-2a18.63,18.63,0,0,1-6.79,5.4,20.18,20.18,0,0,1-18.45-.74,18.55,18.55,0,0,1-7.17-7.05,19.26,19.26,0,0,1-2.54-9.74,19.9,19.9,0,0,1,19.78-19.82,18.4,18.4,0,0,1,8,1.77,22.23,22.23,0,0,1,7.16,5.86ZM602.07,363a15.63,15.63,0,0,0-7.77,2,14.75,14.75,0,0,0-5.63,5.59,15.32,15.32,0,0,0-2,7.72,13.93,13.93,0,0,0,4.22,10.41,15,15,0,0,0,10.94,4.11q6.78,0,10.91-4.08a14.37,14.37,0,0,0,4.13-10.72,15.6,15.6,0,0,0-1.89-7.72,13.86,13.86,0,0,0-5.38-5.36A15,15,0,0,0,602.07,363Z"/><path d="M650.16,358.26a18.91,18.91,0,0,1,14.65,6.4,20.51,20.51,0,0,1-.3,27.82,20.2,20.2,0,0,1-28.73,0,20.47,20.47,0,0,1-.3-27.79A18.92,18.92,0,0,1,650.16,358.26Zm0,4.81a14.17,14.17,0,0,0-10.54,4.54,15.15,15.15,0,0,0-4.41,11,15.56,15.56,0,0,0,2,7.73,14.25,14.25,0,0,0,5.43,5.54,15.46,15.46,0,0,0,15,0,14.25,14.25,0,0,0,5.43-5.54,15.56,15.56,0,0,0,2-7.73,15.12,15.12,0,0,0-4.42-11A14.23,14.23,0,0,0,650.14,363.07Z"/><path d="M685.92,363.78l-2.71-1.55a28.62,28.62,0,0,0,1.79-4.18,19.47,19.47,0,0,0,.67-3.91h-3.09v-9.66h6.36v6a32.13,32.13,0,0,1-.62,7.12A29.37,29.37,0,0,1,685.92,363.78Z"/><path d="M743.64,363.42l-3.16,3.27c-2.63-2.55-5.21-3.83-7.72-3.83a5.86,5.86,0,0,0-4.11,1.58,4.9,4.9,0,0,0-1.71,3.7,5.48,5.48,0,0,0,1.41,3.55q1.41,1.71,5.92,4c3.67,1.9,6.15,3.73,7.47,5.48a10,10,0,0,1,1.94,6,10.82,10.82,0,0,1-3.31,8,11.32,11.32,0,0,1-8.28,3.27,14.37,14.37,0,0,1-6.32-1.45,13.78,13.78,0,0,1-5-4l3.09-3.51q3.78,4.24,8,4.25a7.17,7.17,0,0,0,5-1.9,5.84,5.84,0,0,0,.71-8.23q-1.38-1.6-6.2-4.07c-3.46-1.78-5.8-3.54-7-5.28a10,10,0,0,1-1.87-5.94,9.68,9.68,0,0,1,3-7.24,10.37,10.37,0,0,1,7.52-2.88Q738.29,358.26,743.64,363.42Z"/><path d="M756.65,345h4.92v14.2h7.81v4.26h-7.81v34h-4.92v-34h-6.71v-4.26h6.71Z"/><path d="M778.46,343.49a4.08,4.08,0,1,1-2.83,1.2A3.85,3.85,0,0,1,778.46,343.49ZM776,359.24h4.92v38.25H776Z"/><path d="M790.44,344.48h4.92v53h-4.92Z"/><path d="M810.72,389.76a4.17,4.17,0,0,1,3.06,1.26,4.41,4.41,0,0,1,0,6.17,4.27,4.27,0,0,1-6.12,0,4.35,4.35,0,0,1,3.06-7.43Zm2.5-45.28v40.07h-5.1V344.48Z"/><path d="M57.77,555.89V512.8h.94l28.68,33v-33h4.25v43.09h-1L62.23,523.26v32.63Z"/><path d="M116.54,523.2a15.77,15.77,0,0,1,12.21,5.33,17.12,17.12,0,0,1-.25,23.19,16.86,16.86,0,0,1-24,0,17.08,17.08,0,0,1-.25-23.16A15.77,15.77,0,0,1,116.54,523.2Zm0,4a11.83,11.83,0,0,0-8.79,3.78,12.64,12.64,0,0,0-3.68,9.14,13,13,0,0,0,1.68,6.45,11.82,11.82,0,0,0,4.53,4.61,12.84,12.84,0,0,0,12.52,0,11.88,11.88,0,0,0,4.53-4.61,13,13,0,0,0,1.67-6.45A12.61,12.61,0,0,0,125.3,531,11.84,11.84,0,0,0,116.53,527.21Z"/><path d="M168.22,524h4.1v25.4q0,6.71-1.17,9.81a12.75,12.75,0,0,1-5.59,6.77,18.42,18.42,0,0,1-9.58,2.37,22,22,0,0,1-7.37-1.16,14.73,14.73,0,0,1-5.32-3.11,18.53,18.53,0,0,1-3.78-5.72H144a11.83,11.83,0,0,0,4.7,4.69,15.14,15.14,0,0,0,7.13,1.52,14.76,14.76,0,0,0,7.08-1.56A9.53,9.53,0,0,0,167,559.1c.82-1.57,1.23-4.12,1.23-7.63v-1.64a15.45,15.45,0,0,1-5.66,4.49,16.43,16.43,0,0,1-7.09,1.57,16.6,16.6,0,0,1-8.27-2.18,15.47,15.47,0,0,1-6-5.88,16.56,16.56,0,0,1,14.37-24.63,15.18,15.18,0,0,1,6.67,1.48,18.23,18.23,0,0,1,6,4.87Zm-12.1,3.13a12.89,12.89,0,0,0-6.47,1.69,12.18,12.18,0,0,0-4.69,4.65,12.8,12.8,0,0,0-1.7,6.43,11.6,11.6,0,0,0,3.52,8.68,13.88,13.88,0,0,0,18.21,0,12,12,0,0,0,3.44-8.94,13,13,0,0,0-1.58-6.43,11.62,11.62,0,0,0-4.49-4.47A12.49,12.49,0,0,0,156.12,527.15Z"/><path d="M180.5,511.71h4.1v44.18h-4.1Z"/><path d="M220,545.32l3.46,1.81a18.93,18.93,0,0,1-3.93,5.39,15.55,15.55,0,0,1-5,3.12,17.27,17.27,0,0,1-6.3,1.07q-7.8,0-12.2-5.11a17.26,17.26,0,0,1-4.4-11.56,17,17,0,0,1,3.73-10.81,15.22,15.22,0,0,1,12.63-6,15.71,15.71,0,0,1,13,6.18,17.24,17.24,0,0,1,3.52,10.9H195.79a13,13,0,0,0,3.55,9.1,11.31,11.31,0,0,0,8.48,3.55,13.67,13.67,0,0,0,4.73-.84,12.67,12.67,0,0,0,3.92-2.25A18.9,18.9,0,0,0,220,545.32Zm0-8.59a13.56,13.56,0,0,0-2.39-5.24,11.34,11.34,0,0,0-4.15-3.17,12.72,12.72,0,0,0-5.43-1.2,11.66,11.66,0,0,0-8.06,3,13.55,13.55,0,0,0-3.73,6.59Z"/><path d="M282.42,524h4.1v25.4q0,6.71-1.17,9.81a12.77,12.77,0,0,1-5.6,6.77,18.42,18.42,0,0,1-9.58,2.37,22,22,0,0,1-7.37-1.16,14.6,14.6,0,0,1-5.31-3.11,18.53,18.53,0,0,1-3.78-5.72h4.45a11.81,11.81,0,0,0,4.69,4.69,15.17,15.17,0,0,0,7.13,1.52,14.7,14.7,0,0,0,7.08-1.56,9.61,9.61,0,0,0,4.13-3.93c.82-1.57,1.23-4.12,1.23-7.63v-1.64a15.53,15.53,0,0,1-5.66,4.49,16.81,16.81,0,0,1-15.37-.61,15.44,15.44,0,0,1-6-5.88,16,16,0,0,1-2.11-8.11,16.56,16.56,0,0,1,16.48-16.52,15.21,15.21,0,0,1,6.67,1.48,18.43,18.43,0,0,1,6,4.87Zm-12.1,3.13a12.9,12.9,0,0,0-6.48,1.69,12.16,12.16,0,0,0-4.68,4.65,12.7,12.7,0,0,0-1.7,6.43A11.63,11.63,0,0,0,261,548.6a13.88,13.88,0,0,0,18.21,0,12,12,0,0,0,3.44-8.94,13,13,0,0,0-1.58-6.43,11.59,11.59,0,0,0-4.48-4.47A12.54,12.54,0,0,0,270.32,527.15Z"/><path d="M327.07,524v31.87H323v-5.48a17.51,17.51,0,0,1-5.78,4.72,15.72,15.72,0,0,1-7,1.58,15.55,15.55,0,0,1-11.56-4.91,16.46,16.46,0,0,1-4.79-11.93,16.13,16.13,0,0,1,4.84-11.78,15.76,15.76,0,0,1,11.63-4.89,15,15,0,0,1,7.1,1.67,16.08,16.08,0,0,1,5.58,5V524Zm-16.4,3.13a12.35,12.35,0,0,0-10.93,6.41,12.92,12.92,0,0,0,0,12.88,12.61,12.61,0,0,0,4.64,4.78,12.11,12.11,0,0,0,6.24,1.71,12.8,12.8,0,0,0,6.38-1.69,11.93,11.93,0,0,0,4.64-4.6,13.14,13.14,0,0,0,1.63-6.52,12.69,12.69,0,0,0-3.65-9.25A12.07,12.07,0,0,0,310.67,527.15Z"/><path d="M336.29,524h4.11v5.71a17.19,17.19,0,0,1,5.44-4.91,13.46,13.46,0,0,1,6.51-1.62,11.29,11.29,0,0,1,6.34,1.81,10.77,10.77,0,0,1,4.09,4.9q1.32,3.08,1.32,9.58v16.4H360v-15.2a37.74,37.74,0,0,0-.46-7.36,8.11,8.11,0,0,0-2.74-4.76,8.25,8.25,0,0,0-5.27-1.59,10.14,10.14,0,0,0-6.67,2.46,11.57,11.57,0,0,0-3.88,6.09,42.51,42.51,0,0,0-.58,8.67v11.69h-4.11Z"/><path d="M400.37,524h4.1v25.4q0,6.71-1.17,9.81a12.77,12.77,0,0,1-5.6,6.77,18.42,18.42,0,0,1-9.58,2.37,22,22,0,0,1-7.37-1.16,14.73,14.73,0,0,1-5.32-3.11,18.7,18.7,0,0,1-3.77-5.72h4.45a11.81,11.81,0,0,0,4.69,4.69,15.17,15.17,0,0,0,7.13,1.52A14.7,14.7,0,0,0,395,563a9.53,9.53,0,0,0,4.12-3.93c.83-1.57,1.24-4.12,1.24-7.63v-1.64a15.62,15.62,0,0,1-5.66,4.49,16.81,16.81,0,0,1-15.37-.61,15.44,15.44,0,0,1-6-5.88,16,16,0,0,1-2.11-8.11,16.56,16.56,0,0,1,16.48-16.52,15.21,15.21,0,0,1,6.67,1.48,18.43,18.43,0,0,1,6,4.87Zm-12.1,3.13a12.9,12.9,0,0,0-6.48,1.69,12.25,12.25,0,0,0-4.69,4.65,12.79,12.79,0,0,0-1.69,6.43,11.63,11.63,0,0,0,3.51,8.68,13.88,13.88,0,0,0,18.21,0,12,12,0,0,0,3.44-8.94,13,13,0,0,0-1.58-6.43,11.66,11.66,0,0,0-4.48-4.47A12.54,12.54,0,0,0,388.27,527.15Z"/><path d="M440.09,545.32l3.46,1.81a18.56,18.56,0,0,1-3.93,5.39,15.61,15.61,0,0,1-5,3.12,17.36,17.36,0,0,1-6.31,1.07q-7.8,0-12.2-5.11A17.26,17.26,0,0,1,411.7,540a17.08,17.08,0,0,1,3.73-10.81,15.23,15.23,0,0,1,12.64-6,15.74,15.74,0,0,1,13,6.18,17.29,17.29,0,0,1,3.51,10.9H415.92a13,13,0,0,0,3.55,9.1,11.32,11.32,0,0,0,8.48,3.55,13.77,13.77,0,0,0,4.74-.84,12.61,12.61,0,0,0,3.91-2.25A18.9,18.9,0,0,0,440.09,545.32Zm0-8.59a13.41,13.41,0,0,0-2.39-5.24,11.25,11.25,0,0,0-4.15-3.17,12.71,12.71,0,0,0-5.42-1.2,11.71,11.71,0,0,0-8.07,3,13.62,13.62,0,0,0-3.73,6.59Z"/><path d="M488.19,511.71v4a10,10,0,0,0-3.86-1,3.82,3.82,0,0,0-2,.48,2.13,2.13,0,0,0-1,1.12,15,15,0,0,0-.21,3.35V524h6.65v3.54h-6.65l0,28.33H477V527.56h-4.19V524H477v-5a13.56,13.56,0,0,1,.63-4.9,5,5,0,0,1,2.14-2.35,7,7,0,0,1,3.65-.9A17.51,17.51,0,0,1,488.19,511.71Z"/><path d="M525.66,524v31.87h-4v-5.48a17.61,17.61,0,0,1-5.78,4.72,15.72,15.72,0,0,1-7,1.58,15.54,15.54,0,0,1-11.56-4.91,16.46,16.46,0,0,1-4.79-11.93,16.13,16.13,0,0,1,4.84-11.78,15.75,15.75,0,0,1,11.63-4.89,15,15,0,0,1,7.1,1.67,16.08,16.08,0,0,1,5.58,5V524Zm-16.39,3.13a12.35,12.35,0,0,0-10.93,6.41,12.92,12.92,0,0,0,0,12.88,12.54,12.54,0,0,0,4.64,4.78,12.11,12.11,0,0,0,6.24,1.71,12.8,12.8,0,0,0,6.38-1.69,11.93,11.93,0,0,0,4.64-4.6,13.14,13.14,0,0,0,1.63-6.52,12.69,12.69,0,0,0-3.65-9.25A12.07,12.07,0,0,0,509.27,527.15Zm.52-20.8a6.25,6.25,0,1,1-4.41,1.83A6,6,0,0,1,509.79,506.35Zm0,3a3.21,3.21,0,1,0,0,6.41,3,3,0,0,0,2.25-.94,3.19,3.19,0,0,0,0-4.52A3,3,0,0,0,509.76,509.34Z"/><path d="M533.34,524h4.19v4.65a14.87,14.87,0,0,1,4-4.11,7.81,7.81,0,0,1,4.34-1.36,7.5,7.5,0,0,1,3.63,1.08l-2.14,3.46a5.69,5.69,0,0,0-2.16-.56,5.91,5.91,0,0,0-4,1.69,10.66,10.66,0,0,0-2.9,5.22q-.76,2.73-.76,11v10.78h-4.19Z"/><path d="M572.74,524h4.36l10.7,23.23L598.37,524h4.4l-14.59,31.87h-.76Z"/><path d="M610.43,510.89a3.23,3.23,0,0,1,2.39,1,3.27,3.27,0,0,1,1,2.4,3.4,3.4,0,0,1-3.38,3.37,3.2,3.2,0,0,1-2.36-1,3.23,3.23,0,0,1-1-2.37,3.27,3.27,0,0,1,1-2.4A3.2,3.2,0,0,1,610.43,510.89Zm-2,13.13h4.11v31.87h-4.11Z"/><path d="M659.86,527.5l-2.63,2.73c-2.2-2.13-4.34-3.2-6.44-3.2a4.86,4.86,0,0,0-3.42,1.32,4.08,4.08,0,0,0-1.42,3.08,4.58,4.58,0,0,0,1.17,3,16.81,16.81,0,0,0,4.93,3.37c3.06,1.58,5.13,3.1,6.23,4.57a8.28,8.28,0,0,1,1.61,5,9,9,0,0,1-2.75,6.65,9.45,9.45,0,0,1-6.9,2.72,12.09,12.09,0,0,1-5.27-1.2,11.44,11.44,0,0,1-4.15-3.31l2.58-2.93c2.09,2.36,4.32,3.55,6.67,3.55a6,6,0,0,0,4.19-1.59,4.86,4.86,0,0,0,1.74-3.72,4.73,4.73,0,0,0-1.15-3.13,18.33,18.33,0,0,0-5.16-3.4q-4.32-2.22-5.88-4.4a8.3,8.3,0,0,1-1.55-5,8,8,0,0,1,2.48-6,8.63,8.63,0,0,1,6.26-2.4Q655.41,523.2,659.86,527.5Z"/><path d="M694,545.32l3.45,1.81a18.56,18.56,0,0,1-3.93,5.39,15.4,15.4,0,0,1-5,3.12,17.36,17.36,0,0,1-6.31,1.07q-7.8,0-12.19-5.11a17.47,17.47,0,0,1-.68-22.37,15.23,15.23,0,0,1,12.64-6,15.74,15.74,0,0,1,13,6.18,17.24,17.24,0,0,1,3.52,10.9H669.8a13,13,0,0,0,3.54,9.1,11.32,11.32,0,0,0,8.48,3.55,13.77,13.77,0,0,0,4.74-.84,12.78,12.78,0,0,0,3.92-2.25A19.43,19.43,0,0,0,694,545.32Zm0-8.59a13.56,13.56,0,0,0-2.4-5.24,11.17,11.17,0,0,0-4.15-3.17,12.71,12.71,0,0,0-5.42-1.2,11.71,11.71,0,0,0-8.07,3,13.62,13.62,0,0,0-3.72,6.59Z"/><path d="M706.12,524h4.11v5.71a17.19,17.19,0,0,1,5.44-4.91,13.46,13.46,0,0,1,6.51-1.62,11.29,11.29,0,0,1,6.34,1.81,10.77,10.77,0,0,1,4.09,4.9q1.32,3.08,1.32,9.58v16.4h-4.1v-15.2a37.74,37.74,0,0,0-.46-7.36,8.11,8.11,0,0,0-2.74-4.76,8.25,8.25,0,0,0-5.27-1.59,10.14,10.14,0,0,0-6.67,2.46,11.57,11.57,0,0,0-3.88,6.09,42.51,42.51,0,0,0-.58,8.67v11.69h-4.11Z"/><path d="M774.53,511.71v44.18h-4v-5.48a17.54,17.54,0,0,1-5.79,4.72,15.68,15.68,0,0,1-7,1.58,15.52,15.52,0,0,1-11.56-4.91,16.46,16.46,0,0,1-4.79-11.93,16.16,16.16,0,0,1,4.83-11.78,15.78,15.78,0,0,1,11.63-4.89,15,15,0,0,1,7.11,1.67,16.08,16.08,0,0,1,5.58,5V511.71Zm-16.39,15.44a12.35,12.35,0,0,0-10.93,6.41,12.92,12.92,0,0,0,0,12.88,12.59,12.59,0,0,0,4.63,4.78,12.15,12.15,0,0,0,6.25,1.71,12.83,12.83,0,0,0,6.38-1.69,11.93,11.93,0,0,0,4.64-4.6,13.14,13.14,0,0,0,1.62-6.52,12.68,12.68,0,0,0-3.64-9.25A12.07,12.07,0,0,0,758.14,527.15Z"/><path d="M787.39,512.18h4.11V524H798v3.54h-6.5v28.33h-4.11V527.56H781.8V524h5.59Z"/><path d="M827.23,555.89V511.71h4.1V529.5a17.4,17.4,0,0,1,5.77-4.74,15.72,15.72,0,0,1,7-1.56,15.54,15.54,0,0,1,11.55,4.9A16.44,16.44,0,0,1,860.43,540a16.2,16.2,0,0,1-4.83,11.81A15.76,15.76,0,0,1,844,556.71a14.81,14.81,0,0,1-7.06-1.67,16.46,16.46,0,0,1-5.59-5v5.86Zm16.41-3.13a12.39,12.39,0,0,0,10.92-6.42,13,13,0,0,0,0-12.92,12.55,12.55,0,0,0-4.63-4.79,12.06,12.06,0,0,0-6.21-1.71,12.81,12.81,0,0,0-6.39,1.71,11.87,11.87,0,0,0-4.65,4.62,13.15,13.15,0,0,0-1.62,6.53,12.71,12.71,0,0,0,3.64,9.26A12,12,0,0,0,843.64,552.76Z"/><path d="M869.32,510.89a3.23,3.23,0,0,1,2.39,1,3.27,3.27,0,0,1,1,2.4,3.37,3.37,0,0,1-6.74,0,3.27,3.27,0,0,1,1-2.4A3.22,3.22,0,0,1,869.32,510.89Zm-2,13.13h4.1v31.87h-4.1Z"/><path d="M879.29,511.71h4.1v44.18h-4.1Z"/><path d="M891.3,511.71h4.11v44.18H891.3Z"/><path d="M930.77,545.32l3.45,1.81a18.56,18.56,0,0,1-3.93,5.39,15.4,15.4,0,0,1-5,3.12,17.34,17.34,0,0,1-6.3,1.07q-7.8,0-12.2-5.11a17.26,17.26,0,0,1-4.4-11.56,17.07,17.07,0,0,1,3.72-10.81,15.23,15.23,0,0,1,12.64-6,15.71,15.71,0,0,1,13,6.18,17.24,17.24,0,0,1,3.52,10.9H906.6a13,13,0,0,0,3.55,9.1,11.29,11.29,0,0,0,8.47,3.55,13.69,13.69,0,0,0,4.74-.84,12.67,12.67,0,0,0,3.92-2.25A19.16,19.16,0,0,0,930.77,545.32Zm0-8.59a13.7,13.7,0,0,0-2.39-5.24,11.34,11.34,0,0,0-4.15-3.17,12.76,12.76,0,0,0-5.43-1.2,11.71,11.71,0,0,0-8.07,3,13.62,13.62,0,0,0-3.72,6.59Z"/><path d="M974.74,511.71v44.18h-4v-5.48a17.54,17.54,0,0,1-5.79,4.72,15.68,15.68,0,0,1-7,1.58,15.52,15.52,0,0,1-11.56-4.91,16.46,16.46,0,0,1-4.79-11.93,16.16,16.16,0,0,1,4.83-11.78A15.78,15.78,0,0,1,958,523.2a15,15,0,0,1,7.11,1.67,16.08,16.08,0,0,1,5.58,5V511.71Zm-16.39,15.44a12.35,12.35,0,0,0-10.93,6.41,12.92,12.92,0,0,0,0,12.88,12.59,12.59,0,0,0,4.63,4.78,12.15,12.15,0,0,0,6.25,1.71,12.83,12.83,0,0,0,6.38-1.69,11.93,11.93,0,0,0,4.64-4.6,13.14,13.14,0,0,0,1.62-6.52,12.68,12.68,0,0,0-3.64-9.25A12.07,12.07,0,0,0,958.35,527.15Z"/><path d="M1010.87,545.32l3.45,1.81a18.56,18.56,0,0,1-3.93,5.39,15.4,15.4,0,0,1-5,3.12,17.36,17.36,0,0,1-6.31,1.07q-7.8,0-12.19-5.11a17.47,17.47,0,0,1-.68-22.37,15.23,15.23,0,0,1,12.64-6,15.74,15.74,0,0,1,13,6.18,17.24,17.24,0,0,1,3.52,10.9H986.7a13,13,0,0,0,3.54,9.1,11.32,11.32,0,0,0,8.48,3.55,13.77,13.77,0,0,0,4.74-.84,12.61,12.61,0,0,0,3.91-2.25A19.15,19.15,0,0,0,1010.87,545.32Zm0-8.59a13.56,13.56,0,0,0-2.4-5.24,11.25,11.25,0,0,0-4.15-3.17,12.71,12.71,0,0,0-5.42-1.2,11.71,11.71,0,0,0-8.07,3,13.62,13.62,0,0,0-3.72,6.59Z"/><path d="M1021.47,524h4.19v4.65a14.75,14.75,0,0,1,4-4.11,7.76,7.76,0,0,1,4.33-1.36,7.5,7.5,0,0,1,3.63,1.08l-2.13,3.46a5.78,5.78,0,0,0-2.17-.56,5.91,5.91,0,0,0-4,1.69,10.66,10.66,0,0,0-2.9,5.22q-.76,2.73-.76,11v10.78h-4.19Z"/><path d="M73.1,599.5l-2.64,2.73C68.27,600.1,66.12,599,64,599a4.86,4.86,0,0,0-3.43,1.32,4.08,4.08,0,0,0-1.42,3.08,4.58,4.58,0,0,0,1.17,3,16.75,16.75,0,0,0,4.94,3.37q4.58,2.37,6.22,4.57a8.29,8.29,0,0,1,1.62,5A9,9,0,0,1,70.37,626a9.45,9.45,0,0,1-6.9,2.72,12.09,12.09,0,0,1-5.27-1.2,11.44,11.44,0,0,1-4.15-3.31l2.58-2.93c2.1,2.36,4.32,3.55,6.67,3.55a6,6,0,0,0,4.2-1.59,4.89,4.89,0,0,0,1.73-3.72,4.73,4.73,0,0,0-1.15-3.13,18.33,18.33,0,0,0-5.16-3.4q-4.32-2.22-5.88-4.4a8.3,8.3,0,0,1-1.55-5,8,8,0,0,1,2.48-6,8.63,8.63,0,0,1,6.26-2.4Q68.64,595.2,73.1,599.5Z"/><path d="M95.45,595.2a15.77,15.77,0,0,1,12.21,5.33,17.12,17.12,0,0,1-.25,23.19,15.61,15.61,0,0,1-12,5,15.64,15.64,0,0,1-12-5,17.08,17.08,0,0,1-.25-23.16A15.77,15.77,0,0,1,95.45,595.2Zm0,4A11.83,11.83,0,0,0,86.64,603,12.63,12.63,0,0,0,83,612.13a13.09,13.09,0,0,0,1.67,6.45,11.88,11.88,0,0,0,4.53,4.61,12.85,12.85,0,0,0,12.53,0,11.79,11.79,0,0,0,4.52-4.61,13,13,0,0,0,1.68-6.45,12.61,12.61,0,0,0-3.69-9.14A11.84,11.84,0,0,0,95.43,599.21Z"/><path d="M119.62,596h4.1v5.5a15.9,15.9,0,0,1,4.4-4.45,12.45,12.45,0,0,1,6.54-1.87,11,11,0,0,1,4.4.9,9.57,9.57,0,0,1,3.4,2.42,13,13,0,0,1,2.29,4.32,15.1,15.1,0,0,1,5.12-5.7,12.13,12.13,0,0,1,6.6-1.94,10.27,10.27,0,0,1,5.83,1.67,9.92,9.92,0,0,1,3.76,4.65c.82,2,1.23,5,1.23,9v17.4H163.1v-17.4a23,23,0,0,0-.73-7,6.35,6.35,0,0,0-2.5-3.09,7.48,7.48,0,0,0-4.22-1.17,9.21,9.21,0,0,0-5.45,1.76,10.1,10.1,0,0,0-3.6,4.69q-1.14,2.93-1.14,9.78v12.48h-4.1V611.57c0-3.84-.24-6.46-.72-7.83a6.52,6.52,0,0,0-2.51-3.31,7.22,7.22,0,0,0-4.24-1.25,9.18,9.18,0,0,0-5.32,1.71,10.21,10.21,0,0,0-3.66,4.62q-1.18,2.9-1.19,8.88v13.5h-4.1Z"/><path d="M192.82,596h4.37l10.69,23.23L218.46,596h4.39l-14.59,31.87h-.76Z"/><path d="M230.51,582.89a3.23,3.23,0,0,1,2.39,1,3.27,3.27,0,0,1,1,2.4,3.4,3.4,0,0,1-3.38,3.37,3.2,3.2,0,0,1-2.36-1,3.23,3.23,0,0,1-1-2.37,3.27,3.27,0,0,1,1-2.4A3.2,3.2,0,0,1,230.51,582.89Zm-2,13.13h4.11v31.87h-4.11Z"/><path d="M261,583.71h4.1v18a17.51,17.51,0,0,1,5.48-4.91,13.37,13.37,0,0,1,6.48-1.62,11.31,11.31,0,0,1,6.34,1.81,10.89,10.89,0,0,1,4.09,4.88c.88,2,1.31,5.24,1.31,9.6v16.4h-4.1v-15.2a38.27,38.27,0,0,0-.44-7.36,8.3,8.3,0,0,0-2.77-4.76,8.19,8.19,0,0,0-5.25-1.59,10.12,10.12,0,0,0-6.67,2.46,11.51,11.51,0,0,0-3.88,6.09,42,42,0,0,0-.59,8.67v11.69H261Z"/><path d="M324.44,617.32l3.46,1.81a18.93,18.93,0,0,1-3.93,5.39,15.55,15.55,0,0,1-5,3.12,17.31,17.31,0,0,1-6.3,1.07q-7.8,0-12.2-5.11a17.26,17.26,0,0,1-4.4-11.56,17.07,17.07,0,0,1,3.72-10.81,15.23,15.23,0,0,1,12.64-6,15.71,15.71,0,0,1,13,6.18,17.24,17.24,0,0,1,3.52,10.9H300.27a13,13,0,0,0,3.55,9.1,11.31,11.31,0,0,0,8.48,3.55,13.67,13.67,0,0,0,4.73-.84,12.67,12.67,0,0,0,3.92-2.25A19.16,19.16,0,0,0,324.44,617.32Zm0-8.59a13.56,13.56,0,0,0-2.39-5.24,11.34,11.34,0,0,0-4.15-3.17,12.72,12.72,0,0,0-5.43-1.2,11.71,11.71,0,0,0-8.07,3,13.62,13.62,0,0,0-3.72,6.59Z"/><path d="M336,583.71h4.1v44.18H336Z"/><path d="M364.63,599.5,362,602.23q-3.3-3.19-6.43-3.2a4.86,4.86,0,0,0-3.43,1.32,4.08,4.08,0,0,0-1.42,3.08,4.58,4.58,0,0,0,1.17,3,16.75,16.75,0,0,0,4.94,3.37q4.57,2.37,6.22,4.57a8.28,8.28,0,0,1,1.61,5,9,9,0,0,1-2.75,6.65,9.45,9.45,0,0,1-6.9,2.72,12.09,12.09,0,0,1-5.27-1.2,11.44,11.44,0,0,1-4.15-3.31l2.58-2.93c2.09,2.36,4.32,3.55,6.67,3.55a6,6,0,0,0,4.2-1.59,4.89,4.89,0,0,0,1.73-3.72,4.73,4.73,0,0,0-1.15-3.13,18.33,18.33,0,0,0-5.16-3.4q-4.32-2.22-5.88-4.4a8.3,8.3,0,0,1-1.55-5,8,8,0,0,1,2.48-6,8.63,8.63,0,0,1,6.26-2.4Q360.18,595.2,364.63,599.5Z"/><path d="M375.47,584.18h4.11V596h6.5v3.54h-6.5v28.33h-4.11V599.56h-5.59V596h5.59Z"/><path d="M413.56,582.89a3.39,3.39,0,0,1,0,6.77,3.2,3.2,0,0,1-2.36-1,3.23,3.23,0,0,1-1-2.37,3.27,3.27,0,0,1,1-2.4A3.2,3.2,0,0,1,413.56,582.89Zm-2,13.13h4.1v31.87h-4.1Z"/><path d="M424.13,583.71h4.1v25.17L443,596h6l-17.52,15.2,18.54,16.67h-5.77l-16-14.35v14.35h-4.1Z"/><path d="M454.24,583.71h4.1v25.17L473.12,596h6l-17.51,15.2,18.54,16.67H474.4l-16.06-14.35v14.35h-4.1Z"/><path d="M511.22,617.32l3.46,1.81a18.56,18.56,0,0,1-3.93,5.39,15.4,15.4,0,0,1-5,3.12,17.36,17.36,0,0,1-6.31,1.07q-7.8,0-12.2-5.11A17.25,17.25,0,0,1,482.84,612a17.07,17.07,0,0,1,3.72-10.81,15.23,15.23,0,0,1,12.64-6,15.74,15.74,0,0,1,13,6.18,17.3,17.3,0,0,1,3.52,10.9H487.05a13,13,0,0,0,3.55,9.1,11.32,11.32,0,0,0,8.48,3.55,13.77,13.77,0,0,0,4.74-.84,12.61,12.61,0,0,0,3.91-2.25A18.9,18.9,0,0,0,511.22,617.32Zm0-8.59a13.41,13.41,0,0,0-2.39-5.24,11.25,11.25,0,0,0-4.15-3.17,12.71,12.71,0,0,0-5.42-1.2,11.71,11.71,0,0,0-8.07,3,13.7,13.7,0,0,0-3.73,6.59Z"/><path d="M540.28,596h4.36l10.7,23.23L565.91,596h4.39l-14.59,31.87H555Z"/><path d="M578,582.89a3.23,3.23,0,0,1,2.39,1,3.27,3.27,0,0,1,1,2.4,3.37,3.37,0,0,1-6.74,0,3.27,3.27,0,0,1,1-2.4A3.2,3.2,0,0,1,578,582.89Zm-2,13.13H580v31.87h-4.1Z"/><path d="M587.94,583.71H592v44.18h-4.1Z"/><path d="M636.5,599.5l-2.63,2.73c-2.2-2.13-4.34-3.2-6.44-3.2a4.86,4.86,0,0,0-3.42,1.32,4.08,4.08,0,0,0-1.42,3.08,4.58,4.58,0,0,0,1.17,3,16.66,16.66,0,0,0,4.93,3.37c3.06,1.58,5.13,3.1,6.23,4.57a8.28,8.28,0,0,1,1.61,5,9,9,0,0,1-2.76,6.65,9.41,9.41,0,0,1-6.89,2.72,12.09,12.09,0,0,1-5.27-1.2,11.44,11.44,0,0,1-4.15-3.31l2.58-2.93c2.09,2.36,4.32,3.55,6.67,3.55a6,6,0,0,0,4.19-1.59,4.86,4.86,0,0,0,1.74-3.72,4.79,4.79,0,0,0-1.15-3.13,18.27,18.27,0,0,0-5.17-3.4q-4.3-2.22-5.87-4.4a8.3,8.3,0,0,1-1.55-5,8,8,0,0,1,2.48-6,8.63,8.63,0,0,1,6.26-2.4Q632.05,595.2,636.5,599.5Z"/><path d="M670.61,617.32l3.45,1.81a18.56,18.56,0,0,1-3.93,5.39,15.4,15.4,0,0,1-5,3.12,17.36,17.36,0,0,1-6.31,1.07q-7.8,0-12.19-5.11a17.47,17.47,0,0,1-.68-22.37,15.23,15.23,0,0,1,12.64-6,15.74,15.74,0,0,1,13,6.18,17.24,17.24,0,0,1,3.52,10.9H646.44a13,13,0,0,0,3.54,9.1,11.32,11.32,0,0,0,8.48,3.55,13.77,13.77,0,0,0,4.74-.84,12.61,12.61,0,0,0,3.91-2.25A19.15,19.15,0,0,0,670.61,617.32Zm0-8.59a13.56,13.56,0,0,0-2.4-5.24,11.25,11.25,0,0,0-4.15-3.17,12.71,12.71,0,0,0-5.42-1.2,11.71,11.71,0,0,0-8.07,3,13.62,13.62,0,0,0-3.72,6.59Z"/><path d="M687.28,621.45a3.63,3.63,0,0,1,2.54,6.19,3.56,3.56,0,0,1-5.09,0,3.62,3.62,0,0,1,2.55-6.19Z"/><path d="M718,627.89l6.17-43.09h.7l17.52,35.36,17.35-35.36h.69l6.2,43.09h-4.22l-4.26-30.82-15.24,30.82h-1.1l-15.42-31-4.23,31Z"/><path d="M806.18,596v31.87h-4v-5.48a17.54,17.54,0,0,1-5.79,4.72,15.72,15.72,0,0,1-7,1.58,15.52,15.52,0,0,1-11.55-4.91A16.42,16.42,0,0,1,773,611.87a16.16,16.16,0,0,1,4.83-11.78,15.76,15.76,0,0,1,11.63-4.89,15,15,0,0,1,7.11,1.67,16.16,16.16,0,0,1,5.58,5V596Zm-16.39,3.13a12.35,12.35,0,0,0-10.93,6.41,12.95,12.95,0,0,0,0,12.88,12.61,12.61,0,0,0,4.64,4.78,12.12,12.12,0,0,0,6.25,1.71,12.83,12.83,0,0,0,6.38-1.69,12,12,0,0,0,4.64-4.6,13.14,13.14,0,0,0,1.62-6.52,12.68,12.68,0,0,0-3.64-9.25A12.07,12.07,0,0,0,789.79,599.15Zm.51-20.8a6.25,6.25,0,1,1-4.41,1.83A6,6,0,0,1,790.3,578.35Zm0,3a3.21,3.21,0,1,0,2.26,5.47,3.21,3.21,0,0,0,0-4.52A3.08,3.08,0,0,0,790.27,581.34Z"/><path d="M831.43,599.5l-2.63,2.73c-2.2-2.13-4.34-3.2-6.44-3.2a4.86,4.86,0,0,0-3.42,1.32,4.08,4.08,0,0,0-1.42,3.08,4.58,4.58,0,0,0,1.17,3,16.66,16.66,0,0,0,4.93,3.37c3.06,1.58,5.13,3.1,6.23,4.57a8.35,8.35,0,0,1,1.61,5A9,9,0,0,1,828.7,626a9.41,9.41,0,0,1-6.89,2.72,12.06,12.06,0,0,1-5.27-1.2,11.44,11.44,0,0,1-4.15-3.31l2.58-2.93c2.09,2.36,4.32,3.55,6.66,3.55a6,6,0,0,0,4.2-1.59,4.86,4.86,0,0,0,1.74-3.72,4.79,4.79,0,0,0-1.15-3.13,18.27,18.27,0,0,0-5.17-3.4q-4.31-2.22-5.87-4.4a8.23,8.23,0,0,1-1.55-5,8,8,0,0,1,2.48-6,8.63,8.63,0,0,1,6.26-2.4Q827,595.2,831.43,599.5Z"/><path d="M838.67,583.71h4.1v25.17L857.55,596h6l-17.52,15.2,18.55,16.67h-5.78l-16.05-14.35v14.35h-4.1Z"/><path d="M895.65,617.32l3.46,1.81a18.56,18.56,0,0,1-3.93,5.39,15.61,15.61,0,0,1-5,3.12,17.36,17.36,0,0,1-6.31,1.07q-7.8,0-12.2-5.11a17.26,17.26,0,0,1-4.4-11.56A17,17,0,0,1,871,601.23a15.22,15.22,0,0,1,12.64-6,15.74,15.74,0,0,1,13,6.18,17.29,17.29,0,0,1,3.51,10.9H871.48a13,13,0,0,0,3.55,9.1,11.32,11.32,0,0,0,8.48,3.55,13.77,13.77,0,0,0,4.74-.84,12.61,12.61,0,0,0,3.91-2.25A18.9,18.9,0,0,0,895.65,617.32Zm0-8.59a13.56,13.56,0,0,0-2.39-5.24,11.34,11.34,0,0,0-4.15-3.17,12.72,12.72,0,0,0-5.43-1.2,11.7,11.7,0,0,0-8.06,3,13.62,13.62,0,0,0-3.73,6.59Z"/><path d="M924.7,596h4.37l10.7,23.23L950.34,596h4.39l-14.59,31.87h-.76Z"/><path d="M987.81,617.32l3.46,1.81a18.93,18.93,0,0,1-3.93,5.39,15.55,15.55,0,0,1-5,3.12,17.34,17.34,0,0,1-6.3,1.07q-7.8,0-12.2-5.11a17.26,17.26,0,0,1-4.4-11.56,17.07,17.07,0,0,1,3.72-10.81,15.23,15.23,0,0,1,12.64-6,15.71,15.71,0,0,1,13,6.18,17.24,17.24,0,0,1,3.52,10.9H963.64a13,13,0,0,0,3.55,9.1,11.31,11.31,0,0,0,8.48,3.55,13.67,13.67,0,0,0,4.73-.84,12.67,12.67,0,0,0,3.92-2.25A19.16,19.16,0,0,0,987.81,617.32Zm0-8.59a13.7,13.7,0,0,0-2.39-5.24,11.34,11.34,0,0,0-4.15-3.17,12.72,12.72,0,0,0-5.43-1.2,11.71,11.71,0,0,0-8.07,3,13.62,13.62,0,0,0-3.72,6.59Z"/><path d="M1031.78,583.71v44.18h-4v-5.48a17.54,17.54,0,0,1-5.79,4.72,16.16,16.16,0,0,1-18.57-3.33,16.46,16.46,0,0,1-4.79-11.93,16.16,16.16,0,0,1,4.83-11.78,15.78,15.78,0,0,1,11.63-4.89,15,15,0,0,1,7.11,1.67,16.08,16.08,0,0,1,5.58,5V583.71Zm-16.39,15.44a12.35,12.35,0,0,0-10.93,6.41,12.92,12.92,0,0,0,0,12.88,12.59,12.59,0,0,0,4.63,4.78,12.17,12.17,0,0,0,6.25,1.71,12.8,12.8,0,0,0,6.38-1.69,11.93,11.93,0,0,0,4.64-4.6,13.14,13.14,0,0,0,1.62-6.52,12.68,12.68,0,0,0-3.64-9.25A12.07,12.07,0,0,0,1015.39,599.15Z"/><path d="M104.5,655.71v44.18h-4v-5.48a17.61,17.61,0,0,1-5.78,4.72,15.72,15.72,0,0,1-7,1.58A15.54,15.54,0,0,1,76.1,695.8a16.46,16.46,0,0,1-4.79-11.93,16.13,16.13,0,0,1,4.84-11.78,15.76,15.76,0,0,1,11.63-4.89,15,15,0,0,1,7.1,1.67,16.08,16.08,0,0,1,5.58,5V655.71ZM88.11,671.15a12.35,12.35,0,0,0-10.93,6.41,12.92,12.92,0,0,0,0,12.88,12.61,12.61,0,0,0,4.64,4.78,12.11,12.11,0,0,0,6.24,1.71,12.8,12.8,0,0,0,6.38-1.69,11.93,11.93,0,0,0,4.64-4.6,13.14,13.14,0,0,0,1.63-6.52,12.69,12.69,0,0,0-3.65-9.25A12.07,12.07,0,0,0,88.11,671.15Z"/><path d="M113.26,668h4.11V682.9a32,32,0,0,0,.58,7.5,8.39,8.39,0,0,0,3.36,4.63,10.25,10.25,0,0,0,5.91,1.7,10,10,0,0,0,5.83-1.66,8.48,8.48,0,0,0,3.3-4.35q.61-1.85.62-7.82V668h4.19v15.64c0,4.4-.52,7.71-1.54,9.93a11.77,11.77,0,0,1-4.63,5.23,16.9,16.9,0,0,1-15.53,0,11.71,11.71,0,0,1-4.66-5.27c-1-2.26-1.54-5.65-1.54-10.18Z"/><path d="M168.3,654.89a3.23,3.23,0,0,1,2.39,1,3.27,3.27,0,0,1,1,2.4,3.4,3.4,0,0,1-3.38,3.37,3.42,3.42,0,0,1-3.36-3.37,3.24,3.24,0,0,1,1-2.4A3.18,3.18,0,0,1,168.3,654.89Zm-2,13.13h4.1v31.87h-4.1Z"/><path d="M178.86,655.71H183v25.17L197.74,668h6l-17.52,15.2,18.55,16.67H199L183,685.54v14.35h-4.1Z"/><path d="M209,655.71h4.1v25.17L227.86,668h6l-17.52,15.2,18.55,16.67h-5.78l-16-14.35v14.35H209Z"/><path d="M266,689.32l3.46,1.81a18.93,18.93,0,0,1-3.93,5.39,15.55,15.55,0,0,1-5,3.12,17.31,17.31,0,0,1-6.3,1.07q-7.8,0-12.2-5.11a17.26,17.26,0,0,1-4.4-11.56,17,17,0,0,1,3.73-10.81,15.22,15.22,0,0,1,12.63-6,15.71,15.71,0,0,1,13,6.18,17.24,17.24,0,0,1,3.52,10.9H241.79a13,13,0,0,0,3.55,9.1,11.31,11.31,0,0,0,8.48,3.55,13.67,13.67,0,0,0,4.73-.84,12.67,12.67,0,0,0,3.92-2.25A19.16,19.16,0,0,0,266,689.32Zm0-8.59a13.56,13.56,0,0,0-2.39-5.24,11.34,11.34,0,0,0-4.15-3.17,12.72,12.72,0,0,0-5.43-1.2,11.66,11.66,0,0,0-8.06,3,13.55,13.55,0,0,0-3.73,6.59Z"/><path d="M294.73,655.71h4.1v18a17.51,17.51,0,0,1,5.48-4.91,13.36,13.36,0,0,1,6.47-1.62,11.32,11.32,0,0,1,6.35,1.81,10.87,10.87,0,0,1,4.08,4.88q1.32,3.06,1.32,9.6v16.4h-4.1v-15.2a39.15,39.15,0,0,0-.44-7.36,8.35,8.35,0,0,0-2.77-4.76A8.22,8.22,0,0,0,310,671a10.1,10.1,0,0,0-6.66,2.46,11.51,11.51,0,0,0-3.88,6.09,42,42,0,0,0-.59,8.67v11.69h-4.1Z"/><path d="M328.3,668h4.37l10.7,23.23L353.94,668h4.39l-14.59,31.87H343Z"/><path d="M379.66,667.2a15.77,15.77,0,0,1,12.21,5.33,17.12,17.12,0,0,1-.25,23.19,16.86,16.86,0,0,1-23.95,0,17.08,17.08,0,0,1-.25-23.16A15.77,15.77,0,0,1,379.66,667.2Zm0,4a11.83,11.83,0,0,0-8.79,3.78,12.64,12.64,0,0,0-3.68,9.14,13,13,0,0,0,1.68,6.45,11.79,11.79,0,0,0,4.52,4.61,12.85,12.85,0,0,0,12.53,0,11.88,11.88,0,0,0,4.53-4.61,13.09,13.09,0,0,0,1.67-6.45,12.61,12.61,0,0,0-3.69-9.14A11.84,11.84,0,0,0,379.65,671.21Z"/><path d="M402.31,668h4.19v4.65a14.73,14.73,0,0,1,3.95-4.11,7.79,7.79,0,0,1,4.34-1.36,7.5,7.5,0,0,1,3.63,1.08l-2.14,3.46a5.73,5.73,0,0,0-2.17-.56,5.91,5.91,0,0,0-3.95,1.69,10.58,10.58,0,0,0-2.9,5.22q-.76,2.73-.76,11v10.78h-4.19Z"/><path d="M453.72,655.71v44.18h-4v-5.48a17.54,17.54,0,0,1-5.79,4.72,16.16,16.16,0,0,1-18.57-3.33,16.46,16.46,0,0,1-4.79-11.93,16.16,16.16,0,0,1,4.83-11.78A15.78,15.78,0,0,1,437,667.2a15,15,0,0,1,7.1,1.67,16.08,16.08,0,0,1,5.58,5V655.71Zm-16.39,15.44a12.35,12.35,0,0,0-10.93,6.41,12.92,12.92,0,0,0,0,12.88,12.59,12.59,0,0,0,4.63,4.78,12.17,12.17,0,0,0,6.25,1.71,12.8,12.8,0,0,0,6.38-1.69,11.93,11.93,0,0,0,4.64-4.6,13.14,13.14,0,0,0,1.62-6.52,12.68,12.68,0,0,0-3.64-9.25A12.07,12.07,0,0,0,437.33,671.15Z"/><path d="M494.77,668v31.87h-4v-5.48a17.54,17.54,0,0,1-5.79,4.72,15.72,15.72,0,0,1-7,1.58,15.52,15.52,0,0,1-11.55-4.91,16.42,16.42,0,0,1-4.79-11.93,16.16,16.16,0,0,1,4.83-11.78A15.76,15.76,0,0,1,478,667.2a14.94,14.94,0,0,1,7.1,1.67,16.19,16.19,0,0,1,5.59,5V668Zm-16.39,3.13a12.35,12.35,0,0,0-10.93,6.41,12.95,12.95,0,0,0,0,12.88,12.61,12.61,0,0,0,4.64,4.78,12.12,12.12,0,0,0,6.25,1.71,12.83,12.83,0,0,0,6.38-1.69,12,12,0,0,0,4.64-4.6,13.14,13.14,0,0,0,1.62-6.52,12.72,12.72,0,0,0-3.64-9.25A12.07,12.07,0,0,0,478.38,671.15Z"/><path d="M504,668h4.1v5.71a17.22,17.22,0,0,1,5.45-4.91,13.42,13.42,0,0,1,6.5-1.62,11.29,11.29,0,0,1,6.34,1.81,10.77,10.77,0,0,1,4.09,4.9q1.32,3.08,1.32,9.58v16.4h-4.1v-15.2a36.93,36.93,0,0,0-.46-7.36,8.1,8.1,0,0,0-2.73-4.76,8.3,8.3,0,0,0-5.28-1.59,10.1,10.1,0,0,0-6.66,2.46,11.53,11.53,0,0,0-3.89,6.09,42.51,42.51,0,0,0-.58,8.67v11.69H504Z"/><path d="M589,655.71v44.18h-4v-5.48a17.51,17.51,0,0,1-5.78,4.72,15.72,15.72,0,0,1-7,1.58,15.55,15.55,0,0,1-11.56-4.91,16.46,16.46,0,0,1-4.79-11.93,16.13,16.13,0,0,1,4.84-11.78,15.76,15.76,0,0,1,11.63-4.89,14.94,14.94,0,0,1,7.1,1.67,16.08,16.08,0,0,1,5.58,5V655.71Zm-16.39,15.44a12.36,12.36,0,0,0-10.94,6.41,12.92,12.92,0,0,0,0,12.88,12.61,12.61,0,0,0,4.64,4.78,12.12,12.12,0,0,0,6.25,1.71,12.83,12.83,0,0,0,6.38-1.69,12,12,0,0,0,4.63-4.6,13,13,0,0,0,1.63-6.52,12.69,12.69,0,0,0-3.65-9.25A12,12,0,0,0,572.63,671.15Z"/><path d="M597.78,668h4.1V682.9a32,32,0,0,0,.58,7.5,8.39,8.39,0,0,0,3.36,4.63,10.26,10.26,0,0,0,5.92,1.7,9.93,9.93,0,0,0,5.82-1.66,8.48,8.48,0,0,0,3.3-4.35q.61-1.85.62-7.82V668h4.19v15.64c0,4.4-.52,7.71-1.54,9.93a11.77,11.77,0,0,1-4.63,5.23,14.61,14.61,0,0,1-7.75,1.89,14.8,14.8,0,0,1-7.78-1.89,11.71,11.71,0,0,1-4.66-5.27q-1.53-3.39-1.53-10.18Z"/><path d="M667.42,671.5l-2.64,2.73q-3.3-3.19-6.43-3.2a4.86,4.86,0,0,0-3.43,1.32,4.08,4.08,0,0,0-1.42,3.08,4.58,4.58,0,0,0,1.17,3,16.75,16.75,0,0,0,4.94,3.37q4.57,2.37,6.22,4.57a8.28,8.28,0,0,1,1.61,5,9,9,0,0,1-2.75,6.65,9.45,9.45,0,0,1-6.9,2.72,12.09,12.09,0,0,1-5.27-1.2,11.44,11.44,0,0,1-4.15-3.31l2.58-2.93c2.09,2.36,4.32,3.55,6.67,3.55a6,6,0,0,0,4.2-1.59,4.89,4.89,0,0,0,1.73-3.72,4.73,4.73,0,0,0-1.15-3.13,18.33,18.33,0,0,0-5.16-3.4q-4.32-2.22-5.88-4.4a8.3,8.3,0,0,1-1.55-5,8,8,0,0,1,2.48-6,8.63,8.63,0,0,1,6.26-2.4Q663,667.2,667.42,671.5Z"/><path d="M674.65,655.71h4.1v25.17L693.53,668h6L682,683.22l18.55,16.67h-5.77l-16.06-14.35v14.35h-4.1Z"/><path d="M736.56,668v31.87h-4v-5.48a17.51,17.51,0,0,1-5.78,4.72,15.72,15.72,0,0,1-7,1.58,15.55,15.55,0,0,1-11.56-4.91,16.46,16.46,0,0,1-4.79-11.93,16.13,16.13,0,0,1,4.84-11.78,15.76,15.76,0,0,1,11.63-4.89,15,15,0,0,1,7.1,1.67,16.08,16.08,0,0,1,5.58,5V668Zm-16.4,3.13a12.35,12.35,0,0,0-10.93,6.41,12.92,12.92,0,0,0,0,12.88,12.61,12.61,0,0,0,4.64,4.78,12.11,12.11,0,0,0,6.24,1.71,12.8,12.8,0,0,0,6.38-1.69,11.93,11.93,0,0,0,4.64-4.6,13.14,13.14,0,0,0,1.63-6.52,12.69,12.69,0,0,0-3.65-9.25A12.07,12.07,0,0,0,720.16,671.15Z"/><path d="M745.17,655.71h4.1v44.18h-4.1Z"/><path d="M772.85,668H777v4.65a14.75,14.75,0,0,1,4-4.11,7.78,7.78,0,0,1,4.33-1.36,7.51,7.51,0,0,1,3.64,1.08l-2.14,3.46a5.73,5.73,0,0,0-2.17-.56,5.89,5.89,0,0,0-3.95,1.69,10.58,10.58,0,0,0-2.9,5.22q-.76,2.73-.77,11v10.78h-4.19Z"/><path d="M819.29,689.32l3.46,1.81a18.93,18.93,0,0,1-3.93,5.39,15.55,15.55,0,0,1-5,3.12,17.31,17.31,0,0,1-6.3,1.07q-7.8,0-12.2-5.11A17.26,17.26,0,0,1,790.9,684a17,17,0,0,1,3.73-10.81,15.22,15.22,0,0,1,12.63-6,15.71,15.71,0,0,1,13,6.18,17.24,17.24,0,0,1,3.52,10.9H795.12a13,13,0,0,0,3.55,9.1,11.31,11.31,0,0,0,8.48,3.55,13.67,13.67,0,0,0,4.73-.84,12.67,12.67,0,0,0,3.92-2.25A18.9,18.9,0,0,0,819.29,689.32Zm0-8.59a13.56,13.56,0,0,0-2.39-5.24,11.34,11.34,0,0,0-4.15-3.17,12.72,12.72,0,0,0-5.43-1.2,11.66,11.66,0,0,0-8.06,3,13.55,13.55,0,0,0-3.73,6.59Z"/><path d="M863.21,668v31.87h-4.05v-5.48a17.51,17.51,0,0,1-5.78,4.72,15.72,15.72,0,0,1-7,1.58,15.55,15.55,0,0,1-11.56-4.91A16.46,16.46,0,0,1,830,683.87a16.13,16.13,0,0,1,4.84-11.78,15.76,15.76,0,0,1,11.63-4.89,15,15,0,0,1,7.1,1.67,16.08,16.08,0,0,1,5.58,5V668Zm-16.4,3.13a12.35,12.35,0,0,0-10.93,6.41,12.92,12.92,0,0,0,0,12.88,12.61,12.61,0,0,0,4.64,4.78,12.12,12.12,0,0,0,6.25,1.71,12.79,12.79,0,0,0,6.37-1.69,11.93,11.93,0,0,0,4.64-4.6,13,13,0,0,0,1.63-6.52,12.69,12.69,0,0,0-3.65-9.25A12.07,12.07,0,0,0,846.81,671.15Z"/><path d="M899.92,668H904v25.4q0,6.71-1.18,9.81a12.75,12.75,0,0,1-5.59,6.77,18.42,18.42,0,0,1-9.58,2.37,22,22,0,0,1-7.37-1.16A14.73,14.73,0,0,1,875,708.1a18.89,18.89,0,0,1-3.78-5.72h4.46a11.75,11.75,0,0,0,4.69,4.69,15.17,15.17,0,0,0,7.13,1.52,14.73,14.73,0,0,0,7.08-1.56,9.53,9.53,0,0,0,4.12-3.93c.82-1.57,1.24-4.12,1.24-7.63v-1.64a15.57,15.57,0,0,1-5.67,4.49,16.39,16.39,0,0,1-7.09,1.57,16.63,16.63,0,0,1-8.27-2.18,15.44,15.44,0,0,1-6-5.88,16,16,0,0,1-2.12-8.11,16.58,16.58,0,0,1,16.49-16.52,15.25,15.25,0,0,1,6.67,1.48,18.43,18.43,0,0,1,6,4.87Zm-12.1,3.13a12.9,12.9,0,0,0-6.48,1.69,12.25,12.25,0,0,0-4.69,4.65,12.8,12.8,0,0,0-1.7,6.43,11.64,11.64,0,0,0,3.52,8.68,13.88,13.88,0,0,0,18.21,0,12,12,0,0,0,3.44-8.94,13,13,0,0,0-1.58-6.43,11.66,11.66,0,0,0-4.48-4.47A12.54,12.54,0,0,0,887.82,671.15Z"/><path d="M939.64,689.32l3.46,1.81a18.74,18.74,0,0,1-3.93,5.39,15.55,15.55,0,0,1-5,3.12,17.27,17.27,0,0,1-6.3,1.07q-7.8,0-12.2-5.11a17.26,17.26,0,0,1-4.4-11.56A17,17,0,0,1,915,673.23a15.22,15.22,0,0,1,12.64-6,15.71,15.71,0,0,1,13,6.18,17.24,17.24,0,0,1,3.52,10.9H915.47a13,13,0,0,0,3.55,9.1,11.31,11.31,0,0,0,8.48,3.55,13.67,13.67,0,0,0,4.73-.84,12.55,12.55,0,0,0,3.92-2.25A18.9,18.9,0,0,0,939.64,689.32Zm0-8.59a13.56,13.56,0,0,0-2.39-5.24,11.34,11.34,0,0,0-4.15-3.17,12.72,12.72,0,0,0-5.43-1.2,11.68,11.68,0,0,0-8.06,3,13.55,13.55,0,0,0-3.73,6.59Z"/><path d="M950.25,668h4.19v4.65a14.73,14.73,0,0,1,3.95-4.11,7.79,7.79,0,0,1,4.34-1.36,7.5,7.5,0,0,1,3.63,1.08l-2.14,3.46a5.73,5.73,0,0,0-2.17-.56,5.91,5.91,0,0,0-3.95,1.69,10.58,10.58,0,0,0-2.9,5.22q-.76,2.73-.76,11v10.78h-4.19Z"/><path d="M996.68,689.32l3.46,1.81a18.56,18.56,0,0,1-3.93,5.39,15.61,15.61,0,0,1-5,3.12,17.36,17.36,0,0,1-6.31,1.07q-7.8,0-12.2-5.11a17.26,17.26,0,0,1-4.4-11.56A17.08,17.08,0,0,1,972,673.23a15.23,15.23,0,0,1,12.64-6,15.74,15.74,0,0,1,13,6.18,17.29,17.29,0,0,1,3.51,10.9H972.51a13,13,0,0,0,3.55,9.1,11.32,11.32,0,0,0,8.48,3.55,13.77,13.77,0,0,0,4.74-.84,12.61,12.61,0,0,0,3.91-2.25A18.9,18.9,0,0,0,996.68,689.32Zm0-8.59a13.41,13.41,0,0,0-2.39-5.24,11.25,11.25,0,0,0-4.15-3.17,12.72,12.72,0,0,0-5.43-1.2,11.7,11.7,0,0,0-8.06,3,13.62,13.62,0,0,0-3.73,6.59Z"/><path d="M1013.35,693.45a3.47,3.47,0,0,1,2.55,1,3.65,3.65,0,0,1,0,5.14,3.57,3.57,0,0,1-5.1,0,3.62,3.62,0,0,1,2.55-6.19Z"/><path d="M82.36,755.59H91a49.52,49.52,0,0,1,10,.64,11,11,0,0,1,6,3.74,10.7,10.7,0,0,1,2.35,7.1,10.86,10.86,0,0,1-2.29,7.11,11.22,11.22,0,0,1-6.3,3.76q-2.92.7-11,.7H86.67v20H82.36Zm4.31,4.22v14.61l7.29.09a19,19,0,0,0,6.48-.8,6.62,6.62,0,0,0,3.22-2.6,7.22,7.22,0,0,0,1.17-4,7.13,7.13,0,0,0-1.17-4,6.45,6.45,0,0,0-3.09-2.55,18.49,18.49,0,0,0-6.28-.76Z"/><path d="M149,766.81v31.87h-4V793.2a17.61,17.61,0,0,1-5.78,4.72,16.19,16.19,0,0,1-18.58-3.32,16.5,16.5,0,0,1-4.79-11.94,16.13,16.13,0,0,1,4.84-11.78A15.75,15.75,0,0,1,132.26,766a15,15,0,0,1,7.1,1.67,16.08,16.08,0,0,1,5.58,5v-5.86Zm-16.39,3.13a12.41,12.41,0,0,0-10.93,6.41,12.92,12.92,0,0,0,0,12.88,12.47,12.47,0,0,0,4.64,4.78,12.11,12.11,0,0,0,6.24,1.71,12.8,12.8,0,0,0,6.38-1.69,11.93,11.93,0,0,0,4.64-4.6,13.12,13.12,0,0,0,1.63-6.52,12.69,12.69,0,0,0-3.65-9.25A12.07,12.07,0,0,0,132.59,769.94Zm.52-20.8A6.25,6.25,0,1,1,128.7,751,6,6,0,0,1,133.11,749.14Zm0,3a3.21,3.21,0,1,0,0,6.42,3,3,0,0,0,2.25-.95,3.19,3.19,0,0,0,0-4.52A3,3,0,0,0,133.08,752.13Z"/><path d="M203.46,747H213.9q8.47,0,12.22,1.56a12.45,12.45,0,0,1,5.91,5.06,15.68,15.68,0,0,1,2.16,8.39,14.06,14.06,0,0,1-2.83,9,14.72,14.72,0,0,1-7.68,5q-2.85.81-10.37.81v21.9h-9.85Zm9.85,20.21h3.13a16.64,16.64,0,0,0,5.13-.53,4.55,4.55,0,0,0,2.27-1.74,5.12,5.12,0,0,0,.82-2.95,4.7,4.7,0,0,0-2.32-4.37q-1.68-1-6.26-1h-2.77Z"/><path d="M240.52,760.43h8.22v4.82a10.36,10.36,0,0,1,3.55-4.33,8.62,8.62,0,0,1,4.86-1.47,9.06,9.06,0,0,1,3.9,1l-3,8.26a6.6,6.6,0,0,0-2.78-.84q-2.21,0-3.74,2.74T250,781.35l0,1.86v15.47h-9.52Z"/><path d="M269.54,744.68a5.88,5.88,0,0,1,4.33,1.83,6.09,6.09,0,0,1,1.8,4.43,6,6,0,0,1-1.78,4.38,6,6,0,0,1-8.65,0,6.17,6.17,0,0,1-1.8-4.48,6.13,6.13,0,0,1,6.1-6.12Zm-4.8,15.75h9.6v38.25h-9.6Z"/><path d="M279,760.43h9.78L298.4,783,308,760.43h9.73L301.5,798.68h-6.23Z"/><path d="M351.61,760.43h9.6v38.25h-9.6v-4a18.93,18.93,0,0,1-5.63,3.85,15.9,15.9,0,0,1-6.13,1.18A17,17,0,0,1,327,793.92a20.08,20.08,0,0,1-5.41-14.29q0-8.86,5.24-14.52a16.63,16.63,0,0,1,12.71-5.66,16.14,16.14,0,0,1,6.46,1.3,17.77,17.77,0,0,1,5.58,3.9Zm-10.09,7.88a9.72,9.72,0,0,0-7.39,3.14,12.59,12.59,0,0,0,.05,16.23,9.73,9.73,0,0,0,7.38,3.2,9.86,9.86,0,0,0,7.49-3.15,11.47,11.47,0,0,0,3-8.24,11.16,11.16,0,0,0-3-8.09A10,10,0,0,0,341.52,768.31Z"/><path d="M372.07,746.33h9.6v14.1h5.7v8.26h-5.7v30h-9.6v-30h-4.92v-8.26h4.92Z"/><path d="M420.69,754l-7.29,6.43q-3.84-5.34-7.82-5.34a4.73,4.73,0,0,0-3.17,1,3,3,0,0,0-1.23,2.33,4,4,0,0,0,.88,2.46,66.59,66.59,0,0,0,7.22,6.65q5.64,4.71,6.83,5.94a20.72,20.72,0,0,1,4.25,5.78,14.5,14.5,0,0,1,1.25,6,13.81,13.81,0,0,1-4.4,10.51q-4.4,4.15-11.48,4.15a17.08,17.08,0,0,1-9.62-2.7,21.46,21.46,0,0,1-7-8.51l8.27-5q3.74,6.86,8.59,6.85a6.34,6.34,0,0,0,4.26-1.47,4.42,4.42,0,0,0,1.73-3.41,5.93,5.93,0,0,0-1.3-3.52,37.93,37.93,0,0,0-5.74-5.38Q396.44,770,394,766.22a13.48,13.48,0,0,1-2.47-7.47,12.22,12.22,0,0,1,4.1-9.23,14.23,14.23,0,0,1,10.12-3.85,16,16,0,0,1,7.38,1.79A26.87,26.87,0,0,1,420.69,754Z"/><path d="M429.94,760.43h9.6v3.92a23.23,23.23,0,0,1,5.91-3.83,14.47,14.47,0,0,1,5.43-1.07,13.11,13.11,0,0,1,9.65,4q3.33,3.38,3.34,10v25.27h-9.5V781.93q0-6.84-.61-9.09a6.25,6.25,0,0,0-2.14-3.43,6,6,0,0,0-3.77-1.17,7.07,7.07,0,0,0-5,2,10.4,10.4,0,0,0-2.89,5.39,43.52,43.52,0,0,0-.42,7.76v15.34h-9.6Z"/><path d="M501.38,760.43H511v38.25h-9.59v-4a19,19,0,0,1-5.64,3.85,15.87,15.87,0,0,1-6.13,1.18,17,17,0,0,1-12.81-5.75,20,20,0,0,1-5.41-14.29q0-8.86,5.23-14.52a16.66,16.66,0,0,1,12.71-5.66,16.07,16.07,0,0,1,6.46,1.3,17.7,17.7,0,0,1,5.59,3.9Zm-10.09,7.88a9.74,9.74,0,0,0-7.4,3.14,12.57,12.57,0,0,0,.06,16.23,9.69,9.69,0,0,0,7.37,3.2,9.88,9.88,0,0,0,7.5-3.15,11.47,11.47,0,0,0,3-8.24,11.16,11.16,0,0,0-3-8.09A10,10,0,0,0,491.29,768.31Z"/><path d="M520.75,745.67h9.6V776.2l14.13-15.77h12l-16.48,18.33,18.45,19.92H546.59l-16.24-17.63v17.63h-9.6Z"/><path d="M606.08,754.5h4.1v25.17L625,766.81h6L613.46,782,632,798.68h-5.77l-16.06-14.35v14.35h-4.1Z"/><path d="M668,766.81v31.87h-4V793.2a17.51,17.51,0,0,1-5.78,4.72,16.19,16.19,0,0,1-18.58-3.32,16.5,16.5,0,0,1-4.79-11.94,16.13,16.13,0,0,1,4.84-11.78A15.76,15.76,0,0,1,651.26,766a14.94,14.94,0,0,1,7.1,1.67,16.08,16.08,0,0,1,5.58,5v-5.86Zm-16.4,3.13a12.41,12.41,0,0,0-10.93,6.41,12.92,12.92,0,0,0,0,12.88,12.54,12.54,0,0,0,4.64,4.78,12.12,12.12,0,0,0,6.25,1.71,12.76,12.76,0,0,0,6.37-1.69,11.93,11.93,0,0,0,4.64-4.6,13,13,0,0,0,1.63-6.52,12.69,12.69,0,0,0-3.65-9.25A12.05,12.05,0,0,0,651.59,769.94Z"/><path d="M677.21,766.81h4.11v5.71a17.11,17.11,0,0,1,5.45-4.91,13.42,13.42,0,0,1,6.5-1.62,11.29,11.29,0,0,1,6.34,1.81,10.82,10.82,0,0,1,4.09,4.9q1.32,3.07,1.32,9.58v16.4h-4.1v-15.2a37.81,37.81,0,0,0-.46-7.36,8.15,8.15,0,0,0-2.73-4.76,8.3,8.3,0,0,0-5.28-1.59,10.14,10.14,0,0,0-6.67,2.46,11.57,11.57,0,0,0-3.88,6.09,42.51,42.51,0,0,0-.58,8.67v11.69h-4.11Z"/><path d="M789.57,754.5v44.18h-4V793.2a17.54,17.54,0,0,1-5.79,4.72,16.17,16.17,0,0,1-18.57-3.32,16.5,16.5,0,0,1-4.79-11.94,16.16,16.16,0,0,1,4.83-11.78A15.78,15.78,0,0,1,772.84,766a15,15,0,0,1,7.11,1.67,16.08,16.08,0,0,1,5.58,5V754.5Zm-16.39,15.44a12.41,12.41,0,0,0-10.93,6.41,12.92,12.92,0,0,0,0,12.88A12.52,12.52,0,0,0,766.9,794a12.15,12.15,0,0,0,6.25,1.71,12.8,12.8,0,0,0,6.38-1.69,11.93,11.93,0,0,0,4.64-4.6,13.11,13.11,0,0,0,1.62-6.52,12.68,12.68,0,0,0-3.64-9.25A12.07,12.07,0,0,0,773.18,769.94Z"/><path d="M798.33,766.81h4.1v14.88a31.81,31.81,0,0,0,.59,7.5,8.39,8.39,0,0,0,3.36,4.63,10.21,10.21,0,0,0,5.91,1.7,10,10,0,0,0,5.83-1.66,8.48,8.48,0,0,0,3.3-4.35q.62-1.85.61-7.82V766.81h4.19v15.64q0,6.6-1.54,9.93a11.68,11.68,0,0,1-4.62,5.23,16.9,16.9,0,0,1-15.53,0,11.66,11.66,0,0,1-4.66-5.27q-1.54-3.39-1.54-10.18Z"/><path d="M911,766.81v31.87h-4V793.2a17.54,17.54,0,0,1-5.79,4.72,16.17,16.17,0,0,1-18.57-3.32,16.46,16.46,0,0,1-4.79-11.94,16.16,16.16,0,0,1,4.83-11.78A15.76,15.76,0,0,1,894.31,766a15,15,0,0,1,7.11,1.67,16.08,16.08,0,0,1,5.58,5v-5.86Zm-16.39,3.13a12.41,12.41,0,0,0-10.93,6.41,12.95,12.95,0,0,0,0,12.88,12.54,12.54,0,0,0,4.64,4.78,12.15,12.15,0,0,0,6.25,1.71A12.83,12.83,0,0,0,901,794a12,12,0,0,0,4.64-4.6,13.11,13.11,0,0,0,1.62-6.52,12.68,12.68,0,0,0-3.64-9.25A12.07,12.07,0,0,0,894.65,769.94Z"/><path d="M920.27,766.81h4.1v5.71a17.22,17.22,0,0,1,5.45-4.91,13.42,13.42,0,0,1,6.5-1.62,11.32,11.32,0,0,1,6.35,1.81,10.8,10.8,0,0,1,4.08,4.9q1.32,3.07,1.32,9.58v16.4H944v-15.2a37,37,0,0,0-.46-7.36,8,8,0,0,0-2.73-4.76,8.29,8.29,0,0,0-5.27-1.59,10.11,10.11,0,0,0-6.67,2.46,11.51,11.51,0,0,0-3.88,6.09,42.3,42.3,0,0,0-.59,8.67v11.69h-4.1Z"/><path d="M972,766a15.77,15.77,0,0,1,12.21,5.33,17.12,17.12,0,0,1-.25,23.19,16.86,16.86,0,0,1-23.95,0,17.08,17.08,0,0,1-.25-23.16A15.77,15.77,0,0,1,972,766Zm0,4a11.83,11.83,0,0,0-8.79,3.78,12.63,12.63,0,0,0-3.67,9.14,13.06,13.06,0,0,0,1.67,6.45,11.88,11.88,0,0,0,4.53,4.61,12.85,12.85,0,0,0,12.53,0,11.79,11.79,0,0,0,4.52-4.61,13,13,0,0,0,1.68-6.45,12.61,12.61,0,0,0-3.69-9.14A11.84,11.84,0,0,0,971.93,770Z"/><path d="M993.48,780.69h16.12v3.58H993.48Z"/><path d="M81.72,838.81h4.1v5.71a17.22,17.22,0,0,1,5.45-4.91,13.42,13.42,0,0,1,6.5-1.62,11.32,11.32,0,0,1,6.35,1.81,10.87,10.87,0,0,1,4.08,4.9q1.32,3.07,1.32,9.58v16.4h-4.1v-15.2a37,37,0,0,0-.46-7.36,8,8,0,0,0-2.73-4.76A8.29,8.29,0,0,0,97,841.77a10.11,10.11,0,0,0-6.67,2.46,11.51,11.51,0,0,0-3.88,6.09,42.3,42.3,0,0,0-.59,8.67v11.69h-4.1Z"/><path d="M114.88,838.81h4.34l10.95,24.54,10.64-24.54h4.37l-19,43.53h-4.33L128,868.27Z"/><path d="M150.45,838.81h4.1v5.51a15.81,15.81,0,0,1,4.4-4.46,12.45,12.45,0,0,1,6.54-1.87,10.8,10.8,0,0,1,4.4.91,9.43,9.43,0,0,1,3.4,2.41,13,13,0,0,1,2.29,4.32,15,15,0,0,1,5.12-5.69,12.05,12.05,0,0,1,6.6-2,10.27,10.27,0,0,1,5.83,1.67,9.9,9.9,0,0,1,3.76,4.66q1.23,3,1.23,9v17.4h-4.19v-17.4a23,23,0,0,0-.73-7,6.39,6.39,0,0,0-2.5-3.09,7.48,7.48,0,0,0-4.22-1.17,9.21,9.21,0,0,0-5.45,1.76,10.1,10.1,0,0,0-3.6,4.69q-1.14,2.93-1.14,9.78v12.48h-4.1V854.36c0-3.84-.24-6.46-.72-7.83a6.52,6.52,0,0,0-2.51-3.31,7.22,7.22,0,0,0-4.24-1.25,9.12,9.12,0,0,0-5.32,1.72,10.13,10.13,0,0,0-3.66,4.61q-1.19,2.9-1.19,8.88v13.5h-4.1Z"/><path d="M210.33,827h4.1v11.84h6.51v3.54h-6.51v28.33h-4.1V842.35h-5.59v-3.54h5.59Z"/><path d="M250.3,827h4.1v11.84h6.51v3.54H254.4v28.33h-4.1V842.35h-5.59v-3.54h5.59Z"/><path d="M298.82,838.81v31.87h-4.05V865.2a17.41,17.41,0,0,1-5.78,4.72,16.19,16.19,0,0,1-18.58-3.32,16.5,16.5,0,0,1-4.79-11.94,16.17,16.17,0,0,1,4.84-11.78A15.76,15.76,0,0,1,282.09,838a14.94,14.94,0,0,1,7.1,1.67,16.08,16.08,0,0,1,5.58,5v-5.86Zm-16.39,3.13a12.38,12.38,0,0,0-10.93,6.41,12.88,12.88,0,0,0,0,12.88,12.54,12.54,0,0,0,4.64,4.78,12.12,12.12,0,0,0,6.25,1.71,12.83,12.83,0,0,0,6.38-1.69,11.9,11.9,0,0,0,4.63-4.6,13,13,0,0,0,1.63-6.52,12.69,12.69,0,0,0-3.65-9.25A12,12,0,0,0,282.43,841.94Z"/><path d="M307.43,826.5h4.1v44.18h-4.1Z"/><path d="M346.89,860.11l3.46,1.81a18.56,18.56,0,0,1-3.93,5.39,15.5,15.5,0,0,1-5,3.12,17.36,17.36,0,0,1-6.31,1.07q-7.8,0-12.2-5.11a17.26,17.26,0,0,1-4.4-11.56A17.08,17.08,0,0,1,322.23,844a15.23,15.23,0,0,1,12.64-6,15.74,15.74,0,0,1,13,6.18,17.3,17.3,0,0,1,3.52,10.9H322.72a13,13,0,0,0,3.55,9.1,11.32,11.32,0,0,0,8.48,3.55,13.77,13.77,0,0,0,4.74-.84,12.61,12.61,0,0,0,3.91-2.25A18.9,18.9,0,0,0,346.89,860.11Zm0-8.59a13.41,13.41,0,0,0-2.39-5.24,11.36,11.36,0,0,0-4.15-3.17,12.71,12.71,0,0,0-5.42-1.2,11.71,11.71,0,0,0-8.07,3,13.67,13.67,0,0,0-3.73,6.59Z"/><path d="M378.66,838.81h4.1v5.51a15.94,15.94,0,0,1,4.4-4.46A12.48,12.48,0,0,1,393.7,838a10.8,10.8,0,0,1,4.4.91,9.43,9.43,0,0,1,3.4,2.41,13,13,0,0,1,2.29,4.32,15.07,15.07,0,0,1,5.12-5.69,12.05,12.05,0,0,1,6.6-2,10.27,10.27,0,0,1,5.83,1.67,9.9,9.9,0,0,1,3.76,4.66q1.23,3,1.23,9v17.4h-4.19v-17.4a23,23,0,0,0-.73-7,6.39,6.39,0,0,0-2.5-3.09,7.46,7.46,0,0,0-4.22-1.17,9.18,9.18,0,0,0-5.44,1.76,10.06,10.06,0,0,0-3.61,4.69q-1.14,2.93-1.14,9.78v12.48h-4.1V854.36c0-3.84-.24-6.46-.72-7.83a6.55,6.55,0,0,0-2.5-3.31,7.27,7.27,0,0,0-4.25-1.25,9.12,9.12,0,0,0-5.32,1.72A10.13,10.13,0,0,0,384,848.3q-1.18,2.9-1.19,8.88v13.5h-4.1Z"/><path d="M461.81,860.11l3.45,1.81a18.56,18.56,0,0,1-3.93,5.39,15.4,15.4,0,0,1-5,3.12A17.36,17.36,0,0,1,450,871.5q-7.8,0-12.2-5.11a17.25,17.25,0,0,1-4.39-11.56A17.07,17.07,0,0,1,437.14,844a15.23,15.23,0,0,1,12.64-6,15.74,15.74,0,0,1,13,6.18,17.3,17.3,0,0,1,3.52,10.9H437.64a13,13,0,0,0,3.54,9.1,11.32,11.32,0,0,0,8.48,3.55,13.77,13.77,0,0,0,4.74-.84,12.61,12.61,0,0,0,3.91-2.25A19.15,19.15,0,0,0,461.81,860.11Zm0-8.59a13.56,13.56,0,0,0-2.4-5.24,11.36,11.36,0,0,0-4.15-3.17,12.71,12.71,0,0,0-5.42-1.2,11.71,11.71,0,0,0-8.07,3,13.66,13.66,0,0,0-3.72,6.59Z"/><path d="M505.78,826.5v44.18h-4V865.2a17.54,17.54,0,0,1-5.79,4.72,16.17,16.17,0,0,1-18.57-3.32,16.46,16.46,0,0,1-4.79-11.94,16.16,16.16,0,0,1,4.83-11.78A15.76,15.76,0,0,1,489.05,838a15,15,0,0,1,7.11,1.67,16.16,16.16,0,0,1,5.58,5V826.5Zm-16.39,15.44a12.41,12.41,0,0,0-10.93,6.41,12.95,12.95,0,0,0,0,12.88,12.54,12.54,0,0,0,4.64,4.78,12.12,12.12,0,0,0,6.25,1.71,12.83,12.83,0,0,0,6.38-1.69,12,12,0,0,0,4.64-4.6,13.11,13.11,0,0,0,1.62-6.52,12.68,12.68,0,0,0-3.64-9.25A12.07,12.07,0,0,0,489.39,841.94Z"/><path d="M531.69,838.81h4.36L546.75,862l10.57-23.23h4.4l-14.59,31.87h-.77Z"/><path d="M583,838a15.76,15.76,0,0,1,12.21,5.33,17.09,17.09,0,0,1-.25,23.19,16.85,16.85,0,0,1-23.94,0,17.06,17.06,0,0,1-.25-23.16A15.73,15.73,0,0,1,583,838Zm0,4a11.83,11.83,0,0,0-8.79,3.78,12.64,12.64,0,0,0-3.68,9.14,13,13,0,0,0,1.68,6.45,11.88,11.88,0,0,0,4.53,4.61,12.84,12.84,0,0,0,12.52,0,11.88,11.88,0,0,0,4.53-4.61,13,13,0,0,0,1.68-6.45,12.61,12.61,0,0,0-3.69-9.14A11.86,11.86,0,0,0,583,842Z"/><path d="M607.21,826.5h4.11v25.17l14.77-12.86h6L614.6,854l18.54,16.67h-5.77l-16-14.35v14.35h-4.11Z"/><path d="M653.39,842.29,650.75,845c-2.19-2.13-4.34-3.19-6.43-3.19a4.81,4.81,0,0,0-3.42,1.31,4.05,4.05,0,0,0-1.43,3.08,4.58,4.58,0,0,0,1.17,3,16.56,16.56,0,0,0,4.94,3.37q4.57,2.37,6.22,4.57a8.29,8.29,0,0,1,1.62,5,9,9,0,0,1-2.76,6.65,9.45,9.45,0,0,1-6.9,2.72,12,12,0,0,1-5.26-1.2,11.39,11.39,0,0,1-4.16-3.31l2.58-2.93c2.1,2.36,4.32,3.55,6.67,3.55a6,6,0,0,0,4.2-1.59,4.89,4.89,0,0,0,1.73-3.72,4.73,4.73,0,0,0-1.15-3.13,18.33,18.33,0,0,0-5.16-3.4c-2.88-1.48-4.84-2.95-5.88-4.39a8.35,8.35,0,0,1-1.55-5,8,8,0,0,1,2.48-6,8.63,8.63,0,0,1,6.26-2.4Q648.93,838,653.39,842.29Z"/><path d="M660.65,838.81h4.1v5.71a17.22,17.22,0,0,1,5.45-4.91,13.43,13.43,0,0,1,6.51-1.62,11.31,11.31,0,0,1,6.34,1.81,10.82,10.82,0,0,1,4.09,4.9c.88,2,1.31,5.24,1.31,9.58v16.4h-4.1v-15.2a38.08,38.08,0,0,0-.45-7.36,8.11,8.11,0,0,0-2.74-4.76,8.27,8.27,0,0,0-5.27-1.59,10.12,10.12,0,0,0-6.67,2.46,11.51,11.51,0,0,0-3.88,6.09,42.3,42.3,0,0,0-.59,8.67v11.69h-4.1Z"/><path d="M724.08,860.11l3.46,1.81a18.93,18.93,0,0,1-3.93,5.39,15.55,15.55,0,0,1-5,3.12,17.31,17.31,0,0,1-6.3,1.07q-7.8,0-12.2-5.11a17.26,17.26,0,0,1-4.4-11.56A17,17,0,0,1,699.42,844a15.2,15.2,0,0,1,12.63-6,15.71,15.71,0,0,1,13,6.18,17.24,17.24,0,0,1,3.52,10.9H699.91a13,13,0,0,0,3.55,9.1,11.31,11.31,0,0,0,8.48,3.55,13.67,13.67,0,0,0,4.73-.84,12.67,12.67,0,0,0,3.92-2.25A19.16,19.16,0,0,0,724.08,860.11Zm0-8.59a13.56,13.56,0,0,0-2.39-5.24,11.44,11.44,0,0,0-4.15-3.17,12.72,12.72,0,0,0-5.43-1.2,11.71,11.71,0,0,0-8.07,3,13.66,13.66,0,0,0-3.72,6.59Z"/><path d="M771,838a15.76,15.76,0,0,1,12.21,5.33,17.09,17.09,0,0,1-.25,23.19,16.85,16.85,0,0,1-23.94,0,17.06,17.06,0,0,1-.25-23.16A15.73,15.73,0,0,1,771,838Zm0,4a11.83,11.83,0,0,0-8.79,3.78,12.64,12.64,0,0,0-3.68,9.14,13,13,0,0,0,1.68,6.45,11.88,11.88,0,0,0,4.53,4.61,12.84,12.84,0,0,0,12.52,0,11.88,11.88,0,0,0,4.53-4.61,13,13,0,0,0,1.68-6.45,12.61,12.61,0,0,0-3.69-9.14A11.86,11.86,0,0,0,771,842Z"/><path d="M795.13,838.81h4.11v5.51a15.79,15.79,0,0,1,4.39-4.46,12.51,12.51,0,0,1,6.55-1.87,10.84,10.84,0,0,1,4.4.91,9.51,9.51,0,0,1,3.4,2.41,13.13,13.13,0,0,1,2.29,4.32,15,15,0,0,1,5.11-5.69,12.11,12.11,0,0,1,6.61-2,10.3,10.3,0,0,1,5.83,1.67,9.94,9.94,0,0,1,3.75,4.66q1.23,3,1.23,9v17.4h-4.19v-17.4q0-5.13-.73-7a6.39,6.39,0,0,0-2.5-3.09,7.44,7.44,0,0,0-4.22-1.17,9.18,9.18,0,0,0-5.44,1.76,10.06,10.06,0,0,0-3.61,4.69Q821,851.35,821,858.2v12.48h-4.1V854.36c0-3.84-.24-6.46-.72-7.83a6.5,6.5,0,0,0-2.5-3.31A7.25,7.25,0,0,0,809.4,842a9.14,9.14,0,0,0-5.32,1.72,10.13,10.13,0,0,0-3.66,4.61q-1.18,2.9-1.18,8.88v13.5h-4.11Z"/><path d="M871.05,826.5h4.1v25.17l14.78-12.86h6L878.43,854,897,870.68h-5.77l-16.06-14.35v14.35h-4.1Z"/><path d="M899.64,838.81h4.19v4.66a14.66,14.66,0,0,1,4-4.12,7.79,7.79,0,0,1,4.34-1.36,7.5,7.5,0,0,1,3.63,1.08l-2.14,3.46a5.73,5.73,0,0,0-2.17-.56,5.89,5.89,0,0,0-4,1.69,10.57,10.57,0,0,0-2.9,5.23q-.76,2.72-.77,11v10.78h-4.19Z"/><path d="M934.33,838a15.77,15.77,0,0,1,12.21,5.33,17.12,17.12,0,0,1-.25,23.19,16.86,16.86,0,0,1-23.95,0,17.08,17.08,0,0,1-.25-23.16A15.77,15.77,0,0,1,934.33,838Zm0,4a11.83,11.83,0,0,0-8.79,3.78,12.64,12.64,0,0,0-3.68,9.14,13,13,0,0,0,1.68,6.45,11.75,11.75,0,0,0,4.53,4.61,12.84,12.84,0,0,0,12.52,0,11.88,11.88,0,0,0,4.53-4.61,13.06,13.06,0,0,0,1.67-6.45,12.61,12.61,0,0,0-3.69-9.14A11.84,11.84,0,0,0,934.32,842Z"/><path d="M958.59,838.81h4.1v5.86a16.37,16.37,0,0,1,5.59-5,14.79,14.79,0,0,1,7.05-1.67A15.74,15.74,0,0,1,987,842.88a16.16,16.16,0,0,1,4.83,11.78A16.49,16.49,0,0,1,987,866.6a16.13,16.13,0,0,1-18.54,3.32,17.58,17.58,0,0,1-5.77-4.72v17.14h-4.1ZM975,841.94a12,12,0,0,0-9,3.72,12.68,12.68,0,0,0-3.64,9.25,13.11,13.11,0,0,0,1.62,6.52,11.89,11.89,0,0,0,4.65,4.6,12.86,12.86,0,0,0,6.38,1.69,12.07,12.07,0,0,0,6.22-1.71,12.59,12.59,0,0,0,4.63-4.78,12.95,12.95,0,0,0,0-12.88A12.38,12.38,0,0,0,975,841.94Z"/><path d="M1003.53,862.77l4,1.88-6,11.07-2.9-1.23Z"/><path d="M97.74,914.29,95.11,917c-2.2-2.13-4.34-3.19-6.44-3.19a4.85,4.85,0,0,0-3.42,1.31,4.08,4.08,0,0,0-1.42,3.08,4.58,4.58,0,0,0,1.17,3,16.61,16.61,0,0,0,4.93,3.37c3.06,1.58,5.13,3.1,6.23,4.57a8.28,8.28,0,0,1,1.61,5A9,9,0,0,1,95,940.78a9.45,9.45,0,0,1-6.9,2.72,12.09,12.09,0,0,1-5.27-1.2A11.44,11.44,0,0,1,78.7,939l2.58-2.93c2.09,2.36,4.32,3.55,6.67,3.55A6,6,0,0,0,92.14,938a4.86,4.86,0,0,0,1.74-3.72,4.73,4.73,0,0,0-1.15-3.13,18.27,18.27,0,0,0-5.17-3.4,16.65,16.65,0,0,1-5.87-4.39,8.35,8.35,0,0,1-1.55-5,8,8,0,0,1,2.48-6,8.63,8.63,0,0,1,6.26-2.4Q93.29,910,97.74,914.29Z"/><path d="M131.85,932.11l3.45,1.81a18.56,18.56,0,0,1-3.93,5.39,15.4,15.4,0,0,1-5,3.12,17.36,17.36,0,0,1-6.31,1.07q-7.8,0-12.19-5.11a17.47,17.47,0,0,1-.68-22.37,15.23,15.23,0,0,1,12.64-6,15.74,15.74,0,0,1,13,6.18,17.24,17.24,0,0,1,3.52,10.9H107.68a13,13,0,0,0,3.54,9.1,11.32,11.32,0,0,0,8.48,3.55,13.77,13.77,0,0,0,4.74-.84,12.61,12.61,0,0,0,3.91-2.25A19.15,19.15,0,0,0,131.85,932.11Zm0-8.59a13.56,13.56,0,0,0-2.4-5.24,11.36,11.36,0,0,0-4.15-3.17,12.71,12.71,0,0,0-5.42-1.2,11.71,11.71,0,0,0-8.07,3,13.66,13.66,0,0,0-3.72,6.59Z"/><path d="M140.37,910.81h4.92l8.48,11.66,8.39-11.66h4.93l-10.85,15.06,12.23,16.81h-5l-9.7-13.39-9.65,13.39h-4.89l12.08-16.78Z"/><path d="M176.88,934.77l4,1.88-6,11.07-2.9-1.23Z"/><path d="M241.71,898.5v4a10,10,0,0,0-3.86-1,3.8,3.8,0,0,0-2,.48,2.16,2.16,0,0,0-1,1.12,15,15,0,0,0-.21,3.35v4.31h6.65v3.54h-6.65l0,28.33h-4.1V914.35h-4.19v-3.54h4.19v-5a13.56,13.56,0,0,1,.63-4.9,5,5,0,0,1,2.14-2.35,7,7,0,0,1,3.65-.9A17.51,17.51,0,0,1,241.71,898.5Z"/><path d="M275.13,916a17.12,17.12,0,0,1-.75,22.56,15.51,15.51,0,0,1-11.91,5,16.59,16.59,0,0,1-8.74-2.39l-3.4,4L247.72,943l3.33-3.94a16.29,16.29,0,0,1-5.18-12.18,17,17,0,0,1,4.62-11.76A15.36,15.36,0,0,1,262.41,910a15.88,15.88,0,0,1,10.25,3.5l3.4-4,2.71,2.18Zm-21.51,20L270,916.68a12,12,0,0,0-7.53-2.68,11.79,11.79,0,0,0-6.12,1.71,12.6,12.6,0,0,0-4.58,4.75,13.05,13.05,0,0,0-1.7,6.46,13.28,13.28,0,0,0,1,4.94A12.08,12.08,0,0,0,253.62,936Zm18.73-16.77-16,18.86a13.3,13.3,0,0,0,6.1,1.54,12.42,12.42,0,0,0,6.24-1.63,11.79,11.79,0,0,0,4.52-4.61,13.21,13.21,0,0,0-.83-14.16Z"/><path d="M286,898.5h4.1v44.18H286Z"/><path d="M325.44,932.11l3.46,1.81a18.56,18.56,0,0,1-3.93,5.39,15.61,15.61,0,0,1-5,3.12,17.36,17.36,0,0,1-6.31,1.07q-7.8,0-12.2-5.11a17.26,17.26,0,0,1-4.4-11.56A17.08,17.08,0,0,1,300.78,916a15.23,15.23,0,0,1,12.64-6,15.74,15.74,0,0,1,13,6.18,17.3,17.3,0,0,1,3.52,10.9H301.27a13,13,0,0,0,3.55,9.1,11.32,11.32,0,0,0,8.48,3.55,13.77,13.77,0,0,0,4.74-.84,12.61,12.61,0,0,0,3.91-2.25A18.9,18.9,0,0,0,325.44,932.11Zm0-8.59a13.41,13.41,0,0,0-2.39-5.24,11.36,11.36,0,0,0-4.15-3.17,12.71,12.71,0,0,0-5.42-1.2,11.71,11.71,0,0,0-8.07,3,13.67,13.67,0,0,0-3.73,6.59Z"/><path d="M337,898.5h4.1v44.18H337Z"/><path d="M365.64,914.29,363,917c-2.19-2.13-4.34-3.19-6.43-3.19a4.85,4.85,0,0,0-3.42,1.31,4.09,4.09,0,0,0-1.43,3.08,4.55,4.55,0,0,0,1.18,3,16.34,16.34,0,0,0,4.93,3.37c3.05,1.58,5.13,3.1,6.22,4.57a8.29,8.29,0,0,1,1.62,5,9,9,0,0,1-2.76,6.65,9.45,9.45,0,0,1-6.9,2.72,12,12,0,0,1-5.26-1.2A11.36,11.36,0,0,1,346.6,939l2.57-2.93c2.1,2.36,4.32,3.55,6.67,3.55A6,6,0,0,0,360,938a4.89,4.89,0,0,0,1.73-3.72,4.78,4.78,0,0,0-1.14-3.13,18.59,18.59,0,0,0-5.17-3.4c-2.88-1.48-4.84-2.95-5.87-4.39a8.29,8.29,0,0,1-1.56-5,8.05,8.05,0,0,1,2.48-6,8.64,8.64,0,0,1,6.27-2.4Q361.17,910,365.64,914.29Z"/><path d="M399.74,932.11l3.46,1.81a18.93,18.93,0,0,1-3.93,5.39,15.55,15.55,0,0,1-5,3.12,17.31,17.31,0,0,1-6.3,1.07q-7.8,0-12.2-5.11a17.26,17.26,0,0,1-4.4-11.56A17,17,0,0,1,375.08,916a15.22,15.22,0,0,1,12.63-6,15.71,15.71,0,0,1,13,6.18,17.24,17.24,0,0,1,3.52,10.9H375.57a13,13,0,0,0,3.55,9.1,11.31,11.31,0,0,0,8.48,3.55,13.67,13.67,0,0,0,4.73-.84,12.67,12.67,0,0,0,3.92-2.25A18.9,18.9,0,0,0,399.74,932.11Zm0-8.59a13.56,13.56,0,0,0-2.39-5.24,11.44,11.44,0,0,0-4.15-3.17,12.72,12.72,0,0,0-5.43-1.2,11.66,11.66,0,0,0-8.06,3,13.59,13.59,0,0,0-3.73,6.59Z"/><path d="M410.35,910.81h4.19v4.66a14.5,14.5,0,0,1,3.95-4.12,7.79,7.79,0,0,1,4.34-1.36,7.5,7.5,0,0,1,3.63,1.08l-2.14,3.46a5.73,5.73,0,0,0-2.17-.56,5.91,5.91,0,0,0-3.95,1.69,10.57,10.57,0,0,0-2.9,5.23q-.76,2.72-.76,11v10.78h-4.19Z"/><path d="M484.21,910a15.77,15.77,0,0,1,12.21,5.33,17.12,17.12,0,0,1-.25,23.19,16.86,16.86,0,0,1-23.95,0,17.08,17.08,0,0,1-.25-23.16A15.77,15.77,0,0,1,484.21,910Zm0,4a11.83,11.83,0,0,0-8.79,3.78,12.63,12.63,0,0,0-3.67,9.14,13.06,13.06,0,0,0,1.67,6.45,11.88,11.88,0,0,0,4.53,4.61,12.84,12.84,0,0,0,12.52,0,11.82,11.82,0,0,0,4.53-4.61,13,13,0,0,0,1.68-6.45,12.61,12.61,0,0,0-3.69-9.14A11.86,11.86,0,0,0,484.19,914Z"/><path d="M535.89,910.81H540v25.4q0,6.7-1.17,9.81a12.77,12.77,0,0,1-5.6,6.77,18.42,18.42,0,0,1-9.58,2.37,21.8,21.8,0,0,1-7.37-1.16,14.6,14.6,0,0,1-5.31-3.11,18.53,18.53,0,0,1-3.78-5.72h4.45a11.81,11.81,0,0,0,4.69,4.69,15,15,0,0,0,7.13,1.52,14.7,14.7,0,0,0,7.08-1.56,9.53,9.53,0,0,0,4.12-3.93c.83-1.57,1.24-4.12,1.24-7.63v-1.64a15.67,15.67,0,0,1-5.66,4.5,16.85,16.85,0,0,1-15.37-.62,15.48,15.48,0,0,1-6-5.87,16,16,0,0,1-2.11-8.12A16.56,16.56,0,0,1,523.25,910a15.21,15.21,0,0,1,6.67,1.48,18.43,18.43,0,0,1,6,4.87Zm-12.1,3.13a12.9,12.9,0,0,0-6.48,1.69,12.11,12.11,0,0,0-4.68,4.66,12.65,12.65,0,0,0-1.7,6.43,11.62,11.62,0,0,0,3.51,8.67,13.85,13.85,0,0,0,18.21,0,12,12,0,0,0,3.44-8.94,13,13,0,0,0-1.58-6.43,11.59,11.59,0,0,0-4.48-4.47A12.54,12.54,0,0,0,523.79,913.94Z"/><path d="M587.92,910.81H592v5.51a15.94,15.94,0,0,1,4.4-4.46A12.5,12.5,0,0,1,603,910a10.8,10.8,0,0,1,4.4.91,9.47,9.47,0,0,1,3.41,2.41,13,13,0,0,1,2.28,4.32,15.07,15.07,0,0,1,5.12-5.69,12.08,12.08,0,0,1,6.6-2,10.25,10.25,0,0,1,5.83,1.67,9.9,9.9,0,0,1,3.76,4.66q1.23,3,1.23,9v17.4H631.4v-17.4a23,23,0,0,0-.73-7,6.39,6.39,0,0,0-2.5-3.09A7.46,7.46,0,0,0,624,914a9.18,9.18,0,0,0-5.44,1.76,10.06,10.06,0,0,0-3.61,4.69q-1.14,2.93-1.14,9.78v12.48h-4.1V926.36c0-3.84-.24-6.46-.72-7.83a6.55,6.55,0,0,0-2.5-3.31,7.25,7.25,0,0,0-4.25-1.25,9.12,9.12,0,0,0-5.32,1.72,10.13,10.13,0,0,0-3.66,4.61q-1.19,2.9-1.19,8.88v13.5h-4.1Z"/><path d="M676,910.81v31.87h-4V937.2a17.54,17.54,0,0,1-5.79,4.72,16.19,16.19,0,0,1-18.58-3.32,16.5,16.5,0,0,1-4.79-11.94,16.17,16.17,0,0,1,4.84-11.78A15.76,15.76,0,0,1,659.26,910a14.94,14.94,0,0,1,7.1,1.67,16.19,16.19,0,0,1,5.59,5v-5.86Zm-16.39,3.13a12.41,12.41,0,0,0-10.93,6.41,12.95,12.95,0,0,0,0,12.88,12.54,12.54,0,0,0,4.64,4.78,12.12,12.12,0,0,0,6.25,1.71A12.83,12.83,0,0,0,666,938a11.9,11.9,0,0,0,4.63-4.6,13,13,0,0,0,1.63-6.52,12.72,12.72,0,0,0-3.64-9.25A12.07,12.07,0,0,0,659.6,913.94Z"/><path d="M685.22,910.81h4.1v5.71a17.22,17.22,0,0,1,5.45-4.91,13.42,13.42,0,0,1,6.5-1.62,11.29,11.29,0,0,1,6.34,1.81,10.82,10.82,0,0,1,4.09,4.9q1.32,3.07,1.32,9.58v16.4h-4.1v-15.2a37,37,0,0,0-.46-7.36,8.1,8.1,0,0,0-2.73-4.76,8.3,8.3,0,0,0-5.28-1.59,10.1,10.1,0,0,0-6.66,2.46,11.53,11.53,0,0,0-3.89,6.09,42.51,42.51,0,0,0-.58,8.67v11.69h-4.1Z"/><path d="M749.29,910.81h4.1v25.4q0,6.7-1.17,9.81a12.77,12.77,0,0,1-5.6,6.77,18.4,18.4,0,0,1-9.58,2.37,21.8,21.8,0,0,1-7.37-1.16,14.69,14.69,0,0,1-5.31-3.11,18.53,18.53,0,0,1-3.78-5.72H725a11.81,11.81,0,0,0,4.69,4.69,15.07,15.07,0,0,0,7.13,1.52,14.77,14.77,0,0,0,7.09-1.56,9.58,9.58,0,0,0,4.12-3.93c.82-1.57,1.23-4.12,1.23-7.63v-1.64a15.67,15.67,0,0,1-5.66,4.5,16.85,16.85,0,0,1-15.37-.62,15.55,15.55,0,0,1-6-5.87,16,16,0,0,1-2.11-8.12A16.56,16.56,0,0,1,736.65,910a15.21,15.21,0,0,1,6.67,1.48,18.43,18.43,0,0,1,6,4.87Zm-12.1,3.13a12.92,12.92,0,0,0-6.48,1.69,12.11,12.11,0,0,0-4.68,4.66,12.65,12.65,0,0,0-1.7,6.43,11.62,11.62,0,0,0,3.51,8.67,12.54,12.54,0,0,0,9.12,3.43,12.4,12.4,0,0,0,9.09-3.4,12,12,0,0,0,3.44-8.94,12.9,12.9,0,0,0-1.58-6.43,11.59,11.59,0,0,0-4.48-4.47A12.49,12.49,0,0,0,737.19,913.94Z"/><path d="M789,932.11l3.45,1.81a18.56,18.56,0,0,1-3.93,5.39,15.4,15.4,0,0,1-5,3.12,17.36,17.36,0,0,1-6.31,1.07q-7.8,0-12.19-5.11a17.47,17.47,0,0,1-.68-22.37A15.23,15.23,0,0,1,777,910a15.74,15.74,0,0,1,13,6.18,17.24,17.24,0,0,1,3.52,10.9H764.85a13,13,0,0,0,3.54,9.1,11.32,11.32,0,0,0,8.48,3.55,13.77,13.77,0,0,0,4.74-.84,12.61,12.61,0,0,0,3.91-2.25A19.15,19.15,0,0,0,789,932.11Zm0-8.59a13.56,13.56,0,0,0-2.4-5.24,11.36,11.36,0,0,0-4.15-3.17,12.71,12.71,0,0,0-5.42-1.2,11.71,11.71,0,0,0-8.07,3,13.66,13.66,0,0,0-3.72,6.59Z"/><path d="M872.11,910.81v31.87h-4.05V937.2a17.51,17.51,0,0,1-5.78,4.72,16.19,16.19,0,0,1-18.58-3.32,16.5,16.5,0,0,1-4.79-11.94,16.13,16.13,0,0,1,4.84-11.78A15.76,15.76,0,0,1,855.38,910a15,15,0,0,1,7.1,1.67,16.08,16.08,0,0,1,5.58,5v-5.86Zm-16.4,3.13a12.41,12.41,0,0,0-10.93,6.41,12.92,12.92,0,0,0,0,12.88,12.54,12.54,0,0,0,4.64,4.78,12.11,12.11,0,0,0,6.24,1.71,12.8,12.8,0,0,0,6.38-1.69,11.93,11.93,0,0,0,4.64-4.6,13.12,13.12,0,0,0,1.63-6.52,12.69,12.69,0,0,0-3.65-9.25A12.07,12.07,0,0,0,855.71,913.94Z"/><path d="M881.33,910.81h4.11v5.71a17.19,17.19,0,0,1,5.44-4.91,13.46,13.46,0,0,1,6.51-1.62,11.29,11.29,0,0,1,6.34,1.81,10.82,10.82,0,0,1,4.09,4.9q1.32,3.07,1.32,9.58v16.4H905v-15.2a37.81,37.81,0,0,0-.46-7.36,8.11,8.11,0,0,0-2.74-4.76,8.25,8.25,0,0,0-5.27-1.59,10.14,10.14,0,0,0-6.67,2.46,11.57,11.57,0,0,0-3.88,6.09,42.51,42.51,0,0,0-.58,8.67v11.69h-4.11Z"/><path d="M949.74,898.5v44.18h-4V937.2a17.54,17.54,0,0,1-5.79,4.72,16.17,16.17,0,0,1-18.57-3.32,16.5,16.5,0,0,1-4.79-11.94,16.16,16.16,0,0,1,4.83-11.78A15.78,15.78,0,0,1,933,910a15,15,0,0,1,7.11,1.67,16.08,16.08,0,0,1,5.58,5V898.5Zm-16.39,15.44a12.41,12.41,0,0,0-10.93,6.41,12.92,12.92,0,0,0,0,12.88,12.52,12.52,0,0,0,4.63,4.78,12.15,12.15,0,0,0,6.25,1.71A12.83,12.83,0,0,0,939.7,938a11.93,11.93,0,0,0,4.64-4.6,13.11,13.11,0,0,0,1.62-6.52,12.68,12.68,0,0,0-3.64-9.25A12.07,12.07,0,0,0,933.35,913.94Z"/><path d="M957.48,910.81h4.19v4.66a14.64,14.64,0,0,1,4-4.12A7.79,7.79,0,0,1,970,910a7.5,7.5,0,0,1,3.63,1.08l-2.14,3.46a5.73,5.73,0,0,0-2.17-.56,5.91,5.91,0,0,0-3.95,1.69,10.57,10.57,0,0,0-2.9,5.23q-.76,2.72-.76,11v10.78h-4.19Z"/><path d="M1003.91,932.11l3.46,1.81a18.56,18.56,0,0,1-3.93,5.39,15.61,15.61,0,0,1-5,3.12,17.36,17.36,0,0,1-6.31,1.07q-7.8,0-12.2-5.11a17.26,17.26,0,0,1-4.4-11.56A17,17,0,0,1,979.25,916a15.22,15.22,0,0,1,12.64-6,15.71,15.71,0,0,1,13,6.18,17.24,17.24,0,0,1,3.52,10.9H979.74a13,13,0,0,0,3.55,9.1,11.31,11.31,0,0,0,8.48,3.55,13.77,13.77,0,0,0,4.74-.84,12.61,12.61,0,0,0,3.91-2.25A18.9,18.9,0,0,0,1003.91,932.11Zm0-8.59a13.56,13.56,0,0,0-2.39-5.24,11.44,11.44,0,0,0-4.15-3.17,12.72,12.72,0,0,0-5.43-1.2,11.68,11.68,0,0,0-8.06,3,13.59,13.59,0,0,0-3.73,6.59Z"/><path d="M85.29,971h4.1v11.84H95.9v3.54H89.39v28.33h-4.1V986.35H79.7v-3.54h5.59Z"/><path d="M103.47,969.68a3.22,3.22,0,0,1,2.39,1,3.28,3.28,0,0,1,1,2.4,3.41,3.41,0,0,1-3.39,3.37,3.2,3.2,0,0,1-2.36-1,3.23,3.23,0,0,1-1-2.37,3.27,3.27,0,0,1,1-2.4A3.2,3.2,0,0,1,103.47,969.68Zm-2,13.13h4.1v31.87h-4.1Z"/><path d="M114.06,982.81h4.1v5.71a17.22,17.22,0,0,1,5.45-4.91,13.46,13.46,0,0,1,6.51-1.62,11.31,11.31,0,0,1,6.34,1.81,10.82,10.82,0,0,1,4.09,4.9q1.32,3.07,1.32,9.58v16.4h-4.11v-15.2a38.08,38.08,0,0,0-.45-7.36,8.11,8.11,0,0,0-2.74-4.76,8.25,8.25,0,0,0-5.27-1.59,10.14,10.14,0,0,0-6.67,2.46,11.57,11.57,0,0,0-3.88,6.09,42.3,42.3,0,0,0-.59,8.67v11.69h-4.1Z"/><path d="M178.13,982.81h4.11v25.4q0,6.7-1.18,9.81a12.75,12.75,0,0,1-5.59,6.77,18.42,18.42,0,0,1-9.58,2.37,21.76,21.76,0,0,1-7.37-1.16,14.73,14.73,0,0,1-5.32-3.11,18.89,18.89,0,0,1-3.78-5.72h4.46a11.75,11.75,0,0,0,4.69,4.69,15,15,0,0,0,7.13,1.52,14.73,14.73,0,0,0,7.08-1.56,9.53,9.53,0,0,0,4.12-3.93c.82-1.57,1.23-4.12,1.23-7.63v-1.64a15.58,15.58,0,0,1-5.66,4.5,16.83,16.83,0,0,1-15.36-.62,15.48,15.48,0,0,1-6-5.87,16.05,16.05,0,0,1-2.12-8.12A16.58,16.58,0,0,1,165.5,982a15.25,15.25,0,0,1,6.67,1.48,18.3,18.3,0,0,1,6,4.87ZM166,985.94a12.9,12.9,0,0,0-6.48,1.69,12.21,12.21,0,0,0-4.69,4.66,12.75,12.75,0,0,0-1.7,6.43,11.63,11.63,0,0,0,3.52,8.67,13.85,13.85,0,0,0,18.21,0,12,12,0,0,0,3.44-8.94,13,13,0,0,0-1.58-6.43,11.66,11.66,0,0,0-4.48-4.47A12.54,12.54,0,0,0,166,985.94Z"/><path d="M241.44,970.5v44.18h-4v-5.48a17.54,17.54,0,0,1-5.79,4.72A16.19,16.19,0,0,1,213,1010.6a16.5,16.5,0,0,1-4.79-11.94,16.17,16.17,0,0,1,4.84-11.78A15.76,15.76,0,0,1,224.71,982a14.94,14.94,0,0,1,7.1,1.67,16.19,16.19,0,0,1,5.59,5V970.5Zm-16.39,15.44a12.41,12.41,0,0,0-10.93,6.41,12.88,12.88,0,0,0,0,12.88,12.54,12.54,0,0,0,4.64,4.78,12.12,12.12,0,0,0,6.25,1.71,12.83,12.83,0,0,0,6.38-1.69,11.9,11.9,0,0,0,4.63-4.6,13,13,0,0,0,1.63-6.52,12.72,12.72,0,0,0-3.64-9.25A12.07,12.07,0,0,0,225.05,985.94Z"/><path d="M277.56,1004.11l3.46,1.81a18.93,18.93,0,0,1-3.93,5.39,15.55,15.55,0,0,1-5,3.12,17.27,17.27,0,0,1-6.3,1.07q-7.8,0-12.2-5.11a17.26,17.26,0,0,1-4.4-11.56A17,17,0,0,1,252.9,988a15.22,15.22,0,0,1,12.63-6,15.71,15.71,0,0,1,13,6.18,17.24,17.24,0,0,1,3.52,10.9H253.39a13,13,0,0,0,3.55,9.1,11.31,11.31,0,0,0,8.48,3.55,13.67,13.67,0,0,0,4.73-.84,12.67,12.67,0,0,0,3.92-2.25A18.9,18.9,0,0,0,277.56,1004.11Zm0-8.59a13.56,13.56,0,0,0-2.39-5.24,11.44,11.44,0,0,0-4.15-3.17,12.72,12.72,0,0,0-5.43-1.2,11.66,11.66,0,0,0-8.06,3,13.59,13.59,0,0,0-3.73,6.59Z"/><path d="M288.17,982.81h4.19v4.66a14.64,14.64,0,0,1,3.95-4.12,7.79,7.79,0,0,1,4.34-1.36,7.5,7.5,0,0,1,3.63,1.08l-2.14,3.46A5.73,5.73,0,0,0,300,986a5.91,5.91,0,0,0-4,1.69,10.57,10.57,0,0,0-2.9,5.23q-.76,2.72-.76,11v10.78h-4.19Z"/><path d="M326.33,970.5h4.11v25.17l14.77-12.86h6L333.72,998l18.54,16.67h-5.77l-16.05-14.35v14.35h-4.11Z"/><path d="M388.24,982.81v31.87h-4.05v-5.48a17.41,17.41,0,0,1-5.78,4.72,16.19,16.19,0,0,1-18.58-3.32A16.5,16.5,0,0,1,355,998.66a16.17,16.17,0,0,1,4.84-11.78A15.76,15.76,0,0,1,371.51,982a14.94,14.94,0,0,1,7.1,1.67,16.08,16.08,0,0,1,5.58,5v-5.86Zm-16.39,3.13a12.41,12.41,0,0,0-10.93,6.41,12.88,12.88,0,0,0,0,12.88,12.54,12.54,0,0,0,4.64,4.78,12.12,12.12,0,0,0,6.25,1.71,12.83,12.83,0,0,0,6.38-1.69,11.9,11.9,0,0,0,4.63-4.6,13,13,0,0,0,1.63-6.52,12.69,12.69,0,0,0-3.65-9.25A12,12,0,0,0,371.85,985.94Z"/><path d="M397.47,982.81h4.1v5.71a17.11,17.11,0,0,1,5.45-4.91,13.42,13.42,0,0,1,6.5-1.62,11.29,11.29,0,0,1,6.34,1.81,10.82,10.82,0,0,1,4.09,4.9q1.32,3.07,1.32,9.58v16.4h-4.1v-15.2a37,37,0,0,0-.46-7.36,8.1,8.1,0,0,0-2.73-4.76,8.3,8.3,0,0,0-5.28-1.59,10.1,10.1,0,0,0-6.66,2.46,11.53,11.53,0,0,0-3.89,6.09,42.51,42.51,0,0,0-.58,8.67v11.69h-4.1Z"/><path d="M449.64,982.81H454L464.7,1006l10.57-23.23h4.4l-14.59,31.87h-.77Z"/><path d="M517.81,982.81v5.77a19.57,19.57,0,0,1,6-5.16,15.23,15.23,0,0,1,6.79-1.43,15.89,15.89,0,0,1,11.91,4.82,16.87,16.87,0,0,1,4.68,12.35H518.51a13.89,13.89,0,0,0,1.82,6.4,11.83,11.83,0,0,0,4.5,4.59,12.39,12.39,0,0,0,6.19,1.57,12.23,12.23,0,0,0,6.57-1.8,15.07,15.07,0,0,0,5.06-5.73l3.52,1.76a16.25,16.25,0,0,1-6.24,7,17.21,17.21,0,0,1-9.2,2.5,16,16,0,0,1-8.06-2,16.36,16.36,0,0,1-4.86-4.48v5.68h-3.75v-5.89a18.84,18.84,0,0,1-5.07,4.66,15,15,0,0,1-7.7,2,15.7,15.7,0,0,1-11.6-4.9A17.22,17.22,0,0,1,487,990.26a16.1,16.1,0,0,1,6-6,15.8,15.8,0,0,1,8.14-2.24,15.52,15.52,0,0,1,7.73,2,19.88,19.88,0,0,1,5.16,4.6v-5.8Zm-16.36,3.13a12.41,12.41,0,0,0-6.26,1.67,11.75,11.75,0,0,0-4.55,4.62,13.17,13.17,0,0,0-1.63,6.52,12.51,12.51,0,0,0,3.64,9.18,12.74,12.74,0,0,0,17.88,0,12.47,12.47,0,0,0,3.62-9.16,13.6,13.6,0,0,0-1.57-6.68,11.49,11.49,0,0,0-4.58-4.51A13.3,13.3,0,0,0,501.45,985.94Zm41.2,9.67a13.57,13.57,0,0,0-2.37-5.3,11.22,11.22,0,0,0-4.13-3.18,12.33,12.33,0,0,0-5.3-1.22,12.49,12.49,0,0,0-5.41,1.25,12,12,0,0,0-4.29,3.31,12.82,12.82,0,0,0-2.4,5.14Z"/><path d="M553.79,982.81H558v4.66a14.64,14.64,0,0,1,3.95-4.12,7.79,7.79,0,0,1,4.34-1.36,7.5,7.5,0,0,1,3.63,1.08l-2.14,3.46a5.73,5.73,0,0,0-2.17-.56,5.91,5.91,0,0,0-4,1.69,10.57,10.57,0,0,0-2.9,5.23q-.76,2.72-.76,11v10.78h-4.19Z"/><path d="M600.22,1004.11l3.46,1.81a18.56,18.56,0,0,1-3.93,5.39,15.61,15.61,0,0,1-5,3.12,17.36,17.36,0,0,1-6.31,1.07q-7.8,0-12.2-5.11a17.26,17.26,0,0,1-4.4-11.56A17.08,17.08,0,0,1,575.56,988a15.23,15.23,0,0,1,12.64-6,15.74,15.74,0,0,1,13,6.18,17.29,17.29,0,0,1,3.51,10.9H576.05a13,13,0,0,0,3.55,9.1,11.32,11.32,0,0,0,8.48,3.55,13.77,13.77,0,0,0,4.74-.84,12.61,12.61,0,0,0,3.91-2.25A18.9,18.9,0,0,0,600.22,1004.11Zm0-8.59a13.41,13.41,0,0,0-2.39-5.24,11.36,11.36,0,0,0-4.15-3.17,12.72,12.72,0,0,0-5.43-1.2,11.7,11.7,0,0,0-8.06,3,13.67,13.67,0,0,0-3.73,6.59Z"/><path d="M631,982.81h4.1v5.86a16.37,16.37,0,0,1,5.59-5,14.77,14.77,0,0,1,7-1.67,15.74,15.74,0,0,1,11.62,4.89,16.16,16.16,0,0,1,4.83,11.78,16.5,16.5,0,0,1-4.79,11.94,16.13,16.13,0,0,1-18.54,3.32,17.55,17.55,0,0,1-5.76-4.72v17.14H631Zm16.4,3.13a12.06,12.06,0,0,0-9,3.72,12.72,12.72,0,0,0-3.64,9.25,13,13,0,0,0,1.63,6.52,11.93,11.93,0,0,0,4.64,4.6,12.89,12.89,0,0,0,6.39,1.69,12.06,12.06,0,0,0,6.21-1.71,12.52,12.52,0,0,0,4.63-4.78,12.92,12.92,0,0,0,0-12.88,12.38,12.38,0,0,0-10.92-6.41Z"/><path d="M673.33,969.68a3.23,3.23,0,0,1,2.39,1,3.27,3.27,0,0,1,1,2.4,3.37,3.37,0,0,1-6.74,0,3.27,3.27,0,0,1,1-2.4A3.2,3.2,0,0,1,673.33,969.68Zm-2,13.13h4.1v31.87h-4.1Z"/><path d="M683.92,982.81H688v5.71a17.22,17.22,0,0,1,5.45-4.91A13.42,13.42,0,0,1,700,982a11.29,11.29,0,0,1,6.34,1.81,10.82,10.82,0,0,1,4.09,4.9q1.32,3.07,1.32,9.58v16.4h-4.1v-15.2a37,37,0,0,0-.46-7.36,8.1,8.1,0,0,0-2.73-4.76,8.3,8.3,0,0,0-5.28-1.59,10.1,10.1,0,0,0-6.66,2.46,11.53,11.53,0,0,0-3.89,6.09A42.51,42.51,0,0,0,688,1003v11.69h-4.1Z"/><path d="M719.89,970.5H724v44.18h-4.1Z"/><path d="M733.94,969.68a3.23,3.23,0,0,1,2.39,1,3.27,3.27,0,0,1,1,2.4,3.4,3.4,0,0,1-3.38,3.37,3.2,3.2,0,0,1-2.36-1,3.23,3.23,0,0,1-1-2.37,3.27,3.27,0,0,1,1-2.4A3.2,3.2,0,0,1,733.94,969.68Zm-2,13.13H736v31.87H731.9Z"/><path d="M772,982.81h4.1v25.4q0,6.7-1.17,9.81a12.75,12.75,0,0,1-5.59,6.77,18.42,18.42,0,0,1-9.58,2.37,21.76,21.76,0,0,1-7.37-1.16,14.73,14.73,0,0,1-5.32-3.11,18.53,18.53,0,0,1-3.78-5.72h4.45a11.83,11.83,0,0,0,4.7,4.69,15,15,0,0,0,7.13,1.52,14.76,14.76,0,0,0,7.08-1.56,9.53,9.53,0,0,0,4.12-3.93c.82-1.57,1.23-4.12,1.23-7.63v-1.64a15.58,15.58,0,0,1-5.66,4.5,16.85,16.85,0,0,1-15.37-.62,15.55,15.55,0,0,1-6-5.87,16,16,0,0,1-2.11-8.12A16.58,16.58,0,0,1,759.37,982a15.18,15.18,0,0,1,6.67,1.48,18.23,18.23,0,0,1,6,4.87Zm-12.1,3.13a12.89,12.89,0,0,0-6.47,1.69,12.14,12.14,0,0,0-4.69,4.66,12.75,12.75,0,0,0-1.7,6.43,11.59,11.59,0,0,0,3.52,8.67,12.51,12.51,0,0,0,9.11,3.43,12.38,12.38,0,0,0,9.09-3.4,12,12,0,0,0,3.45-8.94,13,13,0,0,0-1.58-6.43,11.62,11.62,0,0,0-4.49-4.47A12.49,12.49,0,0,0,759.91,985.94Z"/><path d="M788.48,971h4.1v11.84h6.5v3.54h-6.5v28.33h-4.1V986.35h-5.6v-3.54h5.6Z"/><path d="M855.59,982.81v31.87h-4v-5.48a17.54,17.54,0,0,1-5.79,4.72,16.17,16.17,0,0,1-18.57-3.32,16.46,16.46,0,0,1-4.79-11.94,16.16,16.16,0,0,1,4.83-11.78A15.76,15.76,0,0,1,838.86,982a15,15,0,0,1,7.11,1.67,16.25,16.25,0,0,1,5.58,5v-5.86Zm-16.39,3.13a12.41,12.41,0,0,0-10.93,6.41,12.95,12.95,0,0,0,0,12.88,12.54,12.54,0,0,0,4.64,4.78,12.12,12.12,0,0,0,6.25,1.71,12.83,12.83,0,0,0,6.38-1.69,12,12,0,0,0,4.64-4.6,13.11,13.11,0,0,0,1.62-6.52,12.68,12.68,0,0,0-3.64-9.25A12.07,12.07,0,0,0,839.2,985.94Z"/><path d="M868.39,971h4.1v11.84H879v3.54h-6.51v28.33h-4.1V986.35H862.8v-3.54h5.59Z"/><path d="M907.32,971h4.1v11.84h6.51v3.54h-6.51v28.33h-4.1V986.35h-5.6v-3.54h5.6Z"/><path d="M955.84,982.81v31.87h-4.05v-5.48a17.51,17.51,0,0,1-5.78,4.72,16.19,16.19,0,0,1-18.58-3.32,16.5,16.5,0,0,1-4.79-11.94,16.13,16.13,0,0,1,4.84-11.78A15.76,15.76,0,0,1,939.11,982a15,15,0,0,1,7.1,1.67,16.08,16.08,0,0,1,5.58,5v-5.86Zm-16.4,3.13a12.41,12.41,0,0,0-10.93,6.41,12.92,12.92,0,0,0,0,12.88,12.54,12.54,0,0,0,4.64,4.78,12.12,12.12,0,0,0,6.25,1.71,12.79,12.79,0,0,0,6.37-1.69,11.93,11.93,0,0,0,4.64-4.6,13,13,0,0,0,1.63-6.52,12.69,12.69,0,0,0-3.65-9.25A12.07,12.07,0,0,0,939.44,985.94Z"/><path d="M964.45,970.5h4.1v44.18h-4.1Z"/><path d="M1003.91,1004.11l3.46,1.81a18.56,18.56,0,0,1-3.93,5.39,15.61,15.61,0,0,1-5,3.12,17.36,17.36,0,0,1-6.31,1.07q-7.8,0-12.2-5.11a17.26,17.26,0,0,1-4.4-11.56A17,17,0,0,1,979.25,988a15.22,15.22,0,0,1,12.64-6,15.71,15.71,0,0,1,13,6.18,17.24,17.24,0,0,1,3.52,10.9H979.74a13,13,0,0,0,3.55,9.1,11.31,11.31,0,0,0,8.48,3.55,13.77,13.77,0,0,0,4.74-.84,12.61,12.61,0,0,0,3.91-2.25A18.9,18.9,0,0,0,1003.91,1004.11Zm0-8.59a13.56,13.56,0,0,0-2.39-5.24,11.44,11.44,0,0,0-4.15-3.17,12.72,12.72,0,0,0-5.43-1.2,11.68,11.68,0,0,0-8.06,3,13.59,13.59,0,0,0-3.73,6.59Z"/><path d="M507.89,1054a15.77,15.77,0,0,1,12.21,5.33,17.12,17.12,0,0,1-.25,23.19,16.86,16.86,0,0,1-24,0,17.07,17.07,0,0,1-.24-23.16A15.73,15.73,0,0,1,507.89,1054Zm0,4a11.83,11.83,0,0,0-8.79,3.78,12.64,12.64,0,0,0-3.68,9.14,13,13,0,0,0,1.68,6.45,11.88,11.88,0,0,0,4.53,4.61,12.84,12.84,0,0,0,12.52,0,11.88,11.88,0,0,0,4.53-4.61,13,13,0,0,0,1.67-6.45,12.61,12.61,0,0,0-3.69-9.14A11.84,11.84,0,0,0,507.88,1058Z"/><path d="M532.06,1054.81h4.11v5.51a15.79,15.79,0,0,1,4.39-4.46,12.51,12.51,0,0,1,6.55-1.87,10.76,10.76,0,0,1,4.39.91,9.47,9.47,0,0,1,3.41,2.41,13.13,13.13,0,0,1,2.29,4.32,15,15,0,0,1,5.11-5.69,12.11,12.11,0,0,1,6.61-2,10.3,10.3,0,0,1,5.83,1.67,9.94,9.94,0,0,1,3.75,4.66q1.23,3,1.23,9v17.4h-4.19v-17.4q0-5.13-.73-7a6.39,6.39,0,0,0-2.5-3.09,7.44,7.44,0,0,0-4.22-1.17,9.18,9.18,0,0,0-5.44,1.76,10.06,10.06,0,0,0-3.61,4.69q-1.14,2.92-1.14,9.78v12.48h-4.1v-16.32c0-3.84-.24-6.46-.72-7.83a6.55,6.55,0,0,0-2.5-3.31,7.25,7.25,0,0,0-4.25-1.25,9.14,9.14,0,0,0-5.32,1.72,10.13,10.13,0,0,0-3.66,4.61q-1.19,2.9-1.18,8.88v13.5h-4.11Z"/><path d="M592.88,1080.24a3.63,3.63,0,0,1,2.55,6.19,3.57,3.57,0,0,1-5.1,0,3.62,3.62,0,0,1,2.55-6.19Z"/></svg>
